<?xml version="1.0" encoding="UTF-8" standalone="no"?>
<!DOCTYPE svg PUBLIC "-//W3C//DTD SVG 1.1//EN"
 "http://www.w3.org/Graphics/SVG/1.1/DTD/svg11.dtd">
<!-- Generated by graphviz version 2.40.1 (20161225.0304)
 -->
<!-- Title: G Pages: 1 -->
<svg width="416pt" height="147pt"
 viewBox="0.00 0.00 416.07 146.90" xmlns="http://www.w3.org/2000/svg" xmlns:xlink="http://www.w3.org/1999/xlink">
<g id="graph0" class="graph" transform="scale(1 1) rotate(0) translate(4 142.9037)">
<title>G</title>
<polygon fill="#ffffff" stroke="transparent" points="-4,4 -4,-142.9037 412.0666,-142.9037 412.0666,4 -4,4"/>
<!-- 0 -->
<g id="node1" class="node">
<title>0</title>
<ellipse fill="none" stroke="#000000" cx="165.3377" cy="-18" rx="33.2948" ry="18"/>
<text text-anchor="middle" x="165.3377" y="-14.3" font-family="Times,serif" font-size="14.00" fill="#000000">C | C</text>
</g>
<!-- 1 -->
<g id="node2" class="node">
<title>1</title>
<ellipse fill="none" stroke="#000000" cx="225.5283" cy="-70.3513" rx="33.2948" ry="18"/>
<text text-anchor="middle" x="225.5283" y="-66.6513" font-family="Times,serif" font-size="14.00" fill="#000000">C | C</text>
</g>
<!-- 0&#45;&#45;1 -->
<g id="edge1" class="edge">
<title>0&#45;&#45;1</title>
<path fill="none" stroke="#000000" d="M183.0713,-33.424C190.839,-40.18 199.9365,-48.0926 207.7134,-54.8567"/>
<text text-anchor="middle" x="179.8924" y="-47.9403" font-family="Times,serif" font-size="14.00" fill="#000000">&#45; | =</text>
</g>
<!-- 5 -->
<g id="node6" class="node">
<title>5</title>
<ellipse fill="none" stroke="#000000" cx="103.6513" cy="-68.5806" rx="32.4942" ry="18"/>
<text text-anchor="middle" x="103.6513" y="-64.8806" font-family="Times,serif" font-size="14.00" fill="#000000">S | S</text>
</g>
<!-- 0&#45;&#45;5 -->
<g id="edge2" class="edge">
<title>0&#45;&#45;5</title>
<path fill="none" stroke="#000000" stroke-dasharray="5,2" d="M146.8297,-33.1758C139.0222,-39.5777 129.9522,-47.0148 122.1462,-53.4155"/>
<text text-anchor="middle" x="131.9879" y="-32.0957" font-family="Times,serif" font-size="14.00" fill="#000000">&#45;</text>
</g>
<!-- 2 -->
<g id="node3" class="node">
<title>2</title>
<ellipse fill="none" stroke="#000000" cx="300.8189" cy="-70.012" rx="33.2948" ry="18"/>
<text text-anchor="middle" x="300.8189" y="-66.312" font-family="Times,serif" font-size="14.00" fill="#000000">C | C</text>
</g>
<!-- 1&#45;&#45;2 -->
<g id="edge3" class="edge">
<title>1&#45;&#45;2</title>
<path fill="none" stroke="#000000" d="M258.771,-70.2015C261.6073,-70.1887 264.4774,-70.1758 267.3157,-70.163"/>
<text text-anchor="middle" x="263.0434" y="-58.9822" font-family="Times,serif" font-size="14.00" fill="#000000">&#45; | &#45;</text>
</g>
<!-- 4 -->
<g id="node5" class="node">
<title>4</title>
<ellipse fill="none" stroke="#000000" cx="163.7767" cy="-120.9037" rx="35.194" ry="18"/>
<text text-anchor="middle" x="163.7767" y="-117.2037" font-family="Times,serif" font-size="14.00" fill="#000000">H | H</text>
</g>
<!-- 1&#45;&#45;4 -->
<g id="edge4" class="edge">
<title>1&#45;&#45;4</title>
<path fill="none" stroke="#000000" stroke-dasharray="5,2" d="M207.0008,-85.5187C199.3272,-91.8006 190.4352,-99.08 182.7186,-105.3971"/>
<text text-anchor="middle" x="192.3597" y="-84.2579" font-family="Times,serif" font-size="14.00" fill="#000000">&#45;</text>
</g>
<!-- 3 -->
<g id="node4" class="node">
<title>3</title>
<ellipse fill="none" stroke="#000000" cx="372.9697" cy="-81.0692" rx="35.194" ry="18"/>
<text text-anchor="middle" x="372.9697" y="-77.3692" font-family="Times,serif" font-size="14.00" fill="#000000">N | N</text>
</g>
<!-- 2&#45;&#45;3 -->
<g id="edge5" class="edge">
<title>2&#45;&#45;3</title>
<path fill="none" stroke="#000000" d="M333.0957,-74.9585C335.0468,-75.2575 337.0129,-75.5588 338.9707,-75.8588"/>
<text text-anchor="middle" x="355.0332" y="-64.2086" font-family="Times,serif" font-size="14.00" fill="#000000"># | #</text>
</g>
<!-- 4&#45;&#45;5 -->
<g id="edge6" class="edge">
<title>4&#45;&#45;5</title>
<path fill="none" stroke="#000000" stroke-dasharray="1,5" d="M145.7371,-105.205C137.9888,-98.4623 128.9648,-90.6093 121.2644,-83.9081"/>
<text text-anchor="middle" x="136.0007" y="-83.3566" font-family="Times,serif" font-size="14.00" fill="#000000">&#45;</text>
</g>
<!-- 6 -->
<g id="node7" class="node">
<title>6</title>
<ellipse fill="none" stroke="#000000" cx="28.5975" cy="-67.4757" rx="28.6953" ry="18"/>
<text text-anchor="middle" x="28.5975" y="-63.7757" font-family="Times,serif" font-size="14.00" fill="#000000">* | *</text>
</g>
<!-- 5&#45;&#45;6 -->
<g id="edge7" class="edge">
<title>5&#45;&#45;6</title>
<path fill="none" stroke="#000000" d="M70.9499,-68.0992C66.3676,-68.0317 61.6876,-67.9628 57.1895,-67.8966"/>
<text text-anchor="middle" x="64.0697" y="-56.7979" font-family="Times,serif" font-size="14.00" fill="#000000">&#45; | &#45;</text>
</g>
</g>
</svg>
