<?xml version="1.0" encoding="UTF-8" standalone="no"?>
<!DOCTYPE svg PUBLIC "-//W3C//DTD SVG 1.1//EN"
 "http://www.w3.org/Graphics/SVG/1.1/DTD/svg11.dtd">
<!-- Generated by graphviz version 2.40.1 (20161225.0304)
 -->
<!-- Title: G Pages: 1 -->
<svg width="387pt" height="375pt"
 viewBox="0.00 0.00 387.09 375.38" xmlns="http://www.w3.org/2000/svg" xmlns:xlink="http://www.w3.org/1999/xlink">
<g id="graph0" class="graph" transform="scale(1 1) rotate(0) translate(4 371.3755)">
<title>G</title>
<polygon fill="#ffffff" stroke="transparent" points="-4,4 -4,-371.3755 383.0859,-371.3755 383.0859,4 -4,4"/>
<!-- 0 -->
<g id="node1" class="node">
<title>0</title>
<ellipse fill="none" stroke="#000000" cx="193.3495" cy="-194.3239" rx="33.2948" ry="18"/>
<text text-anchor="middle" x="193.3495" y="-190.6239" font-family="Times,serif" font-size="14.00" fill="#000000">C | C</text>
</g>
<!-- 1 -->
<g id="node2" class="node">
<title>1</title>
<ellipse fill="none" stroke="#000000" cx="261.0138" cy="-233.2244" rx="35.194" ry="18"/>
<text text-anchor="middle" x="261.0138" y="-229.5244" font-family="Times,serif" font-size="14.00" fill="#000000">H | H</text>
</g>
<!-- 0&#45;&#45;1 -->
<g id="edge1" class="edge">
<title>0&#45;&#45;1</title>
<path fill="none" stroke="#000000" d="M216.2575,-207.4938C223.0053,-211.3732 230.4026,-215.6259 237.2055,-219.5369"/>
<text text-anchor="middle" x="238.2315" y="-202.3154" font-family="Times,serif" font-size="14.00" fill="#000000">&#45; | &#45;</text>
</g>
<!-- 2 -->
<g id="node3" class="node">
<title>2</title>
<ellipse fill="none" stroke="#000000" cx="102.2906" cy="-172.6447" rx="28.6953" ry="18"/>
<text text-anchor="middle" x="102.2906" y="-168.9447" font-family="Times,serif" font-size="14.00" fill="#000000">* | *</text>
</g>
<!-- 0&#45;&#45;2 -->
<g id="edge2" class="edge">
<title>0&#45;&#45;2</title>
<path fill="none" stroke="#000000" stroke-dasharray="5,2" d="M162.7749,-187.0447C151.9248,-184.4616 139.8,-181.5749 129.2714,-179.0683"/>
<text text-anchor="middle" x="143.5232" y="-186.8565" font-family="Times,serif" font-size="14.00" fill="#000000">&#45;</text>
</g>
<!-- 3 -->
<g id="node4" class="node">
<title>3</title>
<ellipse fill="none" stroke="#000000" cx="175.5594" cy="-279.9381" rx="35.194" ry="18"/>
<text text-anchor="middle" x="175.5594" y="-276.2381" font-family="Times,serif" font-size="14.00" fill="#000000">N | N</text>
</g>
<!-- 0&#45;&#45;3 -->
<g id="edge3" class="edge">
<title>0&#45;&#45;3</title>
<path fill="none" stroke="#000000" d="M189.5766,-212.4805C186.5576,-227.0095 182.3444,-247.2856 179.3268,-261.8077"/>
<text text-anchor="middle" x="172.9517" y="-240.9441" font-family="Times,serif" font-size="14.00" fill="#000000">&#45; | &#45;</text>
</g>
<!-- 6 -->
<g id="node7" class="node">
<title>6</title>
<ellipse fill="none" stroke="#000000" cx="263.8228" cy="-132.5944" rx="33.2948" ry="18"/>
<text text-anchor="middle" x="263.8228" y="-128.8944" font-family="Times,serif" font-size="14.00" fill="#000000">C | C</text>
</g>
<!-- 0&#45;&#45;6 -->
<g id="edge4" class="edge">
<title>0&#45;&#45;6</title>
<path fill="none" stroke="#000000" stroke-dasharray="5,2" d="M211.1329,-178.7469C221.8976,-169.3178 235.5699,-157.3419 246.2892,-147.9525"/>
<text text-anchor="middle" x="226.211" y="-152.1497" font-family="Times,serif" font-size="14.00" fill="#000000">&#45;</text>
</g>
<!-- 12 -->
<g id="node13" class="node">
<title>12</title>
<ellipse fill="none" stroke="#000000" cx="171.4144" cy="-121.7669" rx="33.2948" ry="18"/>
<text text-anchor="middle" x="171.4144" y="-118.0669" font-family="Times,serif" font-size="14.00" fill="#000000">C | C</text>
</g>
<!-- 0&#45;&#45;12 -->
<g id="edge5" class="edge">
<title>0&#45;&#45;12</title>
<path fill="none" stroke="#000000" stroke-dasharray="1,5" d="M187.9273,-176.3884C184.5526,-165.2257 180.2274,-150.9187 176.8502,-139.7474"/>
<text text-anchor="middle" x="179.8887" y="-161.8679" font-family="Times,serif" font-size="14.00" fill="#000000">&#45;</text>
</g>
<!-- 13 -->
<g id="node14" class="node">
<title>13</title>
<ellipse fill="none" stroke="#000000" cx="131.1511" cy="-152.9289" rx="33.2948" ry="18"/>
<text text-anchor="middle" x="131.1511" y="-149.2289" font-family="Times,serif" font-size="14.00" fill="#000000">C | C</text>
</g>
<!-- 0&#45;&#45;13 -->
<g id="edge6" class="edge">
<title>0&#45;&#45;13</title>
<path fill="none" stroke="#000000" stroke-dasharray="1,5" d="M172.2919,-180.3095C165.8073,-175.9937 158.6701,-171.2437 152.1869,-166.929"/>
<text text-anchor="middle" x="159.7394" y="-177.4192" font-family="Times,serif" font-size="14.00" fill="#000000">&#45;</text>
</g>
<!-- 10 -->
<g id="node11" class="node">
<title>10</title>
<ellipse fill="none" stroke="#000000" cx="105.3111" cy="-83.5972" rx="33.2948" ry="18"/>
<text text-anchor="middle" x="105.3111" y="-79.8972" font-family="Times,serif" font-size="14.00" fill="#000000">C | C</text>
</g>
<!-- 2&#45;&#45;10 -->
<g id="edge7" class="edge">
<title>2&#45;&#45;10</title>
<path fill="none" stroke="#000000" stroke-dasharray="1,5" d="M102.9018,-154.6246C103.4224,-139.2769 104.1671,-117.3232 104.6904,-101.8961"/>
<text text-anchor="middle" x="101.2961" y="-117.0604" font-family="Times,serif" font-size="14.00" fill="#000000">&#45;</text>
</g>
<!-- 4 -->
<g id="node5" class="node">
<title>4</title>
<ellipse fill="none" stroke="#000000" cx="218.0888" cy="-349.3755" rx="35.194" ry="18"/>
<text text-anchor="middle" x="218.0888" y="-345.6755" font-family="Times,serif" font-size="14.00" fill="#000000">H | H</text>
</g>
<!-- 3&#45;&#45;4 -->
<g id="edge8" class="edge">
<title>3&#45;&#45;4</title>
<path fill="none" stroke="#000000" d="M186.2914,-297.4601C192.7877,-308.0666 201.0387,-321.5379 207.5076,-332.0996"/>
<text text-anchor="middle" x="185.3995" y="-318.5799" font-family="Times,serif" font-size="14.00" fill="#000000">&#45; | &#45;</text>
</g>
<!-- 5 -->
<g id="node6" class="node">
<title>5</title>
<ellipse fill="none" stroke="#000000" cx="115.563" cy="-335.2066" rx="28.6953" ry="18"/>
<text text-anchor="middle" x="115.563" y="-331.5066" font-family="Times,serif" font-size="14.00" fill="#000000">* | *</text>
</g>
<!-- 3&#45;&#45;5 -->
<g id="edge9" class="edge">
<title>3&#45;&#45;5</title>
<path fill="none" stroke="#000000" d="M158.206,-295.924C149.9001,-303.5754 140.0112,-312.685 131.8483,-320.2046"/>
<text text-anchor="middle" x="156.5272" y="-311.8643" font-family="Times,serif" font-size="14.00" fill="#000000">&#45; | &#45;</text>
</g>
<!-- 7 -->
<g id="node8" class="node">
<title>7</title>
<ellipse fill="none" stroke="#000000" cx="344.6389" cy="-126.6558" rx="34.394" ry="18"/>
<text text-anchor="middle" x="344.6389" y="-122.9558" font-family="Times,serif" font-size="14.00" fill="#000000">O | O</text>
</g>
<!-- 6&#45;&#45;7 -->
<g id="edge10" class="edge">
<title>6&#45;&#45;7</title>
<path fill="none" stroke="#000000" d="M296.6938,-130.179C301.2386,-129.845 305.9153,-129.5013 310.4827,-129.1657"/>
<text text-anchor="middle" x="303.5883" y="-118.4723" font-family="Times,serif" font-size="14.00" fill="#000000">= | =</text>
</g>
<!-- 8 -->
<g id="node9" class="node">
<title>8</title>
<ellipse fill="none" stroke="#000000" cx="245.5418" cy="-45.8974" rx="34.394" ry="18"/>
<text text-anchor="middle" x="245.5418" y="-42.1974" font-family="Times,serif" font-size="14.00" fill="#000000">O | O</text>
</g>
<!-- 6&#45;&#45;8 -->
<g id="edge11" class="edge">
<title>6&#45;&#45;8</title>
<path fill="none" stroke="#000000" d="M260.035,-114.6307C256.8975,-99.7514 252.4609,-78.711 249.3248,-63.838"/>
<text text-anchor="middle" x="239.1799" y="-93.0344" font-family="Times,serif" font-size="14.00" fill="#000000">&#45; | =</text>
</g>
<!-- 9 -->
<g id="node10" class="node">
<title>9</title>
<ellipse fill="none" stroke="#000000" cx="164.8181" cy="-18" rx="35.194" ry="18"/>
<text text-anchor="middle" x="164.8181" y="-14.3" font-family="Times,serif" font-size="14.00" fill="#000000">H | H</text>
</g>
<!-- 8&#45;&#45;9 -->
<g id="edge12" class="edge">
<title>8&#45;&#45;9</title>
<path fill="none" stroke="#000000" stroke-dasharray="5,2" d="M216.3987,-35.8258C209.173,-33.3286 201.4262,-30.6514 194.1896,-28.1505"/>
<text text-anchor="middle" x="202.7942" y="-35.7881" font-family="Times,serif" font-size="14.00" fill="#000000">&#45;</text>
</g>
<!-- 9&#45;&#45;10 -->
<g id="edge13" class="edge">
<title>9&#45;&#45;10</title>
<path fill="none" stroke="#000000" stroke-dasharray="1,5" d="M149.802,-34.5529C140.7123,-44.5729 129.1676,-57.2991 120.1163,-67.2768"/>
<text text-anchor="middle" x="132.4592" y="-54.7149" font-family="Times,serif" font-size="14.00" fill="#000000">&#45;</text>
</g>
<!-- 11 -->
<g id="node12" class="node">
<title>11</title>
<ellipse fill="none" stroke="#000000" cx="34.4469" cy="-48.2543" rx="34.394" ry="18"/>
<text text-anchor="middle" x="34.4469" y="-44.5543" font-family="Times,serif" font-size="14.00" fill="#000000">O | O</text>
</g>
<!-- 10&#45;&#45;11 -->
<g id="edge14" class="edge">
<title>10&#45;&#45;11</title>
<path fill="none" stroke="#000000" d="M80.5263,-71.236C73.821,-67.8918 66.5549,-64.2678 59.8179,-60.9078"/>
<text text-anchor="middle" x="51.1721" y="-69.8719" font-family="Times,serif" font-size="14.00" fill="#000000">= | =</text>
</g>
<!-- 10&#45;&#45;12 -->
<g id="edge15" class="edge">
<title>10&#45;&#45;12</title>
<path fill="none" stroke="#000000" stroke-dasharray="5,2" d="M128.0601,-96.733C134.6331,-100.5284 141.81,-104.6726 148.3991,-108.4772"/>
<text text-anchor="middle" x="135.7296" y="-106.4051" font-family="Times,serif" font-size="14.00" fill="#000000">&#45;</text>
</g>
<!-- 10&#45;&#45;13 -->
<g id="edge16" class="edge">
<title>10&#45;&#45;13</title>
<path fill="none" stroke="#000000" stroke-dasharray="5,2" d="M111.9656,-101.4519C115.7936,-111.7231 120.59,-124.5924 124.4294,-134.8938"/>
<text text-anchor="middle" x="115.6975" y="-121.9728" font-family="Times,serif" font-size="14.00" fill="#000000">&#45;</text>
</g>
</g>
</svg>
