<?xml version="1.0" encoding="UTF-8" standalone="no"?>
<!DOCTYPE svg PUBLIC "-//W3C//DTD SVG 1.1//EN"
 "http://www.w3.org/Graphics/SVG/1.1/DTD/svg11.dtd">
<!-- Generated by graphviz version 2.40.1 (20161225.0304)
 -->
<!-- Title: G Pages: 1 -->
<svg width="400pt" height="412pt"
 viewBox="0.00 0.00 400.09 412.09" xmlns="http://www.w3.org/2000/svg" xmlns:xlink="http://www.w3.org/1999/xlink">
<g id="graph0" class="graph" transform="scale(1 1) rotate(0) translate(4 408.0948)">
<title>G</title>
<polygon fill="#ffffff" stroke="transparent" points="-4,4 -4,-408.0948 396.0877,-408.0948 396.0877,4 -4,4"/>
<!-- 0 -->
<g id="node1" class="node">
<title>0</title>
<ellipse fill="none" stroke="#000000" cx="148.7423" cy="-160.062" rx="33.2948" ry="18"/>
<text text-anchor="middle" x="148.7423" y="-156.362" font-family="Times,serif" font-size="14.00" fill="#000000">C | C</text>
</g>
<!-- 1 -->
<g id="node2" class="node">
<title>1</title>
<ellipse fill="none" stroke="#000000" cx="231.469" cy="-170.6453" rx="34.394" ry="18"/>
<text text-anchor="middle" x="231.469" y="-166.9453" font-family="Times,serif" font-size="14.00" fill="#000000">O | O</text>
</g>
<!-- 0&#45;&#45;1 -->
<g id="edge1" class="edge">
<title>0&#45;&#45;1</title>
<path fill="none" stroke="#000000" d="M181.4381,-164.2448C186.8577,-164.9381 192.4851,-165.658 197.9253,-166.354"/>
<text text-anchor="middle" x="189.6817" y="-154.0994" font-family="Times,serif" font-size="14.00" fill="#000000">= | =</text>
</g>
<!-- 2 -->
<g id="node3" class="node">
<title>2</title>
<ellipse fill="none" stroke="#000000" cx="81.3906" cy="-110.7189" rx="42.7926" ry="18"/>
<text text-anchor="middle" x="81.3906" y="-107.0189" font-family="Times,serif" font-size="14.00" fill="#000000">H | H+</text>
</g>
<!-- 0&#45;&#45;2 -->
<g id="edge2" class="edge">
<title>0&#45;&#45;2</title>
<path fill="none" stroke="#000000" stroke-dasharray="5,2" d="M128.8988,-145.5243C120.6726,-139.4976 111.1136,-132.4945 102.7358,-126.3567"/>
<text text-anchor="middle" x="113.3173" y="-139.7405" font-family="Times,serif" font-size="14.00" fill="#000000">&#45;</text>
</g>
<!-- 3 -->
<g id="node4" class="node">
<title>3</title>
<ellipse fill="none" stroke="#000000" cx="117.9826" cy="-239.4498" rx="33.2948" ry="18"/>
<text text-anchor="middle" x="117.9826" y="-235.7498" font-family="Times,serif" font-size="14.00" fill="#000000">C | C</text>
</g>
<!-- 0&#45;&#45;3 -->
<g id="edge3" class="edge">
<title>0&#45;&#45;3</title>
<path fill="none" stroke="#000000" d="M141.9157,-177.6807C136.8537,-190.7453 129.9791,-208.4879 124.8965,-221.6058"/>
<text text-anchor="middle" x="121.9061" y="-203.4433" font-family="Times,serif" font-size="14.00" fill="#000000">&#45; | &#45;</text>
</g>
<!-- 9 -->
<g id="node10" class="node">
<title>9</title>
<ellipse fill="none" stroke="#000000" cx="178.6145" cy="-85.4348" rx="38.1938" ry="18"/>
<text text-anchor="middle" x="178.6145" y="-81.7348" font-family="Times,serif" font-size="14.00" fill="#000000">O&#45; | O</text>
</g>
<!-- 0&#45;&#45;9 -->
<g id="edge4" class="edge">
<title>0&#45;&#45;9</title>
<path fill="none" stroke="#000000" stroke-dasharray="1,5" d="M155.8216,-142.3764C160.5489,-130.5664 166.7443,-115.0892 171.4825,-103.2521"/>
<text text-anchor="middle" x="161.152" y="-126.6142" font-family="Times,serif" font-size="14.00" fill="#000000">&#45;</text>
</g>
<!-- 4 -->
<g id="node5" class="node">
<title>4</title>
<ellipse fill="none" stroke="#000000" cx="89.673" cy="-314.6539" rx="34.394" ry="18"/>
<text text-anchor="middle" x="89.673" y="-310.9539" font-family="Times,serif" font-size="14.00" fill="#000000">O | O</text>
</g>
<!-- 3&#45;&#45;4 -->
<g id="edge5" class="edge">
<title>3&#45;&#45;4</title>
<path fill="none" stroke="#000000" d="M111.2736,-257.2721C106.7609,-269.2603 100.8365,-284.9982 96.3339,-296.9595"/>
<text text-anchor="middle" x="92.3037" y="-280.9158" font-family="Times,serif" font-size="14.00" fill="#000000">&#45; | &#45;</text>
</g>
<!-- 6 -->
<g id="node7" class="node">
<title>6</title>
<ellipse fill="none" stroke="#000000" cx="35.0969" cy="-230.0163" rx="35.194" ry="18"/>
<text text-anchor="middle" x="35.0969" y="-226.3163" font-family="Times,serif" font-size="14.00" fill="#000000">H | H</text>
</g>
<!-- 3&#45;&#45;6 -->
<g id="edge6" class="edge">
<title>3&#45;&#45;6</title>
<path fill="none" stroke="#000000" d="M85.224,-235.7214C80.0655,-235.1343 74.719,-234.5258 69.5241,-233.9346"/>
<text text-anchor="middle" x="77.374" y="-223.628" font-family="Times,serif" font-size="14.00" fill="#000000">&#45; | &#45;</text>
</g>
<!-- 7 -->
<g id="node8" class="node">
<title>7</title>
<ellipse fill="none" stroke="#000000" cx="186.0202" cy="-287.8337" rx="28.6953" ry="18"/>
<text text-anchor="middle" x="186.0202" y="-284.1337" font-family="Times,serif" font-size="14.00" fill="#000000">* | *</text>
</g>
<!-- 3&#45;&#45;7 -->
<g id="edge7" class="edge">
<title>3&#45;&#45;7</title>
<path fill="none" stroke="#000000" d="M138.3961,-253.9666C147.4771,-260.4244 158.1068,-267.9835 167.017,-274.3199"/>
<text text-anchor="middle" x="141.2066" y="-267.9432" font-family="Times,serif" font-size="14.00" fill="#000000">&#45; | &#45;</text>
</g>
<!-- 5 -->
<g id="node6" class="node">
<title>5</title>
<ellipse fill="none" stroke="#000000" cx="65.0984" cy="-386.0948" rx="35.194" ry="18"/>
<text text-anchor="middle" x="65.0984" y="-382.3948" font-family="Times,serif" font-size="14.00" fill="#000000">H | H</text>
</g>
<!-- 4&#45;&#45;5 -->
<g id="edge8" class="edge">
<title>4&#45;&#45;5</title>
<path fill="none" stroke="#000000" d="M83.4718,-332.6814C79.718,-343.594 74.9504,-357.454 71.2125,-368.3205"/>
<text text-anchor="middle" x="65.8421" y="-354.301" font-family="Times,serif" font-size="14.00" fill="#000000">&#45; | &#45;</text>
</g>
<!-- 8 -->
<g id="node9" class="node">
<title>8</title>
<ellipse fill="none" stroke="#000000" cx="322.5438" cy="-110" rx="69.5877" ry="18"/>
<text text-anchor="middle" x="322.5438" y="-106.3" font-family="Times,serif" font-size="14.00" fill="#000000">Fe3+ | Fe2+</text>
</g>
<!-- 10 -->
<g id="node11" class="node">
<title>10</title>
<ellipse fill="none" stroke="#000000" cx="212.7873" cy="-18" rx="35.194" ry="18"/>
<text text-anchor="middle" x="212.7873" y="-14.3" font-family="Times,serif" font-size="14.00" fill="#000000">H | H</text>
</g>
<!-- 9&#45;&#45;10 -->
<g id="edge9" class="edge">
<title>9&#45;&#45;10</title>
<path fill="none" stroke="#000000" d="M187.593,-67.7171C192.5763,-57.8833 198.7575,-45.6858 203.7501,-35.8335"/>
<text text-anchor="middle" x="184.1716" y="-55.5753" font-family="Times,serif" font-size="14.00" fill="#000000">&#45; | &#45;</text>
</g>
<!-- 11 -->
<g id="node12" class="node">
<title>11</title>
<ellipse fill="none" stroke="#000000" cx="322.5438" cy="-248" rx="69.5877" ry="18"/>
<text text-anchor="middle" x="322.5438" y="-244.3" font-family="Times,serif" font-size="14.00" fill="#000000">Fe3+ | Fe2+</text>
</g>
</g>
</svg>
