<?xml version="1.0" encoding="UTF-8" standalone="no"?>
<!DOCTYPE svg PUBLIC "-//W3C//DTD SVG 1.1//EN"
 "http://www.w3.org/Graphics/SVG/1.1/DTD/svg11.dtd">
<!-- Generated by graphviz version 2.40.1 (20161225.0304)
 -->
<!-- Title: G Pages: 1 -->
<svg width="417pt" height="349pt"
 viewBox="0.00 0.00 417.09 348.62" xmlns="http://www.w3.org/2000/svg" xmlns:xlink="http://www.w3.org/1999/xlink">
<g id="graph0" class="graph" transform="scale(1 1) rotate(0) translate(4 344.622)">
<title>G</title>
<polygon fill="#ffffff" stroke="transparent" points="-4,4 -4,-344.622 413.0877,-344.622 413.0877,4 -4,4"/>
<!-- 0 -->
<g id="node1" class="node">
<title>0</title>
<ellipse fill="none" stroke="#000000" cx="108.7405" cy="-108.6088" rx="33.2948" ry="18"/>
<text text-anchor="middle" x="108.7405" y="-104.9088" font-family="Times,serif" font-size="14.00" fill="#000000">C | C</text>
</g>
<!-- 1 -->
<g id="node2" class="node">
<title>1</title>
<ellipse fill="none" stroke="#000000" cx="63.3327" cy="-157.3293" rx="35.194" ry="18"/>
<text text-anchor="middle" x="63.3327" y="-153.6293" font-family="Times,serif" font-size="14.00" fill="#000000">H | H</text>
</g>
<!-- 0&#45;&#45;1 -->
<g id="edge1" class="edge">
<title>0&#45;&#45;1</title>
<path fill="none" stroke="#000000" stroke-dasharray="5,2" d="M93.6203,-124.832C88.7701,-130.0361 83.3982,-135.7999 78.5416,-141.0108"/>
<text text-anchor="middle" x="83.581" y="-136.7214" font-family="Times,serif" font-size="14.00" fill="#000000">&#45;</text>
</g>
<!-- 2 -->
<g id="node3" class="node">
<title>2</title>
<ellipse fill="none" stroke="#000000" cx="51.7768" cy="-50.5016" rx="34.394" ry="18"/>
<text text-anchor="middle" x="51.7768" y="-46.8016" font-family="Times,serif" font-size="14.00" fill="#000000">O | O</text>
</g>
<!-- 0&#45;&#45;2 -->
<g id="edge2" class="edge">
<title>0&#45;&#45;2</title>
<path fill="none" stroke="#000000" d="M92.8729,-92.4227C84.9721,-84.3633 75.4484,-74.6484 67.5593,-66.6009"/>
<text text-anchor="middle" x="61.2161" y="-83.3118" font-family="Times,serif" font-size="14.00" fill="#000000">= | =</text>
</g>
<!-- 4 -->
<g id="node5" class="node">
<title>4</title>
<ellipse fill="none" stroke="#000000" cx="128.2687" cy="-191.0948" rx="33.2948" ry="18"/>
<text text-anchor="middle" x="128.2687" y="-187.3948" font-family="Times,serif" font-size="14.00" fill="#000000">C | C</text>
</g>
<!-- 0&#45;&#45;4 -->
<g id="edge3" class="edge">
<title>0&#45;&#45;4</title>
<path fill="none" stroke="#000000" d="M112.9778,-126.507C116.2534,-140.3427 120.7662,-159.4047 124.0396,-173.2315"/>
<text text-anchor="middle" x="130.0087" y="-153.6693" font-family="Times,serif" font-size="14.00" fill="#000000">&#45; | &#45;</text>
</g>
<!-- 9 -->
<g id="node10" class="node">
<title>9</title>
<ellipse fill="none" stroke="#000000" cx="188.4692" cy="-91.0279" rx="34.394" ry="18"/>
<text text-anchor="middle" x="188.4692" y="-87.3279" font-family="Times,serif" font-size="14.00" fill="#000000">O | O</text>
</g>
<!-- 0&#45;&#45;9 -->
<g id="edge4" class="edge">
<title>0&#45;&#45;9</title>
<path fill="none" stroke="#000000" stroke-dasharray="1,5" d="M139.794,-101.7612C145.3032,-100.5464 151.0487,-99.2795 156.5806,-98.0596"/>
<text text-anchor="middle" x="145.6873" y="-103.7104" font-family="Times,serif" font-size="14.00" fill="#000000">&#45;</text>
</g>
<!-- 1&#45;&#45;4 -->
<g id="edge5" class="edge">
<title>1&#45;&#45;4</title>
<path fill="none" stroke="#000000" stroke-dasharray="1,5" d="M88.2529,-170.2874C93.4032,-172.9655 98.8218,-175.783 103.9504,-178.4498"/>
<text text-anchor="middle" x="93.6016" y="-178.1686" font-family="Times,serif" font-size="14.00" fill="#000000">&#45;</text>
</g>
<!-- 3 -->
<g id="node4" class="node">
<title>3</title>
<ellipse fill="none" stroke="#000000" cx="182.6229" cy="-233.8528" rx="35.194" ry="18"/>
<text text-anchor="middle" x="182.6229" y="-230.1528" font-family="Times,serif" font-size="14.00" fill="#000000">H | H</text>
</g>
<!-- 3&#45;&#45;4 -->
<g id="edge6" class="edge">
<title>3&#45;&#45;4</title>
<path fill="none" stroke="#000000" stroke-dasharray="5,2" d="M163.3066,-218.6576C158.0583,-214.5289 152.382,-210.0637 147.1576,-205.9539"/>
<text text-anchor="middle" x="152.7321" y="-216.1057" font-family="Times,serif" font-size="14.00" fill="#000000">&#45;</text>
</g>
<!-- 8 -->
<g id="node9" class="node">
<title>8</title>
<ellipse fill="none" stroke="#000000" cx="213.2776" cy="-171.9503" rx="33.2948" ry="18"/>
<text text-anchor="middle" x="213.2776" y="-168.2503" font-family="Times,serif" font-size="14.00" fill="#000000">C | C</text>
</g>
<!-- 3&#45;&#45;8 -->
<g id="edge7" class="edge">
<title>3&#45;&#45;8</title>
<path fill="none" stroke="#000000" stroke-dasharray="1,5" d="M191.3253,-216.2796C195.5027,-207.8439 200.4932,-197.7666 204.6595,-189.3532"/>
<text text-anchor="middle" x="195.4924" y="-191.6164" font-family="Times,serif" font-size="14.00" fill="#000000">&#45;</text>
</g>
<!-- 5 -->
<g id="node6" class="node">
<title>5</title>
<ellipse fill="none" stroke="#000000" cx="81.598" cy="-262.4677" rx="34.394" ry="18"/>
<text text-anchor="middle" x="81.598" y="-258.7677" font-family="Times,serif" font-size="14.00" fill="#000000">O | O</text>
</g>
<!-- 4&#45;&#45;5 -->
<g id="edge8" class="edge">
<title>4&#45;&#45;5</title>
<path fill="none" stroke="#000000" d="M116.971,-208.3722C109.6332,-219.5938 100.1086,-234.1596 92.7916,-245.3494"/>
<text text-anchor="middle" x="93.3813" y="-230.6608" font-family="Times,serif" font-size="14.00" fill="#000000">&#45; | &#45;</text>
</g>
<!-- 4&#45;&#45;8 -->
<g id="edge9" class="edge">
<title>4&#45;&#45;8</title>
<path fill="none" stroke="#000000" d="M158.9589,-184.1832C166.6633,-182.4481 174.9303,-180.5864 182.6325,-178.8518"/>
<text text-anchor="middle" x="170.7957" y="-170.3175" font-family="Times,serif" font-size="14.00" fill="#000000">&#45; | &#45;</text>
</g>
<!-- 6 -->
<g id="node7" class="node">
<title>6</title>
<ellipse fill="none" stroke="#000000" cx="35.0969" cy="-322.622" rx="35.194" ry="18"/>
<text text-anchor="middle" x="35.0969" y="-318.922" font-family="Times,serif" font-size="14.00" fill="#000000">H | H</text>
</g>
<!-- 5&#45;&#45;6 -->
<g id="edge10" class="edge">
<title>5&#45;&#45;6</title>
<path fill="none" stroke="#000000" d="M68.6449,-279.224C62.3027,-287.4283 54.6795,-297.2897 48.3037,-305.5375"/>
<text text-anchor="middle" x="46.9743" y="-281.1808" font-family="Times,serif" font-size="14.00" fill="#000000">&#45; | &#45;</text>
</g>
<!-- 7 -->
<g id="node8" class="node">
<title>7</title>
<ellipse fill="none" stroke="#000000" cx="339.5438" cy="-315" rx="69.5877" ry="18"/>
<text text-anchor="middle" x="339.5438" y="-311.3" font-family="Times,serif" font-size="14.00" fill="#000000">Fe3+ | Fe3+</text>
</g>
<!-- 8&#45;&#45;9 -->
<g id="edge11" class="edge">
<title>8&#45;&#45;9</title>
<path fill="none" stroke="#000000" stroke-dasharray="5,2" d="M207.7718,-153.991C203.6606,-140.5808 198.0671,-122.3351 193.9596,-108.937"/>
<text text-anchor="middle" x="198.3657" y="-135.264" font-family="Times,serif" font-size="14.00" fill="#000000">&#45;</text>
</g>
<!-- 11 -->
<g id="node12" class="node">
<title>11</title>
<ellipse fill="none" stroke="#000000" cx="275.0052" cy="-230.4012" rx="35.194" ry="18"/>
<text text-anchor="middle" x="275.0052" y="-226.7012" font-family="Times,serif" font-size="14.00" fill="#000000">H | H</text>
</g>
<!-- 8&#45;&#45;11 -->
<g id="edge12" class="edge">
<title>8&#45;&#45;11</title>
<path fill="none" stroke="#000000" d="M229.8195,-187.6141C238.5331,-195.8652 249.2038,-205.9694 257.9872,-214.2866"/>
<text text-anchor="middle" x="255.4034" y="-189.7503" font-family="Times,serif" font-size="14.00" fill="#000000">&#45; | &#45;</text>
</g>
<!-- 12 -->
<g id="node13" class="node">
<title>12</title>
<ellipse fill="none" stroke="#000000" cx="290.8082" cy="-150.5116" rx="28.6953" ry="18"/>
<text text-anchor="middle" x="290.8082" y="-146.8116" font-family="Times,serif" font-size="14.00" fill="#000000">* | *</text>
</g>
<!-- 8&#45;&#45;12 -->
<g id="edge13" class="edge">
<title>8&#45;&#45;12</title>
<path fill="none" stroke="#000000" d="M243.0312,-163.7228C250.1199,-161.7627 257.6343,-159.6848 264.5531,-157.7716"/>
<text text-anchor="middle" x="248.0422" y="-149.5472" font-family="Times,serif" font-size="14.00" fill="#000000">&#45; | &#45;</text>
</g>
<!-- 10 -->
<g id="node11" class="node">
<title>10</title>
<ellipse fill="none" stroke="#000000" cx="220.4714" cy="-18" rx="35.194" ry="18"/>
<text text-anchor="middle" x="220.4714" y="-14.3" font-family="Times,serif" font-size="14.00" fill="#000000">H | H</text>
</g>
<!-- 9&#45;&#45;10 -->
<g id="edge14" class="edge">
<title>9&#45;&#45;10</title>
<path fill="none" stroke="#000000" d="M196.2161,-73.3499C201.2106,-61.9525 207.6827,-47.1835 212.685,-35.7683"/>
<text text-anchor="middle" x="192.9505" y="-58.3591" font-family="Times,serif" font-size="14.00" fill="#000000">&#45; | &#45;</text>
</g>
</g>
</svg>
