<?xml version="1.0" encoding="UTF-8" standalone="no"?>
<!DOCTYPE svg PUBLIC "-//W3C//DTD SVG 1.1//EN"
 "http://www.w3.org/Graphics/SVG/1.1/DTD/svg11.dtd">
<!-- Generated by graphviz version 2.40.1 (20161225.0304)
 -->
<!-- Title: G Pages: 1 -->
<svg width="298pt" height="320pt"
 viewBox="0.00 0.00 298.34 320.49" xmlns="http://www.w3.org/2000/svg" xmlns:xlink="http://www.w3.org/1999/xlink">
<g id="graph0" class="graph" transform="scale(1 1) rotate(0) translate(4 316.4911)">
<title>G</title>
<polygon fill="#ffffff" stroke="transparent" points="-4,4 -4,-316.4911 294.3397,-316.4911 294.3397,4 -4,4"/>
<!-- 0 -->
<g id="node1" class="node">
<title>0</title>
<ellipse fill="none" stroke="#000000" cx="140.8708" cy="-294.4911" rx="35.194" ry="18"/>
<text text-anchor="middle" x="140.8708" y="-290.7911" font-family="Times,serif" font-size="14.00" fill="#000000">N | N</text>
</g>
<!-- 1 -->
<g id="node2" class="node">
<title>1</title>
<ellipse fill="none" stroke="#000000" cx="146.4603" cy="-218.3372" rx="33.2948" ry="18"/>
<text text-anchor="middle" x="146.4603" y="-214.6372" font-family="Times,serif" font-size="14.00" fill="#000000">C | C</text>
</g>
<!-- 0&#45;&#45;1 -->
<g id="edge1" class="edge">
<title>0&#45;&#45;1</title>
<path fill="none" stroke="#000000" d="M142.1955,-276.4437C143.08,-264.3921 144.2392,-248.5983 145.1258,-236.519"/>
<text text-anchor="middle" x="124.6606" y="-260.2814" font-family="Times,serif" font-size="14.00" fill="#000000"># | #</text>
</g>
<!-- 2 -->
<g id="node3" class="node">
<title>2</title>
<ellipse fill="none" stroke="#000000" cx="113.1701" cy="-144.1703" rx="33.2948" ry="18"/>
<text text-anchor="middle" x="113.1701" y="-140.4703" font-family="Times,serif" font-size="14.00" fill="#000000">C | C</text>
</g>
<!-- 1&#45;&#45;2 -->
<g id="edge2" class="edge">
<title>1&#45;&#45;2</title>
<path fill="none" stroke="#000000" stroke-dasharray="5,2" d="M138.571,-200.7607C133.3027,-189.0235 126.3985,-173.6418 121.1181,-161.8777"/>
<text text-anchor="middle" x="127.3446" y="-185.1192" font-family="Times,serif" font-size="14.00" fill="#000000">&#45;</text>
</g>
<!-- 7 -->
<g id="node8" class="node">
<title>7</title>
<ellipse fill="none" stroke="#000000" cx="211.3346" cy="-171.8803" rx="35.194" ry="18"/>
<text text-anchor="middle" x="211.3346" y="-168.1803" font-family="Times,serif" font-size="14.00" fill="#000000">H | H</text>
</g>
<!-- 1&#45;&#45;7 -->
<g id="edge3" class="edge">
<title>1&#45;&#45;7</title>
<path fill="none" stroke="#000000" stroke-dasharray="1,5" d="M166.6313,-203.8926C174.2192,-198.4589 182.8572,-192.2732 190.504,-186.7973"/>
<text text-anchor="middle" x="181.0676" y="-199.1449" font-family="Times,serif" font-size="14.00" fill="#000000">&#45;</text>
</g>
<!-- 3 -->
<g id="node4" class="node">
<title>3</title>
<ellipse fill="none" stroke="#000000" cx="35.0969" cy="-133.5789" rx="35.194" ry="18"/>
<text text-anchor="middle" x="35.0969" y="-129.8789" font-family="Times,serif" font-size="14.00" fill="#000000">N | N</text>
</g>
<!-- 2&#45;&#45;3 -->
<g id="edge4" class="edge">
<title>2&#45;&#45;3</title>
<path fill="none" stroke="#000000" d="M80.964,-139.8012C77.0996,-139.277 73.143,-138.7402 69.2522,-138.2124"/>
<text text-anchor="middle" x="56.1081" y="-142.8068" font-family="Times,serif" font-size="14.00" fill="#000000"># | #</text>
</g>
<!-- 4 -->
<g id="node5" class="node">
<title>4</title>
<ellipse fill="none" stroke="#000000" cx="180.8649" cy="-95.3403" rx="35.194" ry="18"/>
<text text-anchor="middle" x="180.8649" y="-91.6403" font-family="Times,serif" font-size="14.00" fill="#000000">N | N</text>
</g>
<!-- 2&#45;&#45;4 -->
<g id="edge5" class="edge">
<title>2&#45;&#45;4</title>
<path fill="none" stroke="#000000" stroke-dasharray="1,5" d="M133.1146,-129.7838C141.6948,-123.5947 151.7175,-116.365 160.359,-110.1317"/>
<text text-anchor="middle" x="149.2368" y="-123.7577" font-family="Times,serif" font-size="14.00" fill="#000000">&#45;</text>
</g>
<!-- 5 -->
<g id="node6" class="node">
<title>5</title>
<ellipse fill="none" stroke="#000000" cx="255.2429" cy="-63.9524" rx="35.194" ry="18"/>
<text text-anchor="middle" x="255.2429" y="-60.2524" font-family="Times,serif" font-size="14.00" fill="#000000">H | H</text>
</g>
<!-- 4&#45;&#45;5 -->
<g id="edge6" class="edge">
<title>4&#45;&#45;5</title>
<path fill="none" stroke="#000000" d="M208.1382,-83.8308C214.6059,-81.1014 221.5053,-78.1898 227.9729,-75.4605"/>
<text text-anchor="middle" x="206.5555" y="-68.4457" font-family="Times,serif" font-size="14.00" fill="#000000">&#45; | &#45;</text>
</g>
<!-- 6 -->
<g id="node7" class="node">
<title>6</title>
<ellipse fill="none" stroke="#000000" cx="159.5799" cy="-18" rx="35.194" ry="18"/>
<text text-anchor="middle" x="159.5799" y="-14.3" font-family="Times,serif" font-size="14.00" fill="#000000">H | H</text>
</g>
<!-- 4&#45;&#45;6 -->
<g id="edge7" class="edge">
<title>4&#45;&#45;6</title>
<path fill="none" stroke="#000000" d="M175.9282,-77.4025C172.4896,-64.908 167.9226,-48.3137 164.4898,-35.8405"/>
<text text-anchor="middle" x="158.709" y="-60.4215" font-family="Times,serif" font-size="14.00" fill="#000000">&#45; | &#45;</text>
</g>
<!-- 4&#45;&#45;7 -->
<g id="edge8" class="edge">
<title>4&#45;&#45;7</title>
<path fill="none" stroke="#000000" stroke-dasharray="5,2" d="M187.9318,-113.0925C192.8543,-125.4577 199.3919,-141.8803 204.306,-154.2244"/>
<text text-anchor="middle" x="193.6189" y="-137.4584" font-family="Times,serif" font-size="14.00" fill="#000000">&#45;</text>
</g>
</g>
</svg>
