<?xml version="1.0" encoding="UTF-8" standalone="no"?>
<!DOCTYPE svg PUBLIC "-//W3C//DTD SVG 1.1//EN"
 "http://www.w3.org/Graphics/SVG/1.1/DTD/svg11.dtd">
<!-- Generated by graphviz version 2.40.1 (20161225.0304)
 -->
<!-- Title: G Pages: 1 -->
<svg width="346pt" height="231pt"
 viewBox="0.00 0.00 346.13 231.42" xmlns="http://www.w3.org/2000/svg" xmlns:xlink="http://www.w3.org/1999/xlink">
<g id="graph0" class="graph" transform="scale(1 1) rotate(0) translate(4 227.4204)">
<title>G</title>
<polygon fill="#ffffff" stroke="transparent" points="-4,4 -4,-227.4204 342.1267,-227.4204 342.1267,4 -4,4"/>
<!-- 0 -->
<g id="node1" class="node">
<title>0</title>
<ellipse fill="none" stroke="#000000" cx="178.7427" cy="-18" rx="34.394" ry="18"/>
<text text-anchor="middle" x="178.7427" y="-14.3" font-family="Times,serif" font-size="14.00" fill="#000000">O | O</text>
</g>
<!-- 1 -->
<g id="node2" class="node">
<title>1</title>
<ellipse fill="none" stroke="#000000" cx="173.789" cy="-95.2623" rx="33.2948" ry="18"/>
<text text-anchor="middle" x="173.789" y="-91.5623" font-family="Times,serif" font-size="14.00" fill="#000000">C | C</text>
</g>
<!-- 0&#45;&#45;1 -->
<g id="edge1" class="edge">
<title>0&#45;&#45;1</title>
<path fill="none" stroke="#000000" d="M177.5687,-36.3101C176.7791,-48.6263 175.7424,-64.7949 174.9545,-77.0836"/>
<text text-anchor="middle" x="157.2616" y="-60.4969" font-family="Times,serif" font-size="14.00" fill="#000000">= | =</text>
</g>
<!-- 2 -->
<g id="node3" class="node">
<title>2</title>
<ellipse fill="none" stroke="#000000" cx="110.9906" cy="-146.4605" rx="35.194" ry="18"/>
<text text-anchor="middle" x="110.9906" y="-142.7605" font-family="Times,serif" font-size="14.00" fill="#000000">N | N</text>
</g>
<!-- 1&#45;&#45;2 -->
<g id="edge2" class="edge">
<title>1&#45;&#45;2</title>
<path fill="none" stroke="#000000" d="M155.2871,-110.3465C147.3276,-116.8358 138.0297,-124.4161 130.0133,-130.9517"/>
<text text-anchor="middle" x="127.1502" y="-109.4491" font-family="Times,serif" font-size="14.00" fill="#000000">= | &#45;</text>
</g>
<!-- 5 -->
<g id="node6" class="node">
<title>5</title>
<ellipse fill="none" stroke="#000000" cx="228.9655" cy="-154.5728" rx="32.4942" ry="18"/>
<text text-anchor="middle" x="228.9655" y="-150.8728" font-family="Times,serif" font-size="14.00" fill="#000000">S | S</text>
</g>
<!-- 1&#45;&#45;5 -->
<g id="edge3" class="edge">
<title>1&#45;&#45;5</title>
<path fill="none" stroke="#000000" stroke-dasharray="1,5" d="M188.8662,-111.4691C196.6517,-119.8379 206.1237,-130.0196 213.9065,-138.3855"/>
<text text-anchor="middle" x="198.8864" y="-128.7273" font-family="Times,serif" font-size="14.00" fill="#000000">&#45;</text>
</g>
<!-- 3 -->
<g id="node4" class="node">
<title>3</title>
<ellipse fill="none" stroke="#000000" cx="35.0969" cy="-154.436" rx="35.194" ry="18"/>
<text text-anchor="middle" x="35.0969" y="-150.736" font-family="Times,serif" font-size="14.00" fill="#000000">H | H</text>
</g>
<!-- 2&#45;&#45;3 -->
<g id="edge4" class="edge">
<title>2&#45;&#45;3</title>
<path fill="none" stroke="#000000" d="M76.5966,-150.0749C74.2435,-150.3222 71.8719,-150.5714 69.5186,-150.8187"/>
<text text-anchor="middle" x="73.0576" y="-139.2468" font-family="Times,serif" font-size="14.00" fill="#000000">&#45; | &#45;</text>
</g>
<!-- 6 -->
<g id="node7" class="node">
<title>6</title>
<ellipse fill="none" stroke="#000000" cx="166.1969" cy="-205.4204" rx="35.194" ry="18"/>
<text text-anchor="middle" x="166.1969" y="-201.7204" font-family="Times,serif" font-size="14.00" fill="#000000">H | H</text>
</g>
<!-- 2&#45;&#45;6 -->
<g id="edge5" class="edge">
<title>2&#45;&#45;6</title>
<path fill="none" stroke="#000000" stroke-dasharray="1,5" d="M126.3687,-162.8841C134.0257,-171.0618 143.2556,-180.9193 150.9013,-189.0849"/>
<text text-anchor="middle" x="136.135" y="-179.7845" font-family="Times,serif" font-size="14.00" fill="#000000">&#45;</text>
</g>
<!-- 4 -->
<g id="node5" class="node">
<title>4</title>
<ellipse fill="none" stroke="#000000" cx="303.0298" cy="-172.9487" rx="35.194" ry="18"/>
<text text-anchor="middle" x="303.0298" y="-169.2487" font-family="Times,serif" font-size="14.00" fill="#000000">H | H</text>
</g>
<!-- 4&#45;&#45;5 -->
<g id="edge6" class="edge">
<title>4&#45;&#45;5</title>
<path fill="none" stroke="#000000" d="M271.1901,-165.049C267.1125,-164.0373 262.9493,-163.0044 258.9035,-162.0006"/>
<text text-anchor="middle" x="253.5468" y="-167.3248" font-family="Times,serif" font-size="14.00" fill="#000000">&#45; | &#45;</text>
</g>
<!-- 5&#45;&#45;6 -->
<g id="edge7" class="edge">
<title>5&#45;&#45;6</title>
<path fill="none" stroke="#000000" stroke-dasharray="5,2" d="M210.4723,-169.5538C202.5166,-175.9985 193.2232,-183.5269 185.2105,-190.0178"/>
<text text-anchor="middle" x="195.3414" y="-168.5858" font-family="Times,serif" font-size="14.00" fill="#000000">&#45;</text>
</g>
</g>
</svg>
