<?xml version="1.0" encoding="UTF-8" standalone="no"?>
<!DOCTYPE svg PUBLIC "-//W3C//DTD SVG 1.1//EN"
 "http://www.w3.org/Graphics/SVG/1.1/DTD/svg11.dtd">
<!-- Generated by graphviz version 2.40.1 (20161225.0304)
 -->
<!-- Title: G Pages: 1 -->
<svg width="199pt" height="246pt"
 viewBox="0.00 0.00 199.13 246.15" xmlns="http://www.w3.org/2000/svg" xmlns:xlink="http://www.w3.org/1999/xlink">
<g id="graph0" class="graph" transform="scale(1 1) rotate(0) translate(4 242.1482)">
<title>G</title>
<polygon fill="#ffffff" stroke="transparent" points="-4,4 -4,-242.1482 195.1254,-242.1482 195.1254,4 -4,4"/>
<!-- 0 -->
<g id="node1" class="node">
<title>0</title>
<ellipse fill="none" stroke="#000000" cx="162.5279" cy="-18" rx="28.6953" ry="18"/>
<text text-anchor="middle" x="162.5279" y="-14.3" font-family="Times,serif" font-size="14.00" fill="#000000">* | *</text>
</g>
<!-- 1 -->
<g id="node2" class="node">
<title>1</title>
<ellipse fill="none" stroke="#000000" cx="116.3834" cy="-78.6196" rx="33.2948" ry="18"/>
<text text-anchor="middle" x="116.3834" y="-74.9196" font-family="Times,serif" font-size="14.00" fill="#000000">C | C</text>
</g>
<!-- 0&#45;&#45;1 -->
<g id="edge1" class="edge">
<title>0&#45;&#45;1</title>
<path fill="none" stroke="#000000" d="M150.162,-34.2449C143.6481,-42.8022 135.6712,-53.2813 129.1052,-61.9071"/>
<text text-anchor="middle" x="128.1336" y="-36.876" font-family="Times,serif" font-size="14.00" fill="#000000">&#45; | &#45;</text>
</g>
<!-- 2 -->
<g id="node3" class="node">
<title>2</title>
<ellipse fill="none" stroke="#000000" cx="36.019" cy="-77.9397" rx="35.194" ry="18"/>
<text text-anchor="middle" x="36.019" y="-74.2397" font-family="Times,serif" font-size="14.00" fill="#000000">N | N</text>
</g>
<!-- 1&#45;&#45;2 -->
<g id="edge2" class="edge">
<title>1&#45;&#45;2</title>
<path fill="none" stroke="#000000" d="M83.2321,-78.3391C79.2543,-78.3055 75.1817,-78.271 71.1766,-78.2371"/>
<text text-anchor="middle" x="77.2044" y="-67.0881" font-family="Times,serif" font-size="14.00" fill="#000000"># | =</text>
</g>
<!-- 4 -->
<g id="node5" class="node">
<title>4</title>
<ellipse fill="none" stroke="#000000" cx="115.4576" cy="-158.4112" rx="32.4942" ry="18"/>
<text text-anchor="middle" x="115.4576" y="-154.7112" font-family="Times,serif" font-size="14.00" fill="#000000">S | S</text>
</g>
<!-- 1&#45;&#45;4 -->
<g id="edge3" class="edge">
<title>1&#45;&#45;4</title>
<path fill="none" stroke="#000000" stroke-dasharray="1,5" d="M116.1733,-96.7255C116.0218,-109.7839 115.8182,-127.335 115.6669,-140.3769"/>
<text text-anchor="middle" x="113.4201" y="-122.3512" font-family="Times,serif" font-size="14.00" fill="#000000">&#45;</text>
</g>
<!-- 3 -->
<g id="node4" class="node">
<title>3</title>
<ellipse fill="none" stroke="#000000" cx="35.0969" cy="-157.2134" rx="35.194" ry="18"/>
<text text-anchor="middle" x="35.0969" y="-153.5134" font-family="Times,serif" font-size="14.00" fill="#000000">H | H</text>
</g>
<!-- 2&#45;&#45;3 -->
<g id="edge4" class="edge">
<title>2&#45;&#45;3</title>
<path fill="none" stroke="#000000" stroke-dasharray="1,5" d="M35.8051,-96.3259C35.6551,-109.2243 35.4555,-126.3851 35.3064,-139.2002"/>
<text text-anchor="middle" x="33.0558" y="-121.5631" font-family="Times,serif" font-size="14.00" fill="#000000">&#45;</text>
</g>
<!-- 3&#45;&#45;4 -->
<g id="edge5" class="edge">
<title>3&#45;&#45;4</title>
<path fill="none" stroke="#000000" stroke-dasharray="5,2" d="M70.5782,-157.7423C74.6146,-157.8024 78.7152,-157.8635 82.7139,-157.9231"/>
<text text-anchor="middle" x="74.146" y="-161.6327" font-family="Times,serif" font-size="14.00" fill="#000000">&#45;</text>
</g>
<!-- 5 -->
<g id="node6" class="node">
<title>5</title>
<ellipse fill="none" stroke="#000000" cx="160.0932" cy="-220.1482" rx="28.6953" ry="18"/>
<text text-anchor="middle" x="160.0932" y="-216.4482" font-family="Times,serif" font-size="14.00" fill="#000000">* | *</text>
</g>
<!-- 4&#45;&#45;5 -->
<g id="edge6" class="edge">
<title>4&#45;&#45;5</title>
<path fill="none" stroke="#000000" d="M127.6545,-175.2811C134.0559,-184.1351 141.8667,-194.9384 148.2196,-203.7254"/>
<text text-anchor="middle" x="126.437" y="-193.3032" font-family="Times,serif" font-size="14.00" fill="#000000">&#45; | &#45;</text>
</g>
</g>
</svg>
