<?xml version="1.0" encoding="UTF-8" standalone="no"?>
<!DOCTYPE svg PUBLIC "-//W3C//DTD SVG 1.1//EN"
 "http://www.w3.org/Graphics/SVG/1.1/DTD/svg11.dtd">
<!-- Generated by graphviz version 2.40.1 (20161225.0304)
 -->
<!-- Title: G Pages: 1 -->
<svg width="210pt" height="242pt"
 viewBox="0.00 0.00 209.82 242.09" xmlns="http://www.w3.org/2000/svg" xmlns:xlink="http://www.w3.org/1999/xlink">
<g id="graph0" class="graph" transform="scale(1 1) rotate(0) translate(4 238.0943)">
<title>G</title>
<polygon fill="#ffffff" stroke="transparent" points="-4,4 -4,-238.0943 205.8155,-238.0943 205.8155,4 -4,4"/>
<!-- 0 -->
<g id="node1" class="node">
<title>0</title>
<ellipse fill="none" stroke="#000000" cx="48.8479" cy="-18" rx="33.2948" ry="18"/>
<text text-anchor="middle" x="48.8479" y="-14.3" font-family="Times,serif" font-size="14.00" fill="#000000">C | C</text>
</g>
<!-- 2 -->
<g id="node3" class="node">
<title>2</title>
<ellipse fill="none" stroke="#000000" cx="101.6221" cy="-77.8386" rx="33.2948" ry="18"/>
<text text-anchor="middle" x="101.6221" y="-74.1386" font-family="Times,serif" font-size="14.00" fill="#000000">C | C</text>
</g>
<!-- 0&#45;&#45;2 -->
<g id="edge1" class="edge">
<title>0&#45;&#45;2</title>
<path fill="none" stroke="#000000" d="M63.2687,-34.3512C70.7152,-42.7945 79.7748,-53.0668 87.2188,-61.5072"/>
<text text-anchor="middle" x="63.7437" y="-51.7292" font-family="Times,serif" font-size="14.00" fill="#000000">&#45; | &#45;</text>
</g>
<!-- 1 -->
<g id="node2" class="node">
<title>1</title>
<ellipse fill="none" stroke="#000000" cx="168.6684" cy="-34.7547" rx="33.2948" ry="18"/>
<text text-anchor="middle" x="168.6684" y="-31.0547" font-family="Times,serif" font-size="14.00" fill="#000000">C | C</text>
</g>
<!-- 1&#45;&#45;2 -->
<g id="edge2" class="edge">
<title>1&#45;&#45;2</title>
<path fill="none" stroke="#000000" d="M147.0855,-48.6239C139.4294,-53.5437 130.8174,-59.0778 123.1646,-63.9954"/>
<text text-anchor="middle" x="123.6251" y="-45.1097" font-family="Times,serif" font-size="14.00" fill="#000000">&#45; | &#45;</text>
</g>
<!-- 3 -->
<g id="node4" class="node">
<title>3</title>
<ellipse fill="none" stroke="#000000" cx="67.0065" cy="-147.8027" rx="34.394" ry="18"/>
<text text-anchor="middle" x="67.0065" y="-144.1027" font-family="Times,serif" font-size="14.00" fill="#000000">O | O</text>
</g>
<!-- 2&#45;&#45;3 -->
<g id="edge3" class="edge">
<title>2&#45;&#45;3</title>
<path fill="none" stroke="#000000" stroke-dasharray="5,2" d="M92.8871,-95.4935C87.6797,-106.0186 81.0872,-119.3433 75.8591,-129.9101"/>
<text text-anchor="middle" x="77.8731" y="-116.5018" font-family="Times,serif" font-size="14.00" fill="#000000">=</text>
</g>
<!-- 5 -->
<g id="node6" class="node">
<title>5</title>
<ellipse fill="none" stroke="#000000" cx="115.4693" cy="-154.8402" rx="32.4942" ry="18"/>
<text text-anchor="middle" x="115.4693" y="-151.1402" font-family="Times,serif" font-size="14.00" fill="#000000">S | S</text>
</g>
<!-- 2&#45;&#45;5 -->
<g id="edge4" class="edge">
<title>2&#45;&#45;5</title>
<path fill="none" stroke="#000000" stroke-dasharray="1,5" d="M104.9037,-96.0869C107.1111,-108.3616 110.0089,-124.4757 112.2113,-136.7229"/>
<text text-anchor="middle" x="102.0575" y="-105.2049" font-family="Times,serif" font-size="14.00" fill="#000000">=</text>
</g>
<!-- 4 -->
<g id="node5" class="node">
<title>4</title>
<ellipse fill="none" stroke="#000000" cx="129.2936" cy="-216.0943" rx="35.194" ry="18"/>
<text text-anchor="middle" x="129.2936" y="-212.3943" font-family="Times,serif" font-size="14.00" fill="#000000">H | H</text>
</g>
<!-- 3&#45;&#45;4 -->
<g id="edge5" class="edge">
<title>3&#45;&#45;4</title>
<path fill="none" stroke="#000000" stroke-dasharray="1,5" d="M82.0845,-164.3342C91.8776,-175.0713 104.5892,-189.0083 114.3545,-199.715"/>
<text text-anchor="middle" x="95.7195" y="-185.8246" font-family="Times,serif" font-size="14.00" fill="#000000">&#45;</text>
</g>
<!-- 6 -->
<g id="node7" class="node">
<title>6</title>
<ellipse fill="none" stroke="#000000" cx="35.0969" cy="-201.5311" rx="35.194" ry="18"/>
<text text-anchor="middle" x="35.0969" y="-197.8311" font-family="Times,serif" font-size="14.00" fill="#000000">H | H</text>
</g>
<!-- 3&#45;&#45;6 -->
<g id="edge6" class="edge">
<title>3&#45;&#45;6</title>
<path fill="none" stroke="#000000" stroke-dasharray="1,5" d="M56.7344,-165.0984C53.0906,-171.2338 48.9919,-178.1351 45.3497,-184.2677"/>
<text text-anchor="middle" x="48.5421" y="-178.4831" font-family="Times,serif" font-size="14.00" fill="#000000">&#45;</text>
</g>
<!-- 4&#45;&#45;5 -->
<g id="edge7" class="edge">
<title>4&#45;&#45;5</title>
<path fill="none" stroke="#000000" stroke-dasharray="5,2" d="M125.2207,-198.0473C123.4366,-190.1424 121.3471,-180.8842 119.561,-172.9698"/>
<text text-anchor="middle" x="119.8908" y="-189.3086" font-family="Times,serif" font-size="14.00" fill="#000000">&#45;</text>
</g>
<!-- 5&#45;&#45;6 -->
<g id="edge8" class="edge">
<title>5&#45;&#45;6</title>
<path fill="none" stroke="#000000" stroke-dasharray="5,2" d="M92.6528,-168.0951C81.9786,-174.296 69.2799,-181.6731 58.5296,-187.9183"/>
<text text-anchor="middle" x="73.0912" y="-181.8067" font-family="Times,serif" font-size="14.00" fill="#000000">&#45;</text>
</g>
</g>
</svg>
