<?xml version="1.0" encoding="UTF-8" standalone="no"?>
<!DOCTYPE svg PUBLIC "-//W3C//DTD SVG 1.1//EN"
 "http://www.w3.org/Graphics/SVG/1.1/DTD/svg11.dtd">
<!-- Generated by graphviz version 2.40.1 (20161225.0304)
 -->
<!-- Title: G Pages: 1 -->
<svg width="482pt" height="323pt"
 viewBox="0.00 0.00 482.19 323.30" xmlns="http://www.w3.org/2000/svg" xmlns:xlink="http://www.w3.org/1999/xlink">
<g id="graph0" class="graph" transform="scale(1 1) rotate(0) translate(4 319.3031)">
<title>G</title>
<polygon fill="#ffffff" stroke="transparent" points="-4,4 -4,-319.3031 478.1889,-319.3031 478.1889,4 -4,4"/>
<!-- 0 -->
<g id="node1" class="node">
<title>0</title>
<ellipse fill="none" stroke="#000000" cx="244.0604" cy="-254.2927" rx="35.194" ry="18"/>
<text text-anchor="middle" x="244.0604" y="-250.5927" font-family="Times,serif" font-size="14.00" fill="#000000">H | H</text>
</g>
<!-- 1 -->
<g id="node2" class="node">
<title>1</title>
<ellipse fill="none" stroke="#000000" cx="162.5449" cy="-273.9764" rx="34.394" ry="18"/>
<text text-anchor="middle" x="162.5449" y="-270.2764" font-family="Times,serif" font-size="14.00" fill="#000000">O | O</text>
</g>
<!-- 0&#45;&#45;1 -->
<g id="edge1" class="edge">
<title>0&#45;&#45;1</title>
<path fill="none" stroke="#000000" stroke-dasharray="5,2" d="M211.8433,-262.0722C205.9691,-263.4907 199.847,-264.969 193.9953,-266.382"/>
<text text-anchor="middle" x="200.4193" y="-268.0271" font-family="Times,serif" font-size="14.00" fill="#000000">&#45;</text>
</g>
<!-- 13 -->
<g id="node14" class="node">
<title>13</title>
<ellipse fill="none" stroke="#000000" cx="287.3078" cy="-175.938" rx="33.2948" ry="18"/>
<text text-anchor="middle" x="287.3078" y="-172.238" font-family="Times,serif" font-size="14.00" fill="#000000">C | C</text>
</g>
<!-- 0&#45;&#45;13 -->
<g id="edge2" class="edge">
<title>0&#45;&#45;13</title>
<path fill="none" stroke="#000000" stroke-dasharray="1,5" d="M253.6584,-236.9032C260.8252,-223.9185 270.5762,-206.2518 277.7366,-193.2788"/>
<text text-anchor="middle" x="263.1975" y="-218.891" font-family="Times,serif" font-size="14.00" fill="#000000">&#45;</text>
</g>
<!-- 2 -->
<g id="node3" class="node">
<title>2</title>
<ellipse fill="none" stroke="#000000" cx="108.4333" cy="-208.2745" rx="33.2948" ry="18"/>
<text text-anchor="middle" x="108.4333" y="-204.5745" font-family="Times,serif" font-size="14.00" fill="#000000">C | C</text>
</g>
<!-- 1&#45;&#45;2 -->
<g id="edge3" class="edge">
<title>1&#45;&#45;2</title>
<path fill="none" stroke="#000000" d="M148.8903,-257.397C140.75,-247.5131 130.4444,-235.0002 122.2718,-225.0771"/>
<text text-anchor="middle" x="120.081" y="-230.0371" font-family="Times,serif" font-size="14.00" fill="#000000">&#45; | =</text>
</g>
<!-- 3 -->
<g id="node4" class="node">
<title>3</title>
<ellipse fill="none" stroke="#000000" cx="34.4469" cy="-240.6839" rx="34.394" ry="18"/>
<text text-anchor="middle" x="34.4469" y="-236.9839" font-family="Times,serif" font-size="14.00" fill="#000000">O | O</text>
</g>
<!-- 2&#45;&#45;3 -->
<g id="edge4" class="edge">
<title>2&#45;&#45;3</title>
<path fill="none" stroke="#000000" d="M82.5564,-219.6098C75.5557,-222.6764 67.9695,-225.9995 60.9357,-229.0807"/>
<text text-anchor="middle" x="52.7461" y="-213.1452" font-family="Times,serif" font-size="14.00" fill="#000000">= | =</text>
</g>
<!-- 4 -->
<g id="node5" class="node">
<title>4</title>
<ellipse fill="none" stroke="#000000" cx="148.3229" cy="-127.4451" rx="33.2948" ry="18"/>
<text text-anchor="middle" x="148.3229" y="-123.7451" font-family="Times,serif" font-size="14.00" fill="#000000">C | C</text>
</g>
<!-- 2&#45;&#45;4 -->
<g id="edge5" class="edge">
<title>2&#45;&#45;4</title>
<path fill="none" stroke="#000000" stroke-dasharray="5,2" d="M117.0887,-190.7358C123.7795,-177.178 132.9978,-158.4989 139.6843,-144.9497"/>
<text text-anchor="middle" x="125.8865" y="-171.6427" font-family="Times,serif" font-size="14.00" fill="#000000">&#45;</text>
</g>
<!-- 5 -->
<g id="node6" class="node">
<title>5</title>
<ellipse fill="none" stroke="#000000" cx="70.7206" cy="-108.1642" rx="35.194" ry="18"/>
<text text-anchor="middle" x="70.7206" y="-104.4642" font-family="Times,serif" font-size="14.00" fill="#000000">H | H</text>
</g>
<!-- 4&#45;&#45;5 -->
<g id="edge6" class="edge">
<title>4&#45;&#45;5</title>
<path fill="none" stroke="#000000" d="M118.0976,-119.9354C112.9907,-118.6666 107.6752,-117.3459 102.5293,-116.0673"/>
<text text-anchor="middle" x="98.8135" y="-121.8014" font-family="Times,serif" font-size="14.00" fill="#000000">&#45; | &#45;</text>
</g>
<!-- 6 -->
<g id="node7" class="node">
<title>6</title>
<ellipse fill="none" stroke="#000000" cx="109.1628" cy="-53.4013" rx="35.194" ry="18"/>
<text text-anchor="middle" x="109.1628" y="-49.7013" font-family="Times,serif" font-size="14.00" fill="#000000">H | H</text>
</g>
<!-- 4&#45;&#45;6 -->
<g id="edge7" class="edge">
<title>4&#45;&#45;6</title>
<path fill="none" stroke="#000000" d="M139.0425,-109.8978C132.8001,-98.0946 124.6051,-82.5995 118.3766,-70.8227"/>
<text text-anchor="middle" x="117.2095" y="-94.1602" font-family="Times,serif" font-size="14.00" fill="#000000">&#45; | &#45;</text>
</g>
<!-- 7 -->
<g id="node8" class="node">
<title>7</title>
<ellipse fill="none" stroke="#000000" cx="234.9862" cy="-100.0194" rx="35.194" ry="18"/>
<text text-anchor="middle" x="234.9862" y="-96.3194" font-family="Times,serif" font-size="14.00" fill="#000000">N | N</text>
</g>
<!-- 4&#45;&#45;7 -->
<g id="edge8" class="edge">
<title>4&#45;&#45;7</title>
<path fill="none" stroke="#000000" stroke-dasharray="5,2" d="M177.1805,-118.3128C186.142,-115.4768 196.0367,-112.3455 205.0687,-109.4872"/>
<text text-anchor="middle" x="188.6246" y="-117.7" font-family="Times,serif" font-size="14.00" fill="#000000">&#45;</text>
</g>
<!-- 14 -->
<g id="node15" class="node">
<title>14</title>
<ellipse fill="none" stroke="#000000" cx="213.1175" cy="-168.8966" rx="34.394" ry="18"/>
<text text-anchor="middle" x="213.1175" y="-165.1966" font-family="Times,serif" font-size="14.00" fill="#000000">O | O</text>
</g>
<!-- 4&#45;&#45;14 -->
<g id="edge9" class="edge">
<title>4&#45;&#45;14</title>
<path fill="none" stroke="#000000" stroke-dasharray="1,5" d="M169.8986,-141.2479C176.6724,-145.5813 184.1592,-150.3709 190.9718,-154.7292"/>
<text text-anchor="middle" x="186.9352" y="-136.7885" font-family="Times,serif" font-size="14.00" fill="#000000">=</text>
</g>
<!-- 8 -->
<g id="node9" class="node">
<title>8</title>
<ellipse fill="none" stroke="#000000" cx="223.4681" cy="-18" rx="35.194" ry="18"/>
<text text-anchor="middle" x="223.4681" y="-14.3" font-family="Times,serif" font-size="14.00" fill="#000000">H | H</text>
</g>
<!-- 7&#45;&#45;8 -->
<g id="edge10" class="edge">
<title>7&#45;&#45;8</title>
<path fill="none" stroke="#000000" d="M232.43,-81.8166C230.5212,-68.2246 227.9242,-49.7316 226.0172,-36.1519"/>
<text text-anchor="middle" x="217.7236" y="-62.7843" font-family="Times,serif" font-size="14.00" fill="#000000">&#45; | &#45;</text>
</g>
<!-- 9 -->
<g id="node10" class="node">
<title>9</title>
<ellipse fill="none" stroke="#000000" cx="286.6387" cy="-34.859" rx="35.194" ry="18"/>
<text text-anchor="middle" x="286.6387" y="-31.159" font-family="Times,serif" font-size="14.00" fill="#000000">H | H</text>
</g>
<!-- 7&#45;&#45;9 -->
<g id="edge11" class="edge">
<title>7&#45;&#45;9</title>
<path fill="none" stroke="#000000" d="M248.288,-83.239C255.9401,-73.5857 265.5278,-61.4907 273.2025,-51.809"/>
<text text-anchor="middle" x="249.2452" y="-71.324" font-family="Times,serif" font-size="14.00" fill="#000000">&#45; | &#45;</text>
</g>
<!-- 7&#45;&#45;13 -->
<g id="edge12" class="edge">
<title>7&#45;&#45;13</title>
<path fill="none" stroke="#000000" stroke-dasharray="1,5" d="M246.8588,-117.2465C255.4818,-129.7585 267.0925,-146.6056 275.6624,-159.0406"/>
<text text-anchor="middle" x="258.7606" y="-141.9435" font-family="Times,serif" font-size="14.00" fill="#000000">&#45;</text>
</g>
<!-- 10 -->
<g id="node11" class="node">
<title>10</title>
<ellipse fill="none" stroke="#000000" cx="441.0419" cy="-207.3633" rx="33.2948" ry="18"/>
<text text-anchor="middle" x="441.0419" y="-203.6633" font-family="Times,serif" font-size="14.00" fill="#000000">C | C</text>
</g>
<!-- 11 -->
<g id="node12" class="node">
<title>11</title>
<ellipse fill="none" stroke="#000000" cx="359.9633" cy="-222.3539" rx="33.2948" ry="18"/>
<text text-anchor="middle" x="359.9633" y="-218.6539" font-family="Times,serif" font-size="14.00" fill="#000000">C | C</text>
</g>
<!-- 10&#45;&#45;11 -->
<g id="edge13" class="edge">
<title>10&#45;&#45;11</title>
<path fill="none" stroke="#000000" d="M409.4626,-213.202C403.5934,-214.2872 397.4604,-215.4211 391.5897,-216.5065"/>
<text text-anchor="middle" x="394.7762" y="-203.6542" font-family="Times,serif" font-size="14.00" fill="#000000">&#45; | &#45;</text>
</g>
<!-- 12 -->
<g id="node13" class="node">
<title>12</title>
<ellipse fill="none" stroke="#000000" cx="390.6329" cy="-297.3031" rx="34.394" ry="18"/>
<text text-anchor="middle" x="390.6329" y="-293.6031" font-family="Times,serif" font-size="14.00" fill="#000000">O | O</text>
</g>
<!-- 11&#45;&#45;12 -->
<g id="edge14" class="edge">
<title>11&#45;&#45;12</title>
<path fill="none" stroke="#000000" d="M367.2315,-240.1158C372.1205,-252.0633 378.5388,-267.7479 383.4168,-279.6687"/>
<text text-anchor="middle" x="356.3242" y="-263.6922" font-family="Times,serif" font-size="14.00" fill="#000000">= | =</text>
</g>
<!-- 11&#45;&#45;13 -->
<g id="edge15" class="edge">
<title>11&#45;&#45;13</title>
<path fill="none" stroke="#000000" d="M338.1642,-208.4276C328.8848,-202.4994 318.0912,-195.6039 308.841,-189.6945"/>
<text text-anchor="middle" x="312.0026" y="-202.861" font-family="Times,serif" font-size="14.00" fill="#000000">&#45; | &#45;</text>
</g>
<!-- 13&#45;&#45;14 -->
<g id="edge16" class="edge">
<title>13&#45;&#45;14</title>
<path fill="none" stroke="#000000" stroke-dasharray="5,2" d="M254.5509,-172.829C252.0666,-172.5932 249.5559,-172.355 247.0644,-172.1185"/>
<text text-anchor="middle" x="254.0576" y="-161.2738" font-family="Times,serif" font-size="14.00" fill="#000000">=</text>
</g>
<!-- 15 -->
<g id="node16" class="node">
<title>15</title>
<ellipse fill="none" stroke="#000000" cx="352.1307" cy="-128.6933" rx="33.2948" ry="18"/>
<text text-anchor="middle" x="352.1307" y="-124.9933" font-family="Times,serif" font-size="14.00" fill="#000000">C | C</text>
</g>
<!-- 13&#45;&#45;15 -->
<g id="edge17" class="edge">
<title>13&#45;&#45;15</title>
<path fill="none" stroke="#000000" d="M307.4628,-161.2484C315.342,-155.5059 324.3544,-148.9374 332.2108,-143.2114"/>
<text text-anchor="middle" x="308.3368" y="-141.0299" font-family="Times,serif" font-size="14.00" fill="#000000">&#45; | &#45;</text>
</g>
</g>
</svg>
