<?xml version="1.0" encoding="UTF-8" standalone="no"?>
<!DOCTYPE svg PUBLIC "-//W3C//DTD SVG 1.1//EN"
 "http://www.w3.org/Graphics/SVG/1.1/DTD/svg11.dtd">
<!-- Generated by graphviz version 2.40.1 (20161225.0304)
 -->
<!-- Title: G Pages: 1 -->
<svg width="344pt" height="435pt"
 viewBox="0.00 0.00 343.63 435.36" xmlns="http://www.w3.org/2000/svg" xmlns:xlink="http://www.w3.org/1999/xlink">
<g id="graph0" class="graph" transform="scale(1 1) rotate(0) translate(4 431.3575)">
<title>G</title>
<polygon fill="#ffffff" stroke="transparent" points="-4,4 -4,-431.3575 339.6314,-431.3575 339.6314,4 -4,4"/>
<!-- 0 -->
<g id="node1" class="node">
<title>0</title>
<ellipse fill="none" stroke="#000000" cx="140.29" cy="-257.735" rx="33.2948" ry="18"/>
<text text-anchor="middle" x="140.29" y="-254.035" font-family="Times,serif" font-size="14.00" fill="#000000">C | C</text>
</g>
<!-- 1 -->
<g id="node2" class="node">
<title>1</title>
<ellipse fill="none" stroke="#000000" cx="222.7575" cy="-247.5427" rx="33.2948" ry="18"/>
<text text-anchor="middle" x="222.7575" y="-243.8427" font-family="Times,serif" font-size="14.00" fill="#000000">C | C</text>
</g>
<!-- 0&#45;&#45;1 -->
<g id="edge1" class="edge">
<title>0&#45;&#45;1</title>
<path fill="none" stroke="#000000" d="M172.8833,-253.7067C178.6461,-252.9945 184.6446,-252.2531 190.4008,-251.5417"/>
<text text-anchor="middle" x="175.8921" y="-241.4242" font-family="Times,serif" font-size="14.00" fill="#000000">&#45; | &#45;</text>
</g>
<!-- 3 -->
<g id="node4" class="node">
<title>3</title>
<ellipse fill="none" stroke="#000000" cx="142.8007" cy="-343.8368" rx="35.194" ry="18"/>
<text text-anchor="middle" x="142.8007" y="-340.1368" font-family="Times,serif" font-size="14.00" fill="#000000">N | N</text>
</g>
<!-- 0&#45;&#45;3 -->
<g id="edge2" class="edge">
<title>0&#45;&#45;3</title>
<path fill="none" stroke="#000000" d="M140.8225,-275.995C141.2485,-290.6068 141.8432,-310.9983 142.269,-325.6031"/>
<text text-anchor="middle" x="130.0457" y="-304.5991" font-family="Times,serif" font-size="14.00" fill="#000000">&#45; | &#45;</text>
</g>
<!-- 6 -->
<g id="node7" class="node">
<title>6</title>
<ellipse fill="none" stroke="#000000" cx="120.5744" cy="-170.7965" rx="33.2948" ry="18"/>
<text text-anchor="middle" x="120.5744" y="-167.0965" font-family="Times,serif" font-size="14.00" fill="#000000">C | C</text>
</g>
<!-- 0&#45;&#45;6 -->
<g id="edge3" class="edge">
<title>0&#45;&#45;6</title>
<path fill="none" stroke="#000000" stroke-dasharray="1,5" d="M136.2049,-239.7213C132.8212,-224.8005 128.0365,-203.7015 124.6543,-188.7871"/>
<text text-anchor="middle" x="123.9296" y="-218.0542" font-family="Times,serif" font-size="14.00" fill="#000000">=</text>
</g>
<!-- 10 -->
<g id="node11" class="node">
<title>10</title>
<ellipse fill="none" stroke="#000000" cx="78.588" cy="-233.0318" rx="35.194" ry="18"/>
<text text-anchor="middle" x="78.588" y="-229.3318" font-family="Times,serif" font-size="14.00" fill="#000000">H | H</text>
</g>
<!-- 0&#45;&#45;10 -->
<g id="edge4" class="edge">
<title>0&#45;&#45;10</title>
<path fill="none" stroke="#000000" stroke-dasharray="5,2" d="M113.4061,-246.9717C111.0679,-246.0355 108.6987,-245.087 106.3536,-244.1481"/>
<text text-anchor="middle" x="107.3799" y="-249.3599" font-family="Times,serif" font-size="14.00" fill="#000000">&#45;</text>
</g>
<!-- 11 -->
<g id="node12" class="node">
<title>11</title>
<ellipse fill="none" stroke="#000000" cx="48.9634" cy="-266.7552" rx="35.194" ry="18"/>
<text text-anchor="middle" x="48.9634" y="-263.0552" font-family="Times,serif" font-size="14.00" fill="#000000">H | H</text>
</g>
<!-- 0&#45;&#45;11 -->
<g id="edge5" class="edge">
<title>0&#45;&#45;11</title>
<path fill="none" stroke="#000000" stroke-dasharray="5,2" d="M107.577,-260.966C99.7973,-261.7344 91.4709,-262.5568 83.6081,-263.3334"/>
<text text-anchor="middle" x="93.0925" y="-265.9497" font-family="Times,serif" font-size="14.00" fill="#000000">&#45;</text>
</g>
<!-- 2 -->
<g id="node3" class="node">
<title>2</title>
<ellipse fill="none" stroke="#000000" cx="300.5345" cy="-239.7532" rx="35.194" ry="18"/>
<text text-anchor="middle" x="300.5345" y="-236.0532" font-family="Times,serif" font-size="14.00" fill="#000000">N | N</text>
</g>
<!-- 1&#45;&#45;2 -->
<g id="edge6" class="edge">
<title>1&#45;&#45;2</title>
<path fill="none" stroke="#000000" d="M255.7419,-244.2392C259.0541,-243.9075 262.4248,-243.5699 265.7549,-243.2364"/>
<text text-anchor="middle" x="251.2484" y="-232.5378" font-family="Times,serif" font-size="14.00" fill="#000000"># | #</text>
</g>
<!-- 4 -->
<g id="node5" class="node">
<title>4</title>
<ellipse fill="none" stroke="#000000" cx="198.8486" cy="-400.7478" rx="35.194" ry="18"/>
<text text-anchor="middle" x="198.8486" y="-397.0478" font-family="Times,serif" font-size="14.00" fill="#000000">H | H</text>
</g>
<!-- 3&#45;&#45;4 -->
<g id="edge7" class="edge">
<title>3&#45;&#45;4</title>
<path fill="none" stroke="#000000" d="M158.7119,-359.993C166.2202,-367.617 175.1651,-376.6996 182.703,-384.3536"/>
<text text-anchor="middle" x="182.2074" y="-360.9733" font-family="Times,serif" font-size="14.00" fill="#000000">&#45; | &#45;</text>
</g>
<!-- 5 -->
<g id="node6" class="node">
<title>5</title>
<ellipse fill="none" stroke="#000000" cx="93.858" cy="-409.3575" rx="35.194" ry="18"/>
<text text-anchor="middle" x="93.858" y="-405.6575" font-family="Times,serif" font-size="14.00" fill="#000000">H | H</text>
</g>
<!-- 3&#45;&#45;5 -->
<g id="edge8" class="edge">
<title>3&#45;&#45;5</title>
<path fill="none" stroke="#000000" d="M130.1967,-360.71C122.946,-370.4167 113.8614,-382.5785 106.5893,-392.3137"/>
<text text-anchor="middle" x="106.893" y="-380.3119" font-family="Times,serif" font-size="14.00" fill="#000000">&#45; | &#45;</text>
</g>
<!-- 7 -->
<g id="node8" class="node">
<title>7</title>
<ellipse fill="none" stroke="#000000" cx="133.4901" cy="-92.7546" rx="33.2948" ry="18"/>
<text text-anchor="middle" x="133.4901" y="-89.0546" font-family="Times,serif" font-size="14.00" fill="#000000">C | C</text>
</g>
<!-- 6&#45;&#45;7 -->
<g id="edge9" class="edge">
<title>6&#45;&#45;7</title>
<path fill="none" stroke="#000000" d="M123.57,-152.6959C125.6565,-140.0881 128.4278,-123.3433 130.5108,-110.757"/>
<text text-anchor="middle" x="115.5404" y="-135.5265" font-family="Times,serif" font-size="14.00" fill="#000000">&#45; | &#45;</text>
</g>
<!-- 9 -->
<g id="node10" class="node">
<title>9</title>
<ellipse fill="none" stroke="#000000" cx="35.0969" cy="-183.594" rx="35.194" ry="18"/>
<text text-anchor="middle" x="35.0969" y="-179.894" font-family="Times,serif" font-size="14.00" fill="#000000">N | N</text>
</g>
<!-- 6&#45;&#45;9 -->
<g id="edge10" class="edge">
<title>6&#45;&#45;9</title>
<path fill="none" stroke="#000000" d="M88.259,-175.6347C81.9239,-176.5832 75.2634,-177.5804 68.8818,-178.5358"/>
<text text-anchor="middle" x="70.8204" y="-165.8853" font-family="Times,serif" font-size="14.00" fill="#000000"># | &#45;</text>
</g>
<!-- 8 -->
<g id="node9" class="node">
<title>8</title>
<ellipse fill="none" stroke="#000000" cx="136.0351" cy="-18" rx="35.194" ry="18"/>
<text text-anchor="middle" x="136.0351" y="-14.3" font-family="Times,serif" font-size="14.00" fill="#000000">N | N</text>
</g>
<!-- 7&#45;&#45;8 -->
<g id="edge11" class="edge">
<title>7&#45;&#45;8</title>
<path fill="none" stroke="#000000" d="M134.1062,-74.6586C134.5034,-62.9917 135.0181,-47.8735 135.4159,-36.1885"/>
<text text-anchor="middle" x="115.761" y="-59.2235" font-family="Times,serif" font-size="14.00" fill="#000000"># | #</text>
</g>
<!-- 9&#45;&#45;10 -->
<g id="edge12" class="edge">
<title>9&#45;&#45;10</title>
<path fill="none" stroke="#000000" stroke-dasharray="1,5" d="M49.5788,-200.0561C54.2243,-205.3368 59.3695,-211.1855 64.021,-216.473"/>
<text text-anchor="middle" x="54.2999" y="-212.0646" font-family="Times,serif" font-size="14.00" fill="#000000">&#45;</text>
</g>
<!-- 9&#45;&#45;11 -->
<g id="edge13" class="edge">
<title>9&#45;&#45;11</title>
<path fill="none" stroke="#000000" stroke-dasharray="1,5" d="M38.1057,-201.6388C40.4316,-215.5877 43.636,-234.8057 45.9604,-248.7457"/>
<text text-anchor="middle" x="39.5331" y="-228.9922" font-family="Times,serif" font-size="14.00" fill="#000000">&#45;</text>
</g>
</g>
</svg>
