<?xml version="1.0" encoding="UTF-8" standalone="no"?>
<!DOCTYPE svg PUBLIC "-//W3C//DTD SVG 1.1//EN"
 "http://www.w3.org/Graphics/SVG/1.1/DTD/svg11.dtd">
<!-- Generated by graphviz version 2.40.1 (20161225.0304)
 -->
<!-- Title: G Pages: 1 -->
<svg width="292pt" height="299pt"
 viewBox="0.00 0.00 292.39 298.98" xmlns="http://www.w3.org/2000/svg" xmlns:xlink="http://www.w3.org/1999/xlink">
<g id="graph0" class="graph" transform="scale(1 1) rotate(0) translate(4 294.9833)">
<title>G</title>
<polygon fill="#ffffff" stroke="transparent" points="-4,4 -4,-294.9833 288.3875,-294.9833 288.3875,4 -4,4"/>
<!-- 0 -->
<g id="node1" class="node">
<title>0</title>
<ellipse fill="none" stroke="#000000" cx="57.3061" cy="-182.3268" rx="28.6953" ry="18"/>
<text text-anchor="middle" x="57.3061" y="-178.6268" font-family="Times,serif" font-size="14.00" fill="#000000">* | *</text>
</g>
<!-- 1 -->
<g id="node2" class="node">
<title>1</title>
<ellipse fill="none" stroke="#000000" cx="125.1547" cy="-137.4373" rx="33.2948" ry="18"/>
<text text-anchor="middle" x="125.1547" y="-133.7373" font-family="Times,serif" font-size="14.00" fill="#000000">C | C</text>
</g>
<!-- 0&#45;&#45;1 -->
<g id="edge1" class="edge">
<title>0&#45;&#45;1</title>
<path fill="none" stroke="#000000" d="M77.2959,-169.1013C85.5828,-163.6186 95.2124,-157.2475 103.652,-151.6638"/>
<text text-anchor="middle" x="78.9739" y="-149.1825" font-family="Times,serif" font-size="14.00" fill="#000000">&#45; | &#45;</text>
</g>
<!-- 2 -->
<g id="node3" class="node">
<title>2</title>
<ellipse fill="none" stroke="#000000" cx="93.8222" cy="-60.1814" rx="32.4942" ry="18"/>
<text text-anchor="middle" x="93.8222" y="-56.4814" font-family="Times,serif" font-size="14.00" fill="#000000">S | S</text>
</g>
<!-- 1&#45;&#45;2 -->
<g id="edge2" class="edge">
<title>1&#45;&#45;2</title>
<path fill="none" stroke="#000000" stroke-dasharray="1,5" d="M117.8876,-119.5191C112.8258,-107.0382 106.103,-90.4621 101.0498,-78.0025"/>
<text text-anchor="middle" x="106.9687" y="-102.5608" font-family="Times,serif" font-size="14.00" fill="#000000">&#45;</text>
</g>
<!-- 4 -->
<g id="node5" class="node">
<title>4</title>
<ellipse fill="none" stroke="#000000" cx="183.9547" cy="-196.5114" rx="35.194" ry="18"/>
<text text-anchor="middle" x="183.9547" y="-192.8114" font-family="Times,serif" font-size="14.00" fill="#000000">N | N</text>
</g>
<!-- 1&#45;&#45;4 -->
<g id="edge3" class="edge">
<title>1&#45;&#45;4</title>
<path fill="none" stroke="#000000" d="M141.222,-153.5796C149.5188,-161.915 159.6128,-172.0561 167.9067,-180.3887"/>
<text text-anchor="middle" x="170.0644" y="-155.7841" font-family="Times,serif" font-size="14.00" fill="#000000">&#45; | =</text>
</g>
<!-- 7 -->
<g id="node8" class="node">
<title>7</title>
<ellipse fill="none" stroke="#000000" cx="195.9" cy="-90.6357" rx="34.394" ry="18"/>
<text text-anchor="middle" x="195.9" y="-86.9357" font-family="Times,serif" font-size="14.00" fill="#000000">O | O</text>
</g>
<!-- 1&#45;&#45;7 -->
<g id="edge4" class="edge">
<title>1&#45;&#45;7</title>
<path fill="none" stroke="#000000" stroke-dasharray="5,2" d="M146.3806,-123.3953C155.1718,-117.5794 165.3588,-110.8402 174.1993,-104.9918"/>
<text text-anchor="middle" x="153.7899" y="-102.9935" font-family="Times,serif" font-size="14.00" fill="#000000">=</text>
</g>
<!-- 3 -->
<g id="node4" class="node">
<title>3</title>
<ellipse fill="none" stroke="#000000" cx="28.5975" cy="-18" rx="28.6953" ry="18"/>
<text text-anchor="middle" x="28.5975" y="-14.3" font-family="Times,serif" font-size="14.00" fill="#000000">* | *</text>
</g>
<!-- 2&#45;&#45;3 -->
<g id="edge5" class="edge">
<title>2&#45;&#45;3</title>
<path fill="none" stroke="#000000" d="M72.4651,-46.3697C64.886,-41.4681 56.3823,-35.9687 48.8942,-31.1261"/>
<text text-anchor="middle" x="49.1796" y="-42.5479" font-family="Times,serif" font-size="14.00" fill="#000000">&#45; | &#45;</text>
</g>
<!-- 8 -->
<g id="node9" class="node">
<title>8</title>
<ellipse fill="none" stroke="#000000" cx="164.1153" cy="-19.0924" rx="35.194" ry="18"/>
<text text-anchor="middle" x="164.1153" y="-15.3924" font-family="Times,serif" font-size="14.00" fill="#000000">H | H</text>
</g>
<!-- 2&#45;&#45;8 -->
<g id="edge6" class="edge">
<title>2&#45;&#45;8</title>
<path fill="none" stroke="#000000" stroke-dasharray="5,2" d="M116.4503,-46.9544C124.1561,-42.4501 132.7855,-37.4059 140.5621,-32.8602"/>
<text text-anchor="middle" x="126.0062" y="-28.7073" font-family="Times,serif" font-size="14.00" fill="#000000">&#45;</text>
</g>
<!-- 5 -->
<g id="node6" class="node">
<title>5</title>
<ellipse fill="none" stroke="#000000" cx="197.5543" cy="-272.9833" rx="28.6953" ry="18"/>
<text text-anchor="middle" x="197.5543" y="-269.2833" font-family="Times,serif" font-size="14.00" fill="#000000">* | *</text>
</g>
<!-- 4&#45;&#45;5 -->
<g id="edge7" class="edge">
<title>4&#45;&#45;5</title>
<path fill="none" stroke="#000000" d="M187.1776,-214.6342C189.3455,-226.8244 192.1914,-242.8276 194.3545,-254.9906"/>
<text text-anchor="middle" x="179.266" y="-238.6124" font-family="Times,serif" font-size="14.00" fill="#000000">&#45; | &#45;</text>
</g>
<!-- 6 -->
<g id="node7" class="node">
<title>6</title>
<ellipse fill="none" stroke="#000000" cx="249.2906" cy="-147.8878" rx="35.194" ry="18"/>
<text text-anchor="middle" x="249.2906" y="-144.1878" font-family="Times,serif" font-size="14.00" fill="#000000">H | H</text>
</g>
<!-- 4&#45;&#45;6 -->
<g id="edge8" class="edge">
<title>4&#45;&#45;6</title>
<path fill="none" stroke="#000000" stroke-dasharray="5,2" d="M203.9126,-181.6585C211.8684,-175.7377 221.0158,-168.9301 229.0039,-162.9853"/>
<text text-anchor="middle" x="213.9583" y="-161.1219" font-family="Times,serif" font-size="14.00" fill="#000000">&#45;</text>
</g>
<!-- 6&#45;&#45;7 -->
<g id="edge9" class="edge">
<title>6&#45;&#45;7</title>
<path fill="none" stroke="#000000" stroke-dasharray="1,5" d="M234.1338,-131.6348C226.9814,-123.9651 218.4606,-114.828 211.2801,-107.1281"/>
<text text-anchor="middle" x="220.2069" y="-108.1814" font-family="Times,serif" font-size="14.00" fill="#000000">&#45;</text>
</g>
<!-- 7&#45;&#45;8 -->
<g id="edge10" class="edge">
<title>7&#45;&#45;8</title>
<path fill="none" stroke="#000000" stroke-dasharray="1,5" d="M188.0431,-72.9508C183.1898,-62.0268 176.9799,-48.0489 172.1026,-37.0707"/>
<text text-anchor="middle" x="177.5728" y="-58.8108" font-family="Times,serif" font-size="14.00" fill="#000000">&#45;</text>
</g>
</g>
</svg>
