<?xml version="1.0" encoding="UTF-8" standalone="no"?>
<!DOCTYPE svg PUBLIC "-//W3C//DTD SVG 1.1//EN"
 "http://www.w3.org/Graphics/SVG/1.1/DTD/svg11.dtd">
<!-- Generated by graphviz version 2.40.1 (20161225.0304)
 -->
<!-- Title: G Pages: 1 -->
<svg width="295pt" height="318pt"
 viewBox="0.00 0.00 294.87 318.10" xmlns="http://www.w3.org/2000/svg" xmlns:xlink="http://www.w3.org/1999/xlink">
<g id="graph0" class="graph" transform="scale(1 1) rotate(0) translate(4 314.0963)">
<title>G</title>
<polygon fill="#ffffff" stroke="transparent" points="-4,4 -4,-314.0963 290.8658,-314.0963 290.8658,4 -4,4"/>
<!-- 0 -->
<g id="node1" class="node">
<title>0</title>
<ellipse fill="none" stroke="#000000" cx="28.5975" cy="-167.5398" rx="28.6953" ry="18"/>
<text text-anchor="middle" x="28.5975" y="-163.8398" font-family="Times,serif" font-size="14.00" fill="#000000">* | *</text>
</g>
<!-- 1 -->
<g id="node2" class="node">
<title>1</title>
<ellipse fill="none" stroke="#000000" cx="103.8594" cy="-138.022" rx="33.2948" ry="18"/>
<text text-anchor="middle" x="103.8594" y="-134.322" font-family="Times,serif" font-size="14.00" fill="#000000">C | C</text>
</g>
<!-- 0&#45;&#45;1 -->
<g id="edge1" class="edge">
<title>0&#45;&#45;1</title>
<path fill="none" stroke="#000000" d="M53.241,-157.8746C60.7862,-154.9154 69.1253,-151.6447 76.821,-148.6265"/>
<text text-anchor="middle" x="59.281" y="-142.0505" font-family="Times,serif" font-size="14.00" fill="#000000">&#45; | &#45;</text>
</g>
<!-- 2 -->
<g id="node3" class="node">
<title>2</title>
<ellipse fill="none" stroke="#000000" cx="46.9798" cy="-79.8647" rx="34.394" ry="18"/>
<text text-anchor="middle" x="46.9798" y="-76.1647" font-family="Times,serif" font-size="14.00" fill="#000000">O | O</text>
</g>
<!-- 1&#45;&#45;2 -->
<g id="edge2" class="edge">
<title>1&#45;&#45;2</title>
<path fill="none" stroke="#000000" d="M88.0152,-121.822C80.1261,-113.7556 70.6164,-104.0323 62.739,-95.9779"/>
<text text-anchor="middle" x="56.3771" y="-112.6999" font-family="Times,serif" font-size="14.00" fill="#000000">= | =</text>
</g>
<!-- 3 -->
<g id="node4" class="node">
<title>3</title>
<ellipse fill="none" stroke="#000000" cx="138.5674" cy="-214.0971" rx="34.394" ry="18"/>
<text text-anchor="middle" x="138.5674" y="-210.3971" font-family="Times,serif" font-size="14.00" fill="#000000">O | O</text>
</g>
<!-- 1&#45;&#45;3 -->
<g id="edge3" class="edge">
<title>1&#45;&#45;3</title>
<path fill="none" stroke="#000000" stroke-dasharray="5,2" d="M111.9093,-155.6664C117.5165,-167.9565 124.9635,-184.2793 130.5611,-196.5484"/>
<text text-anchor="middle" x="118.7352" y="-179.9074" font-family="Times,serif" font-size="14.00" fill="#000000">&#45;</text>
</g>
<!-- 6 -->
<g id="node7" class="node">
<title>6</title>
<ellipse fill="none" stroke="#000000" cx="179.9421" cy="-99.0166" rx="35.194" ry="18"/>
<text text-anchor="middle" x="179.9421" y="-95.3166" font-family="Times,serif" font-size="14.00" fill="#000000">N | N</text>
</g>
<!-- 1&#45;&#45;6 -->
<g id="edge4" class="edge">
<title>1&#45;&#45;6</title>
<path fill="none" stroke="#000000" stroke-dasharray="1,5" d="M128.3512,-125.4658C136.8655,-121.1008 146.4215,-116.2017 154.9738,-111.8172"/>
<text text-anchor="middle" x="139.1625" y="-107.4415" font-family="Times,serif" font-size="14.00" fill="#000000">&#45;</text>
</g>
<!-- 4 -->
<g id="node5" class="node">
<title>4</title>
<ellipse fill="none" stroke="#000000" cx="137.4902" cy="-292.0963" rx="33.2948" ry="18"/>
<text text-anchor="middle" x="137.4902" y="-288.3963" font-family="Times,serif" font-size="14.00" fill="#000000">C | C</text>
</g>
<!-- 3&#45;&#45;4 -->
<g id="edge5" class="edge">
<title>3&#45;&#45;4</title>
<path fill="none" stroke="#000000" d="M138.3175,-232.1878C138.1448,-244.6987 137.9157,-261.2855 137.7424,-273.8336"/>
<text text-anchor="middle" x="126.53" y="-256.8107" font-family="Times,serif" font-size="14.00" fill="#000000">&#45; | &#45;</text>
</g>
<!-- 5 -->
<g id="node6" class="node">
<title>5</title>
<ellipse fill="none" stroke="#000000" cx="208.8492" cy="-176.2978" rx="35.194" ry="18"/>
<text text-anchor="middle" x="208.8492" y="-172.5978" font-family="Times,serif" font-size="14.00" fill="#000000">H | H</text>
</g>
<!-- 3&#45;&#45;5 -->
<g id="edge6" class="edge">
<title>3&#45;&#45;5</title>
<path fill="none" stroke="#000000" stroke-dasharray="1,5" d="M162.7544,-201.0888C169.7428,-197.3302 177.3735,-193.2263 184.379,-189.4585"/>
<text text-anchor="middle" x="171.0667" y="-184.0736" font-family="Times,serif" font-size="14.00" fill="#000000">&#45;</text>
</g>
<!-- 5&#45;&#45;6 -->
<g id="edge7" class="edge">
<title>5&#45;&#45;6</title>
<path fill="none" stroke="#000000" stroke-dasharray="5,2" d="M202.1447,-158.3737C197.4747,-145.8888 191.2723,-129.3072 186.6103,-116.8435"/>
<text text-anchor="middle" x="191.8775" y="-141.4086" font-family="Times,serif" font-size="14.00" fill="#000000">&#45;</text>
</g>
<!-- 7 -->
<g id="node8" class="node">
<title>7</title>
<ellipse fill="none" stroke="#000000" cx="258.2684" cy="-77.5663" rx="28.6953" ry="18"/>
<text text-anchor="middle" x="258.2684" y="-73.8663" font-family="Times,serif" font-size="14.00" fill="#000000">* | *</text>
</g>
<!-- 6&#45;&#45;7 -->
<g id="edge8" class="edge">
<title>6&#45;&#45;7</title>
<path fill="none" stroke="#000000" d="M211.3491,-90.4156C218.1588,-88.5507 225.2944,-86.5965 231.8872,-84.791"/>
<text text-anchor="middle" x="215.8681" y="-76.4033" font-family="Times,serif" font-size="14.00" fill="#000000">&#45; | &#45;</text>
</g>
<!-- 8 -->
<g id="node9" class="node">
<title>8</title>
<ellipse fill="none" stroke="#000000" cx="179.4783" cy="-18" rx="28.6953" ry="18"/>
<text text-anchor="middle" x="179.4783" y="-14.3" font-family="Times,serif" font-size="14.00" fill="#000000">* | *</text>
</g>
<!-- 6&#45;&#45;8 -->
<g id="edge9" class="edge">
<title>6&#45;&#45;8</title>
<path fill="none" stroke="#000000" d="M179.8369,-80.6327C179.7604,-67.2805 179.6575,-49.3021 179.5815,-36.0321"/>
<text text-anchor="middle" x="168.2092" y="-62.1324" font-family="Times,serif" font-size="14.00" fill="#000000">&#45; | &#45;</text>
</g>
</g>
</svg>
