<?xml version="1.0" encoding="UTF-8" standalone="no"?>
<!DOCTYPE svg PUBLIC "-//W3C//DTD SVG 1.1//EN"
 "http://www.w3.org/Graphics/SVG/1.1/DTD/svg11.dtd">
<!-- Generated by graphviz version 2.40.1 (20161225.0304)
 -->
<!-- Title: G Pages: 1 -->
<svg width="229pt" height="242pt"
 viewBox="0.00 0.00 229.14 242.48" xmlns="http://www.w3.org/2000/svg" xmlns:xlink="http://www.w3.org/1999/xlink">
<g id="graph0" class="graph" transform="scale(1 1) rotate(0) translate(4 238.4776)">
<title>G</title>
<polygon fill="#ffffff" stroke="transparent" points="-4,4 -4,-238.4776 225.1434,-238.4776 225.1434,4 -4,4"/>
<!-- 0 -->
<g id="node1" class="node">
<title>0</title>
<ellipse fill="none" stroke="#000000" cx="35.0969" cy="-18" rx="35.194" ry="18"/>
<text text-anchor="middle" x="35.0969" y="-14.3" font-family="Times,serif" font-size="14.00" fill="#000000">H | H</text>
</g>
<!-- 1 -->
<g id="node2" class="node">
<title>1</title>
<ellipse fill="none" stroke="#000000" cx="93.4402" cy="-71.9383" rx="35.194" ry="18"/>
<text text-anchor="middle" x="93.4402" y="-68.2383" font-family="Times,serif" font-size="14.00" fill="#000000">N | N</text>
</g>
<!-- 0&#45;&#45;1 -->
<g id="edge1" class="edge">
<title>0&#45;&#45;1</title>
<path fill="none" stroke="#000000" d="M52.2862,-33.8915C59.8155,-40.8524 68.6338,-49.0048 76.1721,-55.9739"/>
<text text-anchor="middle" x="52.7291" y="-48.7327" font-family="Times,serif" font-size="14.00" fill="#000000">&#45; | &#45;</text>
</g>
<!-- 2 -->
<g id="node3" class="node">
<title>2</title>
<ellipse fill="none" stroke="#000000" cx="83.5507" cy="-151.1715" rx="33.2948" ry="18"/>
<text text-anchor="middle" x="83.5507" y="-147.4715" font-family="Times,serif" font-size="14.00" fill="#000000">C | C</text>
</g>
<!-- 1&#45;&#45;2 -->
<g id="edge2" class="edge">
<title>1&#45;&#45;2</title>
<path fill="none" stroke="#000000" stroke-dasharray="5,2" d="M91.1961,-89.9175C89.589,-102.7932 87.4329,-120.0675 85.8201,-132.9891"/>
<text text-anchor="middle" x="82.0081" y="-115.2533" font-family="Times,serif" font-size="14.00" fill="#000000">=</text>
</g>
<!-- 4 -->
<g id="node5" class="node">
<title>4</title>
<ellipse fill="none" stroke="#000000" cx="186.0465" cy="-79.7423" rx="35.194" ry="18"/>
<text text-anchor="middle" x="186.0465" y="-76.0423" font-family="Times,serif" font-size="14.00" fill="#000000">H | H</text>
</g>
<!-- 1&#45;&#45;4 -->
<g id="edge3" class="edge">
<title>1&#45;&#45;4</title>
<path fill="none" stroke="#000000" stroke-dasharray="1,5" d="M128.1868,-74.8664C135.7826,-75.5065 143.8217,-76.184 151.4131,-76.8237"/>
<text text-anchor="middle" x="137.3" y="-79.6451" font-family="Times,serif" font-size="14.00" fill="#000000">&#45;</text>
</g>
<!-- 6 -->
<g id="node7" class="node">
<title>6</title>
<ellipse fill="none" stroke="#000000" cx="152.5457" cy="-40.8633" rx="35.194" ry="18"/>
<text text-anchor="middle" x="152.5457" y="-37.1633" font-family="Times,serif" font-size="14.00" fill="#000000">H | H</text>
</g>
<!-- 1&#45;&#45;6 -->
<g id="edge4" class="edge">
<title>1&#45;&#45;6</title>
<path fill="none" stroke="#000000" stroke-dasharray="1,5" d="M118.1637,-58.9398C121.3271,-57.2766 124.5664,-55.5736 127.7312,-53.9097"/>
<text text-anchor="middle" x="120.4475" y="-60.2247" font-family="Times,serif" font-size="14.00" fill="#000000">&#45;</text>
</g>
<!-- 3 -->
<g id="node4" class="node">
<title>3</title>
<ellipse fill="none" stroke="#000000" cx="45.5087" cy="-216.4776" rx="34.394" ry="18"/>
<text text-anchor="middle" x="45.5087" y="-212.7776" font-family="Times,serif" font-size="14.00" fill="#000000">O | O</text>
</g>
<!-- 2&#45;&#45;3 -->
<g id="edge5" class="edge">
<title>2&#45;&#45;3</title>
<path fill="none" stroke="#000000" d="M73.3561,-168.6723C67.898,-178.0423 61.1939,-189.5511 55.7314,-198.9284"/>
<text text-anchor="middle" x="45.5438" y="-187.6004" font-family="Times,serif" font-size="14.00" fill="#000000">= | =</text>
</g>
<!-- 5 -->
<g id="node6" class="node">
<title>5</title>
<ellipse fill="none" stroke="#000000" cx="160.8362" cy="-135.4525" rx="34.394" ry="18"/>
<text text-anchor="middle" x="160.8362" y="-131.7525" font-family="Times,serif" font-size="14.00" fill="#000000">O | O</text>
</g>
<!-- 2&#45;&#45;5 -->
<g id="edge6" class="edge">
<title>2&#45;&#45;5</title>
<path fill="none" stroke="#000000" stroke-dasharray="1,5" d="M114.9857,-144.778C119.4991,-143.86 124.1485,-142.9143 128.6757,-141.9936"/>
<text text-anchor="middle" x="118.5807" y="-132.1858" font-family="Times,serif" font-size="14.00" fill="#000000">=</text>
</g>
<!-- 4&#45;&#45;5 -->
<g id="edge7" class="edge">
<title>4&#45;&#45;5</title>
<path fill="none" stroke="#000000" stroke-dasharray="5,2" d="M178.0698,-97.3694C175.127,-103.8724 171.7934,-111.2391 168.8476,-117.7489"/>
<text text-anchor="middle" x="170.9587" y="-111.3591" font-family="Times,serif" font-size="14.00" fill="#000000">&#45;</text>
</g>
<!-- 5&#45;&#45;6 -->
<g id="edge8" class="edge">
<title>5&#45;&#45;6</title>
<path fill="none" stroke="#000000" stroke-dasharray="5,2" d="M159.2377,-117.2148C157.7697,-100.4652 155.6058,-75.777 154.1393,-59.0451"/>
<text text-anchor="middle" x="154.1885" y="-91.9299" font-family="Times,serif" font-size="14.00" fill="#000000">&#45;</text>
</g>
</g>
</svg>
