<?xml version="1.0" encoding="UTF-8" standalone="no"?>
<!DOCTYPE svg PUBLIC "-//W3C//DTD SVG 1.1//EN"
 "http://www.w3.org/Graphics/SVG/1.1/DTD/svg11.dtd">
<!-- Generated by graphviz version 2.40.1 (20161225.0304)
 -->
<!-- Title: G Pages: 1 -->
<svg width="260pt" height="231pt"
 viewBox="0.00 0.00 260.36 230.53" xmlns="http://www.w3.org/2000/svg" xmlns:xlink="http://www.w3.org/1999/xlink">
<g id="graph0" class="graph" transform="scale(1 1) rotate(0) translate(4 226.5318)">
<title>G</title>
<polygon fill="#ffffff" stroke="transparent" points="-4,4 -4,-226.5318 256.3631,-226.5318 256.3631,4 -4,4"/>
<!-- 0 -->
<g id="node1" class="node">
<title>0</title>
<ellipse fill="none" stroke="#000000" cx="35.0969" cy="-35.2189" rx="35.194" ry="18"/>
<text text-anchor="middle" x="35.0969" y="-31.5189" font-family="Times,serif" font-size="14.00" fill="#000000">H | H</text>
</g>
<!-- 1 -->
<g id="node2" class="node">
<title>1</title>
<ellipse fill="none" stroke="#000000" cx="106.6113" cy="-61.4811" rx="33.2948" ry="18"/>
<text text-anchor="middle" x="106.6113" y="-57.7811" font-family="Times,serif" font-size="14.00" fill="#000000">C | C</text>
</g>
<!-- 0&#45;&#45;1 -->
<g id="edge1" class="edge">
<title>0&#45;&#45;1</title>
<path fill="none" stroke="#000000" d="M63.7725,-45.7494C68.7464,-47.576 73.9108,-49.4725 78.8596,-51.2899"/>
<text text-anchor="middle" x="82.816" y="-37.3196" font-family="Times,serif" font-size="14.00" fill="#000000">&#45; | &#45;</text>
</g>
<!-- 2 -->
<g id="node3" class="node">
<title>2</title>
<ellipse fill="none" stroke="#000000" cx="174.1964" cy="-18" rx="35.194" ry="18"/>
<text text-anchor="middle" x="174.1964" y="-14.3" font-family="Times,serif" font-size="14.00" fill="#000000">N | N</text>
</g>
<!-- 1&#45;&#45;2 -->
<g id="edge2" class="edge">
<title>1&#45;&#45;2</title>
<path fill="none" stroke="#000000" d="M127.9956,-47.7234C135.7301,-42.7474 144.4717,-37.1235 152.2535,-32.1171"/>
<text text-anchor="middle" x="159.1245" y="-43.7202" font-family="Times,serif" font-size="14.00" fill="#000000"># | =</text>
</g>
<!-- 4 -->
<g id="node5" class="node">
<title>4</title>
<ellipse fill="none" stroke="#000000" cx="149.9449" cy="-128.4777" rx="33.2948" ry="18"/>
<text text-anchor="middle" x="149.9449" y="-124.7777" font-family="Times,serif" font-size="14.00" fill="#000000">C | C</text>
</g>
<!-- 1&#45;&#45;4 -->
<g id="edge3" class="edge">
<title>1&#45;&#45;4</title>
<path fill="none" stroke="#000000" stroke-dasharray="1,5" d="M117.7707,-78.7344C124.1905,-88.6597 132.234,-101.0956 138.6726,-111.0501"/>
<text text-anchor="middle" x="125.7217" y="-98.6922" font-family="Times,serif" font-size="14.00" fill="#000000">&#45;</text>
</g>
<!-- 5 -->
<g id="node6" class="node">
<title>5</title>
<ellipse fill="none" stroke="#000000" cx="217.2662" cy="-84.5516" rx="35.194" ry="18"/>
<text text-anchor="middle" x="217.2662" y="-80.8516" font-family="Times,serif" font-size="14.00" fill="#000000">H | H</text>
</g>
<!-- 2&#45;&#45;5 -->
<g id="edge4" class="edge">
<title>2&#45;&#45;5</title>
<path fill="none" stroke="#000000" stroke-dasharray="1,5" d="M185.288,-35.1387C191.6686,-44.9981 199.6632,-57.3513 206.0626,-67.2396"/>
<text text-anchor="middle" x="193.1753" y="-54.9892" font-family="Times,serif" font-size="14.00" fill="#000000">&#45;</text>
</g>
<!-- 3 -->
<g id="node4" class="node">
<title>3</title>
<ellipse fill="none" stroke="#000000" cx="145.4585" cy="-204.5318" rx="35.194" ry="18"/>
<text text-anchor="middle" x="145.4585" y="-200.8318" font-family="Times,serif" font-size="14.00" fill="#000000">N | N</text>
</g>
<!-- 3&#45;&#45;4 -->
<g id="edge5" class="edge">
<title>3&#45;&#45;4</title>
<path fill="none" stroke="#000000" d="M146.5218,-186.508C147.2317,-174.4723 148.1622,-158.6991 148.8738,-146.6357"/>
<text text-anchor="middle" x="128.6978" y="-170.3719" font-family="Times,serif" font-size="14.00" fill="#000000"># | #</text>
</g>
<!-- 4&#45;&#45;5 -->
<g id="edge6" class="edge">
<title>4&#45;&#45;5</title>
<path fill="none" stroke="#000000" stroke-dasharray="5,2" d="M171.2458,-114.5792C178.9501,-109.5523 187.6576,-103.8708 195.4089,-98.8131"/>
<text text-anchor="middle" x="185.8274" y="-110.4962" font-family="Times,serif" font-size="14.00" fill="#000000">&#45;</text>
</g>
</g>
</svg>
