<?xml version="1.0" encoding="UTF-8" standalone="no"?>
<!DOCTYPE svg PUBLIC "-//W3C//DTD SVG 1.1//EN"
 "http://www.w3.org/Graphics/SVG/1.1/DTD/svg11.dtd">
<!-- Generated by graphviz version 2.40.1 (20161225.0304)
 -->
<!-- Title: G Pages: 1 -->
<svg width="335pt" height="284pt"
 viewBox="0.00 0.00 334.63 283.59" xmlns="http://www.w3.org/2000/svg" xmlns:xlink="http://www.w3.org/1999/xlink">
<g id="graph0" class="graph" transform="scale(1 1) rotate(0) translate(4 279.5884)">
<title>G</title>
<polygon fill="#ffffff" stroke="transparent" points="-4,4 -4,-279.5884 330.6262,-279.5884 330.6262,4 -4,4"/>
<!-- 0 -->
<g id="node1" class="node">
<title>0</title>
<ellipse fill="none" stroke="#000000" cx="139.3299" cy="-212.4702" rx="28.6953" ry="18"/>
<text text-anchor="middle" x="139.3299" y="-208.7702" font-family="Times,serif" font-size="14.00" fill="#000000">* | *</text>
</g>
<!-- 1 -->
<g id="node2" class="node">
<title>1</title>
<ellipse fill="none" stroke="#000000" cx="184.0355" cy="-144.4123" rx="33.2948" ry="18"/>
<text text-anchor="middle" x="184.0355" y="-140.7123" font-family="Times,serif" font-size="14.00" fill="#000000">C | C</text>
</g>
<!-- 0&#45;&#45;1 -->
<g id="edge1" class="edge">
<title>0&#45;&#45;1</title>
<path fill="none" stroke="#000000" d="M150.3807,-195.6469C157.2069,-185.2551 165.9413,-171.9581 172.8013,-161.5148"/>
<text text-anchor="middle" x="150.091" y="-182.3809" font-family="Times,serif" font-size="14.00" fill="#000000">&#45; | &#45;</text>
</g>
<!-- 2 -->
<g id="node3" class="node">
<title>2</title>
<ellipse fill="none" stroke="#000000" cx="113.5725" cy="-99.5309" rx="35.194" ry="18"/>
<text text-anchor="middle" x="113.5725" y="-95.8309" font-family="Times,serif" font-size="14.00" fill="#000000">N | N</text>
</g>
<!-- 1&#45;&#45;2 -->
<g id="edge2" class="edge">
<title>1&#45;&#45;2</title>
<path fill="none" stroke="#000000" d="M162.5114,-130.7026C154.0931,-125.3405 144.4379,-119.1906 135.94,-113.7779"/>
<text text-anchor="middle" x="133.7257" y="-126.0402" font-family="Times,serif" font-size="14.00" fill="#000000">= | &#45;</text>
</g>
<!-- 4 -->
<g id="node5" class="node">
<title>4</title>
<ellipse fill="none" stroke="#000000" cx="245.3527" cy="-197.541" rx="33.2948" ry="18"/>
<text text-anchor="middle" x="245.3527" y="-193.841" font-family="Times,serif" font-size="14.00" fill="#000000">C | C</text>
</g>
<!-- 1&#45;&#45;4 -->
<g id="edge3" class="edge">
<title>1&#45;&#45;4</title>
<path fill="none" stroke="#000000" d="M201.7709,-159.7793C209.8352,-166.7667 219.3597,-175.0192 227.4446,-182.0245"/>
<text text-anchor="middle" x="203.1078" y="-174.7019" font-family="Times,serif" font-size="14.00" fill="#000000">&#45; | &#45;</text>
</g>
<!-- 7 -->
<g id="node8" class="node">
<title>7</title>
<ellipse fill="none" stroke="#000000" cx="218.637" cy="-67.6079" rx="33.2948" ry="18"/>
<text text-anchor="middle" x="218.637" y="-63.9079" font-family="Times,serif" font-size="14.00" fill="#000000">C | C</text>
</g>
<!-- 1&#45;&#45;7 -->
<g id="edge4" class="edge">
<title>1&#45;&#45;7</title>
<path fill="none" stroke="#000000" stroke-dasharray="1,5" d="M192.0607,-126.5988C197.6507,-114.1909 205.0749,-97.7115 210.6553,-85.3248"/>
<text text-anchor="middle" x="198.858" y="-109.7618" font-family="Times,serif" font-size="14.00" fill="#000000">&#45;</text>
</g>
<!-- 3 -->
<g id="node4" class="node">
<title>3</title>
<ellipse fill="none" stroke="#000000" cx="35.0969" cy="-97.3776" rx="35.194" ry="18"/>
<text text-anchor="middle" x="35.0969" y="-93.6776" font-family="Times,serif" font-size="14.00" fill="#000000">H | H</text>
</g>
<!-- 2&#45;&#45;3 -->
<g id="edge5" class="edge">
<title>2&#45;&#45;3</title>
<path fill="none" stroke="#000000" d="M78.4663,-98.5676C75.8544,-98.496 73.2179,-98.4236 70.6037,-98.3519"/>
<text text-anchor="middle" x="68.785" y="-87.2598" font-family="Times,serif" font-size="14.00" fill="#000000">&#45; | &#45;</text>
</g>
<!-- 6 -->
<g id="node7" class="node">
<title>6</title>
<ellipse fill="none" stroke="#000000" cx="148.5967" cy="-26.8555" rx="35.194" ry="18"/>
<text text-anchor="middle" x="148.5967" y="-23.1555" font-family="Times,serif" font-size="14.00" fill="#000000">H | H</text>
</g>
<!-- 2&#45;&#45;6 -->
<g id="edge6" class="edge">
<title>2&#45;&#45;6</title>
<path fill="none" stroke="#000000" stroke-dasharray="1,5" d="M122.0509,-81.9382C127.5171,-70.5959 134.6003,-55.8981 140.075,-44.5381"/>
<text text-anchor="middle" x="128.563" y="-67.0381" font-family="Times,serif" font-size="14.00" fill="#000000">&#45;</text>
</g>
<!-- 5 -->
<g id="node6" class="node">
<title>5</title>
<ellipse fill="none" stroke="#000000" cx="291.5293" cy="-257.5884" rx="35.194" ry="18"/>
<text text-anchor="middle" x="291.5293" y="-253.8884" font-family="Times,serif" font-size="14.00" fill="#000000">N | N</text>
</g>
<!-- 4&#45;&#45;5 -->
<g id="edge7" class="edge">
<title>4&#45;&#45;5</title>
<path fill="none" stroke="#000000" d="M258.2155,-214.2676C264.5134,-222.4573 272.0834,-232.3012 278.4147,-240.5344"/>
<text text-anchor="middle" x="287.3151" y="-216.201" font-family="Times,serif" font-size="14.00" fill="#000000"># | #</text>
</g>
<!-- 6&#45;&#45;7 -->
<g id="edge8" class="edge">
<title>6&#45;&#45;7</title>
<path fill="none" stroke="#000000" stroke-dasharray="5,2" d="M171.9191,-40.4255C179.5597,-44.871 188.0395,-49.805 195.6547,-54.2358"/>
<text text-anchor="middle" x="181.2869" y="-51.1306" font-family="Times,serif" font-size="14.00" fill="#000000">&#45;</text>
</g>
<!-- 8 -->
<g id="node9" class="node">
<title>8</title>
<ellipse fill="none" stroke="#000000" cx="279.4023" cy="-18" rx="35.194" ry="18"/>
<text text-anchor="middle" x="279.4023" y="-14.3" font-family="Times,serif" font-size="14.00" fill="#000000">N | N</text>
</g>
<!-- 7&#45;&#45;8 -->
<g id="edge9" class="edge">
<title>7&#45;&#45;8</title>
<path fill="none" stroke="#000000" d="M237.1988,-52.4543C244.5981,-46.4137 253.1055,-39.4683 260.5349,-33.4031"/>
<text text-anchor="middle" x="267.8668" y="-46.7287" font-family="Times,serif" font-size="14.00" fill="#000000"># | #</text>
</g>
</g>
</svg>
