<?xml version="1.0" encoding="UTF-8" standalone="no"?>
<!DOCTYPE svg PUBLIC "-//W3C//DTD SVG 1.1//EN"
 "http://www.w3.org/Graphics/SVG/1.1/DTD/svg11.dtd">
<!-- Generated by graphviz version 2.40.1 (20161225.0304)
 -->
<!-- Title: G Pages: 1 -->
<svg width="337pt" height="422pt"
 viewBox="0.00 0.00 337.46 422.40" xmlns="http://www.w3.org/2000/svg" xmlns:xlink="http://www.w3.org/1999/xlink">
<g id="graph0" class="graph" transform="scale(1 1) rotate(0) translate(4 418.397)">
<title>G</title>
<polygon fill="#ffffff" stroke="transparent" points="-4,4 -4,-418.397 333.4553,-418.397 333.4553,4 -4,4"/>
<!-- 0 -->
<g id="node1" class="node">
<title>0</title>
<ellipse fill="none" stroke="#000000" cx="266.7674" cy="-204.7179" rx="35.194" ry="18"/>
<text text-anchor="middle" x="266.7674" y="-201.0179" font-family="Times,serif" font-size="14.00" fill="#000000">H | H</text>
</g>
<!-- 1 -->
<g id="node2" class="node">
<title>1</title>
<ellipse fill="none" stroke="#000000" cx="191.2433" cy="-171.1308" rx="33.2948" ry="18"/>
<text text-anchor="middle" x="191.2433" y="-167.4308" font-family="Times,serif" font-size="14.00" fill="#000000">C | C</text>
</g>
<!-- 0&#45;&#45;1 -->
<g id="edge1" class="edge">
<title>0&#45;&#45;1</title>
<path fill="none" stroke="#000000" stroke-dasharray="5,2" d="M239.9278,-192.7818C232.4657,-189.4632 224.3811,-185.8678 216.9836,-182.578"/>
<text text-anchor="middle" x="228.4557" y="-176.4799" font-family="Times,serif" font-size="14.00" fill="#000000">&#45;</text>
</g>
<!-- 5 -->
<g id="node6" class="node">
<title>5</title>
<ellipse fill="none" stroke="#000000" cx="272.5667" cy="-281.5269" rx="35.194" ry="18"/>
<text text-anchor="middle" x="272.5667" y="-277.8269" font-family="Times,serif" font-size="14.00" fill="#000000">N | N</text>
</g>
<!-- 0&#45;&#45;5 -->
<g id="edge2" class="edge">
<title>0&#45;&#45;5</title>
<path fill="none" stroke="#000000" stroke-dasharray="1,5" d="M268.1418,-222.9206C269.0662,-235.1645 270.2798,-251.2383 271.2022,-263.4549"/>
<text text-anchor="middle" x="267.172" y="-246.9877" font-family="Times,serif" font-size="14.00" fill="#000000">&#45;</text>
</g>
<!-- 2 -->
<g id="node3" class="node">
<title>2</title>
<ellipse fill="none" stroke="#000000" cx="109.7276" cy="-152.1053" rx="33.2948" ry="18"/>
<text text-anchor="middle" x="109.7276" y="-148.4053" font-family="Times,serif" font-size="14.00" fill="#000000">C | C</text>
</g>
<!-- 1&#45;&#45;2 -->
<g id="edge3" class="edge">
<title>1&#45;&#45;2</title>
<path fill="none" stroke="#000000" d="M160.4257,-163.9381C153.8432,-162.4017 146.8923,-160.7794 140.3184,-159.2451"/>
<text text-anchor="middle" x="156.122" y="-150.3916" font-family="Times,serif" font-size="14.00" fill="#000000">&#45; | &#45;</text>
</g>
<!-- 4 -->
<g id="node5" class="node">
<title>4</title>
<ellipse fill="none" stroke="#000000" cx="192.2995" cy="-255.8671" rx="33.2948" ry="18"/>
<text text-anchor="middle" x="192.2995" y="-252.1671" font-family="Times,serif" font-size="14.00" fill="#000000">C | C</text>
</g>
<!-- 1&#45;&#45;4 -->
<g id="edge4" class="edge">
<title>1&#45;&#45;4</title>
<path fill="none" stroke="#000000" d="M191.4725,-189.5173C191.6508,-203.8278 191.8971,-223.5809 192.0744,-237.8076"/>
<text text-anchor="middle" x="176.2734" y="-217.4624" font-family="Times,serif" font-size="14.00" fill="#000000">&#45; | =</text>
</g>
<!-- 6 -->
<g id="node7" class="node">
<title>6</title>
<ellipse fill="none" stroke="#000000" cx="227.6718" cy="-93.472" rx="35.194" ry="18"/>
<text text-anchor="middle" x="227.6718" y="-89.772" font-family="Times,serif" font-size="14.00" fill="#000000">N | N</text>
</g>
<!-- 1&#45;&#45;6 -->
<g id="edge5" class="edge">
<title>1&#45;&#45;6</title>
<path fill="none" stroke="#000000" d="M199.5095,-153.5088C205.4712,-140.7995 213.4841,-123.7176 219.4383,-111.0243"/>
<text text-anchor="middle" x="197.9739" y="-136.0666" font-family="Times,serif" font-size="14.00" fill="#000000">&#45; | &#45;</text>
</g>
<!-- 3 -->
<g id="node4" class="node">
<title>3</title>
<ellipse fill="none" stroke="#000000" cx="35.0969" cy="-130.4637" rx="35.194" ry="18"/>
<text text-anchor="middle" x="35.0969" y="-126.7637" font-family="Times,serif" font-size="14.00" fill="#000000">N | N</text>
</g>
<!-- 2&#45;&#45;3 -->
<g id="edge6" class="edge">
<title>2&#45;&#45;3</title>
<path fill="none" stroke="#000000" d="M80.2316,-143.552C75.5054,-142.1814 70.6039,-140.7601 65.8492,-139.3813"/>
<text text-anchor="middle" x="54.0404" y="-145.2667" font-family="Times,serif" font-size="14.00" fill="#000000"># | #</text>
</g>
<!-- 4&#45;&#45;5 -->
<g id="edge7" class="edge">
<title>4&#45;&#45;5</title>
<path fill="none" stroke="#000000" d="M221.2778,-265.1309C228.1933,-267.3416 235.5887,-269.7058 242.5497,-271.9311"/>
<text text-anchor="middle" x="216.4138" y="-272.331" font-family="Times,serif" font-size="14.00" fill="#000000"># | &#45;</text>
</g>
<!-- 10 -->
<g id="node11" class="node">
<title>10</title>
<ellipse fill="none" stroke="#000000" cx="180.2865" cy="-336.3547" rx="33.2948" ry="18"/>
<text text-anchor="middle" x="180.2865" y="-332.6547" font-family="Times,serif" font-size="14.00" fill="#000000">C | C</text>
</g>
<!-- 4&#45;&#45;10 -->
<g id="edge8" class="edge">
<title>4&#45;&#45;10</title>
<path fill="none" stroke="#000000" stroke-dasharray="1,5" d="M189.5736,-274.131C187.6076,-287.3033 184.9652,-305.0074 183.0017,-318.1631"/>
<text text-anchor="middle" x="183.7877" y="-299.947" font-family="Times,serif" font-size="14.00" fill="#000000">&#45;</text>
</g>
<!-- 9 -->
<g id="node10" class="node">
<title>9</title>
<ellipse fill="none" stroke="#000000" cx="259.2584" cy="-359.0811" rx="35.194" ry="18"/>
<text text-anchor="middle" x="259.2584" y="-355.3811" font-family="Times,serif" font-size="14.00" fill="#000000">H | H</text>
</g>
<!-- 5&#45;&#45;9 -->
<g id="edge9" class="edge">
<title>5&#45;&#45;9</title>
<path fill="none" stroke="#000000" stroke-dasharray="1,5" d="M269.48,-299.5143C267.3454,-311.9539 264.5154,-328.446 262.3744,-340.9225"/>
<text text-anchor="middle" x="263.4272" y="-324.0184" font-family="Times,serif" font-size="14.00" fill="#000000">&#45;</text>
</g>
<!-- 7 -->
<g id="node8" class="node">
<title>7</title>
<ellipse fill="none" stroke="#000000" cx="300.8579" cy="-57.1081" rx="28.6953" ry="18"/>
<text text-anchor="middle" x="300.8579" y="-53.4081" font-family="Times,serif" font-size="14.00" fill="#000000">* | *</text>
</g>
<!-- 6&#45;&#45;7 -->
<g id="edge10" class="edge">
<title>6&#45;&#45;7</title>
<path fill="none" stroke="#000000" d="M253.2687,-80.7537C261.3479,-76.7394 270.2154,-72.3334 278.0837,-68.4239"/>
<text text-anchor="middle" x="254.1762" y="-63.3888" font-family="Times,serif" font-size="14.00" fill="#000000">&#45; | &#45;</text>
</g>
<!-- 8 -->
<g id="node9" class="node">
<title>8</title>
<ellipse fill="none" stroke="#000000" cx="202.6845" cy="-18" rx="28.6953" ry="18"/>
<text text-anchor="middle" x="202.6845" y="-14.3" font-family="Times,serif" font-size="14.00" fill="#000000">* | *</text>
</g>
<!-- 6&#45;&#45;8 -->
<g id="edge11" class="edge">
<title>6&#45;&#45;8</title>
<path fill="none" stroke="#000000" d="M221.7501,-75.5862C217.7669,-63.5554 212.5379,-47.7614 208.5636,-35.7574"/>
<text text-anchor="middle" x="203.6569" y="-59.4718" font-family="Times,serif" font-size="14.00" fill="#000000">&#45; | &#45;</text>
</g>
<!-- 9&#45;&#45;10 -->
<g id="edge12" class="edge">
<title>9&#45;&#45;10</title>
<path fill="none" stroke="#000000" stroke-dasharray="5,2" d="M228.4997,-350.2294C222.3499,-348.4596 215.9027,-346.6043 209.7963,-344.847"/>
<text text-anchor="middle" x="216.648" y="-351.3382" font-family="Times,serif" font-size="14.00" fill="#000000">&#45;</text>
</g>
<!-- 11 -->
<g id="node12" class="node">
<title>11</title>
<ellipse fill="none" stroke="#000000" cx="131.4042" cy="-396.397" rx="35.194" ry="18"/>
<text text-anchor="middle" x="131.4042" y="-392.697" font-family="Times,serif" font-size="14.00" fill="#000000">N | N</text>
</g>
<!-- 10&#45;&#45;11 -->
<g id="edge13" class="edge">
<title>10&#45;&#45;11</title>
<path fill="none" stroke="#000000" d="M166.6701,-353.0799C159.8901,-361.4077 151.7175,-371.4461 144.9476,-379.7616"/>
<text text-anchor="middle" x="136.8089" y="-355.2207" font-family="Times,serif" font-size="14.00" fill="#000000"># | #</text>
</g>
</g>
</svg>
