<?xml version="1.0" encoding="UTF-8" standalone="no"?>
<!DOCTYPE svg PUBLIC "-//W3C//DTD SVG 1.1//EN"
 "http://www.w3.org/Graphics/SVG/1.1/DTD/svg11.dtd">
<!-- Generated by graphviz version 2.40.1 (20161225.0304)
 -->
<!-- Title: G Pages: 1 -->
<svg width="202pt" height="192pt"
 viewBox="0.00 0.00 201.75 191.60" xmlns="http://www.w3.org/2000/svg" xmlns:xlink="http://www.w3.org/1999/xlink">
<g id="graph0" class="graph" transform="scale(1 1) rotate(0) translate(4 187.5994)">
<title>G</title>
<polygon fill="#ffffff" stroke="transparent" points="-4,4 -4,-187.5994 197.7482,-187.5994 197.7482,4 -4,4"/>
<!-- 0 -->
<g id="node1" class="node">
<title>0</title>
<ellipse fill="none" stroke="#000000" cx="37.5639" cy="-18" rx="33.2948" ry="18"/>
<text text-anchor="middle" x="37.5639" y="-14.3" font-family="Times,serif" font-size="14.00" fill="#000000">C | C</text>
</g>
<!-- 1 -->
<g id="node2" class="node">
<title>1</title>
<ellipse fill="none" stroke="#000000" cx="115.6013" cy="-28.5343" rx="35.194" ry="18"/>
<text text-anchor="middle" x="115.6013" y="-24.8343" font-family="Times,serif" font-size="14.00" fill="#000000">H | H</text>
</g>
<!-- 0&#45;&#45;1 -->
<g id="edge1" class="edge">
<title>0&#45;&#45;1</title>
<path fill="none" stroke="#000000" stroke-dasharray="5,2" d="M69.7553,-22.3455C73.6179,-22.8669 77.5726,-23.4008 81.4617,-23.9258"/>
<text text-anchor="middle" x="73.1085" y="-26.9356" font-family="Times,serif" font-size="14.00" fill="#000000">&#45;</text>
</g>
<!-- 2 -->
<g id="node3" class="node">
<title>2</title>
<ellipse fill="none" stroke="#000000" cx="33.1471" cy="-96.6004" rx="33.2948" ry="18"/>
<text text-anchor="middle" x="33.1471" y="-92.9004" font-family="Times,serif" font-size="14.00" fill="#000000">C | C</text>
</g>
<!-- 0&#45;&#45;2 -->
<g id="edge2" class="edge">
<title>0&#45;&#45;2</title>
<path fill="none" stroke="#000000" d="M36.5395,-36.2301C35.826,-48.9282 34.8783,-65.7928 34.1659,-78.4692"/>
<text text-anchor="middle" x="19.8527" y="-61.1496" font-family="Times,serif" font-size="14.00" fill="#000000">&#45; | =</text>
</g>
<!-- 3 -->
<g id="node4" class="node">
<title>3</title>
<ellipse fill="none" stroke="#000000" cx="111.3442" cy="-107.3086" rx="34.394" ry="18"/>
<text text-anchor="middle" x="111.3442" y="-103.6086" font-family="Times,serif" font-size="14.00" fill="#000000">O | O</text>
</g>
<!-- 1&#45;&#45;3 -->
<g id="edge3" class="edge">
<title>1&#45;&#45;3</title>
<path fill="none" stroke="#000000" stroke-dasharray="1,5" d="M114.6139,-46.8047C113.9262,-59.5309 113.0128,-76.4328 112.3262,-89.1373"/>
<text text-anchor="middle" x="110.97" y="-71.771" font-family="Times,serif" font-size="14.00" fill="#000000">&#45;</text>
</g>
<!-- 2&#45;&#45;3 -->
<g id="edge4" class="edge">
<title>2&#45;&#45;3</title>
<path fill="none" stroke="#000000" stroke-dasharray="5,2" d="M65.4043,-101.0177C69.5272,-101.5822 73.7549,-102.1612 77.8962,-102.7283"/>
<text text-anchor="middle" x="69.1503" y="-105.673" font-family="Times,serif" font-size="14.00" fill="#000000">&#45;</text>
</g>
<!-- 4 -->
<g id="node5" class="node">
<title>4</title>
<ellipse fill="none" stroke="#000000" cx="158.6513" cy="-165.5994" rx="35.194" ry="18"/>
<text text-anchor="middle" x="158.6513" y="-161.8994" font-family="Times,serif" font-size="14.00" fill="#000000">H | H</text>
</g>
<!-- 3&#45;&#45;4 -->
<g id="edge5" class="edge">
<title>3&#45;&#45;4</title>
<path fill="none" stroke="#000000" d="M125.0274,-124.1687C131.3583,-131.9695 138.8555,-141.2074 145.1623,-148.9784"/>
<text text-anchor="middle" x="146.5948" y="-125.3736" font-family="Times,serif" font-size="14.00" fill="#000000">&#45; | &#45;</text>
</g>
</g>
</svg>
