<?xml version="1.0" encoding="UTF-8" standalone="no"?>
<!DOCTYPE svg PUBLIC "-//W3C//DTD SVG 1.1//EN"
 "http://www.w3.org/Graphics/SVG/1.1/DTD/svg11.dtd">
<!-- Generated by graphviz version 2.40.1 (20161225.0304)
 -->
<!-- Title: G Pages: 1 -->
<svg width="317pt" height="305pt"
 viewBox="0.00 0.00 316.55 304.64" xmlns="http://www.w3.org/2000/svg" xmlns:xlink="http://www.w3.org/1999/xlink">
<g id="graph0" class="graph" transform="scale(1 1) rotate(0) translate(4 300.6412)">
<title>G</title>
<polygon fill="#ffffff" stroke="transparent" points="-4,4 -4,-300.6412 312.5542,-300.6412 312.5542,4 -4,4"/>
<!-- 0 -->
<g id="node1" class="node">
<title>0</title>
<ellipse fill="none" stroke="#000000" cx="104.0611" cy="-84.8949" rx="33.2948" ry="18"/>
<text text-anchor="middle" x="104.0611" y="-81.1949" font-family="Times,serif" font-size="14.00" fill="#000000">C | C</text>
</g>
<!-- 1 -->
<g id="node2" class="node">
<title>1</title>
<ellipse fill="none" stroke="#000000" cx="164.7397" cy="-140.71" rx="33.2948" ry="18"/>
<text text-anchor="middle" x="164.7397" y="-137.01" font-family="Times,serif" font-size="14.00" fill="#000000">C | C</text>
</g>
<!-- 0&#45;&#45;1 -->
<g id="edge1" class="edge">
<title>0&#45;&#45;1</title>
<path fill="none" stroke="#000000" d="M120.9635,-100.4425C129.2393,-108.055 139.1867,-117.2051 147.5064,-124.8579"/>
<text text-anchor="middle" x="118.7349" y="-116.4502" font-family="Times,serif" font-size="14.00" fill="#000000">= | &#45;</text>
</g>
<!-- 5 -->
<g id="node6" class="node">
<title>5</title>
<ellipse fill="none" stroke="#000000" cx="169.0496" cy="-31.9454" rx="35.194" ry="18"/>
<text text-anchor="middle" x="169.0496" y="-28.2454" font-family="Times,serif" font-size="14.00" fill="#000000">H | H</text>
</g>
<!-- 0&#45;&#45;5 -->
<g id="edge2" class="edge">
<title>0&#45;&#45;5</title>
<path fill="none" stroke="#000000" stroke-dasharray="1,5" d="M122.5103,-69.8633C131.2164,-62.77 141.5882,-54.3196 150.3285,-47.1984"/>
<text text-anchor="middle" x="138.9194" y="-62.3308" font-family="Times,serif" font-size="14.00" fill="#000000">&#45;</text>
</g>
<!-- 8 -->
<g id="node9" class="node">
<title>8</title>
<ellipse fill="none" stroke="#000000" cx="28.5975" cy="-114.924" rx="28.6953" ry="18"/>
<text text-anchor="middle" x="28.5975" y="-111.224" font-family="Times,serif" font-size="14.00" fill="#000000">* | *</text>
</g>
<!-- 0&#45;&#45;8 -->
<g id="edge3" class="edge">
<title>0&#45;&#45;8</title>
<path fill="none" stroke="#000000" d="M77.2429,-95.5665C69.2785,-98.7358 60.6042,-102.1876 52.8152,-105.287"/>
<text text-anchor="middle" x="76.5291" y="-104.2268" font-family="Times,serif" font-size="14.00" fill="#000000">&#45; | &#45;</text>
</g>
<!-- 9 -->
<g id="node10" class="node">
<title>9</title>
<ellipse fill="none" stroke="#000000" cx="59.8463" cy="-18" rx="28.6953" ry="18"/>
<text text-anchor="middle" x="59.8463" y="-14.3" font-family="Times,serif" font-size="14.00" fill="#000000">* | *</text>
</g>
<!-- 0&#45;&#45;9 -->
<g id="edge4" class="edge">
<title>0&#45;&#45;9</title>
<path fill="none" stroke="#000000" d="M92.6747,-67.6678C86.0221,-57.6027 77.6604,-44.9519 71.0411,-34.9371"/>
<text text-anchor="middle" x="70.3579" y="-55.1024" font-family="Times,serif" font-size="14.00" fill="#000000">&#45; | &#45;</text>
</g>
<!-- 2 -->
<g id="node3" class="node">
<title>2</title>
<ellipse fill="none" stroke="#000000" cx="214.2388" cy="-206.6397" rx="35.194" ry="18"/>
<text text-anchor="middle" x="214.2388" y="-202.9397" font-family="Times,serif" font-size="14.00" fill="#000000">N | N</text>
</g>
<!-- 1&#45;&#45;2 -->
<g id="edge5" class="edge">
<title>1&#45;&#45;2</title>
<path fill="none" stroke="#000000" stroke-dasharray="5,2" d="M177.487,-157.6885C184.8201,-167.4558 194.008,-179.6936 201.3627,-189.4896"/>
<text text-anchor="middle" x="186.9248" y="-177.3891" font-family="Times,serif" font-size="14.00" fill="#000000">&#45;</text>
</g>
<!-- 6 -->
<g id="node7" class="node">
<title>6</title>
<ellipse fill="none" stroke="#000000" cx="227.4236" cy="-84.0483" rx="34.394" ry="18"/>
<text text-anchor="middle" x="227.4236" y="-80.3483" font-family="Times,serif" font-size="14.00" fill="#000000">O | O</text>
</g>
<!-- 1&#45;&#45;6 -->
<g id="edge6" class="edge">
<title>1&#45;&#45;6</title>
<path fill="none" stroke="#000000" stroke-dasharray="1,5" d="M181.8684,-125.2269C190.5682,-117.363 201.1216,-107.8234 209.8793,-99.9071"/>
<text text-anchor="middle" x="202.3738" y="-116.367" font-family="Times,serif" font-size="14.00" fill="#000000">=</text>
</g>
<!-- 3 -->
<g id="node4" class="node">
<title>3</title>
<ellipse fill="none" stroke="#000000" cx="176.5799" cy="-278.6412" rx="28.6953" ry="18"/>
<text text-anchor="middle" x="176.5799" y="-274.9412" font-family="Times,serif" font-size="14.00" fill="#000000">* | *</text>
</g>
<!-- 2&#45;&#45;3 -->
<g id="edge7" class="edge">
<title>2&#45;&#45;3</title>
<path fill="none" stroke="#000000" d="M205.1226,-224.0693C199.2017,-235.3897 191.5162,-250.0838 185.6121,-261.3722"/>
<text text-anchor="middle" x="183.8674" y="-246.5207" font-family="Times,serif" font-size="14.00" fill="#000000">&#45; | &#45;</text>
</g>
<!-- 4 -->
<g id="node5" class="node">
<title>4</title>
<ellipse fill="none" stroke="#000000" cx="276.1194" cy="-257.584" rx="28.6953" ry="18"/>
<text text-anchor="middle" x="276.1194" y="-253.884" font-family="Times,serif" font-size="14.00" fill="#000000">* | *</text>
</g>
<!-- 2&#45;&#45;4 -->
<g id="edge8" class="edge">
<title>2&#45;&#45;4</title>
<path fill="none" stroke="#000000" d="M232.805,-221.9247C240.9219,-228.607 250.399,-236.4093 258.4154,-243.0089"/>
<text text-anchor="middle" x="234.1102" y="-236.2668" font-family="Times,serif" font-size="14.00" fill="#000000">&#45; | &#45;</text>
</g>
<!-- 7 -->
<g id="node8" class="node">
<title>7</title>
<ellipse fill="none" stroke="#000000" cx="273.4573" cy="-147.3351" rx="35.194" ry="18"/>
<text text-anchor="middle" x="273.4573" y="-143.6351" font-family="Times,serif" font-size="14.00" fill="#000000">H | H</text>
</g>
<!-- 2&#45;&#45;7 -->
<g id="edge9" class="edge">
<title>2&#45;&#45;7</title>
<path fill="none" stroke="#000000" stroke-dasharray="1,5" d="M230.4205,-190.4345C238.7763,-182.0665 248.9422,-171.8859 257.2952,-163.5207"/>
<text text-anchor="middle" x="241.3578" y="-180.7776" font-family="Times,serif" font-size="14.00" fill="#000000">&#45;</text>
</g>
<!-- 5&#45;&#45;6 -->
<g id="edge10" class="edge">
<title>5&#45;&#45;6</title>
<path fill="none" stroke="#000000" stroke-dasharray="5,2" d="M186.5637,-47.578C193.952,-54.1725 202.535,-61.8334 209.9218,-68.4267"/>
<text text-anchor="middle" x="195.7428" y="-46.8023" font-family="Times,serif" font-size="14.00" fill="#000000">&#45;</text>
</g>
<!-- 6&#45;&#45;7 -->
<g id="edge11" class="edge">
<title>6&#45;&#45;7</title>
<path fill="none" stroke="#000000" stroke-dasharray="5,2" d="M239.7598,-101.008C246.3646,-110.0882 254.4771,-121.2412 261.0871,-130.3285"/>
<text text-anchor="middle" x="247.9234" y="-119.4683" font-family="Times,serif" font-size="14.00" fill="#000000">&#45;</text>
</g>
</g>
</svg>
