<?xml version="1.0" encoding="UTF-8" standalone="no"?>
<!DOCTYPE svg PUBLIC "-//W3C//DTD SVG 1.1//EN"
 "http://www.w3.org/Graphics/SVG/1.1/DTD/svg11.dtd">
<!-- Generated by graphviz version 2.40.1 (20161225.0304)
 -->
<!-- Title: G Pages: 1 -->
<svg width="202pt" height="234pt"
 viewBox="0.00 0.00 202.42 234.50" xmlns="http://www.w3.org/2000/svg" xmlns:xlink="http://www.w3.org/1999/xlink">
<g id="graph0" class="graph" transform="scale(1 1) rotate(0) translate(4 230.4966)">
<title>G</title>
<polygon fill="#ffffff" stroke="transparent" points="-4,4 -4,-230.4966 198.4247,-230.4966 198.4247,4 -4,4"/>
<!-- 0 -->
<g id="node1" class="node">
<title>0</title>
<ellipse fill="none" stroke="#000000" cx="69.4008" cy="-65.3247" rx="35.194" ry="18"/>
<text text-anchor="middle" x="69.4008" y="-61.6247" font-family="Times,serif" font-size="14.00" fill="#000000">H | H</text>
</g>
<!-- 1 -->
<g id="node2" class="node">
<title>1</title>
<ellipse fill="none" stroke="#000000" cx="131.4144" cy="-18" rx="33.2948" ry="18"/>
<text text-anchor="middle" x="131.4144" y="-14.3" font-family="Times,serif" font-size="14.00" fill="#000000">C | C</text>
</g>
<!-- 0&#45;&#45;1 -->
<g id="edge1" class="edge">
<title>0&#45;&#45;1</title>
<path fill="none" stroke="#000000" stroke-dasharray="5,2" d="M89.0223,-50.3509C96.4031,-44.7184 104.7833,-38.3231 112.1329,-32.7144"/>
<text text-anchor="middle" x="98.0776" y="-30.3327" font-family="Times,serif" font-size="14.00" fill="#000000">&#45;</text>
</g>
<!-- 3 -->
<g id="node4" class="node">
<title>3</title>
<ellipse fill="none" stroke="#000000" cx="98.3752" cy="-141.143" rx="35.194" ry="18"/>
<text text-anchor="middle" x="98.3752" y="-137.443" font-family="Times,serif" font-size="14.00" fill="#000000">N | N</text>
</g>
<!-- 0&#45;&#45;3 -->
<g id="edge2" class="edge">
<title>0&#45;&#45;3</title>
<path fill="none" stroke="#000000" stroke-dasharray="1,5" d="M76.2674,-83.2926C80.8861,-95.3786 86.9496,-111.2451 91.558,-123.3041"/>
<text text-anchor="middle" x="81.4127" y="-107.0983" font-family="Times,serif" font-size="14.00" fill="#000000">&#45;</text>
</g>
<!-- 2 -->
<g id="node3" class="node">
<title>2</title>
<ellipse fill="none" stroke="#000000" cx="161.2776" cy="-89.9037" rx="33.2948" ry="18"/>
<text text-anchor="middle" x="161.2776" y="-86.2037" font-family="Times,serif" font-size="14.00" fill="#000000">C | C</text>
</g>
<!-- 1&#45;&#45;2 -->
<g id="edge3" class="edge">
<title>1&#45;&#45;2</title>
<path fill="none" stroke="#000000" d="M138.7963,-35.7739C143.4253,-46.9194 149.3679,-61.2278 153.9806,-72.3342"/>
<text text-anchor="middle" x="130.8885" y="-57.8541" font-family="Times,serif" font-size="14.00" fill="#000000">&#45; | =</text>
</g>
<!-- 2&#45;&#45;3 -->
<g id="edge4" class="edge">
<title>2&#45;&#45;3</title>
<path fill="none" stroke="#000000" stroke-dasharray="5,2" d="M142.745,-105C134.7723,-111.4945 125.4591,-119.0809 117.4294,-125.6217"/>
<text text-anchor="middle" x="127.5872" y="-104.1109" font-family="Times,serif" font-size="14.00" fill="#000000">&#45;</text>
</g>
<!-- 4 -->
<g id="node5" class="node">
<title>4</title>
<ellipse fill="none" stroke="#000000" cx="141.2844" cy="-208.4966" rx="28.6953" ry="18"/>
<text text-anchor="middle" x="141.2844" y="-204.7966" font-family="Times,serif" font-size="14.00" fill="#000000">* | *</text>
</g>
<!-- 3&#45;&#45;4 -->
<g id="edge5" class="edge">
<title>3&#45;&#45;4</title>
<path fill="none" stroke="#000000" d="M109.4254,-158.4882C115.8816,-168.6223 123.9963,-181.3598 130.4202,-191.4433"/>
<text text-anchor="middle" x="108.4228" y="-178.7658" font-family="Times,serif" font-size="14.00" fill="#000000">&#45; | &#45;</text>
</g>
<!-- 5 -->
<g id="node6" class="node">
<title>5</title>
<ellipse fill="none" stroke="#000000" cx="28.5975" cy="-179.677" rx="28.6953" ry="18"/>
<text text-anchor="middle" x="28.5975" y="-175.977" font-family="Times,serif" font-size="14.00" fill="#000000">* | *</text>
</g>
<!-- 3&#45;&#45;5 -->
<g id="edge6" class="edge">
<title>3&#45;&#45;5</title>
<path fill="none" stroke="#000000" d="M74.3617,-154.4042C66.6349,-158.6712 58.1174,-163.3749 50.5469,-167.5556"/>
<text text-anchor="middle" x="50.9543" y="-149.7799" font-family="Times,serif" font-size="14.00" fill="#000000">&#45; | &#45;</text>
</g>
</g>
</svg>
