<?xml version="1.0" encoding="UTF-8" standalone="no"?>
<!DOCTYPE svg PUBLIC "-//W3C//DTD SVG 1.1//EN"
 "http://www.w3.org/Graphics/SVG/1.1/DTD/svg11.dtd">
<!-- Generated by graphviz version 2.40.1 (20161225.0304)
 -->
<!-- Title: G Pages: 1 -->
<svg width="314pt" height="318pt"
 viewBox="0.00 0.00 313.91 318.30" xmlns="http://www.w3.org/2000/svg" xmlns:xlink="http://www.w3.org/1999/xlink">
<g id="graph0" class="graph" transform="scale(1 1) rotate(0) translate(4 314.2966)">
<title>G</title>
<polygon fill="#ffffff" stroke="transparent" points="-4,4 -4,-314.2966 309.9061,-314.2966 309.9061,4 -4,4"/>
<!-- 0 -->
<g id="node1" class="node">
<title>0</title>
<ellipse fill="none" stroke="#000000" cx="59.5593" cy="-105.9506" rx="28.6953" ry="18"/>
<text text-anchor="middle" x="59.5593" y="-102.2506" font-family="Times,serif" font-size="14.00" fill="#000000">* | *</text>
</g>
<!-- 1 -->
<g id="node2" class="node">
<title>1</title>
<ellipse fill="none" stroke="#000000" cx="142.3866" cy="-145.863" rx="33.2948" ry="18"/>
<text text-anchor="middle" x="142.3866" y="-142.163" font-family="Times,serif" font-size="14.00" fill="#000000">C | C</text>
</g>
<!-- 0&#45;&#45;1 -->
<g id="edge1" class="edge">
<title>0&#45;&#45;1</title>
<path fill="none" stroke="#000000" d="M82.6313,-117.0684C93.4493,-122.2813 106.3597,-128.5025 117.4075,-133.8262"/>
<text text-anchor="middle" x="88.5194" y="-129.2473" font-family="Times,serif" font-size="14.00" fill="#000000">&#45; | &#45;</text>
</g>
<!-- 2 -->
<g id="node3" class="node">
<title>2</title>
<ellipse fill="none" stroke="#000000" cx="100.631" cy="-82.9947" rx="34.394" ry="18"/>
<text text-anchor="middle" x="100.631" y="-79.2947" font-family="Times,serif" font-size="14.00" fill="#000000">O | O</text>
</g>
<!-- 1&#45;&#45;2 -->
<g id="edge2" class="edge">
<title>1&#45;&#45;2</title>
<path fill="none" stroke="#000000" stroke-dasharray="5,2" d="M130.9767,-128.684C125.0849,-119.8132 117.9168,-109.0208 112.0271,-100.153"/>
<text text-anchor="middle" x="115.0019" y="-103.2185" font-family="Times,serif" font-size="14.00" fill="#000000">=</text>
</g>
<!-- 3 -->
<g id="node4" class="node">
<title>3</title>
<ellipse fill="none" stroke="#000000" cx="212.5866" cy="-188.7886" rx="28.6953" ry="18"/>
<text text-anchor="middle" x="212.5866" y="-185.0886" font-family="Times,serif" font-size="14.00" fill="#000000">* | *</text>
</g>
<!-- 1&#45;&#45;3 -->
<g id="edge3" class="edge">
<title>1&#45;&#45;3</title>
<path fill="none" stroke="#000000" d="M164.5983,-159.4449C173.2748,-164.7504 183.1713,-170.8019 191.7144,-176.0257"/>
<text text-anchor="middle" x="166.6563" y="-171.5353" font-family="Times,serif" font-size="14.00" fill="#000000">&#45; | &#45;</text>
</g>
<!-- 4 -->
<g id="node5" class="node">
<title>4</title>
<ellipse fill="none" stroke="#000000" cx="94.5072" cy="-217.1381" rx="35.194" ry="18"/>
<text text-anchor="middle" x="94.5072" y="-213.4381" font-family="Times,serif" font-size="14.00" fill="#000000">N | N</text>
</g>
<!-- 1&#45;&#45;4 -->
<g id="edge4" class="edge">
<title>1&#45;&#45;4</title>
<path fill="none" stroke="#000000" stroke-dasharray="1,5" d="M130.7963,-163.1167C123.2685,-174.3229 113.4972,-188.8688 105.9907,-200.0432"/>
<text text-anchor="middle" x="115.8935" y="-185.38" font-family="Times,serif" font-size="14.00" fill="#000000">&#45;</text>
</g>
<!-- 9 -->
<g id="node10" class="node">
<title>9</title>
<ellipse fill="none" stroke="#000000" cx="197.7466" cy="-79.9656" rx="33.2948" ry="18"/>
<text text-anchor="middle" x="197.7466" y="-76.2656" font-family="Times,serif" font-size="14.00" fill="#000000">C | C</text>
</g>
<!-- 1&#45;&#45;9 -->
<g id="edge5" class="edge">
<title>1&#45;&#45;9</title>
<path fill="none" stroke="#000000" stroke-dasharray="1,5" d="M156.3562,-129.2343C164.8125,-119.1685 175.5526,-106.384 183.9732,-96.3607"/>
<text text-anchor="middle" x="167.6647" y="-116.5975" font-family="Times,serif" font-size="14.00" fill="#000000">&#45;</text>
</g>
<!-- 7 -->
<g id="node8" class="node">
<title>7</title>
<ellipse fill="none" stroke="#000000" cx="41.4264" cy="-155.6039" rx="35.194" ry="18"/>
<text text-anchor="middle" x="41.4264" y="-151.9039" font-family="Times,serif" font-size="14.00" fill="#000000">H | H</text>
</g>
<!-- 2&#45;&#45;7 -->
<g id="edge6" class="edge">
<title>2&#45;&#45;7</title>
<path fill="none" stroke="#000000" stroke-dasharray="1,5" d="M86.8994,-99.8352C77.3348,-111.5654 64.6318,-127.1446 55.0835,-138.8547"/>
<text text-anchor="middle" x="68.4915" y="-123.145" font-family="Times,serif" font-size="14.00" fill="#000000">&#45;</text>
</g>
<!-- 8 -->
<g id="node9" class="node">
<title>8</title>
<ellipse fill="none" stroke="#000000" cx="146.0844" cy="-18" rx="35.194" ry="18"/>
<text text-anchor="middle" x="146.0844" y="-14.3" font-family="Times,serif" font-size="14.00" fill="#000000">H | H</text>
</g>
<!-- 2&#45;&#45;8 -->
<g id="edge7" class="edge">
<title>2&#45;&#45;8</title>
<path fill="none" stroke="#000000" stroke-dasharray="1,5" d="M112.5733,-65.9181C119.2016,-56.4401 127.4232,-44.684 134.064,-35.1882"/>
<text text-anchor="middle" x="120.8187" y="-54.3532" font-family="Times,serif" font-size="14.00" fill="#000000">&#45;</text>
</g>
<!-- 5 -->
<g id="node6" class="node">
<title>5</title>
<ellipse fill="none" stroke="#000000" cx="124.8551" cy="-292.2966" rx="28.6953" ry="18"/>
<text text-anchor="middle" x="124.8551" y="-288.5966" font-family="Times,serif" font-size="14.00" fill="#000000">* | *</text>
</g>
<!-- 4&#45;&#45;5 -->
<g id="edge8" class="edge">
<title>4&#45;&#45;5</title>
<path fill="none" stroke="#000000" d="M101.6992,-234.9496C106.5369,-246.9305 112.8878,-262.6588 117.7147,-274.6129"/>
<text text-anchor="middle" x="98.207" y="-258.5813" font-family="Times,serif" font-size="14.00" fill="#000000">&#45; | &#45;</text>
</g>
<!-- 6 -->
<g id="node7" class="node">
<title>6</title>
<ellipse fill="none" stroke="#000000" cx="28.5975" cy="-265.8264" rx="28.6953" ry="18"/>
<text text-anchor="middle" x="28.5975" y="-262.1264" font-family="Times,serif" font-size="14.00" fill="#000000">* | *</text>
</g>
<!-- 4&#45;&#45;6 -->
<g id="edge9" class="edge">
<title>4&#45;&#45;6</title>
<path fill="none" stroke="#000000" d="M74.374,-232.0107C65.7425,-238.3869 55.7209,-245.79 47.2587,-252.0411"/>
<text text-anchor="middle" x="72.3164" y="-245.8259" font-family="Times,serif" font-size="14.00" fill="#000000">&#45; | &#45;</text>
</g>
<!-- 4&#45;&#45;7 -->
<g id="edge10" class="edge">
<title>4&#45;&#45;7</title>
<path fill="none" stroke="#000000" stroke-dasharray="5,2" d="M80.2825,-200.648C72.6666,-191.8192 63.3122,-180.9751 55.6904,-172.1394"/>
<text text-anchor="middle" x="65.4864" y="-190.1937" font-family="Times,serif" font-size="14.00" fill="#000000">&#45;</text>
</g>
<!-- 8&#45;&#45;9 -->
<g id="edge11" class="edge">
<title>8&#45;&#45;9</title>
<path fill="none" stroke="#000000" stroke-dasharray="5,2" d="M159.9289,-34.6056C167.3413,-43.4963 176.4457,-54.4165 183.8639,-63.3141"/>
<text text-anchor="middle" x="169.3964" y="-52.7599" font-family="Times,serif" font-size="14.00" fill="#000000">&#45;</text>
</g>
<!-- 10 -->
<g id="node11" class="node">
<title>10</title>
<ellipse fill="none" stroke="#000000" cx="270.8092" cy="-51.0992" rx="35.194" ry="18"/>
<text text-anchor="middle" x="270.8092" y="-47.3992" font-family="Times,serif" font-size="14.00" fill="#000000">N | N</text>
</g>
<!-- 9&#45;&#45;10 -->
<g id="edge12" class="edge">
<title>9&#45;&#45;10</title>
<path fill="none" stroke="#000000" d="M224.9524,-69.2168C230.7948,-66.9086 236.9781,-64.4656 242.8486,-62.1462"/>
<text text-anchor="middle" x="214.9005" y="-54.4815" font-family="Times,serif" font-size="14.00" fill="#000000"># | #</text>
</g>
</g>
</svg>
