<?xml version="1.0" encoding="UTF-8" standalone="no"?>
<!DOCTYPE svg PUBLIC "-//W3C//DTD SVG 1.1//EN"
 "http://www.w3.org/Graphics/SVG/1.1/DTD/svg11.dtd">
<!-- Generated by graphviz version 2.40.1 (20161225.0304)
 -->
<!-- Title: G Pages: 1 -->
<svg width="326pt" height="297pt"
 viewBox="0.00 0.00 325.74 297.06" xmlns="http://www.w3.org/2000/svg" xmlns:xlink="http://www.w3.org/1999/xlink">
<g id="graph0" class="graph" transform="scale(1 1) rotate(0) translate(4 293.0602)">
<title>G</title>
<polygon fill="#ffffff" stroke="transparent" points="-4,4 -4,-293.0602 321.7401,-293.0602 321.7401,4 -4,4"/>
<!-- 0 -->
<g id="node1" class="node">
<title>0</title>
<ellipse fill="none" stroke="#000000" cx="65.7198" cy="-271.0602" rx="28.6953" ry="18"/>
<text text-anchor="middle" x="65.7198" y="-267.3602" font-family="Times,serif" font-size="14.00" fill="#000000">* | *</text>
</g>
<!-- 1 -->
<g id="node2" class="node">
<title>1</title>
<ellipse fill="none" stroke="#000000" cx="100.9479" cy="-198.9822" rx="33.2948" ry="18"/>
<text text-anchor="middle" x="100.9479" y="-195.2822" font-family="Times,serif" font-size="14.00" fill="#000000">C | C</text>
</g>
<!-- 0&#45;&#45;1 -->
<g id="edge1" class="edge">
<title>0&#45;&#45;1</title>
<path fill="none" stroke="#000000" d="M74.2475,-253.6121C79.7455,-242.363 86.87,-227.7861 92.3766,-216.5194"/>
<text text-anchor="middle" x="71.8121" y="-238.8658" font-family="Times,serif" font-size="14.00" fill="#000000">&#45; | &#45;</text>
</g>
<!-- 2 -->
<g id="node3" class="node">
<title>2</title>
<ellipse fill="none" stroke="#000000" cx="28.5975" cy="-165.3026" rx="28.6953" ry="18"/>
<text text-anchor="middle" x="28.5975" y="-161.6026" font-family="Times,serif" font-size="14.00" fill="#000000">* | *</text>
</g>
<!-- 1&#45;&#45;2 -->
<g id="edge2" class="edge">
<title>1&#45;&#45;2</title>
<path fill="none" stroke="#000000" d="M75.6433,-187.2027C67.9823,-183.6365 59.6044,-179.7365 52.0688,-176.2287"/>
<text text-anchor="middle" x="69.606" y="-170.5157" font-family="Times,serif" font-size="14.00" fill="#000000">&#45; | &#45;</text>
</g>
<!-- 3 -->
<g id="node4" class="node">
<title>3</title>
<ellipse fill="none" stroke="#000000" cx="181.3954" cy="-176.5961" rx="33.2948" ry="18"/>
<text text-anchor="middle" x="181.3954" y="-172.8961" font-family="Times,serif" font-size="14.00" fill="#000000">C | C</text>
</g>
<!-- 1&#45;&#45;3 -->
<g id="edge3" class="edge">
<title>1&#45;&#45;3</title>
<path fill="none" stroke="#000000" d="M130.9036,-190.6465C137.6938,-188.7569 144.9024,-186.751 151.6826,-184.8643"/>
<text text-anchor="middle" x="122.2931" y="-176.5554" font-family="Times,serif" font-size="14.00" fill="#000000">= | =</text>
</g>
<!-- 4 -->
<g id="node5" class="node">
<title>4</title>
<ellipse fill="none" stroke="#000000" cx="213.4299" cy="-253.3553" rx="35.194" ry="18"/>
<text text-anchor="middle" x="213.4299" y="-249.6553" font-family="Times,serif" font-size="14.00" fill="#000000">H | H</text>
</g>
<!-- 3&#45;&#45;4 -->
<g id="edge4" class="edge">
<title>3&#45;&#45;4</title>
<path fill="none" stroke="#000000" d="M188.8252,-194.3991C194.0005,-206.7998 200.8739,-223.2694 206.0403,-235.6488"/>
<text text-anchor="middle" x="185.9328" y="-218.824" font-family="Times,serif" font-size="14.00" fill="#000000">&#45; | &#45;</text>
</g>
<!-- 5 -->
<g id="node6" class="node">
<title>5</title>
<ellipse fill="none" stroke="#000000" cx="201.9789" cy="-94.6841" rx="33.2948" ry="18"/>
<text text-anchor="middle" x="201.9789" y="-90.9841" font-family="Times,serif" font-size="14.00" fill="#000000">C | C</text>
</g>
<!-- 3&#45;&#45;5 -->
<g id="edge5" class="edge">
<title>3&#45;&#45;5</title>
<path fill="none" stroke="#000000" stroke-dasharray="5,2" d="M185.9635,-158.4172C189.3983,-144.7487 194.0801,-126.1175 197.4944,-112.5304"/>
<text text-anchor="middle" x="189.229" y="-139.2738" font-family="Times,serif" font-size="14.00" fill="#000000">&#45;</text>
</g>
<!-- 8 -->
<g id="node9" class="node">
<title>8</title>
<ellipse fill="none" stroke="#000000" cx="262.7776" cy="-170.3827" rx="35.194" ry="18"/>
<text text-anchor="middle" x="262.7776" y="-166.6827" font-family="Times,serif" font-size="14.00" fill="#000000">H | H</text>
</g>
<!-- 3&#45;&#45;8 -->
<g id="edge6" class="edge">
<title>3&#45;&#45;8</title>
<path fill="none" stroke="#000000" stroke-dasharray="1,5" d="M214.4967,-174.0689C218.8973,-173.7329 223.4207,-173.3876 227.851,-173.0493"/>
<text text-anchor="middle" x="218.6738" y="-177.3591" font-family="Times,serif" font-size="14.00" fill="#000000">&#45;</text>
</g>
<!-- 6 -->
<g id="node7" class="node">
<title>6</title>
<ellipse fill="none" stroke="#000000" cx="184.4873" cy="-18" rx="34.394" ry="18"/>
<text text-anchor="middle" x="184.4873" y="-14.3" font-family="Times,serif" font-size="14.00" fill="#000000">O | O</text>
</g>
<!-- 5&#45;&#45;6 -->
<g id="edge7" class="edge">
<title>5&#45;&#45;6</title>
<path fill="none" stroke="#000000" d="M197.8337,-76.5111C195.0454,-64.287 191.3849,-48.2394 188.6028,-36.0426"/>
<text text-anchor="middle" x="174.2182" y="-60.0768" font-family="Times,serif" font-size="14.00" fill="#000000">= | =</text>
</g>
<!-- 7 -->
<g id="node8" class="node">
<title>7</title>
<ellipse fill="none" stroke="#000000" cx="283.2932" cy="-95.8482" rx="34.394" ry="18"/>
<text text-anchor="middle" x="283.2932" y="-92.1482" font-family="Times,serif" font-size="14.00" fill="#000000">O | O</text>
</g>
<!-- 5&#45;&#45;7 -->
<g id="edge8" class="edge">
<title>5&#45;&#45;7</title>
<path fill="none" stroke="#000000" d="M235.522,-95.1643C239.8968,-95.2269 244.385,-95.2912 248.7755,-95.354"/>
<text text-anchor="middle" x="242.1487" y="-84.0592" font-family="Times,serif" font-size="14.00" fill="#000000">&#45; | =</text>
</g>
<!-- 7&#45;&#45;8 -->
<g id="edge9" class="edge">
<title>7&#45;&#45;8</title>
<path fill="none" stroke="#000000" stroke-dasharray="5,2" d="M278.3269,-113.8909C275.1014,-125.6096 270.9146,-140.8207 267.6981,-152.5062"/>
<text text-anchor="middle" x="270.5125" y="-136.9985" font-family="Times,serif" font-size="14.00" fill="#000000">&#45;</text>
</g>
</g>
</svg>
