<?xml version="1.0" encoding="UTF-8" standalone="no"?>
<!DOCTYPE svg PUBLIC "-//W3C//DTD SVG 1.1//EN"
 "http://www.w3.org/Graphics/SVG/1.1/DTD/svg11.dtd">
<!-- Generated by graphviz version 2.40.1 (20161225.0304)
 -->
<!-- Title: G Pages: 1 -->
<svg width="249pt" height="419pt"
 viewBox="0.00 0.00 248.56 418.74" xmlns="http://www.w3.org/2000/svg" xmlns:xlink="http://www.w3.org/1999/xlink">
<g id="graph0" class="graph" transform="scale(1 1) rotate(0) translate(4 414.7438)">
<title>G</title>
<polygon fill="#ffffff" stroke="transparent" points="-4,4 -4,-414.7438 244.5561,-414.7438 244.5561,4 -4,4"/>
<!-- 0 -->
<g id="node1" class="node">
<title>0</title>
<ellipse fill="none" stroke="#000000" cx="28.5975" cy="-362.4545" rx="28.6953" ry="18"/>
<text text-anchor="middle" x="28.5975" y="-358.7545" font-family="Times,serif" font-size="14.00" fill="#000000">* | *</text>
</g>
<!-- 1 -->
<g id="node2" class="node">
<title>1</title>
<ellipse fill="none" stroke="#000000" cx="97.7965" cy="-321.6217" rx="33.2948" ry="18"/>
<text text-anchor="middle" x="97.7965" y="-317.9217" font-family="Times,serif" font-size="14.00" fill="#000000">C | C</text>
</g>
<!-- 0&#45;&#45;1 -->
<g id="edge1" class="edge">
<title>0&#45;&#45;1</title>
<path fill="none" stroke="#000000" d="M49.7354,-349.9815C57.8437,-345.197 67.1205,-339.7229 75.3475,-334.8684"/>
<text text-anchor="middle" x="51.0415" y="-331.2249" font-family="Times,serif" font-size="14.00" fill="#000000">&#45; | &#45;</text>
</g>
<!-- 2 -->
<g id="node3" class="node">
<title>2</title>
<ellipse fill="none" stroke="#000000" cx="135.7968" cy="-392.7438" rx="35.194" ry="18"/>
<text text-anchor="middle" x="135.7968" y="-389.0438" font-family="Times,serif" font-size="14.00" fill="#000000">H | H</text>
</g>
<!-- 1&#45;&#45;2 -->
<g id="edge2" class="edge">
<title>1&#45;&#45;2</title>
<path fill="none" stroke="#000000" d="M107.1898,-339.2025C113.0801,-350.2267 120.6419,-364.3796 126.5115,-375.3653"/>
<text text-anchor="middle" x="105.3507" y="-361.0839" font-family="Times,serif" font-size="14.00" fill="#000000">&#45; | &#45;</text>
</g>
<!-- 3 -->
<g id="node4" class="node">
<title>3</title>
<ellipse fill="none" stroke="#000000" cx="131.8929" cy="-245.0442" rx="33.2948" ry="18"/>
<text text-anchor="middle" x="131.8929" y="-241.3442" font-family="Times,serif" font-size="14.00" fill="#000000">C | C</text>
</g>
<!-- 1&#45;&#45;3 -->
<g id="edge3" class="edge">
<title>1&#45;&#45;3</title>
<path fill="none" stroke="#000000" d="M105.7046,-303.8608C111.2129,-291.4895 118.5287,-275.0589 124.0277,-262.7088"/>
<text text-anchor="middle" x="95.8661" y="-287.0848" font-family="Times,serif" font-size="14.00" fill="#000000">= | =</text>
</g>
<!-- 4 -->
<g id="node5" class="node">
<title>4</title>
<ellipse fill="none" stroke="#000000" cx="211.9586" cy="-270.274" rx="28.6953" ry="18"/>
<text text-anchor="middle" x="211.9586" y="-266.574" font-family="Times,serif" font-size="14.00" fill="#000000">* | *</text>
</g>
<!-- 3&#45;&#45;4 -->
<g id="edge4" class="edge">
<title>3&#45;&#45;4</title>
<path fill="none" stroke="#000000" d="M160.7985,-254.1527C169.1299,-256.7781 178.1598,-259.6235 186.2812,-262.1827"/>
<text text-anchor="middle" x="179.2898" y="-246.9677" font-family="Times,serif" font-size="14.00" fill="#000000">&#45; | &#45;</text>
</g>
<!-- 5 -->
<g id="node6" class="node">
<title>5</title>
<ellipse fill="none" stroke="#000000" cx="113.779" cy="-160.0828" rx="33.2948" ry="18"/>
<text text-anchor="middle" x="113.779" y="-156.3828" font-family="Times,serif" font-size="14.00" fill="#000000">C | C</text>
</g>
<!-- 3&#45;&#45;5 -->
<g id="edge5" class="edge">
<title>3&#45;&#45;5</title>
<path fill="none" stroke="#000000" d="M128.0514,-227.0261C124.9774,-212.6078 120.6875,-192.4863 117.615,-178.075"/>
<text text-anchor="middle" x="111.3332" y="-206.3505" font-family="Times,serif" font-size="14.00" fill="#000000">&#45; | &#45;</text>
</g>
<!-- 6 -->
<g id="node7" class="node">
<title>6</title>
<ellipse fill="none" stroke="#000000" cx="32.7408" cy="-178.1576" rx="28.6953" ry="18"/>
<text text-anchor="middle" x="32.7408" y="-174.4576" font-family="Times,serif" font-size="14.00" fill="#000000">* | *</text>
</g>
<!-- 5&#45;&#45;6 -->
<g id="edge6" class="edge">
<title>5&#45;&#45;6</title>
<path fill="none" stroke="#000000" d="M82.6793,-167.0193C75.1806,-168.6918 67.2262,-170.466 59.9226,-172.095"/>
<text text-anchor="middle" x="71.3009" y="-158.3571" font-family="Times,serif" font-size="14.00" fill="#000000">&#45; | &#45;</text>
</g>
<!-- 7 -->
<g id="node8" class="node">
<title>7</title>
<ellipse fill="none" stroke="#000000" cx="195.1955" cy="-151.738" rx="28.6953" ry="18"/>
<text text-anchor="middle" x="195.1955" y="-148.038" font-family="Times,serif" font-size="14.00" fill="#000000">* | *</text>
</g>
<!-- 5&#45;&#45;7 -->
<g id="edge7" class="edge">
<title>5&#45;&#45;7</title>
<path fill="none" stroke="#000000" d="M146.4251,-156.7367C153.1495,-156.0475 160.1797,-155.327 166.7414,-154.6544"/>
<text text-anchor="middle" x="156.5832" y="-144.4956" font-family="Times,serif" font-size="14.00" fill="#000000">&#45; | &#45;</text>
</g>
<!-- 8 -->
<g id="node9" class="node">
<title>8</title>
<ellipse fill="none" stroke="#000000" cx="133.3327" cy="-76.2832" rx="33.2948" ry="18"/>
<text text-anchor="middle" x="133.3327" y="-72.5832" font-family="Times,serif" font-size="14.00" fill="#000000">C | C</text>
</g>
<!-- 5&#45;&#45;8 -->
<g id="edge8" class="edge">
<title>5&#45;&#45;8</title>
<path fill="none" stroke="#000000" stroke-dasharray="5,2" d="M118.0219,-141.8995C121.3241,-127.7472 125.8824,-108.2125 129.1653,-94.1431"/>
<text text-anchor="middle" x="121.0936" y="-121.8213" font-family="Times,serif" font-size="14.00" fill="#000000">&#45;</text>
</g>
<!-- 11 -->
<g id="node12" class="node">
<title>11</title>
<ellipse fill="none" stroke="#000000" cx="52.3692" cy="-104.2503" rx="35.194" ry="18"/>
<text text-anchor="middle" x="52.3692" y="-100.5503" font-family="Times,serif" font-size="14.00" fill="#000000">H | H</text>
</g>
<!-- 5&#45;&#45;11 -->
<g id="edge9" class="edge">
<title>5&#45;&#45;11</title>
<path fill="none" stroke="#000000" stroke-dasharray="1,5" d="M96.673,-144.5303C88.2974,-136.9155 78.2302,-127.7625 69.8102,-120.1073"/>
<text text-anchor="middle" x="80.7416" y="-136.1188" font-family="Times,serif" font-size="14.00" fill="#000000">&#45;</text>
</g>
<!-- 9 -->
<g id="node10" class="node">
<title>9</title>
<ellipse fill="none" stroke="#000000" cx="188.4054" cy="-18" rx="34.394" ry="18"/>
<text text-anchor="middle" x="188.4054" y="-14.3" font-family="Times,serif" font-size="14.00" fill="#000000">O | O</text>
</g>
<!-- 8&#45;&#45;9 -->
<g id="edge10" class="edge">
<title>8&#45;&#45;9</title>
<path fill="none" stroke="#000000" d="M148.6735,-60.0481C156.3121,-51.9642 165.5196,-42.2199 173.1468,-34.148"/>
<text text-anchor="middle" x="179.9102" y="-50.898" font-family="Times,serif" font-size="14.00" fill="#000000">= | =</text>
</g>
<!-- 10 -->
<g id="node11" class="node">
<title>10</title>
<ellipse fill="none" stroke="#000000" cx="66.4486" cy="-29.2158" rx="34.394" ry="18"/>
<text text-anchor="middle" x="66.4486" y="-25.5158" font-family="Times,serif" font-size="14.00" fill="#000000">O | O</text>
</g>
<!-- 8&#45;&#45;10 -->
<g id="edge11" class="edge">
<title>8&#45;&#45;10</title>
<path fill="none" stroke="#000000" d="M112.9018,-61.9057C104.7575,-56.1744 95.3934,-49.5847 87.2159,-43.8301"/>
<text text-anchor="middle" x="84.5589" y="-56.6679" font-family="Times,serif" font-size="14.00" fill="#000000">&#45; | =</text>
</g>
<!-- 10&#45;&#45;11 -->
<g id="edge12" class="edge">
<title>10&#45;&#45;11</title>
<path fill="none" stroke="#000000" stroke-dasharray="5,2" d="M63.0404,-47.3796C60.8267,-59.1769 57.9534,-74.4899 55.7461,-86.2538"/>
<text text-anchor="middle" x="56.8932" y="-70.6167" font-family="Times,serif" font-size="14.00" fill="#000000">&#45;</text>
</g>
</g>
</svg>
