<?xml version="1.0" encoding="UTF-8" standalone="no"?>
<!DOCTYPE svg PUBLIC "-//W3C//DTD SVG 1.1//EN"
 "http://www.w3.org/Graphics/SVG/1.1/DTD/svg11.dtd">
<!-- Generated by graphviz version 2.40.1 (20161225.0304)
 -->
<!-- Title: G Pages: 1 -->
<svg width="260pt" height="300pt"
 viewBox="0.00 0.00 259.84 300.41" xmlns="http://www.w3.org/2000/svg" xmlns:xlink="http://www.w3.org/1999/xlink">
<g id="graph0" class="graph" transform="scale(1 1) rotate(0) translate(4 296.4137)">
<title>G</title>
<polygon fill="#ffffff" stroke="transparent" points="-4,4 -4,-296.4137 255.8419,-296.4137 255.8419,4 -4,4"/>
<!-- 0 -->
<g id="node1" class="node">
<title>0</title>
<ellipse fill="none" stroke="#000000" cx="28.5975" cy="-127.0797" rx="28.6953" ry="18"/>
<text text-anchor="middle" x="28.5975" y="-123.3797" font-family="Times,serif" font-size="14.00" fill="#000000">* | *</text>
</g>
<!-- 1 -->
<g id="node2" class="node">
<title>1</title>
<ellipse fill="none" stroke="#000000" cx="110.3136" cy="-129.8031" rx="33.2948" ry="18"/>
<text text-anchor="middle" x="110.3136" y="-126.1031" font-family="Times,serif" font-size="14.00" fill="#000000">C | C</text>
</g>
<!-- 0&#45;&#45;1 -->
<g id="edge1" class="edge">
<title>0&#45;&#45;1</title>
<path fill="none" stroke="#000000" d="M57.1778,-128.0322C63.6212,-128.2469 70.5138,-128.4766 77.1281,-128.6971"/>
<text text-anchor="middle" x="67.1529" y="-117.1646" font-family="Times,serif" font-size="14.00" fill="#000000">&#45; | &#45;</text>
</g>
<!-- 2 -->
<g id="node3" class="node">
<title>2</title>
<ellipse fill="none" stroke="#000000" cx="105.9547" cy="-47.361" rx="35.194" ry="18"/>
<text text-anchor="middle" x="105.9547" y="-43.661" font-family="Times,serif" font-size="14.00" fill="#000000">N | N</text>
</g>
<!-- 1&#45;&#45;2 -->
<g id="edge2" class="edge">
<title>1&#45;&#45;2</title>
<path fill="none" stroke="#000000" d="M109.3462,-111.5065C108.6239,-97.8444 107.6411,-79.2561 106.9194,-65.6064"/>
<text text-anchor="middle" x="92.6328" y="-92.3565" font-family="Times,serif" font-size="14.00" fill="#000000">= | &#45;</text>
</g>
<!-- 4 -->
<g id="node5" class="node">
<title>4</title>
<ellipse fill="none" stroke="#000000" cx="144.4777" cy="-207.8245" rx="35.194" ry="18"/>
<text text-anchor="middle" x="144.4777" y="-204.1245" font-family="Times,serif" font-size="14.00" fill="#000000">N | N</text>
</g>
<!-- 1&#45;&#45;4 -->
<g id="edge3" class="edge">
<title>1&#45;&#45;4</title>
<path fill="none" stroke="#000000" stroke-dasharray="5,2" d="M118.066,-147.5074C123.6571,-160.276 131.1719,-177.4378 136.756,-190.1903"/>
<text text-anchor="middle" x="124.911" y="-172.6488" font-family="Times,serif" font-size="14.00" fill="#000000">&#45;</text>
</g>
<!-- 7 -->
<g id="node8" class="node">
<title>7</title>
<ellipse fill="none" stroke="#000000" cx="187.148" cy="-95.3694" rx="34.394" ry="18"/>
<text text-anchor="middle" x="187.148" y="-91.6694" font-family="Times,serif" font-size="14.00" fill="#000000">O | O</text>
</g>
<!-- 1&#45;&#45;7 -->
<g id="edge4" class="edge">
<title>1&#45;&#45;7</title>
<path fill="none" stroke="#000000" stroke-dasharray="1,5" d="M135.8984,-118.3372C143.9308,-114.7374 152.8089,-110.7586 160.8873,-107.1382"/>
<text text-anchor="middle" x="145.1428" y="-101.5377" font-family="Times,serif" font-size="14.00" fill="#000000">=</text>
</g>
<!-- 6 -->
<g id="node7" class="node">
<title>6</title>
<ellipse fill="none" stroke="#000000" cx="178.9743" cy="-18" rx="35.194" ry="18"/>
<text text-anchor="middle" x="178.9743" y="-14.3" font-family="Times,serif" font-size="14.00" fill="#000000">H | H</text>
</g>
<!-- 2&#45;&#45;6 -->
<g id="edge5" class="edge">
<title>2&#45;&#45;6</title>
<path fill="none" stroke="#000000" stroke-dasharray="1,5" d="M133.9772,-36.0932C139.6078,-33.8292 145.5235,-31.4505 151.1474,-29.1891"/>
<text text-anchor="middle" x="141.3123" y="-21.4412" font-family="Times,serif" font-size="14.00" fill="#000000">&#45;</text>
</g>
<!-- 3 -->
<g id="node4" class="node">
<title>3</title>
<ellipse fill="none" stroke="#000000" cx="190.4565" cy="-274.4137" rx="28.6953" ry="18"/>
<text text-anchor="middle" x="190.4565" y="-270.7137" font-family="Times,serif" font-size="14.00" fill="#000000">* | *</text>
</g>
<!-- 3&#45;&#45;4 -->
<g id="edge6" class="edge">
<title>3&#45;&#45;4</title>
<path fill="none" stroke="#000000" d="M178.8541,-257.6104C171.9372,-247.5931 163.1806,-234.9111 156.2363,-224.854"/>
<text text-anchor="middle" x="156.0452" y="-245.0322" font-family="Times,serif" font-size="14.00" fill="#000000">&#45; | &#45;</text>
</g>
<!-- 5 -->
<g id="node6" class="node">
<title>5</title>
<ellipse fill="none" stroke="#000000" cx="89.5917" cy="-267.4222" rx="28.6953" ry="18"/>
<text text-anchor="middle" x="89.5917" y="-263.7222" font-family="Times,serif" font-size="14.00" fill="#000000">* | *</text>
</g>
<!-- 4&#45;&#45;5 -->
<g id="edge7" class="edge">
<title>4&#45;&#45;5</title>
<path fill="none" stroke="#000000" d="M129.4798,-224.1099C121.6084,-232.657 112.0039,-243.086 104.192,-251.5685"/>
<text text-anchor="middle" x="128.3359" y="-241.6392" font-family="Times,serif" font-size="14.00" fill="#000000">&#45; | &#45;</text>
</g>
<!-- 8 -->
<g id="node9" class="node">
<title>8</title>
<ellipse fill="none" stroke="#000000" cx="216.745" cy="-167.0514" rx="35.194" ry="18"/>
<text text-anchor="middle" x="216.745" y="-163.3514" font-family="Times,serif" font-size="14.00" fill="#000000">H | H</text>
</g>
<!-- 4&#45;&#45;8 -->
<g id="edge8" class="edge">
<title>4&#45;&#45;8</title>
<path fill="none" stroke="#000000" stroke-dasharray="1,5" d="M168.1407,-194.4739C176.0443,-190.0147 184.8551,-185.0436 192.7814,-180.5716"/>
<text text-anchor="middle" x="177.961" y="-176.3228" font-family="Times,serif" font-size="14.00" fill="#000000">&#45;</text>
</g>
<!-- 6&#45;&#45;7 -->
<g id="edge9" class="edge">
<title>6&#45;&#45;7</title>
<path fill="none" stroke="#000000" stroke-dasharray="5,2" d="M180.9114,-36.3355C182.2143,-48.6688 183.9248,-64.8598 185.2249,-77.1655"/>
<text text-anchor="middle" x="180.5681" y="-60.5505" font-family="Times,serif" font-size="14.00" fill="#000000">&#45;</text>
</g>
<!-- 7&#45;&#45;8 -->
<g id="edge10" class="edge">
<title>7&#45;&#45;8</title>
<path fill="none" stroke="#000000" stroke-dasharray="5,2" d="M194.4641,-113.0885C198.9833,-124.0338 204.7659,-138.0388 209.3075,-149.0382"/>
<text text-anchor="middle" x="199.3858" y="-134.8634" font-family="Times,serif" font-size="14.00" fill="#000000">&#45;</text>
</g>
</g>
</svg>
