<?xml version="1.0" encoding="UTF-8" standalone="no"?>
<!DOCTYPE svg PUBLIC "-//W3C//DTD SVG 1.1//EN"
 "http://www.w3.org/Graphics/SVG/1.1/DTD/svg11.dtd">
<!-- Generated by graphviz version 2.40.1 (20161225.0304)
 -->
<!-- Title: G Pages: 1 -->
<svg width="215pt" height="288pt"
 viewBox="0.00 0.00 215.24 288.00" xmlns="http://www.w3.org/2000/svg" xmlns:xlink="http://www.w3.org/1999/xlink">
<g id="graph0" class="graph" transform="scale(1 1) rotate(0) translate(4 283.9979)">
<title>G</title>
<polygon fill="#ffffff" stroke="transparent" points="-4,4 -4,-283.9979 211.2361,-283.9979 211.2361,4 -4,4"/>
<!-- 0 -->
<g id="node1" class="node">
<title>0</title>
<ellipse fill="none" stroke="#000000" cx="110.8787" cy="-233.7043" rx="35.194" ry="18"/>
<text text-anchor="middle" x="110.8787" y="-230.0043" font-family="Times,serif" font-size="14.00" fill="#000000">N | N</text>
</g>
<!-- 1 -->
<g id="node2" class="node">
<title>1</title>
<ellipse fill="none" stroke="#000000" cx="152.7028" cy="-160.6133" rx="33.2948" ry="18"/>
<text text-anchor="middle" x="152.7028" y="-156.9133" font-family="Times,serif" font-size="14.00" fill="#000000">C | C</text>
</g>
<!-- 0&#45;&#45;1 -->
<g id="edge1" class="edge">
<title>0&#45;&#45;1</title>
<path fill="none" stroke="#000000" d="M120.7904,-216.3827C127.4575,-204.7314 136.21,-189.4357 142.8622,-177.8105"/>
<text text-anchor="middle" x="147.3263" y="-200.8966" font-family="Times,serif" font-size="14.00" fill="#000000"># | &#45;</text>
</g>
<!-- 3 -->
<g id="node4" class="node">
<title>3</title>
<ellipse fill="none" stroke="#000000" cx="35.0969" cy="-247.5514" rx="35.194" ry="18"/>
<text text-anchor="middle" x="35.0969" y="-243.8514" font-family="Times,serif" font-size="14.00" fill="#000000">H | H</text>
</g>
<!-- 0&#45;&#45;3 -->
<g id="edge2" class="edge">
<title>0&#45;&#45;3</title>
<path fill="none" stroke="#000000" stroke-dasharray="1,5" d="M77.4191,-239.8181C74.4057,-240.3688 71.3543,-240.9263 68.3428,-241.4766"/>
<text text-anchor="middle" x="72.8809" y="-229.4474" font-family="Times,serif" font-size="14.00" fill="#000000">&#45;</text>
</g>
<!-- 4 -->
<g id="node5" class="node">
<title>4</title>
<ellipse fill="none" stroke="#000000" cx="147.2125" cy="-261.9979" rx="35.194" ry="18"/>
<text text-anchor="middle" x="147.2125" y="-258.2979" font-family="Times,serif" font-size="14.00" fill="#000000">H | H</text>
</g>
<!-- 0&#45;&#45;4 -->
<g id="edge3" class="edge">
<title>0&#45;&#45;4</title>
<path fill="none" stroke="#000000" stroke-dasharray="1,5" d="M130.322,-248.8451C130.457,-248.9502 130.5919,-249.0552 130.7266,-249.1602"/>
<text text-anchor="middle" x="128.0243" y="-237.8026" font-family="Times,serif" font-size="14.00" fill="#000000">&#45;</text>
</g>
<!-- 2 -->
<g id="node3" class="node">
<title>2</title>
<ellipse fill="none" stroke="#000000" cx="80.1362" cy="-185.1746" rx="35.194" ry="18"/>
<text text-anchor="middle" x="80.1362" y="-181.4746" font-family="Times,serif" font-size="14.00" fill="#000000">N | N</text>
</g>
<!-- 1&#45;&#45;2 -->
<g id="edge4" class="edge">
<title>1&#45;&#45;2</title>
<path fill="none" stroke="#000000" stroke-dasharray="1,5" d="M124.4388,-170.1796C119.6633,-171.796 114.6927,-173.4784 109.8808,-175.107"/>
<text text-anchor="middle" x="110.6598" y="-161.4433" font-family="Times,serif" font-size="14.00" fill="#000000">=</text>
</g>
<!-- 8 -->
<g id="node9" class="node">
<title>8</title>
<ellipse fill="none" stroke="#000000" cx="178.6387" cy="-84.3085" rx="28.6953" ry="18"/>
<text text-anchor="middle" x="178.6387" y="-80.6085" font-family="Times,serif" font-size="14.00" fill="#000000">* | *</text>
</g>
<!-- 1&#45;&#45;8 -->
<g id="edge5" class="edge">
<title>1&#45;&#45;8</title>
<path fill="none" stroke="#000000" d="M158.8492,-142.5301C163.0136,-130.2783 168.4899,-114.1666 172.6258,-101.9986"/>
<text text-anchor="middle" x="151.7375" y="-126.0643" font-family="Times,serif" font-size="14.00" fill="#000000">* | *</text>
</g>
<!-- 2&#45;&#45;3 -->
<g id="edge6" class="edge">
<title>2&#45;&#45;3</title>
<path fill="none" stroke="#000000" stroke-dasharray="5,2" d="M67.829,-202.2193C61.4739,-211.0208 53.7422,-221.7288 47.3892,-230.5273"/>
<text text-anchor="middle" x="55.1091" y="-220.1733" font-family="Times,serif" font-size="14.00" fill="#000000">&#45;</text>
</g>
<!-- 2&#45;&#45;4 -->
<g id="edge7" class="edge">
<title>2&#45;&#45;4</title>
<path fill="none" stroke="#000000" stroke-dasharray="5,2" d="M94.6908,-201.8441C105.9417,-214.73 121.4426,-232.4833 132.6864,-245.3609"/>
<text text-anchor="middle" x="111.1886" y="-212.4025" font-family="Times,serif" font-size="14.00" fill="#000000">&#45;</text>
</g>
<!-- 5 -->
<g id="node6" class="node">
<title>5</title>
<ellipse fill="none" stroke="#000000" cx="31.5187" cy="-116.2564" rx="28.6953" ry="18"/>
<text text-anchor="middle" x="31.5187" y="-112.5564" font-family="Times,serif" font-size="14.00" fill="#000000">* | *</text>
</g>
<!-- 2&#45;&#45;5 -->
<g id="edge8" class="edge">
<title>2&#45;&#45;5</title>
<path fill="none" stroke="#000000" d="M68.1184,-168.1386C60.5824,-157.456 50.9078,-143.7417 43.3983,-133.0964"/>
<text text-anchor="middle" x="41.7583" y="-154.4175" font-family="Times,serif" font-size="14.00" fill="#000000">* | *</text>
</g>
<!-- 6 -->
<g id="node7" class="node">
<title>6</title>
<ellipse fill="none" stroke="#000000" cx="52.668" cy="-37.5084" rx="28.6953" ry="18"/>
<text text-anchor="middle" x="52.668" y="-33.8084" font-family="Times,serif" font-size="14.00" fill="#000000">* | *</text>
</g>
<!-- 5&#45;&#45;6 -->
<g id="edge9" class="edge">
<title>5&#45;&#45;6</title>
<path fill="none" stroke="#000000" d="M36.3178,-98.3872C39.779,-85.4997 44.4311,-68.1781 47.8879,-55.3068"/>
<text text-anchor="middle" x="28.1029" y="-80.647" font-family="Times,serif" font-size="14.00" fill="#000000">* | *</text>
</g>
<!-- 7 -->
<g id="node8" class="node">
<title>7</title>
<ellipse fill="none" stroke="#000000" cx="131.1117" cy="-18" rx="28.6953" ry="18"/>
<text text-anchor="middle" x="131.1117" y="-14.3" font-family="Times,serif" font-size="14.00" fill="#000000">* | *</text>
</g>
<!-- 6&#45;&#45;7 -->
<g id="edge10" class="edge">
<title>6&#45;&#45;7</title>
<path fill="none" stroke="#000000" d="M79.6639,-30.7947C87.6412,-28.8108 96.3682,-26.6405 104.3318,-24.66"/>
<text text-anchor="middle" x="84.9978" y="-16.5273" font-family="Times,serif" font-size="14.00" fill="#000000">* | *</text>
</g>
<!-- 7&#45;&#45;8 -->
<g id="edge11" class="edge">
<title>7&#45;&#45;8</title>
<path fill="none" stroke="#000000" d="M143.1047,-34.7324C150.3645,-44.861 159.585,-57.7252 166.8141,-67.8111"/>
<text text-anchor="middle" x="140.9594" y="-55.0718" font-family="Times,serif" font-size="14.00" fill="#000000">* | *</text>
</g>
</g>
</svg>
