<?xml version="1.0" encoding="UTF-8" standalone="no"?>
<!DOCTYPE svg PUBLIC "-//W3C//DTD SVG 1.1//EN"
 "http://www.w3.org/Graphics/SVG/1.1/DTD/svg11.dtd">
<!-- Generated by graphviz version 2.40.1 (20161225.0304)
 -->
<!-- Title: G Pages: 1 -->
<svg width="268pt" height="393pt"
 viewBox="0.00 0.00 268.08 393.25" xmlns="http://www.w3.org/2000/svg" xmlns:xlink="http://www.w3.org/1999/xlink">
<g id="graph0" class="graph" transform="scale(1 1) rotate(0) translate(4 389.2457)">
<title>G</title>
<polygon fill="#ffffff" stroke="transparent" points="-4,4 -4,-389.2457 264.0759,-389.2457 264.0759,4 -4,4"/>
<!-- 0 -->
<g id="node1" class="node">
<title>0</title>
<ellipse fill="none" stroke="#000000" cx="104.842" cy="-220.3556" rx="33.2948" ry="18"/>
<text text-anchor="middle" x="104.842" y="-216.6556" font-family="Times,serif" font-size="14.00" fill="#000000">C | C</text>
</g>
<!-- 1 -->
<g id="node2" class="node">
<title>1</title>
<ellipse fill="none" stroke="#000000" cx="152.2201" cy="-289.3475" rx="32.4942" ry="18"/>
<text text-anchor="middle" x="152.2201" y="-285.6475" font-family="Times,serif" font-size="14.00" fill="#000000">S | S</text>
</g>
<!-- 0&#45;&#45;1 -->
<g id="edge1" class="edge">
<title>0&#45;&#45;1</title>
<path fill="none" stroke="#000000" stroke-dasharray="5,2" d="M116.5534,-237.4098C123.8973,-248.1038 133.3252,-261.8328 140.6434,-272.4895"/>
<text text-anchor="middle" x="126.0984" y="-258.7496" font-family="Times,serif" font-size="14.00" fill="#000000">&#45;</text>
</g>
<!-- 3 -->
<g id="node4" class="node">
<title>3</title>
<ellipse fill="none" stroke="#000000" cx="182.944" cy="-184.1285" rx="35.194" ry="18"/>
<text text-anchor="middle" x="182.944" y="-180.4285" font-family="Times,serif" font-size="14.00" fill="#000000">N | N</text>
</g>
<!-- 0&#45;&#45;3 -->
<g id="edge2" class="edge">
<title>0&#45;&#45;3</title>
<path fill="none" stroke="#000000" stroke-dasharray="1,5" d="M130.4155,-208.4935C138.8682,-204.5728 148.2812,-200.2066 156.7776,-196.2656"/>
<text text-anchor="middle" x="141.0966" y="-206.1795" font-family="Times,serif" font-size="14.00" fill="#000000">&#45;</text>
</g>
<!-- 5 -->
<g id="node6" class="node">
<title>5</title>
<ellipse fill="none" stroke="#000000" cx="34.4469" cy="-263.0832" rx="34.394" ry="18"/>
<text text-anchor="middle" x="34.4469" y="-259.3832" font-family="Times,serif" font-size="14.00" fill="#000000">O | O</text>
</g>
<!-- 0&#45;&#45;5 -->
<g id="edge3" class="edge">
<title>0&#45;&#45;5</title>
<path fill="none" stroke="#000000" d="M82.5686,-233.8748C74.5125,-238.7646 65.4074,-244.2911 57.3022,-249.2107"/>
<text text-anchor="middle" x="50.9354" y="-230.3428" font-family="Times,serif" font-size="14.00" fill="#000000">= | =</text>
</g>
<!-- 6 -->
<g id="node7" class="node">
<title>6</title>
<ellipse fill="none" stroke="#000000" cx="52.1887" cy="-155.9711" rx="33.2948" ry="18"/>
<text text-anchor="middle" x="52.1887" y="-152.2711" font-family="Times,serif" font-size="14.00" fill="#000000">C | C</text>
</g>
<!-- 0&#45;&#45;6 -->
<g id="edge4" class="edge">
<title>0&#45;&#45;6</title>
<path fill="none" stroke="#000000" d="M91.2825,-203.775C83.4821,-194.2366 73.7086,-182.2857 65.8853,-172.7193"/>
<text text-anchor="middle" x="67.0839" y="-177.0471" font-family="Times,serif" font-size="14.00" fill="#000000">&#45; | &#45;</text>
</g>
<!-- 2 -->
<g id="node3" class="node">
<title>2</title>
<ellipse fill="none" stroke="#000000" cx="157.4455" cy="-367.2457" rx="28.6953" ry="18"/>
<text text-anchor="middle" x="157.4455" y="-363.5457" font-family="Times,serif" font-size="14.00" fill="#000000">* | *</text>
</g>
<!-- 1&#45;&#45;2 -->
<g id="edge5" class="edge">
<title>1&#45;&#45;2</title>
<path fill="none" stroke="#000000" d="M153.4321,-307.4147C154.2702,-319.9094 155.3814,-336.4748 156.222,-349.0066"/>
<text text-anchor="middle" x="143.327" y="-332.0106" font-family="Times,serif" font-size="14.00" fill="#000000">&#45; | &#45;</text>
</g>
<!-- 4 -->
<g id="node5" class="node">
<title>4</title>
<ellipse fill="none" stroke="#000000" cx="224.979" cy="-252.0098" rx="35.194" ry="18"/>
<text text-anchor="middle" x="224.979" y="-248.3098" font-family="Times,serif" font-size="14.00" fill="#000000">H | H</text>
</g>
<!-- 1&#45;&#45;4 -->
<g id="edge6" class="edge">
<title>1&#45;&#45;4</title>
<path fill="none" stroke="#000000" stroke-dasharray="1,5" d="M176.4478,-276.9146C184.0542,-273.0112 192.4613,-268.6969 200.1113,-264.7712"/>
<text text-anchor="middle" x="185.7795" y="-259.6429" font-family="Times,serif" font-size="14.00" fill="#000000">&#45;</text>
</g>
<!-- 3&#45;&#45;4 -->
<g id="edge7" class="edge">
<title>3&#45;&#45;4</title>
<path fill="none" stroke="#000000" stroke-dasharray="5,2" d="M193.7691,-201.6096C200.0937,-211.8231 208.0431,-224.6604 214.3361,-234.8229"/>
<text text-anchor="middle" x="201.5526" y="-222.0163" font-family="Times,serif" font-size="14.00" fill="#000000">&#45;</text>
</g>
<!-- 10 -->
<g id="node11" class="node">
<title>10</title>
<ellipse fill="none" stroke="#000000" cx="214.2603" cy="-108.7229" rx="33.2948" ry="18"/>
<text text-anchor="middle" x="214.2603" y="-105.0229" font-family="Times,serif" font-size="14.00" fill="#000000">C | C</text>
</g>
<!-- 3&#45;&#45;10 -->
<g id="edge8" class="edge">
<title>3&#45;&#45;10</title>
<path fill="none" stroke="#000000" d="M190.3655,-166.2584C195.3576,-154.2382 201.9112,-138.4581 206.8921,-126.4647"/>
<text text-anchor="middle" x="187.1288" y="-150.1616" font-family="Times,serif" font-size="14.00" fill="#000000">&#45; | &#45;</text>
</g>
<!-- 7 -->
<g id="node8" class="node">
<title>7</title>
<ellipse fill="none" stroke="#000000" cx="45.6252" cy="-75.673" rx="33.2948" ry="18"/>
<text text-anchor="middle" x="45.6252" y="-71.973" font-family="Times,serif" font-size="14.00" fill="#000000">C | C</text>
</g>
<!-- 6&#45;&#45;7 -->
<g id="edge9" class="edge">
<title>6&#45;&#45;7</title>
<path fill="none" stroke="#000000" d="M50.6994,-137.7502C49.6252,-124.6089 48.1815,-106.9465 47.1087,-93.8218"/>
<text text-anchor="middle" x="37.404" y="-119.586" font-family="Times,serif" font-size="14.00" fill="#000000">&#45; | &#45;</text>
</g>
<!-- 8 -->
<g id="node9" class="node">
<title>8</title>
<ellipse fill="none" stroke="#000000" cx="102.9596" cy="-18" rx="33.2948" ry="18"/>
<text text-anchor="middle" x="102.9596" y="-14.3" font-family="Times,serif" font-size="14.00" fill="#000000">C | C</text>
</g>
<!-- 7&#45;&#45;8 -->
<g id="edge10" class="edge">
<title>7&#45;&#45;8</title>
<path fill="none" stroke="#000000" d="M61.596,-59.6079C69.5483,-51.6087 79.1339,-41.9664 87.0744,-33.979"/>
<text text-anchor="middle" x="85.8352" y="-50.5934" font-family="Times,serif" font-size="14.00" fill="#000000">&#45; | &#45;</text>
</g>
<!-- 9 -->
<g id="node10" class="node">
<title>9</title>
<ellipse fill="none" stroke="#000000" cx="182.1008" cy="-34.5471" rx="33.2948" ry="18"/>
<text text-anchor="middle" x="182.1008" y="-30.8471" font-family="Times,serif" font-size="14.00" fill="#000000">C | C</text>
</g>
<!-- 8&#45;&#45;9 -->
<g id="edge11" class="edge">
<title>8&#45;&#45;9</title>
<path fill="none" stroke="#000000" d="M134.2383,-24.5399C139.7686,-25.6962 145.5252,-26.8998 151.0492,-28.0548"/>
<text text-anchor="middle" x="148.3938" y="-15.0973" font-family="Times,serif" font-size="14.00" fill="#000000">&#45; | &#45;</text>
</g>
<!-- 9&#45;&#45;10 -->
<g id="edge12" class="edge">
<title>9&#45;&#45;10</title>
<path fill="none" stroke="#000000" d="M189.7222,-52.1257C194.8115,-63.8643 201.4812,-79.2479 206.5822,-91.0134"/>
<text text-anchor="middle" x="186.6522" y="-75.3696" font-family="Times,serif" font-size="14.00" fill="#000000">&#45; | &#45;</text>
</g>
</g>
</svg>
