<?xml version="1.0" encoding="UTF-8" standalone="no"?>
<!DOCTYPE svg PUBLIC "-//W3C//DTD SVG 1.1//EN"
 "http://www.w3.org/Graphics/SVG/1.1/DTD/svg11.dtd">
<!-- Generated by graphviz version 2.40.1 (20161225.0304)
 -->
<!-- Title: G Pages: 1 -->
<svg width="298pt" height="392pt"
 viewBox="0.00 0.00 298.40 391.76" xmlns="http://www.w3.org/2000/svg" xmlns:xlink="http://www.w3.org/1999/xlink">
<g id="graph0" class="graph" transform="scale(1 1) rotate(0) translate(4 387.764)">
<title>G</title>
<polygon fill="#ffffff" stroke="transparent" points="-4,4 -4,-387.764 294.3993,-387.764 294.3993,4 -4,4"/>
<!-- 0 -->
<g id="node1" class="node">
<title>0</title>
<ellipse fill="none" stroke="#000000" cx="154.8646" cy="-365.764" rx="35.194" ry="18"/>
<text text-anchor="middle" x="154.8646" y="-362.064" font-family="Times,serif" font-size="14.00" fill="#000000">H | H</text>
</g>
<!-- 2 -->
<g id="node3" class="node">
<title>2</title>
<ellipse fill="none" stroke="#000000" cx="191.0168" cy="-292.975" rx="35.194" ry="18"/>
<text text-anchor="middle" x="191.0168" y="-289.275" font-family="Times,serif" font-size="14.00" fill="#000000">N | N</text>
</g>
<!-- 0&#45;&#45;2 -->
<g id="edge1" class="edge">
<title>0&#45;&#45;2</title>
<path fill="none" stroke="#000000" d="M163.6161,-348.1438C169.3001,-336.6996 176.6781,-321.8447 182.346,-310.4329"/>
<text text-anchor="middle" x="161.481" y="-333.0884" font-family="Times,serif" font-size="14.00" fill="#000000">&#45; | &#45;</text>
</g>
<!-- 1 -->
<g id="node2" class="node">
<title>1</title>
<ellipse fill="none" stroke="#000000" cx="255.3024" cy="-341.2707" rx="35.194" ry="18"/>
<text text-anchor="middle" x="255.3024" y="-337.5707" font-family="Times,serif" font-size="14.00" fill="#000000">H | H</text>
</g>
<!-- 1&#45;&#45;2 -->
<g id="edge2" class="edge">
<title>1&#45;&#45;2</title>
<path fill="none" stroke="#000000" d="M235.3144,-326.2544C227.648,-320.4949 218.8997,-313.9225 211.2138,-308.1484"/>
<text text-anchor="middle" x="234.7641" y="-306.0014" font-family="Times,serif" font-size="14.00" fill="#000000">&#45; | &#45;</text>
</g>
<!-- 3 -->
<g id="node4" class="node">
<title>3</title>
<ellipse fill="none" stroke="#000000" cx="136.5464" cy="-230.6506" rx="33.2948" ry="18"/>
<text text-anchor="middle" x="136.5464" y="-226.9506" font-family="Times,serif" font-size="14.00" fill="#000000">C | C</text>
</g>
<!-- 2&#45;&#45;3 -->
<g id="edge3" class="edge">
<title>2&#45;&#45;3</title>
<path fill="none" stroke="#000000" stroke-dasharray="5,2" d="M176.4198,-276.2732C168.4784,-267.1868 158.6951,-255.9928 150.8067,-246.9671"/>
<text text-anchor="middle" x="161.1132" y="-265.4201" font-family="Times,serif" font-size="14.00" fill="#000000">&#45;</text>
</g>
<!-- 10 -->
<g id="node11" class="node">
<title>10</title>
<ellipse fill="none" stroke="#000000" cx="239.0423" cy="-224.1571" rx="35.194" ry="18"/>
<text text-anchor="middle" x="239.0423" y="-220.4571" font-family="Times,serif" font-size="14.00" fill="#000000">H | H</text>
</g>
<!-- 2&#45;&#45;10 -->
<g id="edge4" class="edge">
<title>2&#45;&#45;10</title>
<path fill="none" stroke="#000000" stroke-dasharray="1,5" d="M202.8883,-275.9638C210.2214,-265.4559 219.6045,-252.0105 226.9738,-241.4506"/>
<text text-anchor="middle" x="212.4311" y="-262.5072" font-family="Times,serif" font-size="14.00" fill="#000000">&#45;</text>
</g>
<!-- 4 -->
<g id="node5" class="node">
<title>4</title>
<ellipse fill="none" stroke="#000000" cx="56.309" cy="-211.9077" rx="28.6953" ry="18"/>
<text text-anchor="middle" x="56.309" y="-208.2077" font-family="Times,serif" font-size="14.00" fill="#000000">* | *</text>
</g>
<!-- 3&#45;&#45;4 -->
<g id="edge5" class="edge">
<title>3&#45;&#45;4</title>
<path fill="none" stroke="#000000" d="M105.754,-223.4577C98.3294,-221.7234 90.4537,-219.8836 83.2222,-218.1944"/>
<text text-anchor="middle" x="101.4881" y="-209.6261" font-family="Times,serif" font-size="14.00" fill="#000000">* | *</text>
</g>
<!-- 9 -->
<g id="node10" class="node">
<title>9</title>
<ellipse fill="none" stroke="#000000" cx="188.1465" cy="-162.8107" rx="35.194" ry="18"/>
<text text-anchor="middle" x="188.1465" y="-159.1107" font-family="Times,serif" font-size="14.00" fill="#000000">N | N</text>
</g>
<!-- 3&#45;&#45;9 -->
<g id="edge6" class="edge">
<title>3&#45;&#45;9</title>
<path fill="none" stroke="#000000" stroke-dasharray="1,5" d="M149.3015,-213.8812C157.1804,-203.5227 167.2618,-190.2683 175.1797,-179.8585"/>
<text text-anchor="middle" x="159.7406" y="-200.6698" font-family="Times,serif" font-size="14.00" fill="#000000">&#45;</text>
</g>
<!-- 5 -->
<g id="node6" class="node">
<title>5</title>
<ellipse fill="none" stroke="#000000" cx="28.5975" cy="-134.9897" rx="28.6953" ry="18"/>
<text text-anchor="middle" x="28.5975" y="-131.2897" font-family="Times,serif" font-size="14.00" fill="#000000">* | *</text>
</g>
<!-- 4&#45;&#45;5 -->
<g id="edge7" class="edge">
<title>4&#45;&#45;5</title>
<path fill="none" stroke="#000000" d="M49.8818,-194.0678C45.4049,-181.6415 39.4591,-165.1378 34.9898,-152.7328"/>
<text text-anchor="middle" x="28.4358" y="-177.2003" font-family="Times,serif" font-size="14.00" fill="#000000">* | *</text>
</g>
<!-- 6 -->
<g id="node7" class="node">
<title>6</title>
<ellipse fill="none" stroke="#000000" cx="79.0267" cy="-70.8657" rx="28.6953" ry="18"/>
<text text-anchor="middle" x="79.0267" y="-67.1657" font-family="Times,serif" font-size="14.00" fill="#000000">* | *</text>
</g>
<!-- 5&#45;&#45;6 -->
<g id="edge8" class="edge">
<title>5&#45;&#45;6</title>
<path fill="none" stroke="#000000" d="M41.3229,-118.8085C48.9092,-109.162 58.5135,-96.9495 66.13,-87.2647"/>
<text text-anchor="middle" x="39.7264" y="-91.8366" font-family="Times,serif" font-size="14.00" fill="#000000">* | *</text>
</g>
<!-- 7 -->
<g id="node8" class="node">
<title>7</title>
<ellipse fill="none" stroke="#000000" cx="161.9873" cy="-84.8349" rx="33.2948" ry="18"/>
<text text-anchor="middle" x="161.9873" y="-81.1349" font-family="Times,serif" font-size="14.00" fill="#000000">C | C</text>
</g>
<!-- 6&#45;&#45;7 -->
<g id="edge9" class="edge">
<title>6&#45;&#45;7</title>
<path fill="none" stroke="#000000" d="M107.1134,-75.595C114.5405,-76.8456 122.6093,-78.2043 130.2165,-79.4852"/>
<text text-anchor="middle" x="118.665" y="-66.3401" font-family="Times,serif" font-size="14.00" fill="#000000">&#45; | &#45;</text>
</g>
<!-- 8 -->
<g id="node9" class="node">
<title>8</title>
<ellipse fill="none" stroke="#000000" cx="203.3889" cy="-18" rx="28.6953" ry="18"/>
<text text-anchor="middle" x="203.3889" y="-14.3" font-family="Times,serif" font-size="14.00" fill="#000000">* | *</text>
</g>
<!-- 7&#45;&#45;8 -->
<g id="edge10" class="edge">
<title>7&#45;&#45;8</title>
<path fill="none" stroke="#000000" d="M172.6493,-67.6233C178.8786,-57.5672 186.7082,-44.9278 192.9064,-34.922"/>
<text text-anchor="middle" x="168.7778" y="-55.0726" font-family="Times,serif" font-size="14.00" fill="#000000">* | *</text>
</g>
<!-- 7&#45;&#45;9 -->
<g id="edge11" class="edge">
<title>7&#45;&#45;9</title>
<path fill="none" stroke="#000000" d="M168.0545,-102.9201C172.2806,-115.5173 177.8933,-132.2479 182.1122,-144.8236"/>
<text text-anchor="middle" x="156.0833" y="-127.6719" font-family="Times,serif" font-size="14.00" fill="#000000">= | =</text>
</g>
<!-- 9&#45;&#45;10 -->
<g id="edge12" class="edge">
<title>9&#45;&#45;10</title>
<path fill="none" stroke="#000000" stroke-dasharray="5,2" d="M202.054,-179.5739C209.2355,-188.23 217.9726,-198.7611 225.1516,-207.4142"/>
<text text-anchor="middle" x="211.1028" y="-197.294" font-family="Times,serif" font-size="14.00" fill="#000000">&#45;</text>
</g>
</g>
</svg>
