<?xml version="1.0" encoding="UTF-8" standalone="no"?>
<!DOCTYPE svg PUBLIC "-//W3C//DTD SVG 1.1//EN"
 "http://www.w3.org/Graphics/SVG/1.1/DTD/svg11.dtd">
<!-- Generated by graphviz version 2.40.1 (20161225.0304)
 -->
<!-- Title: G Pages: 1 -->
<svg width="308pt" height="281pt"
 viewBox="0.00 0.00 307.87 280.83" xmlns="http://www.w3.org/2000/svg" xmlns:xlink="http://www.w3.org/1999/xlink">
<g id="graph0" class="graph" transform="scale(1 1) rotate(0) translate(4 276.8275)">
<title>G</title>
<polygon fill="#ffffff" stroke="transparent" points="-4,4 -4,-276.8275 303.8696,-276.8275 303.8696,4 -4,4"/>
<!-- 0 -->
<g id="node1" class="node">
<title>0</title>
<ellipse fill="none" stroke="#000000" cx="225.8844" cy="-210.1813" rx="35.194" ry="18"/>
<text text-anchor="middle" x="225.8844" y="-206.4813" font-family="Times,serif" font-size="14.00" fill="#000000">N | N</text>
</g>
<!-- 1 -->
<g id="node2" class="node">
<title>1</title>
<ellipse fill="none" stroke="#000000" cx="159.9461" cy="-161.9552" rx="33.2948" ry="18"/>
<text text-anchor="middle" x="159.9461" y="-158.2552" font-family="Times,serif" font-size="14.00" fill="#000000">C | C</text>
</g>
<!-- 0&#45;&#45;1 -->
<g id="edge1" class="edge">
<title>0&#45;&#45;1</title>
<path fill="none" stroke="#000000" d="M205.3826,-195.1866C197.2166,-189.2141 187.854,-182.3665 179.7577,-176.445"/>
<text text-anchor="middle" x="208.0701" y="-174.6158" font-family="Times,serif" font-size="14.00" fill="#000000"># | &#45;</text>
</g>
<!-- 5 -->
<g id="node6" class="node">
<title>5</title>
<ellipse fill="none" stroke="#000000" cx="162.7386" cy="-254.8275" rx="35.194" ry="18"/>
<text text-anchor="middle" x="162.7386" y="-251.1275" font-family="Times,serif" font-size="14.00" fill="#000000">H | H</text>
</g>
<!-- 0&#45;&#45;5 -->
<g id="edge2" class="edge">
<title>0&#45;&#45;5</title>
<path fill="none" stroke="#000000" stroke-dasharray="1,5" d="M205.2081,-224.8001C198.3021,-229.6829 190.6034,-235.1262 183.6775,-240.023"/>
<text text-anchor="middle" x="196.9428" y="-236.2115" font-family="Times,serif" font-size="14.00" fill="#000000">&#45;</text>
</g>
<!-- 9 -->
<g id="node10" class="node">
<title>9</title>
<ellipse fill="none" stroke="#000000" cx="264.7727" cy="-138.3113" rx="35.194" ry="18"/>
<text text-anchor="middle" x="264.7727" y="-134.6113" font-family="Times,serif" font-size="14.00" fill="#000000">H | H</text>
</g>
<!-- 0&#45;&#45;9 -->
<g id="edge3" class="edge">
<title>0&#45;&#45;9</title>
<path fill="none" stroke="#000000" stroke-dasharray="1,5" d="M235.2982,-192.7835C241.3675,-181.5669 249.2322,-167.032 255.3109,-155.7979"/>
<text text-anchor="middle" x="242.8045" y="-178.0907" font-family="Times,serif" font-size="14.00" fill="#000000">&#45;</text>
</g>
<!-- 2 -->
<g id="node3" class="node">
<title>2</title>
<ellipse fill="none" stroke="#000000" cx="61.191" cy="-158.6728" rx="28.6953" ry="18"/>
<text text-anchor="middle" x="61.191" y="-154.9728" font-family="Times,serif" font-size="14.00" fill="#000000">* | *</text>
</g>
<!-- 1&#45;&#45;2 -->
<g id="edge4" class="edge">
<title>1&#45;&#45;2</title>
<path fill="none" stroke="#000000" d="M126.7874,-160.853C114.7961,-160.4545 101.3692,-160.0082 89.8017,-159.6237"/>
<text text-anchor="middle" x="114.0445" y="-149.0384" font-family="Times,serif" font-size="14.00" fill="#000000">&#45; | &#45;</text>
</g>
<!-- 8 -->
<g id="node9" class="node">
<title>8</title>
<ellipse fill="none" stroke="#000000" cx="196.3291" cy="-93.4888" rx="35.194" ry="18"/>
<text text-anchor="middle" x="196.3291" y="-89.7888" font-family="Times,serif" font-size="14.00" fill="#000000">N | N</text>
</g>
<!-- 1&#45;&#45;8 -->
<g id="edge5" class="edge">
<title>1&#45;&#45;8</title>
<path fill="none" stroke="#000000" stroke-dasharray="1,5" d="M169.3156,-144.3234C174.7056,-134.1803 181.459,-121.4717 186.8649,-111.2988"/>
<text text-anchor="middle" x="171.5903" y="-131.6111" font-family="Times,serif" font-size="14.00" fill="#000000">=</text>
</g>
<!-- 3 -->
<g id="node4" class="node">
<title>3</title>
<ellipse fill="none" stroke="#000000" cx="28.5975" cy="-220.1882" rx="28.6953" ry="18"/>
<text text-anchor="middle" x="28.5975" y="-216.4882" font-family="Times,serif" font-size="14.00" fill="#000000">* | *</text>
</g>
<!-- 2&#45;&#45;3 -->
<g id="edge6" class="edge">
<title>2&#45;&#45;3</title>
<path fill="none" stroke="#000000" d="M52.1119,-175.8082C47.6665,-184.1982 42.3233,-194.2828 37.8544,-202.7172"/>
<text text-anchor="middle" x="30.9831" y="-178.0627" font-family="Times,serif" font-size="14.00" fill="#000000">* | *</text>
</g>
<!-- 4 -->
<g id="node5" class="node">
<title>4</title>
<ellipse fill="none" stroke="#000000" cx="101.9348" cy="-193.438" rx="35.194" ry="18"/>
<text text-anchor="middle" x="101.9348" y="-189.738" font-family="Times,serif" font-size="14.00" fill="#000000">N | N</text>
</g>
<!-- 3&#45;&#45;4 -->
<g id="edge7" class="edge">
<title>3&#45;&#45;4</title>
<path fill="none" stroke="#000000" d="M53.4261,-211.1318C59.7424,-208.8279 66.5836,-206.3325 73.0815,-203.9624"/>
<text text-anchor="middle" x="74.7538" y="-211.3471" font-family="Times,serif" font-size="14.00" fill="#000000">&#45; | &#45;</text>
</g>
<!-- 4&#45;&#45;5 -->
<g id="edge8" class="edge">
<title>4&#45;&#45;5</title>
<path fill="none" stroke="#000000" stroke-dasharray="5,2" d="M117.9103,-209.5673C126.7771,-218.5196 137.7752,-229.6236 146.6587,-238.5927"/>
<text text-anchor="middle" x="129.7845" y="-212.88" font-family="Times,serif" font-size="14.00" fill="#000000">&#45;</text>
</g>
<!-- 6 -->
<g id="node7" class="node">
<title>6</title>
<ellipse fill="none" stroke="#000000" cx="116.3587" cy="-93.58" rx="33.2948" ry="18"/>
<text text-anchor="middle" x="116.3587" y="-89.88" font-family="Times,serif" font-size="14.00" fill="#000000">C | C</text>
</g>
<!-- 4&#45;&#45;6 -->
<g id="edge9" class="edge">
<title>4&#45;&#45;6</title>
<path fill="none" stroke="#000000" d="M104.5804,-175.1225C107.1829,-157.1049 111.1332,-129.7567 113.7299,-111.7794"/>
<text text-anchor="middle" x="124.6551" y="-132.2509" font-family="Times,serif" font-size="14.00" fill="#000000">&#45; | =</text>
</g>
<!-- 7 -->
<g id="node8" class="node">
<title>7</title>
<ellipse fill="none" stroke="#000000" cx="87.8237" cy="-18" rx="28.6953" ry="18"/>
<text text-anchor="middle" x="87.8237" y="-14.3" font-family="Times,serif" font-size="14.00" fill="#000000">* | *</text>
</g>
<!-- 6&#45;&#45;7 -->
<g id="edge10" class="edge">
<title>6&#45;&#45;7</title>
<path fill="none" stroke="#000000" d="M109.5963,-75.6686C105.0146,-63.5332 98.9895,-47.5745 94.4391,-35.5221"/>
<text text-anchor="middle" x="90.5177" y="-59.3953" font-family="Times,serif" font-size="14.00" fill="#000000">&#45; | &#45;</text>
</g>
<!-- 6&#45;&#45;8 -->
<g id="edge11" class="edge">
<title>6&#45;&#45;8</title>
<path fill="none" stroke="#000000" d="M149.81,-93.5418C153.5765,-93.5375 157.4224,-93.5332 161.2093,-93.5288"/>
<text text-anchor="middle" x="147.7596" y="-82.3353" font-family="Times,serif" font-size="14.00" fill="#000000">= | &#45;</text>
</g>
<!-- 8&#45;&#45;9 -->
<g id="edge12" class="edge">
<title>8&#45;&#45;9</title>
<path fill="none" stroke="#000000" stroke-dasharray="5,2" d="M217.9851,-107.6709C225.9745,-112.903 235.025,-118.83 243.0227,-124.0676"/>
<text text-anchor="middle" x="228.0039" y="-119.6692" font-family="Times,serif" font-size="14.00" fill="#000000">&#45;</text>
</g>
</g>
</svg>
