<?xml version="1.0" encoding="UTF-8" standalone="no"?>
<!DOCTYPE svg PUBLIC "-//W3C//DTD SVG 1.1//EN"
 "http://www.w3.org/Graphics/SVG/1.1/DTD/svg11.dtd">
<!-- Generated by graphviz version 2.40.1 (20161225.0304)
 -->
<!-- Title: G Pages: 1 -->
<svg width="284pt" height="239pt"
 viewBox="0.00 0.00 284.13 239.42" xmlns="http://www.w3.org/2000/svg" xmlns:xlink="http://www.w3.org/1999/xlink">
<g id="graph0" class="graph" transform="scale(1 1) rotate(0) translate(4 235.4218)">
<title>G</title>
<polygon fill="#ffffff" stroke="transparent" points="-4,4 -4,-235.4218 280.1256,-235.4218 280.1256,4 -4,4"/>
<!-- 0 -->
<g id="node1" class="node">
<title>0</title>
<ellipse fill="none" stroke="#000000" cx="220.3138" cy="-18" rx="35.194" ry="18"/>
<text text-anchor="middle" x="220.3138" y="-14.3" font-family="Times,serif" font-size="14.00" fill="#000000">H | H</text>
</g>
<!-- 2 -->
<g id="node3" class="node">
<title>2</title>
<ellipse fill="none" stroke="#000000" cx="180.7152" cy="-99.9185" rx="35.194" ry="18"/>
<text text-anchor="middle" x="180.7152" y="-96.2185" font-family="Times,serif" font-size="14.00" fill="#000000">N | N</text>
</g>
<!-- 0&#45;&#45;2 -->
<g id="edge1" class="edge">
<title>0&#45;&#45;2</title>
<path fill="none" stroke="#000000" stroke-dasharray="5,2" d="M211.7215,-35.7751C205.0795,-49.5156 195.9285,-68.4464 189.2908,-82.1781"/>
<text text-anchor="middle" x="198.0061" y="-62.7766" font-family="Times,serif" font-size="14.00" fill="#000000">&#45;</text>
</g>
<!-- 8 -->
<g id="node9" class="node">
<title>8</title>
<ellipse fill="none" stroke="#000000" cx="159.6856" cy="-19.2923" rx="34.394" ry="18"/>
<text text-anchor="middle" x="159.6856" y="-15.5923" font-family="Times,serif" font-size="14.00" fill="#000000">O | O</text>
</g>
<!-- 0&#45;&#45;8 -->
<g id="edge2" class="edge">
<title>0&#45;&#45;8</title>
<path fill="none" stroke="#000000" stroke-dasharray="1,5" d="M185.0461,-18.7517C184.9419,-18.754 184.8378,-18.7562 184.7337,-18.7584"/>
<text text-anchor="middle" x="182.3899" y="-22.5551" font-family="Times,serif" font-size="14.00" fill="#000000">&#45;</text>
</g>
<!-- 1 -->
<g id="node2" class="node">
<title>1</title>
<ellipse fill="none" stroke="#000000" cx="241.0287" cy="-68.8224" rx="35.194" ry="18"/>
<text text-anchor="middle" x="241.0287" y="-65.1224" font-family="Times,serif" font-size="14.00" fill="#000000">H | H</text>
</g>
<!-- 1&#45;&#45;2 -->
<g id="edge3" class="edge">
<title>1&#45;&#45;2</title>
<path fill="none" stroke="#000000" stroke-dasharray="5,2" d="M216.1487,-81.6499C212.6442,-83.4568 209.0415,-85.3142 205.5381,-87.1205"/>
<text text-anchor="middle" x="208.3434" y="-73.1852" font-family="Times,serif" font-size="14.00" fill="#000000">&#45;</text>
</g>
<!-- 1&#45;&#45;8 -->
<g id="edge4" class="edge">
<title>1&#45;&#45;8</title>
<path fill="none" stroke="#000000" stroke-dasharray="1,5" d="M218.3701,-55.0255C207.0879,-48.1557 193.4882,-39.8748 182.2227,-33.0152"/>
<text text-anchor="middle" x="202.7964" y="-47.8204" font-family="Times,serif" font-size="14.00" fill="#000000">&#45;</text>
</g>
<!-- 3 -->
<g id="node4" class="node">
<title>3</title>
<ellipse fill="none" stroke="#000000" cx="184.1594" cy="-181.8034" rx="33.2948" ry="18"/>
<text text-anchor="middle" x="184.1594" y="-178.1034" font-family="Times,serif" font-size="14.00" fill="#000000">C | C</text>
</g>
<!-- 2&#45;&#45;3 -->
<g id="edge5" class="edge">
<title>2&#45;&#45;3</title>
<path fill="none" stroke="#000000" d="M181.4796,-118.0914C182.0504,-131.6611 182.8269,-150.1238 183.3972,-163.6813"/>
<text text-anchor="middle" x="170.9384" y="-144.6864" font-family="Times,serif" font-size="14.00" fill="#000000">&#45; | &#45;</text>
</g>
<!-- 6 -->
<g id="node7" class="node">
<title>6</title>
<ellipse fill="none" stroke="#000000" cx="101.3921" cy="-75.4938" rx="33.2948" ry="18"/>
<text text-anchor="middle" x="101.3921" y="-71.7938" font-family="Times,serif" font-size="14.00" fill="#000000">C | C</text>
</g>
<!-- 2&#45;&#45;6 -->
<g id="edge6" class="edge">
<title>2&#45;&#45;6</title>
<path fill="none" stroke="#000000" stroke-dasharray="1,5" d="M150.2737,-90.5451C143.7201,-88.5272 136.811,-86.3997 130.3171,-84.4002"/>
<text text-anchor="middle" x="140.2954" y="-76.2726" font-family="Times,serif" font-size="14.00" fill="#000000">=</text>
</g>
<!-- 4 -->
<g id="node5" class="node">
<title>4</title>
<ellipse fill="none" stroke="#000000" cx="111.8049" cy="-213.4218" rx="28.6953" ry="18"/>
<text text-anchor="middle" x="111.8049" y="-209.7218" font-family="Times,serif" font-size="14.00" fill="#000000">* | *</text>
</g>
<!-- 3&#45;&#45;4 -->
<g id="edge7" class="edge">
<title>3&#45;&#45;4</title>
<path fill="none" stroke="#000000" d="M158.0378,-193.2184C150.7516,-196.4024 142.8743,-199.8447 135.7221,-202.9702"/>
<text text-anchor="middle" x="160.8799" y="-201.8943" font-family="Times,serif" font-size="14.00" fill="#000000">* | *</text>
</g>
<!-- 5 -->
<g id="node6" class="node">
<title>5</title>
<ellipse fill="none" stroke="#000000" cx="65.1062" cy="-149.7358" rx="28.6953" ry="18"/>
<text text-anchor="middle" x="65.1062" y="-146.0358" font-family="Times,serif" font-size="14.00" fill="#000000">* | *</text>
</g>
<!-- 4&#45;&#45;5 -->
<g id="edge8" class="edge">
<title>4&#45;&#45;5</title>
<path fill="none" stroke="#000000" d="M99.7788,-197.0211C92.8605,-187.5862 84.1924,-175.7649 77.2538,-166.3023"/>
<text text-anchor="middle" x="74.5163" y="-185.4617" font-family="Times,serif" font-size="14.00" fill="#000000">* | *</text>
</g>
<!-- 5&#45;&#45;6 -->
<g id="edge9" class="edge">
<title>5&#45;&#45;6</title>
<path fill="none" stroke="#000000" d="M73.5221,-132.5166C79.3004,-120.6939 86.9477,-105.0474 92.7698,-93.1351"/>
<text text-anchor="middle" x="71.646" y="-116.6259" font-family="Times,serif" font-size="14.00" fill="#000000">&#45; | &#45;</text>
</g>
<!-- 7 -->
<g id="node8" class="node">
<title>7</title>
<ellipse fill="none" stroke="#000000" cx="35.0969" cy="-29.9518" rx="35.194" ry="18"/>
<text text-anchor="middle" x="35.0969" y="-26.2518" font-family="Times,serif" font-size="14.00" fill="#000000">H | H</text>
</g>
<!-- 6&#45;&#45;7 -->
<g id="edge10" class="edge">
<title>6&#45;&#45;7</title>
<path fill="none" stroke="#000000" d="M80.7793,-61.3336C73.0252,-56.0069 64.198,-49.943 56.3838,-44.5749"/>
<text text-anchor="middle" x="57.0815" y="-56.7543" font-family="Times,serif" font-size="14.00" fill="#000000">&#45; | &#45;</text>
</g>
<!-- 6&#45;&#45;8 -->
<g id="edge11" class="edge">
<title>6&#45;&#45;8</title>
<path fill="none" stroke="#000000" stroke-dasharray="5,2" d="M117.9407,-59.539C125.7499,-52.0101 135.0532,-43.0407 142.8931,-35.4821"/>
<text text-anchor="middle" x="136.9169" y="-51.3106" font-family="Times,serif" font-size="14.00" fill="#000000">=</text>
</g>
</g>
</svg>
