<?xml version="1.0" encoding="UTF-8" standalone="no"?>
<!DOCTYPE svg PUBLIC "-//W3C//DTD SVG 1.1//EN"
 "http://www.w3.org/Graphics/SVG/1.1/DTD/svg11.dtd">
<!-- Generated by graphviz version 2.40.1 (20161225.0304)
 -->
<!-- Title: G Pages: 1 -->
<svg width="297pt" height="280pt"
 viewBox="0.00 0.00 296.94 279.87" xmlns="http://www.w3.org/2000/svg" xmlns:xlink="http://www.w3.org/1999/xlink">
<g id="graph0" class="graph" transform="scale(1 1) rotate(0) translate(4 275.8709)">
<title>G</title>
<polygon fill="#ffffff" stroke="transparent" points="-4,4 -4,-275.8709 292.9417,-275.8709 292.9417,4 -4,4"/>
<!-- 0 -->
<g id="node1" class="node">
<title>0</title>
<ellipse fill="none" stroke="#000000" cx="103.9256" cy="-18" rx="35.194" ry="18"/>
<text text-anchor="middle" x="103.9256" y="-14.3" font-family="Times,serif" font-size="14.00" fill="#000000">H | H</text>
</g>
<!-- 2 -->
<g id="node3" class="node">
<title>2</title>
<ellipse fill="none" stroke="#000000" cx="142.6915" cy="-89.9735" rx="35.194" ry="18"/>
<text text-anchor="middle" x="142.6915" y="-86.2735" font-family="Times,serif" font-size="14.00" fill="#000000">N | N</text>
</g>
<!-- 0&#45;&#45;2 -->
<g id="edge1" class="edge">
<title>0&#45;&#45;2</title>
<path fill="none" stroke="#000000" stroke-dasharray="5,2" d="M113.3097,-35.4228C119.3599,-46.6556 127.1998,-61.2114 133.2594,-72.4617"/>
<text text-anchor="middle" x="120.7846" y="-57.7423" font-family="Times,serif" font-size="14.00" fill="#000000">&#45;</text>
</g>
<!-- 9 -->
<g id="node10" class="node">
<title>9</title>
<ellipse fill="none" stroke="#000000" cx="172.9291" cy="-28.6135" rx="34.394" ry="18"/>
<text text-anchor="middle" x="172.9291" y="-24.9135" font-family="Times,serif" font-size="14.00" fill="#000000">O | O</text>
</g>
<!-- 0&#45;&#45;9 -->
<g id="edge2" class="edge">
<title>0&#45;&#45;9</title>
<path fill="none" stroke="#000000" stroke-dasharray="1,5" d="M137.6188,-23.1824C138.303,-23.2876 138.9876,-23.3929 139.6716,-23.4981"/>
<text text-anchor="middle" x="136.1452" y="-27.1402" font-family="Times,serif" font-size="14.00" fill="#000000">&#45;</text>
</g>
<!-- 1 -->
<g id="node2" class="node">
<title>1</title>
<ellipse fill="none" stroke="#000000" cx="227.7056" cy="-45.6605" rx="35.194" ry="18"/>
<text text-anchor="middle" x="227.7056" y="-41.9605" font-family="Times,serif" font-size="14.00" fill="#000000">H | H</text>
</g>
<!-- 1&#45;&#45;2 -->
<g id="edge3" class="edge">
<title>1&#45;&#45;2</title>
<path fill="none" stroke="#000000" stroke-dasharray="5,2" d="M202.6584,-58.7162C191.5892,-64.4859 178.6081,-71.2522 167.5597,-77.0111"/>
<text text-anchor="middle" x="182.609" y="-71.6637" font-family="Times,serif" font-size="14.00" fill="#000000">&#45;</text>
</g>
<!-- 1&#45;&#45;9 -->
<g id="edge4" class="edge">
<title>1&#45;&#45;9</title>
<path fill="none" stroke="#000000" stroke-dasharray="1,5" d="M197.4335,-36.2395C197.3345,-36.2087 197.2356,-36.1779 197.1368,-36.1471"/>
<text text-anchor="middle" x="194.7851" y="-24.9933" font-family="Times,serif" font-size="14.00" fill="#000000">&#45;</text>
</g>
<!-- 3 -->
<g id="node4" class="node">
<title>3</title>
<ellipse fill="none" stroke="#000000" cx="135.1127" cy="-187.641" rx="33.2948" ry="18"/>
<text text-anchor="middle" x="135.1127" y="-183.941" font-family="Times,serif" font-size="14.00" fill="#000000">C | C</text>
</g>
<!-- 2&#45;&#45;3 -->
<g id="edge5" class="edge">
<title>2&#45;&#45;3</title>
<path fill="none" stroke="#000000" d="M141.266,-108.344C139.911,-125.8054 137.8847,-151.9187 136.5319,-169.3528"/>
<text text-anchor="middle" x="127.3989" y="-142.6484" font-family="Times,serif" font-size="14.00" fill="#000000">&#45; | &#45;</text>
</g>
<!-- 7 -->
<g id="node8" class="node">
<title>7</title>
<ellipse fill="none" stroke="#000000" cx="179.8538" cy="-125.0317" rx="33.2948" ry="18"/>
<text text-anchor="middle" x="179.8538" y="-121.3317" font-family="Times,serif" font-size="14.00" fill="#000000">C | C</text>
</g>
<!-- 2&#45;&#45;7 -->
<g id="edge6" class="edge">
<title>2&#45;&#45;7</title>
<path fill="none" stroke="#000000" stroke-dasharray="1,5" d="M159.5329,-105.8614C160.762,-107.0209 162.0013,-108.19 163.2291,-109.3483"/>
<text text-anchor="middle" x="154.881" y="-111.4049" font-family="Times,serif" font-size="14.00" fill="#000000">=</text>
</g>
<!-- 4 -->
<g id="node5" class="node">
<title>4</title>
<ellipse fill="none" stroke="#000000" cx="86.5945" cy="-253.8709" rx="28.6953" ry="18"/>
<text text-anchor="middle" x="86.5945" y="-250.1709" font-family="Times,serif" font-size="14.00" fill="#000000">* | *</text>
</g>
<!-- 3&#45;&#45;4 -->
<g id="edge7" class="edge">
<title>3&#45;&#45;4</title>
<path fill="none" stroke="#000000" d="M122.6181,-204.6968C115.318,-214.6619 106.1425,-227.1868 98.8789,-237.1021"/>
<text text-anchor="middle" x="96.7485" y="-224.6995" font-family="Times,serif" font-size="14.00" fill="#000000">* | *</text>
</g>
<!-- 5 -->
<g id="node6" class="node">
<title>5</title>
<ellipse fill="none" stroke="#000000" cx="28.5975" cy="-210.0436" rx="28.6953" ry="18"/>
<text text-anchor="middle" x="28.5975" y="-206.3436" font-family="Times,serif" font-size="14.00" fill="#000000">* | *</text>
</g>
<!-- 4&#45;&#45;5 -->
<g id="edge8" class="edge">
<title>4&#45;&#45;5</title>
<path fill="none" stroke="#000000" d="M68.2439,-240.0037C61.4739,-234.8877 53.8048,-229.0923 47.0278,-223.9711"/>
<text text-anchor="middle" x="43.6358" y="-235.7874" font-family="Times,serif" font-size="14.00" fill="#000000">* | *</text>
</g>
<!-- 6 -->
<g id="node7" class="node">
<title>6</title>
<ellipse fill="none" stroke="#000000" cx="83.7935" cy="-151.1638" rx="28.6953" ry="18"/>
<text text-anchor="middle" x="83.7935" y="-147.4638" font-family="Times,serif" font-size="14.00" fill="#000000">* | *</text>
</g>
<!-- 5&#45;&#45;6 -->
<g id="edge9" class="edge">
<title>5&#45;&#45;6</title>
<path fill="none" stroke="#000000" d="M43.389,-194.2649C51.3084,-185.817 61.0355,-175.4406 68.9611,-166.9861"/>
<text text-anchor="middle" x="70.175" y="-184.4255" font-family="Times,serif" font-size="14.00" fill="#000000">* | *</text>
</g>
<!-- 6&#45;&#45;7 -->
<g id="edge10" class="edge">
<title>6&#45;&#45;7</title>
<path fill="none" stroke="#000000" d="M110.2966,-143.9539C122.6251,-140.6001 137.3395,-136.5972 150.0529,-133.1386"/>
<text text-anchor="middle" x="130.1748" y="-127.3463" font-family="Times,serif" font-size="14.00" fill="#000000">&#45; | &#45;</text>
</g>
<!-- 8 -->
<g id="node9" class="node">
<title>8</title>
<ellipse fill="none" stroke="#000000" cx="255.7947" cy="-160.0664" rx="33.2948" ry="18"/>
<text text-anchor="middle" x="255.7947" y="-156.3664" font-family="Times,serif" font-size="14.00" fill="#000000">C | C</text>
</g>
<!-- 7&#45;&#45;8 -->
<g id="edge11" class="edge">
<title>7&#45;&#45;8</title>
<path fill="none" stroke="#000000" d="M205.141,-136.6977C213.2526,-140.44 222.2367,-144.5847 230.3589,-148.3318"/>
<text text-anchor="middle" x="229.25" y="-131.3148" font-family="Times,serif" font-size="14.00" fill="#000000">&#45; | &#45;</text>
</g>
<!-- 7&#45;&#45;9 -->
<g id="edge12" class="edge">
<title>7&#45;&#45;9</title>
<path fill="none" stroke="#000000" stroke-dasharray="5,2" d="M178.5513,-106.8961C177.3133,-89.6581 175.4618,-63.8788 174.2257,-46.6677"/>
<text text-anchor="middle" x="182.8885" y="-80.5819" font-family="Times,serif" font-size="14.00" fill="#000000">=</text>
</g>
</g>
</svg>
