<?xml version="1.0" encoding="UTF-8" standalone="no"?>
<!DOCTYPE svg PUBLIC "-//W3C//DTD SVG 1.1//EN"
 "http://www.w3.org/Graphics/SVG/1.1/DTD/svg11.dtd">
<!-- Generated by graphviz version 2.40.1 (20161225.0304)
 -->
<!-- Title: G Pages: 1 -->
<svg width="228pt" height="379pt"
 viewBox="0.00 0.00 228.33 379.48" xmlns="http://www.w3.org/2000/svg" xmlns:xlink="http://www.w3.org/1999/xlink">
<g id="graph0" class="graph" transform="scale(1 1) rotate(0) translate(4 375.4803)">
<title>G</title>
<polygon fill="#ffffff" stroke="transparent" points="-4,4 -4,-375.4803 224.328,-375.4803 224.328,4 -4,4"/>
<!-- 0 -->
<g id="node1" class="node">
<title>0</title>
<ellipse fill="none" stroke="#000000" cx="57.8211" cy="-139.4999" rx="33.2948" ry="18"/>
<text text-anchor="middle" x="57.8211" y="-135.7999" font-family="Times,serif" font-size="14.00" fill="#000000">C | C</text>
</g>
<!-- 1 -->
<g id="node2" class="node">
<title>1</title>
<ellipse fill="none" stroke="#000000" cx="83.967" cy="-214.1253" rx="33.2948" ry="18"/>
<text text-anchor="middle" x="83.967" y="-210.4253" font-family="Times,serif" font-size="14.00" fill="#000000">C | C</text>
</g>
<!-- 0&#45;&#45;1 -->
<g id="edge1" class="edge">
<title>0&#45;&#45;1</title>
<path fill="none" stroke="#000000" d="M64.0173,-157.1851C68.155,-168.9948 73.5775,-184.4717 77.7246,-196.3085"/>
<text text-anchor="middle" x="51.871" y="-180.5468" font-family="Times,serif" font-size="14.00" fill="#000000"># | =</text>
</g>
<!-- 5 -->
<g id="node6" class="node">
<title>5</title>
<ellipse fill="none" stroke="#000000" cx="120.9487" cy="-87.707" rx="35.194" ry="18"/>
<text text-anchor="middle" x="120.9487" y="-84.007" font-family="Times,serif" font-size="14.00" fill="#000000">N | N</text>
</g>
<!-- 0&#45;&#45;5 -->
<g id="edge2" class="edge">
<title>0&#45;&#45;5</title>
<path fill="none" stroke="#000000" stroke-dasharray="1,5" d="M76.42,-124.2405C84.5667,-117.5565 94.1081,-109.7283 102.2645,-103.0364"/>
<text text-anchor="middle" x="91.8423" y="-117.4384" font-family="Times,serif" font-size="14.00" fill="#000000">&#45;</text>
</g>
<!-- 2 -->
<g id="node3" class="node">
<title>2</title>
<ellipse fill="none" stroke="#000000" cx="60.8784" cy="-285.536" rx="33.2948" ry="18"/>
<text text-anchor="middle" x="60.8784" y="-281.836" font-family="Times,serif" font-size="14.00" fill="#000000">C | C</text>
</g>
<!-- 1&#45;&#45;2 -->
<g id="edge3" class="edge">
<title>1&#45;&#45;2</title>
<path fill="none" stroke="#000000" d="M78.1408,-232.1452C74.614,-243.0532 70.1346,-256.9073 66.6228,-267.7692"/>
<text text-anchor="middle" x="60.8818" y="-253.7572" font-family="Times,serif" font-size="14.00" fill="#000000">&#45; | &#45;</text>
</g>
<!-- 4 -->
<g id="node5" class="node">
<title>4</title>
<ellipse fill="none" stroke="#000000" cx="146.0638" cy="-165.6064" rx="35.194" ry="18"/>
<text text-anchor="middle" x="146.0638" y="-161.9064" font-family="Times,serif" font-size="14.00" fill="#000000">H | H</text>
</g>
<!-- 1&#45;&#45;4 -->
<g id="edge4" class="edge">
<title>1&#45;&#45;4</title>
<path fill="none" stroke="#000000" stroke-dasharray="1,5" d="M102.9355,-199.3044C110.4969,-193.3964 119.1908,-186.6035 126.7829,-180.6714"/>
<text text-anchor="middle" x="117.3592" y="-193.7879" font-family="Times,serif" font-size="14.00" fill="#000000">&#45;</text>
</g>
<!-- 3 -->
<g id="node4" class="node">
<title>3</title>
<ellipse fill="none" stroke="#000000" cx="34.4469" cy="-353.4803" rx="34.394" ry="18"/>
<text text-anchor="middle" x="34.4469" y="-349.7803" font-family="Times,serif" font-size="14.00" fill="#000000">O | O</text>
</g>
<!-- 2&#45;&#45;3 -->
<g id="edge5" class="edge">
<title>2&#45;&#45;3</title>
<path fill="none" stroke="#000000" d="M53.9338,-303.3875C50.0794,-313.2956 45.2985,-325.5854 41.4369,-335.5121"/>
<text text-anchor="middle" x="28.6853" y="-323.2498" font-family="Times,serif" font-size="14.00" fill="#000000">= | =</text>
</g>
<!-- 4&#45;&#45;5 -->
<g id="edge6" class="edge">
<title>4&#45;&#45;5</title>
<path fill="none" stroke="#000000" stroke-dasharray="5,2" d="M140.2388,-147.5389C136.1814,-134.9541 130.7926,-118.2399 126.7421,-105.6765"/>
<text text-anchor="middle" x="130.9905" y="-130.4077" font-family="Times,serif" font-size="14.00" fill="#000000">&#45;</text>
</g>
<!-- 6 -->
<g id="node7" class="node">
<title>6</title>
<ellipse fill="none" stroke="#000000" cx="81.0235" cy="-18" rx="28.6953" ry="18"/>
<text text-anchor="middle" x="81.0235" y="-14.3" font-family="Times,serif" font-size="14.00" fill="#000000">* | *</text>
</g>
<!-- 5&#45;&#45;6 -->
<g id="edge7" class="edge">
<title>5&#45;&#45;6</title>
<path fill="none" stroke="#000000" d="M110.8739,-70.117C104.7753,-59.4693 97.0296,-45.9457 90.9568,-35.3429"/>
<text text-anchor="middle" x="89.4153" y="-56.5299" font-family="Times,serif" font-size="14.00" fill="#000000">&#45; | &#45;</text>
</g>
<!-- 7 -->
<g id="node8" class="node">
<title>7</title>
<ellipse fill="none" stroke="#000000" cx="191.7305" cy="-50.0503" rx="28.6953" ry="18"/>
<text text-anchor="middle" x="191.7305" y="-46.3503" font-family="Times,serif" font-size="14.00" fill="#000000">* | *</text>
</g>
<!-- 5&#45;&#45;7 -->
<g id="edge8" class="edge">
<title>5&#45;&#45;7</title>
<path fill="none" stroke="#000000" d="M145.3078,-74.7477C153.1457,-70.5778 161.7858,-65.9812 169.4652,-61.8956"/>
<text text-anchor="middle" x="145.8865" y="-57.1217" font-family="Times,serif" font-size="14.00" fill="#000000">&#45; | &#45;</text>
</g>
</g>
</svg>
