<?xml version="1.0" encoding="UTF-8" standalone="no"?>
<!DOCTYPE svg PUBLIC "-//W3C//DTD SVG 1.1//EN"
 "http://www.w3.org/Graphics/SVG/1.1/DTD/svg11.dtd">
<!-- Generated by graphviz version 2.40.1 (20161225.0304)
 -->
<!-- Title: G Pages: 1 -->
<svg width="229pt" height="379pt"
 viewBox="0.00 0.00 228.98 379.48" xmlns="http://www.w3.org/2000/svg" xmlns:xlink="http://www.w3.org/1999/xlink">
<g id="graph0" class="graph" transform="scale(1 1) rotate(0) translate(4 375.4803)">
<title>G</title>
<polygon fill="#ffffff" stroke="transparent" points="-4,4 -4,-375.4803 224.9779,-375.4803 224.9779,4 -4,4"/>
<!-- 0 -->
<g id="node1" class="node">
<title>0</title>
<ellipse fill="none" stroke="#000000" cx="58.471" cy="-139.4999" rx="33.2948" ry="18"/>
<text text-anchor="middle" x="58.471" y="-135.7999" font-family="Times,serif" font-size="14.00" fill="#000000">C | C</text>
</g>
<!-- 1 -->
<g id="node2" class="node">
<title>1</title>
<ellipse fill="none" stroke="#000000" cx="84.6169" cy="-214.1253" rx="33.2948" ry="18"/>
<text text-anchor="middle" x="84.6169" y="-210.4253" font-family="Times,serif" font-size="14.00" fill="#000000">C | C</text>
</g>
<!-- 0&#45;&#45;1 -->
<g id="edge1" class="edge">
<title>0&#45;&#45;1</title>
<path fill="none" stroke="#000000" d="M64.6672,-157.1851C68.8049,-168.9948 74.2274,-184.4717 78.3746,-196.3085"/>
<text text-anchor="middle" x="56.0209" y="-180.5468" font-family="Times,serif" font-size="14.00" fill="#000000">= | &#45;</text>
</g>
<!-- 5 -->
<g id="node6" class="node">
<title>5</title>
<ellipse fill="none" stroke="#000000" cx="121.5986" cy="-87.707" rx="35.194" ry="18"/>
<text text-anchor="middle" x="121.5986" y="-84.007" font-family="Times,serif" font-size="14.00" fill="#000000">N | N</text>
</g>
<!-- 0&#45;&#45;5 -->
<g id="edge2" class="edge">
<title>0&#45;&#45;5</title>
<path fill="none" stroke="#000000" stroke-dasharray="1,5" d="M77.0699,-124.2405C85.2167,-117.5565 94.7581,-109.7283 102.9145,-103.0364"/>
<text text-anchor="middle" x="92.4922" y="-117.4384" font-family="Times,serif" font-size="14.00" fill="#000000">&#45;</text>
</g>
<!-- 2 -->
<g id="node3" class="node">
<title>2</title>
<ellipse fill="none" stroke="#000000" cx="61.5283" cy="-285.536" rx="33.2948" ry="18"/>
<text text-anchor="middle" x="61.5283" y="-281.836" font-family="Times,serif" font-size="14.00" fill="#000000">C | C</text>
</g>
<!-- 1&#45;&#45;2 -->
<g id="edge3" class="edge">
<title>1&#45;&#45;2</title>
<path fill="none" stroke="#000000" d="M78.7907,-232.1452C75.2639,-243.0532 70.7846,-256.9073 67.2727,-267.7692"/>
<text text-anchor="middle" x="61.5317" y="-253.7572" font-family="Times,serif" font-size="14.00" fill="#000000">&#45; | &#45;</text>
</g>
<!-- 4 -->
<g id="node5" class="node">
<title>4</title>
<ellipse fill="none" stroke="#000000" cx="146.7138" cy="-165.6064" rx="35.194" ry="18"/>
<text text-anchor="middle" x="146.7138" y="-161.9064" font-family="Times,serif" font-size="14.00" fill="#000000">H | H</text>
</g>
<!-- 1&#45;&#45;4 -->
<g id="edge4" class="edge">
<title>1&#45;&#45;4</title>
<path fill="none" stroke="#000000" stroke-dasharray="1,5" d="M103.5854,-199.3044C111.1469,-193.3964 119.8407,-186.6035 127.4329,-180.6714"/>
<text text-anchor="middle" x="118.0092" y="-193.7879" font-family="Times,serif" font-size="14.00" fill="#000000">&#45;</text>
</g>
<!-- 3 -->
<g id="node4" class="node">
<title>3</title>
<ellipse fill="none" stroke="#000000" cx="35.0969" cy="-353.4803" rx="35.194" ry="18"/>
<text text-anchor="middle" x="35.0969" y="-349.7803" font-family="Times,serif" font-size="14.00" fill="#000000">N | N</text>
</g>
<!-- 2&#45;&#45;3 -->
<g id="edge5" class="edge">
<title>2&#45;&#45;3</title>
<path fill="none" stroke="#000000" d="M54.5838,-303.3875C50.7294,-313.2956 45.9485,-325.5854 42.0868,-335.5121"/>
<text text-anchor="middle" x="29.3353" y="-323.2498" font-family="Times,serif" font-size="14.00" fill="#000000"># | #</text>
</g>
<!-- 4&#45;&#45;5 -->
<g id="edge6" class="edge">
<title>4&#45;&#45;5</title>
<path fill="none" stroke="#000000" stroke-dasharray="5,2" d="M140.8887,-147.5389C136.8313,-134.9541 131.4426,-118.2399 127.3921,-105.6765"/>
<text text-anchor="middle" x="131.6404" y="-130.4077" font-family="Times,serif" font-size="14.00" fill="#000000">&#45;</text>
</g>
<!-- 6 -->
<g id="node7" class="node">
<title>6</title>
<ellipse fill="none" stroke="#000000" cx="81.6735" cy="-18" rx="28.6953" ry="18"/>
<text text-anchor="middle" x="81.6735" y="-14.3" font-family="Times,serif" font-size="14.00" fill="#000000">* | *</text>
</g>
<!-- 5&#45;&#45;6 -->
<g id="edge7" class="edge">
<title>5&#45;&#45;6</title>
<path fill="none" stroke="#000000" d="M111.5238,-70.117C105.4253,-59.4693 97.6796,-45.9457 91.6067,-35.3429"/>
<text text-anchor="middle" x="90.0653" y="-56.5299" font-family="Times,serif" font-size="14.00" fill="#000000">&#45; | &#45;</text>
</g>
<!-- 7 -->
<g id="node8" class="node">
<title>7</title>
<ellipse fill="none" stroke="#000000" cx="192.3804" cy="-50.0503" rx="28.6953" ry="18"/>
<text text-anchor="middle" x="192.3804" y="-46.3503" font-family="Times,serif" font-size="14.00" fill="#000000">* | *</text>
</g>
<!-- 5&#45;&#45;7 -->
<g id="edge8" class="edge">
<title>5&#45;&#45;7</title>
<path fill="none" stroke="#000000" d="M145.9577,-74.7477C153.7957,-70.5778 162.4357,-65.9812 170.1152,-61.8956"/>
<text text-anchor="middle" x="146.5364" y="-57.1217" font-family="Times,serif" font-size="14.00" fill="#000000">&#45; | &#45;</text>
</g>
</g>
</svg>
