<?xml version="1.0" encoding="UTF-8" standalone="no"?>
<!DOCTYPE svg PUBLIC "-//W3C//DTD SVG 1.1//EN"
 "http://www.w3.org/Graphics/SVG/1.1/DTD/svg11.dtd">
<!-- Generated by graphviz version 2.44.1 (20200629.0846)
 -->
<!-- Title: G Pages: 1 -->
<svg width="892pt" height="478pt"
 viewBox="0.00 0.00 891.83 477.50" xmlns="http://www.w3.org/2000/svg" xmlns:xlink="http://www.w3.org/1999/xlink">
<g id="graph0" class="graph" transform="scale(1 1) rotate(0) translate(4 473.5)">
<title>G</title>
<polygon fill="white" stroke="transparent" points="-4,4 -4,-473.5 887.83,-473.5 887.83,4 -4,4"/>
<!-- 0 -->
<g id="node1" class="node">
<title>0</title>
<ellipse fill="none" stroke="black" cx="577.06" cy="-367.25" rx="34.39" ry="18"/>
<text text-anchor="middle" x="577.06" y="-363.55" font-family="Times,serif" font-size="14.00">O | O</text>
</g>
<!-- 1 -->
<g id="node2" class="node">
<title>1</title>
<ellipse fill="none" stroke="black" cx="564.82" cy="-281.64" rx="33.29" ry="18"/>
<text text-anchor="middle" x="564.82" y="-277.94" font-family="Times,serif" font-size="14.00">C | C</text>
</g>
<!-- 0&#45;&#45;1 -->
<g id="edge1" class="edge">
<title>0&#45;&#45;1</title>
<path fill="none" stroke="black" d="M574.46,-349.1C572.39,-334.57 569.49,-314.29 567.41,-299.77"/>
<text text-anchor="middle" x="551.94" y="-328.23" font-family="Times,serif" font-size="14.00">= | =</text>
</g>
<!-- 2 -->
<g id="node3" class="node">
<title>2</title>
<ellipse fill="none" stroke="black" cx="475.41" cy="-272.22" rx="33.29" ry="18"/>
<text text-anchor="middle" x="475.41" y="-268.52" font-family="Times,serif" font-size="14.00">C | C</text>
</g>
<!-- 1&#45;&#45;2 -->
<g id="edge2" class="edge">
<title>1&#45;&#45;2</title>
<path fill="none" stroke="black" d="M532.04,-278.18C524.26,-277.37 515.97,-276.49 508.19,-275.67"/>
<text text-anchor="middle" x="520.11" y="-265.73" font-family="Times,serif" font-size="14.00">&#45; | &#45;</text>
</g>
<!-- 12 -->
<g id="node13" class="node">
<title>12</title>
<ellipse fill="none" stroke="black" cx="632.73" cy="-235.5" rx="35.19" ry="18"/>
<text text-anchor="middle" x="632.73" y="-231.8" font-family="Times,serif" font-size="14.00">H | H</text>
</g>
<!-- 1&#45;&#45;12 -->
<g id="edge3" class="edge">
<title>1&#45;&#45;12</title>
<path fill="none" stroke="black" stroke-dasharray="5,2" d="M585.56,-267.54C593.68,-262.03 602.98,-255.71 611.17,-250.15"/>
<text text-anchor="middle" x="600.87" y="-262.65" font-family="Times,serif" font-size="14.00">&#45;</text>
</g>
<!-- 27 -->
<g id="node28" class="node">
<title>27</title>
<ellipse fill="none" stroke="black" cx="644.15" cy="-288.58" rx="34.39" ry="18"/>
<text text-anchor="middle" x="644.15" y="-284.88" font-family="Times,serif" font-size="14.00">O | O</text>
</g>
<!-- 1&#45;&#45;27 -->
<g id="edge4" class="edge">
<title>1&#45;&#45;27</title>
<path fill="none" stroke="black" stroke-dasharray="1,5" d="M598,-284.54C601.99,-284.89 606.08,-285.25 610.08,-285.6"/>
<text text-anchor="middle" x="601.54" y="-288.87" font-family="Times,serif" font-size="14.00">&#45;</text>
</g>
<!-- 3 -->
<g id="node4" class="node">
<title>3</title>
<ellipse fill="none" stroke="black" cx="447.62" cy="-368.1" rx="34.39" ry="18"/>
<text text-anchor="middle" x="447.62" y="-364.4" font-family="Times,serif" font-size="14.00">O | O</text>
</g>
<!-- 2&#45;&#45;3 -->
<g id="edge5" class="edge">
<title>2&#45;&#45;3</title>
<path fill="none" stroke="black" d="M470.18,-290.26C465.22,-307.4 457.79,-333.03 452.83,-350.15"/>
<text text-anchor="middle" x="450.01" y="-309" font-family="Times,serif" font-size="14.00">&#45; | &#45;</text>
</g>
<!-- 4 -->
<g id="node5" class="node">
<title>4</title>
<ellipse fill="none" stroke="black" cx="409.86" cy="-206.38" rx="33.29" ry="18"/>
<text text-anchor="middle" x="409.86" y="-202.68" font-family="Times,serif" font-size="14.00">C | C</text>
</g>
<!-- 2&#45;&#45;4 -->
<g id="edge6" class="edge">
<title>2&#45;&#45;4</title>
<path fill="none" stroke="black" d="M459.54,-256.28C449.39,-246.08 436.25,-232.89 426.04,-222.63"/>
<text text-anchor="middle" x="431.29" y="-243.25" font-family="Times,serif" font-size="14.00">&#45; | &#45;</text>
</g>
<!-- 13 -->
<g id="node14" class="node">
<title>13</title>
<ellipse fill="none" stroke="black" cx="468.39" cy="-329.34" rx="35.19" ry="18"/>
<text text-anchor="middle" x="468.39" y="-325.64" font-family="Times,serif" font-size="14.00">H | H</text>
</g>
<!-- 2&#45;&#45;13 -->
<g id="edge7" class="edge">
<title>2&#45;&#45;13</title>
<path fill="none" stroke="black" d="M473.19,-290.3C472.37,-296.96 471.44,-304.52 470.62,-311.19"/>
<text text-anchor="middle" x="483.41" y="-304.54" font-family="Times,serif" font-size="14.00">&#45; | &#45;</text>
</g>
<!-- 14 -->
<g id="node15" class="node">
<title>14</title>
<ellipse fill="none" stroke="black" cx="445.01" cy="-451.5" rx="35.19" ry="18"/>
<text text-anchor="middle" x="445.01" y="-447.8" font-family="Times,serif" font-size="14.00">H | H</text>
</g>
<!-- 3&#45;&#45;14 -->
<g id="edge8" class="edge">
<title>3&#45;&#45;14</title>
<path fill="none" stroke="black" d="M447.06,-386.2C446.62,-400.19 446.02,-419.46 445.58,-433.44"/>
<text text-anchor="middle" x="434.82" y="-413.62" font-family="Times,serif" font-size="14.00">&#45; | &#45;</text>
</g>
<!-- 5 -->
<g id="node6" class="node">
<title>5</title>
<ellipse fill="none" stroke="black" cx="439.03" cy="-115.04" rx="34.39" ry="18"/>
<text text-anchor="middle" x="439.03" y="-111.34" font-family="Times,serif" font-size="14.00">O | O</text>
</g>
<!-- 4&#45;&#45;5 -->
<g id="edge9" class="edge">
<title>4&#45;&#45;5</title>
<path fill="none" stroke="black" d="M415.62,-188.33C420.73,-172.32 428.17,-149.05 433.28,-133.05"/>
<text text-anchor="middle" x="412.95" y="-164.49" font-family="Times,serif" font-size="14.00">&#45; | &#45;</text>
</g>
<!-- 6 -->
<g id="node7" class="node">
<title>6</title>
<ellipse fill="none" stroke="black" cx="320.7" cy="-189.1" rx="33.29" ry="18"/>
<text text-anchor="middle" x="320.7" y="-185.4" font-family="Times,serif" font-size="14.00">C | C</text>
</g>
<!-- 4&#45;&#45;6 -->
<g id="edge10" class="edge">
<title>4&#45;&#45;6</title>
<path fill="none" stroke="black" d="M378.42,-200.29C369.9,-198.63 360.67,-196.85 352.15,-195.19"/>
<text text-anchor="middle" x="365.28" y="-186.54" font-family="Times,serif" font-size="14.00">&#45; | &#45;</text>
</g>
<!-- 15 -->
<g id="node16" class="node">
<title>15</title>
<ellipse fill="none" stroke="black" cx="453.27" cy="-162.98" rx="35.19" ry="18"/>
<text text-anchor="middle" x="453.27" y="-159.28" font-family="Times,serif" font-size="14.00">H | H</text>
</g>
<!-- 4&#45;&#45;15 -->
<g id="edge11" class="edge">
<title>4&#45;&#45;15</title>
<path fill="none" stroke="black" d="M426.02,-190.22C429.69,-186.55 433.58,-182.66 437.24,-179.01"/>
<text text-anchor="middle" x="443.13" y="-188.41" font-family="Times,serif" font-size="14.00">&#45; | &#45;</text>
</g>
<!-- 16 -->
<g id="node17" class="node">
<title>16</title>
<ellipse fill="none" stroke="black" cx="470.5" cy="-37.03" rx="35.19" ry="18"/>
<text text-anchor="middle" x="470.5" y="-33.33" font-family="Times,serif" font-size="14.00">H | H</text>
</g>
<!-- 5&#45;&#45;16 -->
<g id="edge12" class="edge">
<title>5&#45;&#45;16</title>
<path fill="none" stroke="black" d="M446.17,-97.34C451.32,-84.57 458.24,-67.42 463.39,-54.67"/>
<text text-anchor="middle" x="443.28" y="-79.8" font-family="Times,serif" font-size="14.00">&#45; | &#45;</text>
</g>
<!-- 7 -->
<g id="node8" class="node">
<title>7</title>
<ellipse fill="none" stroke="black" cx="316.66" cy="-103.37" rx="34.39" ry="18"/>
<text text-anchor="middle" x="316.66" y="-99.67" font-family="Times,serif" font-size="14.00">O | O</text>
</g>
<!-- 6&#45;&#45;7 -->
<g id="edge13" class="edge">
<title>6&#45;&#45;7</title>
<path fill="none" stroke="black" d="M319.84,-170.92C319.15,-156.37 318.2,-136.07 317.51,-121.53"/>
<text text-anchor="middle" x="307.17" y="-150.02" font-family="Times,serif" font-size="14.00">&#45; | &#45;</text>
</g>
<!-- 8 -->
<g id="node9" class="node">
<title>8</title>
<ellipse fill="none" stroke="black" cx="230.75" cy="-200.67" rx="33.29" ry="18"/>
<text text-anchor="middle" x="230.75" y="-196.97" font-family="Times,serif" font-size="14.00">C | C</text>
</g>
<!-- 6&#45;&#45;8 -->
<g id="edge14" class="edge">
<title>6&#45;&#45;8</title>
<path fill="none" stroke="black" d="M288.22,-193.28C280.07,-194.33 271.32,-195.45 263.18,-196.5"/>
<text text-anchor="middle" x="275.7" y="-183.69" font-family="Times,serif" font-size="14.00">&#45; | &#45;</text>
</g>
<!-- 17 -->
<g id="node18" class="node">
<title>17</title>
<ellipse fill="none" stroke="black" cx="308.08" cy="-258.31" rx="35.19" ry="18"/>
<text text-anchor="middle" x="308.08" y="-254.61" font-family="Times,serif" font-size="14.00">H | H</text>
</g>
<!-- 6&#45;&#45;17 -->
<g id="edge15" class="edge">
<title>6&#45;&#45;17</title>
<path fill="none" stroke="black" d="M317.38,-207.28C315.54,-217.38 313.26,-229.89 311.42,-240"/>
<text text-anchor="middle" x="302.9" y="-227.44" font-family="Times,serif" font-size="14.00">&#45; | &#45;</text>
</g>
<!-- 18 -->
<g id="node19" class="node">
<title>18</title>
<ellipse fill="none" stroke="black" cx="310.28" cy="-18" rx="35.19" ry="18"/>
<text text-anchor="middle" x="310.28" y="-14.3" font-family="Times,serif" font-size="14.00">H | H</text>
</g>
<!-- 7&#45;&#45;18 -->
<g id="edge16" class="edge">
<title>7&#45;&#45;18</title>
<path fill="none" stroke="black" d="M315.3,-85.27C314.22,-70.78 312.71,-50.56 311.63,-36.08"/>
<text text-anchor="middle" x="301.97" y="-64.47" font-family="Times,serif" font-size="14.00">&#45; | &#45;</text>
</g>
<!-- 9 -->
<g id="node10" class="node">
<title>9</title>
<ellipse fill="none" stroke="black" cx="191.02" cy="-115.65" rx="34.39" ry="18"/>
<text text-anchor="middle" x="191.02" y="-111.95" font-family="Times,serif" font-size="14.00">O | O</text>
</g>
<!-- 8&#45;&#45;9 -->
<g id="edge17" class="edge">
<title>8&#45;&#45;9</title>
<path fill="none" stroke="black" d="M222.52,-183.06C215.7,-168.47 206.06,-147.83 199.24,-133.25"/>
<text text-anchor="middle" x="222.38" y="-161.95" font-family="Times,serif" font-size="14.00">&#45; | &#45;</text>
</g>
<!-- 10 -->
<g id="node11" class="node">
<title>10</title>
<ellipse fill="none" stroke="black" cx="163.56" cy="-265.15" rx="33.29" ry="18"/>
<text text-anchor="middle" x="163.56" y="-261.45" font-family="Times,serif" font-size="14.00">C | C</text>
</g>
<!-- 8&#45;&#45;10 -->
<g id="edge18" class="edge">
<title>8&#45;&#45;10</title>
<path fill="none" stroke="black" d="M214.14,-216.61C203.73,-226.61 190.36,-239.44 179.98,-249.4"/>
<text text-anchor="middle" x="185.56" y="-221.8" font-family="Times,serif" font-size="14.00">&#45; | &#45;</text>
</g>
<!-- 19 -->
<g id="node20" class="node">
<title>19</title>
<ellipse fill="none" stroke="black" cx="173.5" cy="-171.76" rx="35.19" ry="18"/>
<text text-anchor="middle" x="173.5" y="-168.06" font-family="Times,serif" font-size="14.00">H | H</text>
</g>
<!-- 8&#45;&#45;19 -->
<g id="edge19" class="edge">
<title>8&#45;&#45;19</title>
<path fill="none" stroke="black" d="M206.47,-188.41C203.91,-187.12 201.3,-185.8 198.73,-184.5"/>
<text text-anchor="middle" x="191.1" y="-190.26" font-family="Times,serif" font-size="14.00">&#45; | &#45;</text>
</g>
<!-- 20 -->
<g id="node21" class="node">
<title>20</title>
<ellipse fill="none" stroke="black" cx="138.53" cy="-51.94" rx="35.19" ry="18"/>
<text text-anchor="middle" x="138.53" y="-48.24" font-family="Times,serif" font-size="14.00">H | H</text>
</g>
<!-- 9&#45;&#45;20 -->
<g id="edge20" class="edge">
<title>9&#45;&#45;20</title>
<path fill="none" stroke="black" d="M177.23,-98.91C169.57,-89.62 160.08,-78.1 152.41,-68.79"/>
<text text-anchor="middle" x="153.32" y="-87.65" font-family="Times,serif" font-size="14.00">&#45; | &#45;</text>
</g>
<!-- 11 -->
<g id="node12" class="node">
<title>11</title>
<ellipse fill="none" stroke="black" cx="95.89" cy="-313.32" rx="34.39" ry="18"/>
<text text-anchor="middle" x="95.89" y="-309.62" font-family="Times,serif" font-size="14.00">O | O</text>
</g>
<!-- 10&#45;&#45;11 -->
<g id="edge21" class="edge">
<title>10&#45;&#45;11</title>
<path fill="none" stroke="black" d="M143.26,-279.6C134.85,-285.59 125.1,-292.53 116.65,-298.54"/>
<text text-anchor="middle" x="118.45" y="-277.87" font-family="Times,serif" font-size="14.00">&#45; | &#45;</text>
</g>
<!-- 21 -->
<g id="node22" class="node">
<title>21</title>
<ellipse fill="none" stroke="black" cx="86.2" cy="-230.14" rx="35.19" ry="18"/>
<text text-anchor="middle" x="86.2" y="-226.44" font-family="Times,serif" font-size="14.00">H | H</text>
</g>
<!-- 10&#45;&#45;21 -->
<g id="edge22" class="edge">
<title>10&#45;&#45;21</title>
<path fill="none" stroke="black" d="M137.8,-253.49C129.71,-249.83 120.77,-245.79 112.64,-242.11"/>
<text text-anchor="middle" x="136.72" y="-236.6" font-family="Times,serif" font-size="14.00">&#45; | &#45;</text>
</g>
<!-- 22 -->
<g id="node23" class="node">
<title>22</title>
<ellipse fill="none" stroke="black" cx="166.15" cy="-346.13" rx="35.19" ry="18"/>
<text text-anchor="middle" x="166.15" y="-342.43" font-family="Times,serif" font-size="14.00">H | H</text>
</g>
<!-- 10&#45;&#45;22 -->
<g id="edge23" class="edge">
<title>10&#45;&#45;22</title>
<path fill="none" stroke="black" d="M164.15,-283.53C164.57,-296.87 165.15,-314.84 165.57,-328.11"/>
<text text-anchor="middle" x="153.36" y="-309.62" font-family="Times,serif" font-size="14.00">&#45; | &#45;</text>
</g>
<!-- 23 -->
<g id="node24" class="node">
<title>23</title>
<ellipse fill="none" stroke="black" cx="35.1" cy="-362.15" rx="35.19" ry="18"/>
<text text-anchor="middle" x="35.1" y="-358.45" font-family="Times,serif" font-size="14.00">H | H</text>
</g>
<!-- 11&#45;&#45;23 -->
<g id="edge24" class="edge">
<title>11&#45;&#45;23</title>
<path fill="none" stroke="black" d="M76.99,-328.5C69.74,-334.32 61.46,-340.97 54.2,-346.81"/>
<text text-anchor="middle" x="54.09" y="-326.45" font-family="Times,serif" font-size="14.00">&#45; | &#45;</text>
</g>
<!-- 25 -->
<g id="node26" class="node">
<title>25</title>
<ellipse fill="none" stroke="black" cx="725.39" cy="-252.92" rx="34.39" ry="18"/>
<text text-anchor="middle" x="725.39" y="-249.22" font-family="Times,serif" font-size="14.00">O | O</text>
</g>
<!-- 12&#45;&#45;25 -->
<g id="edge25" class="edge">
<title>12&#45;&#45;25</title>
<path fill="none" stroke="black" stroke-dasharray="1,5" d="M665.92,-241.74C674.65,-243.38 684.05,-245.15 692.75,-246.79"/>
<text text-anchor="middle" x="676.83" y="-248.06" font-family="Times,serif" font-size="14.00">&#45;</text>
</g>
<!-- 24 -->
<g id="node25" class="node">
<title>24</title>
<ellipse fill="none" stroke="black" cx="778.84" cy="-314.59" rx="33.29" ry="18"/>
<text text-anchor="middle" x="778.84" y="-310.89" font-family="Times,serif" font-size="14.00">C | C</text>
</g>
<!-- 24&#45;&#45;25 -->
<g id="edge26" class="edge">
<title>24&#45;&#45;25</title>
<path fill="none" stroke="black" d="M764.51,-298.07C756.85,-289.22 747.43,-278.35 739.76,-269.5"/>
<text text-anchor="middle" x="736.63" y="-287.58" font-family="Times,serif" font-size="14.00">= | &#45;</text>
</g>
<!-- 26 -->
<g id="node27" class="node">
<title>26</title>
<ellipse fill="none" stroke="black" cx="848.74" cy="-344.82" rx="35.19" ry="18"/>
<text text-anchor="middle" x="848.74" y="-341.12" font-family="Times,serif" font-size="14.00">H | H</text>
</g>
<!-- 24&#45;&#45;26 -->
<g id="edge27" class="edge">
<title>24&#45;&#45;26</title>
<path fill="none" stroke="black" d="M804.86,-325.85C810.3,-328.2 816.04,-330.68 821.52,-333.05"/>
<text text-anchor="middle" x="801.69" y="-333.25" font-family="Times,serif" font-size="14.00">&#45; | &#45;</text>
</g>
<!-- 29 -->
<g id="node30" class="node">
<title>29</title>
<ellipse fill="none" stroke="black" cx="706.96" cy="-346.22" rx="35.19" ry="18"/>
<text text-anchor="middle" x="706.96" y="-342.52" font-family="Times,serif" font-size="14.00">H | H</text>
</g>
<!-- 24&#45;&#45;29 -->
<g id="edge28" class="edge">
<title>24&#45;&#45;29</title>
<path fill="none" stroke="black" stroke-dasharray="1,5" d="M752.89,-326.01C746.77,-328.7 740.24,-331.57 734.08,-334.28"/>
<text text-anchor="middle" x="743.48" y="-318.95" font-family="Times,serif" font-size="14.00">&#45;</text>
</g>
<!-- 28 -->
<g id="node29" class="node">
<title>28</title>
<ellipse fill="none" stroke="black" cx="689.72" cy="-199.94" rx="35.19" ry="18"/>
<text text-anchor="middle" x="689.72" y="-196.24" font-family="Times,serif" font-size="14.00">H | H</text>
</g>
<!-- 27&#45;&#45;28 -->
<g id="edge29" class="edge">
<title>27&#45;&#45;28</title>
<path fill="none" stroke="black" d="M653.15,-271.07C661.14,-255.53 672.75,-232.95 680.73,-217.42"/>
<text text-anchor="middle" x="678.44" y="-233.04" font-family="Times,serif" font-size="14.00">&#45; | &#45;</text>
</g>
<!-- 27&#45;&#45;29 -->
<g id="edge30" class="edge">
<title>27&#45;&#45;29</title>
<path fill="none" stroke="black" stroke-dasharray="5,2" d="M661.31,-304.33C670.17,-312.46 680.96,-322.36 689.82,-330.49"/>
<text text-anchor="middle" x="678.06" y="-306.21" font-family="Times,serif" font-size="14.00">&#45;</text>
</g>
</g>
</svg>
