<?xml version="1.0" encoding="UTF-8" standalone="no"?>
<!DOCTYPE svg PUBLIC "-//W3C//DTD SVG 1.1//EN"
 "http://www.w3.org/Graphics/SVG/1.1/DTD/svg11.dtd">
<!-- Generated by graphviz version 2.40.1 (20161225.0304)
 -->
<!-- Title: G Pages: 1 -->
<svg width="187pt" height="298pt"
 viewBox="0.00 0.00 187.28 297.58" xmlns="http://www.w3.org/2000/svg" xmlns:xlink="http://www.w3.org/1999/xlink">
<g id="graph0" class="graph" transform="scale(1 1) rotate(0) translate(4 293.5806)">
<title>G</title>
<polygon fill="#ffffff" stroke="transparent" points="-4,4 -4,-293.5806 183.2828,-293.5806 183.2828,4 -4,4"/>
<!-- 0 -->
<g id="node1" class="node">
<title>0</title>
<ellipse fill="none" stroke="#000000" cx="49.3351" cy="-89.4088" rx="33.2948" ry="18"/>
<text text-anchor="middle" x="49.3351" y="-85.7088" font-family="Times,serif" font-size="14.00" fill="#000000">C | C</text>
</g>
<!-- 1 -->
<g id="node2" class="node">
<title>1</title>
<ellipse fill="none" stroke="#000000" cx="34.4469" cy="-18" rx="34.394" ry="18"/>
<text text-anchor="middle" x="34.4469" y="-14.3" font-family="Times,serif" font-size="14.00" fill="#000000">O | O</text>
</g>
<!-- 0&#45;&#45;1 -->
<g id="edge1" class="edge">
<title>0&#45;&#45;1</title>
<path fill="none" stroke="#000000" d="M45.5782,-71.3893C43.3385,-60.6469 40.503,-47.0471 38.2544,-36.2621"/>
<text text-anchor="middle" x="22.9163" y="-57.6257" font-family="Times,serif" font-size="14.00" fill="#000000">= | =</text>
</g>
<!-- 2 -->
<g id="node3" class="node">
<title>2</title>
<ellipse fill="none" stroke="#000000" cx="74.8614" cy="-160.2603" rx="33.2948" ry="18"/>
<text text-anchor="middle" x="74.8614" y="-156.5603" font-family="Times,serif" font-size="14.00" fill="#000000">C | C</text>
</g>
<!-- 0&#45;&#45;2 -->
<g id="edge2" class="edge">
<title>0&#45;&#45;2</title>
<path fill="none" stroke="#000000" d="M55.7765,-107.2876C59.6165,-117.9462 64.478,-131.4399 68.3333,-142.1407"/>
<text text-anchor="middle" x="50.5549" y="-128.5142" font-family="Times,serif" font-size="14.00" fill="#000000">&#45; | &#45;</text>
</g>
<!-- 3 -->
<g id="node4" class="node">
<title>3</title>
<ellipse fill="none" stroke="#000000" cx="44.1589" cy="-233.2976" rx="33.2948" ry="18"/>
<text text-anchor="middle" x="44.1589" y="-229.5976" font-family="Times,serif" font-size="14.00" fill="#000000">C | C</text>
</g>
<!-- 2&#45;&#45;3 -->
<g id="edge3" class="edge">
<title>2&#45;&#45;3</title>
<path fill="none" stroke="#000000" stroke-dasharray="5,2" d="M67.4292,-177.9406C62.6375,-189.3394 56.4283,-204.1104 51.6291,-215.527"/>
<text text-anchor="middle" x="57.0291" y="-200.5338" font-family="Times,serif" font-size="14.00" fill="#000000">&#45;</text>
</g>
<!-- 5 -->
<g id="node6" class="node">
<title>5</title>
<ellipse fill="none" stroke="#000000" cx="144.1859" cy="-198.8159" rx="35.194" ry="18"/>
<text text-anchor="middle" x="144.1859" y="-195.1159" font-family="Times,serif" font-size="14.00" fill="#000000">H | H</text>
</g>
<!-- 2&#45;&#45;5 -->
<g id="edge4" class="edge">
<title>2&#45;&#45;5</title>
<path fill="none" stroke="#000000" stroke-dasharray="1,5" d="M98.3315,-173.3135C105.402,-177.2458 113.1685,-181.5652 120.2677,-185.5135"/>
<text text-anchor="middle" x="106.7996" y="-183.2135" font-family="Times,serif" font-size="14.00" fill="#000000">&#45;</text>
</g>
<!-- 4 -->
<g id="node5" class="node">
<title>4</title>
<ellipse fill="none" stroke="#000000" cx="113.3701" cy="-271.5806" rx="34.394" ry="18"/>
<text text-anchor="middle" x="113.3701" y="-267.8806" font-family="Times,serif" font-size="14.00" fill="#000000">O | O</text>
</g>
<!-- 3&#45;&#45;4 -->
<g id="edge5" class="edge">
<title>3&#45;&#45;4</title>
<path fill="none" stroke="#000000" d="M67.5906,-246.2585C74.6496,-250.163 82.4034,-254.4519 89.491,-258.3723"/>
<text text-anchor="middle" x="63.0408" y="-256.1154" font-family="Times,serif" font-size="14.00" fill="#000000">&#45; | =</text>
</g>
<!-- 4&#45;&#45;5 -->
<g id="edge6" class="edge">
<title>4&#45;&#45;5</title>
<path fill="none" stroke="#000000" stroke-dasharray="5,2" d="M120.8297,-253.9663C125.6391,-242.61 131.8713,-227.8942 136.6881,-216.5202"/>
<text text-anchor="middle" x="126.2589" y="-239.0433" font-family="Times,serif" font-size="14.00" fill="#000000">&#45;</text>
</g>
</g>
</svg>
