<?xml version="1.0" encoding="UTF-8" standalone="no"?>
<!DOCTYPE svg PUBLIC "-//W3C//DTD SVG 1.1//EN"
 "http://www.w3.org/Graphics/SVG/1.1/DTD/svg11.dtd">
<!-- Generated by graphviz version 2.40.1 (20161225.0304)
 -->
<!-- Title: G Pages: 1 -->
<svg width="267pt" height="266pt"
 viewBox="0.00 0.00 266.97 265.68" xmlns="http://www.w3.org/2000/svg" xmlns:xlink="http://www.w3.org/1999/xlink">
<g id="graph0" class="graph" transform="scale(1 1) rotate(0) translate(4 261.6764)">
<title>G</title>
<polygon fill="#ffffff" stroke="transparent" points="-4,4 -4,-261.6764 262.9674,-261.6764 262.9674,4 -4,4"/>
<!-- 0 -->
<g id="node1" class="node">
<title>0</title>
<ellipse fill="none" stroke="#000000" cx="43.0903" cy="-191.3827" rx="33.2948" ry="18"/>
<text text-anchor="middle" x="43.0903" y="-187.6827" font-family="Times,serif" font-size="14.00" fill="#000000">C | C</text>
</g>
<!-- 1 -->
<g id="node2" class="node">
<title>1</title>
<ellipse fill="none" stroke="#000000" cx="107.6151" cy="-141.7851" rx="33.2948" ry="18"/>
<text text-anchor="middle" x="107.6151" y="-138.0851" font-family="Times,serif" font-size="14.00" fill="#000000">C | C</text>
</g>
<!-- 0&#45;&#45;1 -->
<g id="edge1" class="edge">
<title>0&#45;&#45;1</title>
<path fill="none" stroke="#000000" d="M62.4499,-176.5018C70.6166,-170.2244 80.104,-162.9318 88.2692,-156.6555"/>
<text text-anchor="middle" x="63.8596" y="-155.3786" font-family="Times,serif" font-size="14.00" fill="#000000">&#45; | &#45;</text>
</g>
<!-- 2 -->
<g id="node3" class="node">
<title>2</title>
<ellipse fill="none" stroke="#000000" cx="160.8274" cy="-62.0646" rx="34.394" ry="18"/>
<text text-anchor="middle" x="160.8274" y="-58.3646" font-family="Times,serif" font-size="14.00" fill="#000000">O | O</text>
</g>
<!-- 1&#45;&#45;2 -->
<g id="edge2" class="edge">
<title>1&#45;&#45;2</title>
<path fill="none" stroke="#000000" d="M119.1614,-124.4869C128.0868,-111.1151 140.3838,-92.6923 149.3036,-79.329"/>
<text text-anchor="middle" x="115.2325" y="-105.708" font-family="Times,serif" font-size="14.00" fill="#000000">= | =</text>
</g>
<!-- 3 -->
<g id="node4" class="node">
<title>3</title>
<ellipse fill="none" stroke="#000000" cx="175.1482" cy="-183.7754" rx="34.394" ry="18"/>
<text text-anchor="middle" x="175.1482" y="-180.0754" font-family="Times,serif" font-size="14.00" fill="#000000">O | O</text>
</g>
<!-- 1&#45;&#45;3 -->
<g id="edge3" class="edge">
<title>1&#45;&#45;3</title>
<path fill="none" stroke="#000000" stroke-dasharray="5,2" d="M129.728,-155.5343C137.1138,-160.1266 145.3475,-165.2461 152.7545,-169.8516"/>
<text text-anchor="middle" x="143.7412" y="-151.4929" font-family="Times,serif" font-size="14.00" fill="#000000">&#45;</text>
</g>
<!-- 5 -->
<g id="node6" class="node">
<title>5</title>
<ellipse fill="none" stroke="#000000" cx="89.236" cy="-73.7087" rx="34.394" ry="18"/>
<text text-anchor="middle" x="89.236" y="-70.0087" font-family="Times,serif" font-size="14.00" fill="#000000">O | O</text>
</g>
<!-- 1&#45;&#45;5 -->
<g id="edge4" class="edge">
<title>1&#45;&#45;5</title>
<path fill="none" stroke="#000000" stroke-dasharray="1,5" d="M102.7862,-123.8988C100.1061,-113.9715 96.7817,-101.6579 94.0965,-91.7119"/>
<text text-anchor="middle" x="95.9413" y="-96.6053" font-family="Times,serif" font-size="14.00" fill="#000000">&#45;</text>
</g>
<!-- 4 -->
<g id="node5" class="node">
<title>4</title>
<ellipse fill="none" stroke="#000000" cx="225.8204" cy="-239.6764" rx="33.2948" ry="18"/>
<text text-anchor="middle" x="225.8204" y="-235.9764" font-family="Times,serif" font-size="14.00" fill="#000000">C | C</text>
</g>
<!-- 3&#45;&#45;4 -->
<g id="edge5" class="edge">
<title>3&#45;&#45;4</title>
<path fill="none" stroke="#000000" d="M190.0775,-200.2452C196.7336,-207.5882 204.5495,-216.2106 211.1724,-223.5169"/>
<text text-anchor="middle" x="189.1249" y="-215.6811" font-family="Times,serif" font-size="14.00" fill="#000000">&#45; | &#45;</text>
</g>
<!-- 7 -->
<g id="node8" class="node">
<title>7</title>
<ellipse fill="none" stroke="#000000" cx="177.5996" cy="-107.0029" rx="35.194" ry="18"/>
<text text-anchor="middle" x="177.5996" y="-103.3029" font-family="Times,serif" font-size="14.00" fill="#000000">H | H</text>
</g>
<!-- 3&#45;&#45;7 -->
<g id="edge6" class="edge">
<title>3&#45;&#45;7</title>
<path fill="none" stroke="#000000" stroke-dasharray="1,5" d="M175.7292,-165.5814C176.12,-153.3432 176.633,-137.2771 177.0229,-125.0663"/>
<text text-anchor="middle" x="173.876" y="-149.1239" font-family="Times,serif" font-size="14.00" fill="#000000">&#45;</text>
</g>
<!-- 6 -->
<g id="node7" class="node">
<title>6</title>
<ellipse fill="none" stroke="#000000" cx="35.0969" cy="-18" rx="35.194" ry="18"/>
<text text-anchor="middle" x="35.0969" y="-14.3" font-family="Times,serif" font-size="14.00" fill="#000000">H | H</text>
</g>
<!-- 5&#45;&#45;6 -->
<g id="edge7" class="edge">
<title>5&#45;&#45;6</title>
<path fill="none" stroke="#000000" d="M73.5767,-57.5954C66.4565,-50.2688 58.047,-41.6155 50.9085,-34.27"/>
<text text-anchor="middle" x="50.7426" y="-49.7327" font-family="Times,serif" font-size="14.00" fill="#000000">&#45; | &#45;</text>
</g>
<!-- 5&#45;&#45;7 -->
<g id="edge8" class="edge">
<title>5&#45;&#45;7</title>
<path fill="none" stroke="#000000" stroke-dasharray="5,2" d="M117.1948,-84.2432C127.4084,-88.0915 138.9651,-92.4459 149.2154,-96.3081"/>
<text text-anchor="middle" x="135.7051" y="-94.0756" font-family="Times,serif" font-size="14.00" fill="#000000">&#45;</text>
</g>
</g>
</svg>
