<?xml version="1.0" encoding="UTF-8" standalone="no"?>
<!DOCTYPE svg PUBLIC "-//W3C//DTD SVG 1.1//EN"
 "http://www.w3.org/Graphics/SVG/1.1/DTD/svg11.dtd">
<!-- Generated by graphviz version 2.40.1 (20161225.0304)
 -->
<!-- Title: G Pages: 1 -->
<svg width="327pt" height="222pt"
 viewBox="0.00 0.00 326.61 221.56" xmlns="http://www.w3.org/2000/svg" xmlns:xlink="http://www.w3.org/1999/xlink">
<g id="graph0" class="graph" transform="scale(1 1) rotate(0) translate(4 217.5648)">
<title>G</title>
<polygon fill="#ffffff" stroke="transparent" points="-4,4 -4,-217.5648 322.6083,-217.5648 322.6083,4 -4,4"/>
<!-- 0 -->
<g id="node1" class="node">
<title>0</title>
<ellipse fill="none" stroke="#000000" cx="28.5975" cy="-48.6206" rx="28.6953" ry="18"/>
<text text-anchor="middle" x="28.5975" y="-44.9206" font-family="Times,serif" font-size="14.00" fill="#000000">* | *</text>
</g>
<!-- 1 -->
<g id="node2" class="node">
<title>1</title>
<ellipse fill="none" stroke="#000000" cx="99.3287" cy="-87.5144" rx="33.2948" ry="18"/>
<text text-anchor="middle" x="99.3287" y="-83.8144" font-family="Times,serif" font-size="14.00" fill="#000000">C | C</text>
</g>
<!-- 0&#45;&#45;1 -->
<g id="edge1" class="edge">
<title>0&#45;&#45;1</title>
<path fill="none" stroke="#000000" d="M50.2035,-60.5013C58.3288,-64.9693 67.6021,-70.0685 75.8867,-74.6241"/>
<text text-anchor="middle" x="51.5451" y="-71.3627" font-family="Times,serif" font-size="14.00" fill="#000000">&#45; | &#45;</text>
</g>
<!-- 2 -->
<g id="node3" class="node">
<title>2</title>
<ellipse fill="none" stroke="#000000" cx="59.6905" cy="-159.3438" rx="34.394" ry="18"/>
<text text-anchor="middle" x="59.6905" y="-155.6438" font-family="Times,serif" font-size="14.00" fill="#000000">O | O</text>
</g>
<!-- 1&#45;&#45;2 -->
<g id="edge2" class="edge">
<title>1&#45;&#45;2</title>
<path fill="none" stroke="#000000" d="M89.7334,-104.9023C83.5471,-116.1126 75.5308,-130.6393 69.3348,-141.8671"/>
<text text-anchor="middle" x="64.0341" y="-127.1847" font-family="Times,serif" font-size="14.00" fill="#000000">= | &#45;</text>
</g>
<!-- 3 -->
<g id="node4" class="node">
<title>3</title>
<ellipse fill="none" stroke="#000000" cx="174.5803" cy="-128.1536" rx="33.2948" ry="18"/>
<text text-anchor="middle" x="174.5803" y="-124.4536" font-family="Times,serif" font-size="14.00" fill="#000000">C | C</text>
</g>
<!-- 1&#45;&#45;3 -->
<g id="edge3" class="edge">
<title>1&#45;&#45;3</title>
<path fill="none" stroke="#000000" d="M123.1388,-100.3729C132.009,-105.1632 142.0689,-110.5959 150.9251,-115.3787"/>
<text text-anchor="middle" x="125.532" y="-111.6758" font-family="Times,serif" font-size="14.00" fill="#000000">&#45; | &#45;</text>
</g>
<!-- 6 -->
<g id="node7" class="node">
<title>6</title>
<ellipse fill="none" stroke="#000000" cx="145.3706" cy="-19.563" rx="35.194" ry="18"/>
<text text-anchor="middle" x="145.3706" y="-15.863" font-family="Times,serif" font-size="14.00" fill="#000000">H | H</text>
</g>
<!-- 1&#45;&#45;6 -->
<g id="edge4" class="edge">
<title>1&#45;&#45;6</title>
<path fill="none" stroke="#000000" stroke-dasharray="1,5" d="M110.947,-70.3674C117.8733,-60.1451 126.642,-47.2037 133.5958,-36.9408"/>
<text text-anchor="middle" x="119.7714" y="-57.4541" font-family="Times,serif" font-size="14.00" fill="#000000">&#45;</text>
</g>
<!-- 5 -->
<g id="node6" class="node">
<title>5</title>
<ellipse fill="none" stroke="#000000" cx="128.1095" cy="-195.5648" rx="35.194" ry="18"/>
<text text-anchor="middle" x="128.1095" y="-191.8648" font-family="Times,serif" font-size="14.00" fill="#000000">H | H</text>
</g>
<!-- 2&#45;&#45;5 -->
<g id="edge5" class="edge">
<title>2&#45;&#45;5</title>
<path fill="none" stroke="#000000" stroke-dasharray="1,5" d="M84.0051,-172.216C90.3043,-175.5507 97.0931,-179.1447 103.4117,-182.4898"/>
<text text-anchor="middle" x="91.2084" y="-181.1529" font-family="Times,serif" font-size="14.00" fill="#000000">&#45;</text>
</g>
<!-- 4 -->
<g id="node5" class="node">
<title>4</title>
<ellipse fill="none" stroke="#000000" cx="234.7404" cy="-182.9193" rx="34.394" ry="18"/>
<text text-anchor="middle" x="234.7404" y="-179.2193" font-family="Times,serif" font-size="14.00" fill="#000000">O | O</text>
</g>
<!-- 3&#45;&#45;4 -->
<g id="edge6" class="edge">
<title>3&#45;&#45;4</title>
<path fill="none" stroke="#000000" d="M191.6589,-143.7007C199.7181,-151.0373 209.3193,-159.7776 217.4102,-167.143"/>
<text text-anchor="middle" x="223.5345" y="-144.2219" font-family="Times,serif" font-size="14.00" fill="#000000">= | =</text>
</g>
<!-- 3&#45;&#45;5 -->
<g id="edge7" class="edge">
<title>3&#45;&#45;5</title>
<path fill="none" stroke="#000000" stroke-dasharray="5,2" d="M162.8538,-145.1643C155.8629,-155.3053 147.0125,-168.1438 139.994,-178.325"/>
<text text-anchor="middle" x="148.9239" y="-165.5446" font-family="Times,serif" font-size="14.00" fill="#000000">&#45;</text>
</g>
<!-- 7 -->
<g id="node8" class="node">
<title>7</title>
<ellipse fill="none" stroke="#000000" cx="216.3959" cy="-56.6572" rx="34.394" ry="18"/>
<text text-anchor="middle" x="216.3959" y="-52.9572" font-family="Times,serif" font-size="14.00" fill="#000000">O | O</text>
</g>
<!-- 3&#45;&#45;7 -->
<g id="edge8" class="edge">
<title>3&#45;&#45;7</title>
<path fill="none" stroke="#000000" stroke-dasharray="1,5" d="M184.7027,-110.8463C191.2288,-99.688 199.6855,-85.2287 206.2218,-74.0529"/>
<text text-anchor="middle" x="192.9622" y="-96.2496" font-family="Times,serif" font-size="14.00" fill="#000000">&#45;</text>
</g>
<!-- 6&#45;&#45;7 -->
<g id="edge9" class="edge">
<title>6&#45;&#45;7</title>
<path fill="none" stroke="#000000" stroke-dasharray="5,2" d="M170.2118,-32.5368C177.2523,-36.2138 184.9098,-40.2131 191.9281,-43.8785"/>
<text text-anchor="middle" x="178.5699" y="-42.0076" font-family="Times,serif" font-size="14.00" fill="#000000">&#45;</text>
</g>
<!-- 8 -->
<g id="node9" class="node">
<title>8</title>
<ellipse fill="none" stroke="#000000" cx="283.5114" cy="-18" rx="35.194" ry="18"/>
<text text-anchor="middle" x="283.5114" y="-14.3" font-family="Times,serif" font-size="14.00" fill="#000000">H | H</text>
</g>
<!-- 7&#45;&#45;8 -->
<g id="edge10" class="edge">
<title>7&#45;&#45;8</title>
<path fill="none" stroke="#000000" d="M239.8696,-43.1368C246.3714,-39.3919 253.43,-35.3263 259.9374,-31.5781"/>
<text text-anchor="middle" x="238.4035" y="-26.1575" font-family="Times,serif" font-size="14.00" fill="#000000">&#45; | &#45;</text>
</g>
</g>
</svg>
