<?xml version="1.0" encoding="UTF-8" standalone="no"?>
<!DOCTYPE svg PUBLIC "-//W3C//DTD SVG 1.1//EN"
 "http://www.w3.org/Graphics/SVG/1.1/DTD/svg11.dtd">
<!-- Generated by graphviz version 2.40.1 (20161225.0304)
 -->
<!-- Title: G Pages: 1 -->
<svg width="304pt" height="368pt"
 viewBox="0.00 0.00 304.00 367.99" xmlns="http://www.w3.org/2000/svg" xmlns:xlink="http://www.w3.org/1999/xlink">
<g id="graph0" class="graph" transform="scale(1 1) rotate(0) translate(4 363.9909)">
<title>G</title>
<polygon fill="#ffffff" stroke="transparent" points="-4,4 -4,-363.9909 299.9955,-363.9909 299.9955,4 -4,4"/>
<!-- 0 -->
<g id="node1" class="node">
<title>0</title>
<ellipse fill="none" stroke="#000000" cx="119.4169" cy="-271.1998" rx="33.2948" ry="18"/>
<text text-anchor="middle" x="119.4169" y="-267.4998" font-family="Times,serif" font-size="14.00" fill="#000000">C | C</text>
</g>
<!-- 1 -->
<g id="node2" class="node">
<title>1</title>
<ellipse fill="none" stroke="#000000" cx="199.5301" cy="-251.6934" rx="34.394" ry="18"/>
<text text-anchor="middle" x="199.5301" y="-247.9934" font-family="Times,serif" font-size="14.00" fill="#000000">O | O</text>
</g>
<!-- 0&#45;&#45;1 -->
<g id="edge1" class="edge">
<title>0&#45;&#45;1</title>
<path fill="none" stroke="#000000" d="M149.7043,-263.8253C155.7304,-262.358 162.0707,-260.8142 168.1331,-259.3381"/>
<text text-anchor="middle" x="174.4187" y="-265.3817" font-family="Times,serif" font-size="14.00" fill="#000000">= | &#45;</text>
</g>
<!-- 2 -->
<g id="node3" class="node">
<title>2</title>
<ellipse fill="none" stroke="#000000" cx="88.7018" cy="-341.9909" rx="35.194" ry="18"/>
<text text-anchor="middle" x="88.7018" y="-338.2909" font-family="Times,serif" font-size="14.00" fill="#000000">H | H</text>
</g>
<!-- 0&#45;&#45;2 -->
<g id="edge2" class="edge">
<title>0&#45;&#45;2</title>
<path fill="none" stroke="#000000" d="M111.6662,-289.0634C106.9745,-299.8767 101.0156,-313.6106 96.3437,-324.3782"/>
<text text-anchor="middle" x="92.5049" y="-310.5208" font-family="Times,serif" font-size="14.00" fill="#000000">&#45; | &#45;</text>
</g>
<!-- 4 -->
<g id="node5" class="node">
<title>4</title>
<ellipse fill="none" stroke="#000000" cx="78.5715" cy="-200.4124" rx="35.194" ry="18"/>
<text text-anchor="middle" x="78.5715" y="-196.7124" font-family="Times,serif" font-size="14.00" fill="#000000">H | H</text>
</g>
<!-- 0&#45;&#45;4 -->
<g id="edge3" class="edge">
<title>0&#45;&#45;4</title>
<path fill="none" stroke="#000000" stroke-dasharray="1,5" d="M109.3203,-253.7018C102.9891,-242.7294 94.8611,-228.6432 88.552,-217.7092"/>
<text text-anchor="middle" x="96.4362" y="-239.5055" font-family="Times,serif" font-size="14.00" fill="#000000">&#45;</text>
</g>
<!-- 7 -->
<g id="node8" class="node">
<title>7</title>
<ellipse fill="none" stroke="#000000" cx="222.6931" cy="-174.3206" rx="35.194" ry="18"/>
<text text-anchor="middle" x="222.6931" y="-170.6206" font-family="Times,serif" font-size="14.00" fill="#000000">H | H</text>
</g>
<!-- 1&#45;&#45;7 -->
<g id="edge4" class="edge">
<title>1&#45;&#45;7</title>
<path fill="none" stroke="#000000" stroke-dasharray="1,5" d="M204.9024,-233.7481C208.6444,-221.2483 213.6143,-204.647 217.35,-192.1686"/>
<text text-anchor="middle" x="208.6262" y="-216.7583" font-family="Times,serif" font-size="14.00" fill="#000000">&#45;</text>
</g>
<!-- 3 -->
<g id="node4" class="node">
<title>3</title>
<ellipse fill="none" stroke="#000000" cx="185.5997" cy="-98.75" rx="33.2948" ry="18"/>
<text text-anchor="middle" x="185.5997" y="-95.05" font-family="Times,serif" font-size="14.00" fill="#000000">C | C</text>
</g>
<!-- 5 -->
<g id="node6" class="node">
<title>5</title>
<ellipse fill="none" stroke="#000000" cx="102.7582" cy="-120.8586" rx="34.394" ry="18"/>
<text text-anchor="middle" x="102.7582" y="-117.1586" font-family="Times,serif" font-size="14.00" fill="#000000">O | O</text>
</g>
<!-- 3&#45;&#45;5 -->
<g id="edge5" class="edge">
<title>3&#45;&#45;5</title>
<path fill="none" stroke="#000000" stroke-dasharray="1,5" d="M155.692,-106.7317C148.4621,-108.6612 140.7238,-110.7264 133.4582,-112.6654"/>
<text text-anchor="middle" x="142.0751" y="-113.4986" font-family="Times,serif" font-size="14.00" fill="#000000">&#45;</text>
</g>
<!-- 3&#45;&#45;7 -->
<g id="edge6" class="edge">
<title>3&#45;&#45;7</title>
<path fill="none" stroke="#000000" stroke-dasharray="5,2" d="M194.2029,-116.2773C200.1526,-128.3987 208.0407,-144.4691 214.0081,-156.6265"/>
<text text-anchor="middle" x="201.6055" y="-140.2519" font-family="Times,serif" font-size="14.00" fill="#000000">&#45;</text>
</g>
<!-- 8 -->
<g id="node9" class="node">
<title>8</title>
<ellipse fill="none" stroke="#000000" cx="181.6756" cy="-18" rx="34.394" ry="18"/>
<text text-anchor="middle" x="181.6756" y="-14.3" font-family="Times,serif" font-size="14.00" fill="#000000">O | O</text>
</g>
<!-- 3&#45;&#45;8 -->
<g id="edge7" class="edge">
<title>3&#45;&#45;8</title>
<path fill="none" stroke="#000000" d="M184.7092,-80.4266C184.067,-67.2113 183.2039,-49.4495 182.5625,-36.2509"/>
<text text-anchor="middle" x="164.6359" y="-62.1387" font-family="Times,serif" font-size="14.00" fill="#000000">= | =</text>
</g>
<!-- 9 -->
<g id="node10" class="node">
<title>9</title>
<ellipse fill="none" stroke="#000000" cx="260.8986" cy="-67.4711" rx="35.194" ry="18"/>
<text text-anchor="middle" x="260.8986" y="-63.7711" font-family="Times,serif" font-size="14.00" fill="#000000">H | H</text>
</g>
<!-- 3&#45;&#45;9 -->
<g id="edge8" class="edge">
<title>3&#45;&#45;9</title>
<path fill="none" stroke="#000000" d="M211.9356,-87.8101C218.8909,-84.9209 226.414,-81.7959 233.4277,-78.8824"/>
<text text-anchor="middle" x="234.1816" y="-87.1463" font-family="Times,serif" font-size="14.00" fill="#000000">&#45; | &#45;</text>
</g>
<!-- 4&#45;&#45;5 -->
<g id="edge9" class="edge">
<title>4&#45;&#45;5</title>
<path fill="none" stroke="#000000" stroke-dasharray="5,2" d="M84.0598,-182.3604C88.0181,-169.341 93.3383,-151.8422 97.2916,-138.8392"/>
<text text-anchor="middle" x="88.1757" y="-164.3998" font-family="Times,serif" font-size="14.00" fill="#000000">&#45;</text>
</g>
<!-- 6 -->
<g id="node7" class="node">
<title>6</title>
<ellipse fill="none" stroke="#000000" cx="35.0969" cy="-77.5241" rx="35.194" ry="18"/>
<text text-anchor="middle" x="35.0969" y="-73.8241" font-family="Times,serif" font-size="14.00" fill="#000000">H | H</text>
</g>
<!-- 5&#45;&#45;6 -->
<g id="edge10" class="edge">
<title>5&#45;&#45;6</title>
<path fill="none" stroke="#000000" d="M80.9773,-106.9088C73.4054,-102.0593 64.9072,-96.6165 57.3015,-91.7453"/>
<text text-anchor="middle" x="80.6394" y="-88.1271" font-family="Times,serif" font-size="14.00" fill="#000000">&#45; | &#45;</text>
</g>
</g>
</svg>
