<?xml version="1.0" encoding="UTF-8" standalone="no"?>
<!DOCTYPE svg PUBLIC "-//W3C//DTD SVG 1.1//EN"
 "http://www.w3.org/Graphics/SVG/1.1/DTD/svg11.dtd">
<!-- Generated by graphviz version 2.40.1 (20161225.0304)
 -->
<!-- Title: G Pages: 1 -->
<svg width="324pt" height="376pt"
 viewBox="0.00 0.00 323.93 376.14" xmlns="http://www.w3.org/2000/svg" xmlns:xlink="http://www.w3.org/1999/xlink">
<g id="graph0" class="graph" transform="scale(1 1) rotate(0) translate(4 372.1441)">
<title>G</title>
<polygon fill="#ffffff" stroke="transparent" points="-4,4 -4,-372.1441 319.9339,-372.1441 319.9339,4 -4,4"/>
<!-- 0 -->
<g id="node1" class="node">
<title>0</title>
<ellipse fill="none" stroke="#000000" cx="215.9363" cy="-92.8433" rx="33.2948" ry="18"/>
<text text-anchor="middle" x="215.9363" y="-89.1433" font-family="Times,serif" font-size="14.00" fill="#000000">C | C</text>
</g>
<!-- 1 -->
<g id="node2" class="node">
<title>1</title>
<ellipse fill="none" stroke="#000000" cx="266.1247" cy="-160.3878" rx="34.394" ry="18"/>
<text text-anchor="middle" x="266.1247" y="-156.6878" font-family="Times,serif" font-size="14.00" fill="#000000">O | O</text>
</g>
<!-- 0&#45;&#45;1 -->
<g id="edge1" class="edge">
<title>0&#45;&#45;1</title>
<path fill="none" stroke="#000000" d="M228.3424,-109.5397C236.0058,-119.8532 245.8114,-133.0498 253.5127,-143.4143"/>
<text text-anchor="middle" x="225.4276" y="-130.277" font-family="Times,serif" font-size="14.00" fill="#000000">= | &#45;</text>
</g>
<!-- 2 -->
<g id="node3" class="node">
<title>2</title>
<ellipse fill="none" stroke="#000000" cx="183.9447" cy="-18" rx="35.194" ry="18"/>
<text text-anchor="middle" x="183.9447" y="-14.3" font-family="Times,serif" font-size="14.00" fill="#000000">H | H</text>
</g>
<!-- 0&#45;&#45;2 -->
<g id="edge2" class="edge">
<title>0&#45;&#45;2</title>
<path fill="none" stroke="#000000" d="M208.3548,-75.1065C203.255,-63.1758 196.5602,-47.5134 191.4719,-35.6095"/>
<text text-anchor="middle" x="188.4133" y="-59.158" font-family="Times,serif" font-size="14.00" fill="#000000">&#45; | &#45;</text>
</g>
<!-- 4 -->
<g id="node5" class="node">
<title>4</title>
<ellipse fill="none" stroke="#000000" cx="142.867" cy="-132.448" rx="35.194" ry="18"/>
<text text-anchor="middle" x="142.867" y="-128.748" font-family="Times,serif" font-size="14.00" fill="#000000">H | H</text>
</g>
<!-- 0&#45;&#45;4 -->
<g id="edge3" class="edge">
<title>0&#45;&#45;4</title>
<path fill="none" stroke="#000000" stroke-dasharray="1,5" d="M192.4145,-105.5925C184.3209,-109.9793 175.2472,-114.8974 167.0981,-119.3144"/>
<text text-anchor="middle" x="177.2563" y="-101.2534" font-family="Times,serif" font-size="14.00" fill="#000000">&#45;</text>
</g>
<!-- 9 -->
<g id="node10" class="node">
<title>9</title>
<ellipse fill="none" stroke="#000000" cx="280.837" cy="-45.1399" rx="35.194" ry="18"/>
<text text-anchor="middle" x="280.837" y="-41.4399" font-family="Times,serif" font-size="14.00" fill="#000000">H | H</text>
</g>
<!-- 0&#45;&#45;9 -->
<g id="edge4" class="edge">
<title>0&#45;&#45;9</title>
<path fill="none" stroke="#000000" d="M235.7613,-78.2715C243.6642,-72.4627 252.7506,-65.784 260.6855,-59.9517"/>
<text text-anchor="middle" x="259.7234" y="-72.9116" font-family="Times,serif" font-size="14.00" fill="#000000">&#45; | &#45;</text>
</g>
<!-- 7 -->
<g id="node8" class="node">
<title>7</title>
<ellipse fill="none" stroke="#000000" cx="246.1606" cy="-238.6589" rx="35.194" ry="18"/>
<text text-anchor="middle" x="246.1606" y="-234.9589" font-family="Times,serif" font-size="14.00" fill="#000000">H | H</text>
</g>
<!-- 1&#45;&#45;7 -->
<g id="edge5" class="edge">
<title>1&#45;&#45;7</title>
<path fill="none" stroke="#000000" stroke-dasharray="1,5" d="M261.4943,-178.5415C258.2691,-191.1864 253.9856,-207.9804 250.7659,-220.6037"/>
<text text-anchor="middle" x="253.6301" y="-203.3726" font-family="Times,serif" font-size="14.00" fill="#000000">&#45;</text>
</g>
<!-- 3 -->
<g id="node4" class="node">
<title>3</title>
<ellipse fill="none" stroke="#000000" cx="170.3187" cy="-272.1066" rx="33.2948" ry="18"/>
<text text-anchor="middle" x="170.3187" y="-268.4066" font-family="Times,serif" font-size="14.00" fill="#000000">C | C</text>
</g>
<!-- 5 -->
<g id="node6" class="node">
<title>5</title>
<ellipse fill="none" stroke="#000000" cx="113.905" cy="-209.9078" rx="34.394" ry="18"/>
<text text-anchor="middle" x="113.905" y="-206.2078" font-family="Times,serif" font-size="14.00" fill="#000000">O | O</text>
</g>
<!-- 3&#45;&#45;5 -->
<g id="edge6" class="edge">
<title>3&#45;&#45;5</title>
<path fill="none" stroke="#000000" stroke-dasharray="1,5" d="M155.4967,-255.7646C147.2701,-246.6944 137.066,-235.4439 128.8239,-226.3566"/>
<text text-anchor="middle" x="139.6603" y="-229.8606" font-family="Times,serif" font-size="14.00" fill="#000000">&#45;</text>
</g>
<!-- 3&#45;&#45;7 -->
<g id="edge7" class="edge">
<title>3&#45;&#45;7</title>
<path fill="none" stroke="#000000" stroke-dasharray="5,2" d="M196.4192,-260.5958C203.8748,-257.3078 212.0078,-253.721 219.4966,-250.4183"/>
<text text-anchor="middle" x="209.2079" y="-244.307" font-family="Times,serif" font-size="14.00" fill="#000000">&#45;</text>
</g>
<!-- 8 -->
<g id="node9" class="node">
<title>8</title>
<ellipse fill="none" stroke="#000000" cx="165.7368" cy="-350.1441" rx="34.394" ry="18"/>
<text text-anchor="middle" x="165.7368" y="-346.4441" font-family="Times,serif" font-size="14.00" fill="#000000">O | O</text>
</g>
<!-- 3&#45;&#45;8 -->
<g id="edge8" class="edge">
<title>3&#45;&#45;8</title>
<path fill="none" stroke="#000000" d="M169.256,-290.2061C168.5158,-302.8133 167.5327,-319.5571 166.7937,-332.1428"/>
<text text-anchor="middle" x="149.0249" y="-314.9744" font-family="Times,serif" font-size="14.00" fill="#000000">= | =</text>
</g>
<!-- 4&#45;&#45;5 -->
<g id="edge9" class="edge">
<title>4&#45;&#45;5</title>
<path fill="none" stroke="#000000" stroke-dasharray="5,2" d="M136.1498,-150.4135C131.4709,-162.9274 125.2567,-179.5473 120.5859,-192.0397"/>
<text text-anchor="middle" x="125.8678" y="-175.0266" font-family="Times,serif" font-size="14.00" fill="#000000">&#45;</text>
</g>
<!-- 6 -->
<g id="node7" class="node">
<title>6</title>
<ellipse fill="none" stroke="#000000" cx="35.0969" cy="-217.5879" rx="35.194" ry="18"/>
<text text-anchor="middle" x="35.0969" y="-213.8879" font-family="Times,serif" font-size="14.00" fill="#000000">H | H</text>
</g>
<!-- 5&#45;&#45;6 -->
<g id="edge10" class="edge">
<title>5&#45;&#45;6</title>
<path fill="none" stroke="#000000" d="M80.0259,-213.2094C76.605,-213.5428 73.1275,-213.8817 69.6991,-214.2158"/>
<text text-anchor="middle" x="74.8625" y="-202.5126" font-family="Times,serif" font-size="14.00" fill="#000000">&#45; | &#45;</text>
</g>
</g>
</svg>
