<?xml version="1.0" encoding="UTF-8" standalone="no"?>
<!DOCTYPE svg PUBLIC "-//W3C//DTD SVG 1.1//EN"
 "http://www.w3.org/Graphics/SVG/1.1/DTD/svg11.dtd">
<!-- Generated by graphviz version 2.40.1 (20161225.0304)
 -->
<!-- Title: G Pages: 1 -->
<svg width="563pt" height="340pt"
 viewBox="0.00 0.00 563.09 339.97" xmlns="http://www.w3.org/2000/svg" xmlns:xlink="http://www.w3.org/1999/xlink">
<g id="graph0" class="graph" transform="scale(1 1) rotate(0) translate(4 335.9683)">
<title>G</title>
<polygon fill="#ffffff" stroke="transparent" points="-4,4 -4,-335.9683 559.0877,-335.9683 559.0877,4 -4,4"/>
<!-- 0 -->
<g id="node1" class="node">
<title>0</title>
<ellipse fill="none" stroke="#000000" cx="158.2755" cy="-147.2586" rx="33.2948" ry="18"/>
<text text-anchor="middle" x="158.2755" y="-143.5586" font-family="Times,serif" font-size="14.00" fill="#000000">C | C</text>
</g>
<!-- 1 -->
<g id="node2" class="node">
<title>1</title>
<ellipse fill="none" stroke="#000000" cx="96.072" cy="-92.2799" rx="34.394" ry="18"/>
<text text-anchor="middle" x="96.072" y="-88.5799" font-family="Times,serif" font-size="14.00" fill="#000000">O | O</text>
</g>
<!-- 0&#45;&#45;1 -->
<g id="edge1" class="edge">
<title>0&#45;&#45;1</title>
<path fill="none" stroke="#000000" d="M140.6169,-131.651C132.2839,-124.2858 122.3566,-115.5116 113.9908,-108.1175"/>
<text text-anchor="middle" x="115.8039" y="-123.6842" font-family="Times,serif" font-size="14.00" fill="#000000">&#45; | &#45;</text>
</g>
<!-- 3 -->
<g id="node4" class="node">
<title>3</title>
<ellipse fill="none" stroke="#000000" cx="99.4195" cy="-202.6069" rx="34.394" ry="18"/>
<text text-anchor="middle" x="99.4195" y="-198.9069" font-family="Times,serif" font-size="14.00" fill="#000000">O | O</text>
</g>
<!-- 0&#45;&#45;3 -->
<g id="edge2" class="edge">
<title>0&#45;&#45;3</title>
<path fill="none" stroke="#000000" d="M141.5672,-162.9712C133.6826,-170.3858 124.2896,-179.219 116.374,-186.6629"/>
<text text-anchor="middle" x="109.9706" y="-163.617" font-family="Times,serif" font-size="14.00" fill="#000000">= | =</text>
</g>
<!-- 4 -->
<g id="node5" class="node">
<title>4</title>
<ellipse fill="none" stroke="#000000" cx="245.6587" cy="-153.1205" rx="33.2948" ry="18"/>
<text text-anchor="middle" x="245.6587" y="-149.4205" font-family="Times,serif" font-size="14.00" fill="#000000">C | C</text>
</g>
<!-- 0&#45;&#45;4 -->
<g id="edge3" class="edge">
<title>0&#45;&#45;4</title>
<path fill="none" stroke="#000000" d="M191.3114,-149.4747C198.271,-149.9416 205.6148,-150.4343 212.5762,-150.9012"/>
<text text-anchor="middle" x="201.9438" y="-138.988" font-family="Times,serif" font-size="14.00" fill="#000000">&#45; | &#45;</text>
</g>
<!-- 2 -->
<g id="node3" class="node">
<title>2</title>
<ellipse fill="none" stroke="#000000" cx="35.0969" cy="-46.5604" rx="35.194" ry="18"/>
<text text-anchor="middle" x="35.0969" y="-42.8604" font-family="Times,serif" font-size="14.00" fill="#000000">H | H</text>
</g>
<!-- 1&#45;&#45;2 -->
<g id="edge4" class="edge">
<title>1&#45;&#45;2</title>
<path fill="none" stroke="#000000" d="M76.1065,-77.3096C69.4379,-72.3095 62.0038,-66.7353 55.316,-61.7208"/>
<text text-anchor="middle" x="54.2113" y="-73.3152" font-family="Times,serif" font-size="14.00" fill="#000000">&#45; | &#45;</text>
</g>
<!-- 5 -->
<g id="node6" class="node">
<title>5</title>
<ellipse fill="none" stroke="#000000" cx="262.1737" cy="-240.468" rx="34.394" ry="18"/>
<text text-anchor="middle" x="262.1737" y="-236.768" font-family="Times,serif" font-size="14.00" fill="#000000">O | O</text>
</g>
<!-- 4&#45;&#45;5 -->
<g id="edge5" class="edge">
<title>4&#45;&#45;5</title>
<path fill="none" stroke="#000000" stroke-dasharray="5,2" d="M249.0806,-171.219C251.915,-186.21 255.923,-207.4081 258.7562,-222.3927"/>
<text text-anchor="middle" x="247.4184" y="-200.6058" font-family="Times,serif" font-size="14.00" fill="#000000">=</text>
</g>
<!-- 6 -->
<g id="node7" class="node">
<title>6</title>
<ellipse fill="none" stroke="#000000" cx="225.1354" cy="-79.5468" rx="28.6953" ry="18"/>
<text text-anchor="middle" x="225.1354" y="-75.8468" font-family="Times,serif" font-size="14.00" fill="#000000">* | *</text>
</g>
<!-- 4&#45;&#45;6 -->
<g id="edge6" class="edge">
<title>4&#45;&#45;6</title>
<path fill="none" stroke="#000000" d="M240.6906,-135.3104C237.4875,-123.8278 233.3369,-108.9484 230.1289,-97.4479"/>
<text text-anchor="middle" x="223.9097" y="-120.1791" font-family="Times,serif" font-size="14.00" fill="#000000">&#45; | &#45;</text>
</g>
<!-- 9 -->
<g id="node10" class="node">
<title>9</title>
<ellipse fill="none" stroke="#000000" cx="317.1995" cy="-96.1058" rx="35.194" ry="18"/>
<text text-anchor="middle" x="317.1995" y="-92.4058" font-family="Times,serif" font-size="14.00" fill="#000000">N | N</text>
</g>
<!-- 4&#45;&#45;9 -->
<g id="edge7" class="edge">
<title>4&#45;&#45;9</title>
<path fill="none" stroke="#000000" stroke-dasharray="1,5" d="M264.4552,-138.1406C274.7222,-129.9583 287.4178,-119.8404 297.7805,-111.5818"/>
<text text-anchor="middle" x="278.6179" y="-113.6612" font-family="Times,serif" font-size="14.00" fill="#000000">&#45;</text>
</g>
<!-- 12 -->
<g id="node13" class="node">
<title>12</title>
<ellipse fill="none" stroke="#000000" cx="315.2787" cy="-156.4413" rx="35.194" ry="18"/>
<text text-anchor="middle" x="315.2787" y="-152.7413" font-family="Times,serif" font-size="14.00" fill="#000000">H | H</text>
</g>
<!-- 4&#45;&#45;12 -->
<g id="edge8" class="edge">
<title>4&#45;&#45;12</title>
<path fill="none" stroke="#000000" stroke-dasharray="1,5" d="M278.8375,-154.7031C279.2578,-154.7231 279.6784,-154.7432 280.099,-154.7633"/>
<text text-anchor="middle" x="280.7183" y="-143.5332" font-family="Times,serif" font-size="14.00" fill="#000000">&#45;</text>
</g>
<!-- 13 -->
<g id="node14" class="node">
<title>13</title>
<ellipse fill="none" stroke="#000000" cx="230.1914" cy="-313.9683" rx="42.7926" ry="18"/>
<text text-anchor="middle" x="230.1914" y="-310.2683" font-family="Times,serif" font-size="14.00" fill="#000000">H+ | H</text>
</g>
<!-- 5&#45;&#45;13 -->
<g id="edge9" class="edge">
<title>5&#45;&#45;13</title>
<path fill="none" stroke="#000000" stroke-dasharray="1,5" d="M254.4317,-258.2604C249.4403,-269.7315 242.9722,-284.5961 237.973,-296.085"/>
<text text-anchor="middle" x="243.7023" y="-280.9727" font-family="Times,serif" font-size="14.00" fill="#000000">&#45;</text>
</g>
<!-- 14 -->
<g id="node15" class="node">
<title>14</title>
<ellipse fill="none" stroke="#000000" cx="325.367" cy="-293.6323" rx="42.7926" ry="18"/>
<text text-anchor="middle" x="325.367" y="-289.9323" font-family="Times,serif" font-size="14.00" fill="#000000">H+ | H</text>
</g>
<!-- 5&#45;&#45;14 -->
<g id="edge10" class="edge">
<title>5&#45;&#45;14</title>
<path fill="none" stroke="#000000" stroke-dasharray="1,5" d="M280.4518,-255.8453C288.4713,-262.592 297.8917,-270.5175 306.0286,-277.363"/>
<text text-anchor="middle" x="295.7402" y="-255.4042" font-family="Times,serif" font-size="14.00" fill="#000000">&#45;</text>
</g>
<!-- 7 -->
<g id="node8" class="node">
<title>7</title>
<ellipse fill="none" stroke="#000000" cx="459.5438" cy="-174" rx="69.5877" ry="18"/>
<text text-anchor="middle" x="459.5438" y="-170.3" font-family="Times,serif" font-size="14.00" fill="#000000">Fe2+ | Fe3+</text>
</g>
<!-- 8 -->
<g id="node9" class="node">
<title>8</title>
<ellipse fill="none" stroke="#000000" cx="485.5438" cy="-18" rx="69.5877" ry="18"/>
<text text-anchor="middle" x="485.5438" y="-14.3" font-family="Times,serif" font-size="14.00" fill="#000000">Fe2+ | Fe3+</text>
</g>
<!-- 10 -->
<g id="node11" class="node">
<title>10</title>
<ellipse fill="none" stroke="#000000" cx="335.2673" cy="-18" rx="35.194" ry="18"/>
<text text-anchor="middle" x="335.2673" y="-14.3" font-family="Times,serif" font-size="14.00" fill="#000000">H | H</text>
</g>
<!-- 9&#45;&#45;10 -->
<g id="edge11" class="edge">
<title>9&#45;&#45;10</title>
<path fill="none" stroke="#000000" d="M321.39,-77.9904C324.3089,-65.3723 328.1856,-48.6137 331.0995,-36.0171"/>
<text text-anchor="middle" x="314.7448" y="-60.8038" font-family="Times,serif" font-size="14.00" fill="#000000">&#45; | &#45;</text>
</g>
<!-- 11 -->
<g id="node12" class="node">
<title>11</title>
<ellipse fill="none" stroke="#000000" cx="400.2161" cy="-95.0457" rx="35.194" ry="18"/>
<text text-anchor="middle" x="400.2161" y="-91.3457" font-family="Times,serif" font-size="14.00" fill="#000000">H | H</text>
</g>
<!-- 9&#45;&#45;11 -->
<g id="edge12" class="edge">
<title>9&#45;&#45;11</title>
<path fill="none" stroke="#000000" d="M352.406,-95.6562C356.56,-95.6032 360.8003,-95.549 364.955,-95.496"/>
<text text-anchor="middle" x="364.4305" y="-84.3761" font-family="Times,serif" font-size="14.00" fill="#000000">&#45; | &#45;</text>
</g>
<!-- 9&#45;&#45;12 -->
<g id="edge13" class="edge">
<title>9&#45;&#45;12</title>
<path fill="none" stroke="#000000" stroke-dasharray="5,2" d="M316.6232,-114.2084C316.3801,-121.8449 316.0977,-130.7163 315.8546,-138.3514"/>
<text text-anchor="middle" x="313.7389" y="-130.0799" font-family="Times,serif" font-size="14.00" fill="#000000">&#45;</text>
</g>
</g>
</svg>
