<?xml version="1.0" encoding="UTF-8" standalone="no"?>
<!DOCTYPE svg PUBLIC "-//W3C//DTD SVG 1.1//EN"
 "http://www.w3.org/Graphics/SVG/1.1/DTD/svg11.dtd">
<!-- Generated by graphviz version 2.40.1 (20161225.0304)
 -->
<!-- Title: G Pages: 1 -->
<svg width="423pt" height="300pt"
 viewBox="0.00 0.00 423.09 300.46" xmlns="http://www.w3.org/2000/svg" xmlns:xlink="http://www.w3.org/1999/xlink">
<g id="graph0" class="graph" transform="scale(1 1) rotate(0) translate(4 296.4566)">
<title>G</title>
<polygon fill="#ffffff" stroke="transparent" points="-4,4 -4,-296.4566 419.0877,-296.4566 419.0877,4 -4,4"/>
<!-- 0 -->
<g id="node1" class="node">
<title>0</title>
<ellipse fill="none" stroke="#000000" cx="265.2944" cy="-156.7643" rx="33.2948" ry="18"/>
<text text-anchor="middle" x="265.2944" y="-153.0643" font-family="Times,serif" font-size="14.00" fill="#000000">C | C</text>
</g>
<!-- 1 -->
<g id="node2" class="node">
<title>1</title>
<ellipse fill="none" stroke="#000000" cx="332.3536" cy="-201.7417" rx="34.394" ry="18"/>
<text text-anchor="middle" x="332.3536" y="-198.0417" font-family="Times,serif" font-size="14.00" fill="#000000">O | O</text>
</g>
<!-- 0&#45;&#45;1 -->
<g id="edge1" class="edge">
<title>0&#45;&#45;1</title>
<path fill="none" stroke="#000000" d="M286.5123,-170.9954C294.3401,-176.2457 303.2075,-182.1931 311.0435,-187.4488"/>
<text text-anchor="middle" x="317.7779" y="-168.0221" font-family="Times,serif" font-size="14.00" fill="#000000">= | =</text>
</g>
<!-- 2 -->
<g id="node3" class="node">
<title>2</title>
<ellipse fill="none" stroke="#000000" cx="291.4403" cy="-82.079" rx="34.394" ry="18"/>
<text text-anchor="middle" x="291.4403" y="-78.379" font-family="Times,serif" font-size="14.00" fill="#000000">O | O</text>
</g>
<!-- 0&#45;&#45;2 -->
<g id="edge2" class="edge">
<title>0&#45;&#45;2</title>
<path fill="none" stroke="#000000" d="M271.4906,-139.0649C275.6282,-127.2458 281.0507,-111.7565 285.1979,-99.9101"/>
<text text-anchor="middle" x="266.8442" y="-123.2875" font-family="Times,serif" font-size="14.00" fill="#000000">&#45; | &#45;</text>
</g>
<!-- 3 -->
<g id="node4" class="node">
<title>3</title>
<ellipse fill="none" stroke="#000000" cx="192.1341" cy="-193.7749" rx="33.2948" ry="18"/>
<text text-anchor="middle" x="192.1341" y="-190.0749" font-family="Times,serif" font-size="14.00" fill="#000000">C | C</text>
</g>
<!-- 0&#45;&#45;3 -->
<g id="edge3" class="edge">
<title>0&#45;&#45;3</title>
<path fill="none" stroke="#000000" d="M240.9331,-169.0883C233.0353,-173.0837 224.279,-177.5133 216.389,-181.5047"/>
<text text-anchor="middle" x="217.1611" y="-164.0965" font-family="Times,serif" font-size="14.00" fill="#000000">&#45; | &#45;</text>
</g>
<!-- 8 -->
<g id="node9" class="node">
<title>8</title>
<ellipse fill="none" stroke="#000000" cx="329.6068" cy="-18" rx="35.194" ry="18"/>
<text text-anchor="middle" x="329.6068" y="-14.3" font-family="Times,serif" font-size="14.00" fill="#000000">H | H</text>
</g>
<!-- 2&#45;&#45;8 -->
<g id="edge4" class="edge">
<title>2&#45;&#45;8</title>
<path fill="none" stroke="#000000" d="M301.8694,-64.5691C307.2548,-55.5275 313.8067,-44.5273 319.1903,-35.4887"/>
<text text-anchor="middle" x="299.0298" y="-38.8289" font-family="Times,serif" font-size="14.00" fill="#000000">&#45; | &#45;</text>
</g>
<!-- 4 -->
<g id="node5" class="node">
<title>4</title>
<ellipse fill="none" stroke="#000000" cx="116.5014" cy="-170.7109" rx="34.394" ry="18"/>
<text text-anchor="middle" x="116.5014" y="-167.0109" font-family="Times,serif" font-size="14.00" fill="#000000">O | O</text>
</g>
<!-- 3&#45;&#45;4 -->
<g id="edge5" class="edge">
<title>3&#45;&#45;4</title>
<path fill="none" stroke="#000000" d="M163.1088,-184.9237C157.61,-183.2469 151.8486,-181.49 146.3256,-179.8057"/>
<text text-anchor="middle" x="139.2172" y="-186.1647" font-family="Times,serif" font-size="14.00" fill="#000000">= | &#45;</text>
</g>
<!-- 5 -->
<g id="node6" class="node">
<title>5</title>
<ellipse fill="none" stroke="#000000" cx="188.4156" cy="-274.4566" rx="28.6953" ry="18"/>
<text text-anchor="middle" x="188.4156" y="-270.7566" font-family="Times,serif" font-size="14.00" fill="#000000">* | *</text>
</g>
<!-- 3&#45;&#45;5 -->
<g id="edge6" class="edge">
<title>3&#45;&#45;5</title>
<path fill="none" stroke="#000000" d="M191.2903,-212.0828C190.6818,-225.2869 189.8638,-243.0337 189.256,-256.2211"/>
<text text-anchor="middle" x="178.7732" y="-237.952" font-family="Times,serif" font-size="14.00" fill="#000000">&#45; | &#45;</text>
</g>
<!-- 6 -->
<g id="node7" class="node">
<title>6</title>
<ellipse fill="none" stroke="#000000" cx="42.8962" cy="-159.0153" rx="42.7926" ry="18"/>
<text text-anchor="middle" x="42.8962" y="-155.3153" font-family="Times,serif" font-size="14.00" fill="#000000">H+ | H</text>
</g>
<!-- 4&#45;&#45;6 -->
<g id="edge7" class="edge">
<title>4&#45;&#45;6</title>
<path fill="none" stroke="#000000" stroke-dasharray="1,5" d="M83.1445,-165.4106C82.9924,-165.3864 82.8402,-165.3623 82.6879,-165.3381"/>
<text text-anchor="middle" x="80.4162" y="-169.1743" font-family="Times,serif" font-size="14.00" fill="#000000">&#45;</text>
</g>
<!-- 7 -->
<g id="node8" class="node">
<title>7</title>
<ellipse fill="none" stroke="#000000" cx="345.5438" cy="-271" rx="69.5877" ry="18"/>
<text text-anchor="middle" x="345.5438" y="-267.3" font-family="Times,serif" font-size="14.00" fill="#000000">Fe2+ | Fe3+</text>
</g>
<!-- 9 -->
<g id="node10" class="node">
<title>9</title>
<ellipse fill="none" stroke="#000000" cx="138.5438" cy="-87" rx="69.5877" ry="18"/>
<text text-anchor="middle" x="138.5438" y="-83.3" font-family="Times,serif" font-size="14.00" fill="#000000">Fe2+ | Fe3+</text>
</g>
</g>
</svg>
