<?xml version="1.0" encoding="UTF-8" standalone="no"?>
<!DOCTYPE svg PUBLIC "-//W3C//DTD SVG 1.1//EN"
 "http://www.w3.org/Graphics/SVG/1.1/DTD/svg11.dtd">
<!-- Generated by graphviz version 2.40.1 (20161225.0304)
 -->
<!-- Title: G Pages: 1 -->
<svg width="407pt" height="343pt"
 viewBox="0.00 0.00 407.09 342.95" xmlns="http://www.w3.org/2000/svg" xmlns:xlink="http://www.w3.org/1999/xlink">
<g id="graph0" class="graph" transform="scale(1 1) rotate(0) translate(4 338.9498)">
<title>G</title>
<polygon fill="#ffffff" stroke="transparent" points="-4,4 -4,-338.9498 403.0877,-338.9498 403.0877,4 -4,4"/>
<!-- 0 -->
<g id="node1" class="node">
<title>0</title>
<ellipse fill="none" stroke="#000000" cx="123.022" cy="-80.9557" rx="33.2948" ry="18"/>
<text text-anchor="middle" x="123.022" y="-77.2557" font-family="Times,serif" font-size="14.00" fill="#000000">C | C</text>
</g>
<!-- 1 -->
<g id="node2" class="node">
<title>1</title>
<ellipse fill="none" stroke="#000000" cx="189.1958" cy="-36.0336" rx="34.394" ry="18"/>
<text text-anchor="middle" x="189.1958" y="-32.3336" font-family="Times,serif" font-size="14.00" fill="#000000">O | O</text>
</g>
<!-- 0&#45;&#45;1 -->
<g id="edge1" class="edge">
<title>0&#45;&#45;1</title>
<path fill="none" stroke="#000000" d="M143.9598,-66.7421C151.6843,-61.4983 160.4346,-55.5581 168.1671,-50.3089"/>
<text text-anchor="middle" x="175.0635" y="-62.3255" font-family="Times,serif" font-size="14.00" fill="#000000">= | =</text>
</g>
<!-- 2 -->
<g id="node3" class="node">
<title>2</title>
<ellipse fill="none" stroke="#000000" cx="74.1021" cy="-18" rx="35.194" ry="18"/>
<text text-anchor="middle" x="74.1021" y="-14.3" font-family="Times,serif" font-size="14.00" fill="#000000">H | H</text>
</g>
<!-- 0&#45;&#45;2 -->
<g id="edge2" class="edge">
<title>0&#45;&#45;2</title>
<path fill="none" stroke="#000000" d="M109.9124,-64.0847C102.8935,-55.052 94.2724,-43.9574 87.2479,-34.9175"/>
<text text-anchor="middle" x="110.0802" y="-38.3011" font-family="Times,serif" font-size="14.00" fill="#000000">&#45; | &#45;</text>
</g>
<!-- 3 -->
<g id="node4" class="node">
<title>3</title>
<ellipse fill="none" stroke="#000000" cx="110.8341" cy="-163.07" rx="33.2948" ry="18"/>
<text text-anchor="middle" x="110.8341" y="-159.37" font-family="Times,serif" font-size="14.00" fill="#000000">C | C</text>
</g>
<!-- 0&#45;&#45;3 -->
<g id="edge3" class="edge">
<title>0&#45;&#45;3</title>
<path fill="none" stroke="#000000" d="M120.3171,-99.1795C118.2974,-112.7873 115.5494,-131.3016 113.5315,-144.8971"/>
<text text-anchor="middle" x="105.4243" y="-125.8383" font-family="Times,serif" font-size="14.00" fill="#000000">&#45; | &#45;</text>
</g>
<!-- 4 -->
<g id="node5" class="node">
<title>4</title>
<ellipse fill="none" stroke="#000000" cx="100.5887" cy="-242.5402" rx="34.394" ry="18"/>
<text text-anchor="middle" x="100.5887" y="-238.8402" font-family="Times,serif" font-size="14.00" fill="#000000">O | O</text>
</g>
<!-- 3&#45;&#45;4 -->
<g id="edge4" class="edge">
<title>3&#45;&#45;4</title>
<path fill="none" stroke="#000000" d="M108.5093,-181.103C106.8325,-194.1088 104.579,-211.5892 102.9043,-224.5785"/>
<text text-anchor="middle" x="90.2068" y="-206.6408" font-family="Times,serif" font-size="14.00" fill="#000000">&#45; | =</text>
</g>
<!-- 6 -->
<g id="node7" class="node">
<title>6</title>
<ellipse fill="none" stroke="#000000" cx="28.5975" cy="-161.9948" rx="28.6953" ry="18"/>
<text text-anchor="middle" x="28.5975" y="-158.2948" font-family="Times,serif" font-size="14.00" fill="#000000">* | *</text>
</g>
<!-- 3&#45;&#45;6 -->
<g id="edge5" class="edge">
<title>3&#45;&#45;6</title>
<path fill="none" stroke="#000000" d="M77.3853,-162.6327C70.7151,-162.5455 63.7657,-162.4546 57.2733,-162.3697"/>
<text text-anchor="middle" x="67.3293" y="-151.3012" font-family="Times,serif" font-size="14.00" fill="#000000">&#45; | &#45;</text>
</g>
<!-- 8 -->
<g id="node9" class="node">
<title>8</title>
<ellipse fill="none" stroke="#000000" cx="190.3467" cy="-184.5013" rx="42.7926" ry="18"/>
<text text-anchor="middle" x="190.3467" y="-180.8013" font-family="Times,serif" font-size="14.00" fill="#000000">H | H+</text>
</g>
<!-- 3&#45;&#45;8 -->
<g id="edge6" class="edge">
<title>3&#45;&#45;8</title>
<path fill="none" stroke="#000000" stroke-dasharray="5,2" d="M140.8944,-171.1723C145.2042,-172.3339 149.676,-173.5392 154.0897,-174.7288"/>
<text text-anchor="middle" x="146.2421" y="-161.7505" font-family="Times,serif" font-size="14.00" fill="#000000">&#45;</text>
</g>
<!-- 5 -->
<g id="node6" class="node">
<title>5</title>
<ellipse fill="none" stroke="#000000" cx="90.6866" cy="-316.9498" rx="42.7926" ry="18"/>
<text text-anchor="middle" x="90.6866" y="-313.2498" font-family="Times,serif" font-size="14.00" fill="#000000">H | H+</text>
</g>
<!-- 4&#45;&#45;5 -->
<g id="edge7" class="edge">
<title>4&#45;&#45;5</title>
<path fill="none" stroke="#000000" stroke-dasharray="5,2" d="M98.1917,-260.5527C96.6462,-272.1657 94.6437,-287.2141 93.0958,-298.8452"/>
<text text-anchor="middle" x="93.1437" y="-283.4989" font-family="Times,serif" font-size="14.00" fill="#000000">&#45;</text>
</g>
<!-- 7 -->
<g id="node8" class="node">
<title>7</title>
<ellipse fill="none" stroke="#000000" cx="249.5438" cy="-258" rx="69.5877" ry="18"/>
<text text-anchor="middle" x="249.5438" y="-254.3" font-family="Times,serif" font-size="14.00" fill="#000000">Fe3+ | Fe2+</text>
</g>
<!-- 9 -->
<g id="node10" class="node">
<title>9</title>
<ellipse fill="none" stroke="#000000" cx="329.5438" cy="-58" rx="69.5877" ry="18"/>
<text text-anchor="middle" x="329.5438" y="-54.3" font-family="Times,serif" font-size="14.00" fill="#000000">Fe3+ | Fe2+</text>
</g>
</g>
</svg>
