<?xml version="1.0" encoding="UTF-8" standalone="no"?>
<!DOCTYPE svg PUBLIC "-//W3C//DTD SVG 1.1//EN"
 "http://www.w3.org/Graphics/SVG/1.1/DTD/svg11.dtd">
<!-- Generated by graphviz version 2.40.1 (20161225.0304)
 -->
<!-- Title: G Pages: 1 -->
<svg width="411pt" height="417pt"
 viewBox="0.00 0.00 411.09 416.77" xmlns="http://www.w3.org/2000/svg" xmlns:xlink="http://www.w3.org/1999/xlink">
<g id="graph0" class="graph" transform="scale(1 1) rotate(0) translate(4 412.7711)">
<title>G</title>
<polygon fill="#ffffff" stroke="transparent" points="-4,4 -4,-412.7711 407.0877,-412.7711 407.0877,4 -4,4"/>
<!-- 0 -->
<g id="node1" class="node">
<title>0</title>
<ellipse fill="none" stroke="#000000" cx="138.7441" cy="-163.178" rx="33.2948" ry="18"/>
<text text-anchor="middle" x="138.7441" y="-159.478" font-family="Times,serif" font-size="14.00" fill="#000000">C | C</text>
</g>
<!-- 1 -->
<g id="node2" class="node">
<title>1</title>
<ellipse fill="none" stroke="#000000" cx="217.6514" cy="-142.3222" rx="34.394" ry="18"/>
<text text-anchor="middle" x="217.6514" y="-138.6222" font-family="Times,serif" font-size="14.00" fill="#000000">O | O</text>
</g>
<!-- 0&#45;&#45;1 -->
<g id="edge1" class="edge">
<title>0&#45;&#45;1</title>
<path fill="none" stroke="#000000" d="M168.5756,-155.2933C174.511,-153.7245 180.7559,-152.074 186.727,-150.4957"/>
<text text-anchor="middle" x="168.1513" y="-141.6945" font-family="Times,serif" font-size="14.00" fill="#000000">= | =</text>
</g>
<!-- 2 -->
<g id="node3" class="node">
<title>2</title>
<ellipse fill="none" stroke="#000000" cx="105.192" cy="-90.6954" rx="34.394" ry="18"/>
<text text-anchor="middle" x="105.192" y="-86.9954" font-family="Times,serif" font-size="14.00" fill="#000000">O | O</text>
</g>
<!-- 0&#45;&#45;2 -->
<g id="edge2" class="edge">
<title>0&#45;&#45;2</title>
<path fill="none" stroke="#000000" d="M130.6221,-145.632C125.3857,-134.3197 118.6001,-119.661 113.3555,-108.3311"/>
<text text-anchor="middle" x="110.4888" y="-130.7815" font-family="Times,serif" font-size="14.00" fill="#000000">&#45; | &#45;</text>
</g>
<!-- 3 -->
<g id="node4" class="node">
<title>3</title>
<ellipse fill="none" stroke="#000000" cx="110.3559" cy="-241.9564" rx="33.2948" ry="18"/>
<text text-anchor="middle" x="110.3559" y="-238.2564" font-family="Times,serif" font-size="14.00" fill="#000000">C | C</text>
</g>
<!-- 0&#45;&#45;3 -->
<g id="edge3" class="edge">
<title>0&#45;&#45;3</title>
<path fill="none" stroke="#000000" d="M132.3024,-181.054C127.6565,-193.9466 121.4122,-211.2748 116.7721,-224.1511"/>
<text text-anchor="middle" x="113.0373" y="-206.4026" font-family="Times,serif" font-size="14.00" fill="#000000">&#45; | &#45;</text>
</g>
<!-- 10 -->
<g id="node11" class="node">
<title>10</title>
<ellipse fill="none" stroke="#000000" cx="87.5935" cy="-18" rx="35.194" ry="18"/>
<text text-anchor="middle" x="87.5935" y="-14.3" font-family="Times,serif" font-size="14.00" fill="#000000">H | H</text>
</g>
<!-- 2&#45;&#45;10 -->
<g id="edge4" class="edge">
<title>2&#45;&#45;10</title>
<path fill="none" stroke="#000000" d="M100.8418,-72.7257C98.1343,-61.5417 94.6642,-47.2074 91.9546,-36.0149"/>
<text text-anchor="middle" x="84.8982" y="-58.1703" font-family="Times,serif" font-size="14.00" fill="#000000">&#45; | &#45;</text>
</g>
<!-- 4 -->
<g id="node5" class="node">
<title>4</title>
<ellipse fill="none" stroke="#000000" cx="86.0068" cy="-318.4204" rx="34.394" ry="18"/>
<text text-anchor="middle" x="86.0068" y="-314.7204" font-family="Times,serif" font-size="14.00" fill="#000000">O | O</text>
</g>
<!-- 3&#45;&#45;4 -->
<g id="edge5" class="edge">
<title>3&#45;&#45;4</title>
<path fill="none" stroke="#000000" d="M104.5855,-260.0773C100.704,-272.2663 95.6085,-288.2678 91.7358,-300.4296"/>
<text text-anchor="middle" x="82.6606" y="-284.0534" font-family="Times,serif" font-size="14.00" fill="#000000">= | &#45;</text>
</g>
<!-- 6 -->
<g id="node7" class="node">
<title>6</title>
<ellipse fill="none" stroke="#000000" cx="28.5975" cy="-232.172" rx="28.6953" ry="18"/>
<text text-anchor="middle" x="28.5975" y="-228.472" font-family="Times,serif" font-size="14.00" fill="#000000">* | *</text>
</g>
<!-- 3&#45;&#45;6 -->
<g id="edge6" class="edge">
<title>3&#45;&#45;6</title>
<path fill="none" stroke="#000000" d="M77.5727,-238.0331C70.7312,-237.2143 63.5745,-236.3579 56.9112,-235.5604"/>
<text text-anchor="middle" x="67.2419" y="-225.5968" font-family="Times,serif" font-size="14.00" fill="#000000">&#45; | &#45;</text>
</g>
<!-- 8 -->
<g id="node9" class="node">
<title>8</title>
<ellipse fill="none" stroke="#000000" cx="183.6692" cy="-280.1253" rx="42.7926" ry="18"/>
<text text-anchor="middle" x="183.6692" y="-276.4253" font-family="Times,serif" font-size="14.00" fill="#000000">H+ | H</text>
</g>
<!-- 3&#45;&#45;8 -->
<g id="edge7" class="edge">
<title>3&#45;&#45;8</title>
<path fill="none" stroke="#000000" stroke-dasharray="1,5" d="M134.3614,-254.4543C141.4606,-258.1503 149.2814,-262.2221 156.562,-266.0125"/>
<text text-anchor="middle" x="147.9617" y="-249.0334" font-family="Times,serif" font-size="14.00" fill="#000000">&#45;</text>
</g>
<!-- 5 -->
<g id="node6" class="node">
<title>5</title>
<ellipse fill="none" stroke="#000000" cx="65.3336" cy="-390.7711" rx="42.7926" ry="18"/>
<text text-anchor="middle" x="65.3336" y="-387.0711" font-family="Times,serif" font-size="14.00" fill="#000000">H+ | H</text>
</g>
<!-- 4&#45;&#45;5 -->
<g id="edge8" class="edge">
<title>4&#45;&#45;5</title>
<path fill="none" stroke="#000000" stroke-dasharray="1,5" d="M80.8966,-336.3049C77.716,-347.4359 73.6397,-361.7022 70.4567,-372.8416"/>
<text text-anchor="middle" x="73.1766" y="-358.3732" font-family="Times,serif" font-size="14.00" fill="#000000">&#45;</text>
</g>
<!-- 7 -->
<g id="node8" class="node">
<title>7</title>
<ellipse fill="none" stroke="#000000" cx="311.5438" cy="-348" rx="69.5877" ry="18"/>
<text text-anchor="middle" x="311.5438" y="-344.3" font-family="Times,serif" font-size="14.00" fill="#000000">Fe2+ | Fe3+</text>
</g>
<!-- 9 -->
<g id="node10" class="node">
<title>9</title>
<ellipse fill="none" stroke="#000000" cx="333.5438" cy="-216" rx="69.5877" ry="18"/>
<text text-anchor="middle" x="333.5438" y="-212.3" font-family="Times,serif" font-size="14.00" fill="#000000">Fe2+ | Fe3+</text>
</g>
</g>
</svg>
