<?xml version="1.0" encoding="UTF-8" standalone="no"?>
<!DOCTYPE svg PUBLIC "-//W3C//DTD SVG 1.1//EN"
 "http://www.w3.org/Graphics/SVG/1.1/DTD/svg11.dtd">
<!-- Generated by graphviz version 2.40.1 (20161225.0304)
 -->
<!-- Title: G Pages: 1 -->
<svg width="265pt" height="291pt"
 viewBox="0.00 0.00 265.28 290.84" xmlns="http://www.w3.org/2000/svg" xmlns:xlink="http://www.w3.org/1999/xlink">
<g id="graph0" class="graph" transform="scale(1 1) rotate(0) translate(4 286.841)">
<title>G</title>
<polygon fill="#ffffff" stroke="transparent" points="-4,4 -4,-286.841 261.2844,-286.841 261.2844,4 -4,4"/>
<!-- 0 -->
<g id="node1" class="node">
<title>0</title>
<ellipse fill="none" stroke="#000000" cx="34.4469" cy="-65.3443" rx="34.394" ry="18"/>
<text text-anchor="middle" x="34.4469" y="-61.6443" font-family="Times,serif" font-size="14.00" fill="#000000">O | O</text>
</g>
<!-- 1 -->
<g id="node2" class="node">
<title>1</title>
<ellipse fill="none" stroke="#000000" cx="99.5512" cy="-109.7331" rx="33.2948" ry="18"/>
<text text-anchor="middle" x="99.5512" y="-106.0331" font-family="Times,serif" font-size="14.00" fill="#000000">C | C</text>
</g>
<!-- 0&#45;&#45;1 -->
<g id="edge1" class="edge">
<title>0&#45;&#45;1</title>
<path fill="none" stroke="#000000" d="M55.4047,-79.6335C62.8391,-84.7023 71.2016,-90.404 78.6327,-95.4706"/>
<text text-anchor="middle" x="48.0187" y="-91.352" font-family="Times,serif" font-size="14.00" fill="#000000">= | =</text>
</g>
<!-- 2 -->
<g id="node3" class="node">
<title>2</title>
<ellipse fill="none" stroke="#000000" cx="173.9843" cy="-77.235" rx="35.194" ry="18"/>
<text text-anchor="middle" x="173.9843" y="-73.535" font-family="Times,serif" font-size="14.00" fill="#000000">N | N</text>
</g>
<!-- 1&#45;&#45;2 -->
<g id="edge2" class="edge">
<title>1&#45;&#45;2</title>
<path fill="none" stroke="#000000" d="M125.5843,-98.3668C132.5434,-95.3284 140.0777,-92.0389 147.0827,-88.9805"/>
<text text-anchor="middle" x="120.8335" y="-82.4737" font-family="Times,serif" font-size="14.00" fill="#000000">= | &#45;</text>
</g>
<!-- 6 -->
<g id="node7" class="node">
<title>6</title>
<ellipse fill="none" stroke="#000000" cx="116.7523" cy="-191.4288" rx="35.194" ry="18"/>
<text text-anchor="middle" x="116.7523" y="-187.7288" font-family="Times,serif" font-size="14.00" fill="#000000">N | N</text>
</g>
<!-- 1&#45;&#45;6 -->
<g id="edge3" class="edge">
<title>1&#45;&#45;6</title>
<path fill="none" stroke="#000000" stroke-dasharray="1,5" d="M103.3686,-127.864C106.2192,-141.4024 110.0975,-159.8224 112.9454,-173.3485"/>
<text text-anchor="middle" x="105.657" y="-154.4063" font-family="Times,serif" font-size="14.00" fill="#000000">&#45;</text>
</g>
<!-- 3 -->
<g id="node4" class="node">
<title>3</title>
<ellipse fill="none" stroke="#000000" cx="222.1876" cy="-18" rx="35.194" ry="18"/>
<text text-anchor="middle" x="222.1876" y="-14.3" font-family="Times,serif" font-size="14.00" fill="#000000">H | H</text>
</g>
<!-- 2&#45;&#45;3 -->
<g id="edge4" class="edge">
<title>2&#45;&#45;3</title>
<path fill="none" stroke="#000000" d="M187.6685,-60.4191C194.2373,-52.3469 202.0845,-42.7038 208.636,-34.653"/>
<text text-anchor="middle" x="209.6523" y="-51.336" font-family="Times,serif" font-size="14.00" fill="#000000">&#45; | &#45;</text>
</g>
<!-- 7 -->
<g id="node8" class="node">
<title>7</title>
<ellipse fill="none" stroke="#000000" cx="190.7649" cy="-155.3554" rx="35.194" ry="18"/>
<text text-anchor="middle" x="190.7649" y="-151.6554" font-family="Times,serif" font-size="14.00" fill="#000000">H | H</text>
</g>
<!-- 2&#45;&#45;7 -->
<g id="edge5" class="edge">
<title>2&#45;&#45;7</title>
<path fill="none" stroke="#000000" stroke-dasharray="1,5" d="M177.8763,-95.3538C180.5872,-107.9743 184.1877,-124.736 186.894,-137.335"/>
<text text-anchor="middle" x="179.8852" y="-120.1444" font-family="Times,serif" font-size="14.00" fill="#000000">&#45;</text>
</g>
<!-- 4 -->
<g id="node5" class="node">
<title>4</title>
<ellipse fill="none" stroke="#000000" cx="150.2875" cy="-264.841" rx="35.194" ry="18"/>
<text text-anchor="middle" x="150.2875" y="-261.141" font-family="Times,serif" font-size="14.00" fill="#000000">H | H</text>
</g>
<!-- 4&#45;&#45;6 -->
<g id="edge6" class="edge">
<title>4&#45;&#45;6</title>
<path fill="none" stroke="#000000" d="M142.1696,-247.07C136.897,-235.5277 130.0531,-220.5457 124.7954,-209.0362"/>
<text text-anchor="middle" x="121.9825" y="-231.8531" font-family="Times,serif" font-size="14.00" fill="#000000">&#45; | &#45;</text>
</g>
<!-- 5 -->
<g id="node6" class="node">
<title>5</title>
<ellipse fill="none" stroke="#000000" cx="48.8058" cy="-234.112" rx="35.194" ry="18"/>
<text text-anchor="middle" x="48.8058" y="-230.412" font-family="Times,serif" font-size="14.00" fill="#000000">H | H</text>
</g>
<!-- 5&#45;&#45;6 -->
<g id="edge7" class="edge">
<title>5&#45;&#45;6</title>
<path fill="none" stroke="#000000" d="M71.054,-220.1359C78.485,-215.4679 86.7691,-210.2639 94.2215,-205.5824"/>
<text text-anchor="middle" x="94.1377" y="-216.6592" font-family="Times,serif" font-size="14.00" fill="#000000">&#45; | &#45;</text>
</g>
<!-- 6&#45;&#45;7 -->
<g id="edge8" class="edge">
<title>6&#45;&#45;7</title>
<path fill="none" stroke="#000000" stroke-dasharray="5,2" d="M142.2232,-179.0144C149.5826,-175.4275 157.6183,-171.5109 164.9958,-167.9152"/>
<text text-anchor="middle" x="151.1095" y="-162.2648" font-family="Times,serif" font-size="14.00" fill="#000000">&#45;</text>
</g>
</g>
</svg>
