<?xml version="1.0" encoding="UTF-8" standalone="no"?>
<!DOCTYPE svg PUBLIC "-//W3C//DTD SVG 1.1//EN"
 "http://www.w3.org/Graphics/SVG/1.1/DTD/svg11.dtd">
<!-- Generated by graphviz version 2.40.1 (20161225.0304)
 -->
<!-- Title: G Pages: 1 -->
<svg width="277pt" height="326pt"
 viewBox="0.00 0.00 276.62 325.75" xmlns="http://www.w3.org/2000/svg" xmlns:xlink="http://www.w3.org/1999/xlink">
<g id="graph0" class="graph" transform="scale(1 1) rotate(0) translate(4 321.7483)">
<title>G</title>
<polygon fill="#ffffff" stroke="transparent" points="-4,4 -4,-321.7483 272.619,-321.7483 272.619,4 -4,4"/>
<!-- 0 -->
<g id="node1" class="node">
<title>0</title>
<ellipse fill="none" stroke="#000000" cx="136.0897" cy="-142.1515" rx="33.2948" ry="18"/>
<text text-anchor="middle" x="136.0897" y="-138.4515" font-family="Times,serif" font-size="14.00" fill="#000000">C | C</text>
</g>
<!-- 1 -->
<g id="node2" class="node">
<title>1</title>
<ellipse fill="none" stroke="#000000" cx="212.7217" cy="-172.7861" rx="28.6953" ry="18"/>
<text text-anchor="middle" x="212.7217" y="-169.0861" font-family="Times,serif" font-size="14.00" fill="#000000">* | *</text>
</g>
<!-- 0&#45;&#45;1 -->
<g id="edge1" class="edge">
<title>0&#45;&#45;1</title>
<path fill="none" stroke="#000000" d="M162.8919,-152.866C171.1788,-156.1788 180.2579,-159.8083 188.3696,-163.051"/>
<text text-anchor="middle" x="181.3807" y="-146.7585" font-family="Times,serif" font-size="14.00" fill="#000000">&#45; | &#45;</text>
</g>
<!-- 2 -->
<g id="node3" class="node">
<title>2</title>
<ellipse fill="none" stroke="#000000" cx="89.5485" cy="-72.7915" rx="35.194" ry="18"/>
<text text-anchor="middle" x="89.5485" y="-69.0915" font-family="Times,serif" font-size="14.00" fill="#000000">H | H</text>
</g>
<!-- 0&#45;&#45;2 -->
<g id="edge2" class="edge">
<title>0&#45;&#45;2</title>
<path fill="none" stroke="#000000" d="M124.5851,-125.0063C117.4787,-114.4156 108.3856,-100.8643 101.244,-90.2212"/>
<text text-anchor="middle" x="101.4146" y="-111.4138" font-family="Times,serif" font-size="14.00" fill="#000000">&#45; | &#45;</text>
</g>
<!-- 3 -->
<g id="node4" class="node">
<title>3</title>
<ellipse fill="none" stroke="#000000" cx="115.4388" cy="-224.4347" rx="33.2948" ry="18"/>
<text text-anchor="middle" x="115.4388" y="-220.7347" font-family="Times,serif" font-size="14.00" fill="#000000">C | C</text>
</g>
<!-- 0&#45;&#45;3 -->
<g id="edge3" class="edge">
<title>0&#45;&#45;3</title>
<path fill="none" stroke="#000000" stroke-dasharray="5,2" d="M131.6088,-160.0057C128.1686,-173.7128 123.4379,-192.5622 119.9823,-206.3311"/>
<text text-anchor="middle" x="123.2955" y="-186.9684" font-family="Times,serif" font-size="14.00" fill="#000000">&#45;</text>
</g>
<!-- 6 -->
<g id="node7" class="node">
<title>6</title>
<ellipse fill="none" stroke="#000000" cx="54.122" cy="-154.8383" rx="35.194" ry="18"/>
<text text-anchor="middle" x="54.122" y="-151.1383" font-family="Times,serif" font-size="14.00" fill="#000000">H | H</text>
</g>
<!-- 0&#45;&#45;6 -->
<g id="edge4" class="edge">
<title>0&#45;&#45;6</title>
<path fill="none" stroke="#000000" stroke-dasharray="1,5" d="M104.1641,-147.0929C98.8599,-147.9139 93.3425,-148.7678 87.992,-149.596"/>
<text text-anchor="middle" x="93.5781" y="-152.1444" font-family="Times,serif" font-size="14.00" fill="#000000">&#45;</text>
</g>
<!-- 7 -->
<g id="node8" class="node">
<title>7</title>
<ellipse fill="none" stroke="#000000" cx="189.0353" cy="-79.7091" rx="35.194" ry="18"/>
<text text-anchor="middle" x="189.0353" y="-76.0091" font-family="Times,serif" font-size="14.00" fill="#000000">N | N</text>
</g>
<!-- 0&#45;&#45;7 -->
<g id="edge5" class="edge">
<title>0&#45;&#45;7</title>
<path fill="none" stroke="#000000" d="M150.0006,-125.7455C157.7214,-116.6398 167.2982,-105.3452 175.0336,-96.2224"/>
<text text-anchor="middle" x="174.0171" y="-114.7839" font-family="Times,serif" font-size="14.00" fill="#000000">&#45; | &#45;</text>
</g>
<!-- 4 -->
<g id="node5" class="node">
<title>4</title>
<ellipse fill="none" stroke="#000000" cx="140.1205" cy="-299.7483" rx="34.394" ry="18"/>
<text text-anchor="middle" x="140.1205" y="-296.0483" font-family="Times,serif" font-size="14.00" fill="#000000">O | O</text>
</g>
<!-- 3&#45;&#45;4 -->
<g id="edge6" class="edge">
<title>3&#45;&#45;4</title>
<path fill="none" stroke="#000000" d="M121.288,-242.2829C125.194,-254.2015 130.3128,-269.8211 134.2278,-281.7671"/>
<text text-anchor="middle" x="108.7579" y="-265.825" font-family="Times,serif" font-size="14.00" fill="#000000">= | =</text>
</g>
<!-- 5 -->
<g id="node6" class="node">
<title>5</title>
<ellipse fill="none" stroke="#000000" cx="34.4469" cy="-229.2881" rx="34.394" ry="18"/>
<text text-anchor="middle" x="34.4469" y="-225.5881" font-family="Times,serif" font-size="14.00" fill="#000000">O | O</text>
</g>
<!-- 3&#45;&#45;5 -->
<g id="edge7" class="edge">
<title>3&#45;&#45;5</title>
<path fill="none" stroke="#000000" d="M82.0287,-226.4367C77.6712,-226.6979 73.2008,-226.9658 68.8278,-227.2278"/>
<text text-anchor="middle" x="75.4282" y="-215.6323" font-family="Times,serif" font-size="14.00" fill="#000000">&#45; | =</text>
</g>
<!-- 5&#45;&#45;6 -->
<g id="edge8" class="edge">
<title>5&#45;&#45;6</title>
<path fill="none" stroke="#000000" stroke-dasharray="5,2" d="M39.2097,-211.2659C42.3031,-199.5605 46.3184,-184.3667 49.4031,-172.6946"/>
<text text-anchor="middle" x="41.8064" y="-195.7802" font-family="Times,serif" font-size="14.00" fill="#000000">&#45;</text>
</g>
<!-- 8 -->
<g id="node9" class="node">
<title>8</title>
<ellipse fill="none" stroke="#000000" cx="233.5221" cy="-18" rx="35.194" ry="18"/>
<text text-anchor="middle" x="233.5221" y="-14.3" font-family="Times,serif" font-size="14.00" fill="#000000">H | H</text>
</g>
<!-- 7&#45;&#45;8 -->
<g id="edge9" class="edge">
<title>7&#45;&#45;8</title>
<path fill="none" stroke="#000000" d="M201.4274,-62.5197C207.5976,-53.9607 215.0353,-43.6436 221.1965,-35.0973"/>
<text text-anchor="middle" x="222.8119" y="-52.6085" font-family="Times,serif" font-size="14.00" fill="#000000">&#45; | &#45;</text>
</g>
</g>
</svg>
