<?xml version="1.0" encoding="UTF-8" standalone="no"?>
<!DOCTYPE svg PUBLIC "-//W3C//DTD SVG 1.1//EN"
 "http://www.w3.org/Graphics/SVG/1.1/DTD/svg11.dtd">
<!-- Generated by graphviz version 2.40.1 (20161225.0304)
 -->
<!-- Title: G Pages: 1 -->
<svg width="297pt" height="334pt"
 viewBox="0.00 0.00 297.04 333.67" xmlns="http://www.w3.org/2000/svg" xmlns:xlink="http://www.w3.org/1999/xlink">
<g id="graph0" class="graph" transform="scale(1 1) rotate(0) translate(4 329.6744)">
<title>G</title>
<polygon fill="#ffffff" stroke="transparent" points="-4,4 -4,-329.6744 293.0447,-329.6744 293.0447,4 -4,4"/>
<!-- 0 -->
<g id="node1" class="node">
<title>0</title>
<ellipse fill="none" stroke="#000000" cx="146.8681" cy="-307.6744" rx="33.2948" ry="18"/>
<text text-anchor="middle" x="146.8681" y="-303.9744" font-family="Times,serif" font-size="14.00" fill="#000000">C | C</text>
</g>
<!-- 1 -->
<g id="node2" class="node">
<title>1</title>
<ellipse fill="none" stroke="#000000" cx="186.8701" cy="-236.8475" rx="33.2948" ry="18"/>
<text text-anchor="middle" x="186.8701" y="-233.1475" font-family="Times,serif" font-size="14.00" fill="#000000">C | C</text>
</g>
<!-- 0&#45;&#45;1 -->
<g id="edge1" class="edge">
<title>0&#45;&#45;1</title>
<path fill="none" stroke="#000000" d="M156.7563,-290.1666C162.9568,-279.1881 170.9169,-265.094 177.0957,-254.1539"/>
<text text-anchor="middle" x="155.426" y="-275.9602" font-family="Times,serif" font-size="14.00" fill="#000000">&#45; | &#45;</text>
</g>
<!-- 2 -->
<g id="node3" class="node">
<title>2</title>
<ellipse fill="none" stroke="#000000" cx="166.1948" cy="-153.8447" rx="33.2948" ry="18"/>
<text text-anchor="middle" x="166.1948" y="-150.1447" font-family="Times,serif" font-size="14.00" fill="#000000">C | C</text>
</g>
<!-- 1&#45;&#45;2 -->
<g id="edge2" class="edge">
<title>1&#45;&#45;2</title>
<path fill="none" stroke="#000000" d="M182.3839,-218.8372C178.9159,-204.9148 174.138,-185.7334 170.6723,-171.8199"/>
<text text-anchor="middle" x="165.0281" y="-199.1285" font-family="Times,serif" font-size="14.00" fill="#000000">&#45; | &#45;</text>
</g>
<!-- 4 -->
<g id="node5" class="node">
<title>4</title>
<ellipse fill="none" stroke="#000000" cx="254.5978" cy="-280.5853" rx="34.394" ry="18"/>
<text text-anchor="middle" x="254.5978" y="-276.8853" font-family="Times,serif" font-size="14.00" fill="#000000">O | O</text>
</g>
<!-- 1&#45;&#45;4 -->
<g id="edge3" class="edge">
<title>1&#45;&#45;4</title>
<path fill="none" stroke="#000000" d="M208.2996,-250.6864C216.0504,-255.6918 224.8104,-261.349 232.6086,-266.3849"/>
<text text-anchor="middle" x="201.4541" y="-262.3357" font-family="Times,serif" font-size="14.00" fill="#000000">= | =</text>
</g>
<!-- 3 -->
<g id="node4" class="node">
<title>3</title>
<ellipse fill="none" stroke="#000000" cx="92.6371" cy="-188.9218" rx="33.2948" ry="18"/>
<text text-anchor="middle" x="92.6371" y="-185.2218" font-family="Times,serif" font-size="14.00" fill="#000000">C | C</text>
</g>
<!-- 2&#45;&#45;3 -->
<g id="edge4" class="edge">
<title>2&#45;&#45;3</title>
<path fill="none" stroke="#000000" d="M140.8804,-165.9163C133.4,-169.4834 125.2166,-173.3858 117.749,-176.9468"/>
<text text-anchor="middle" x="140.8147" y="-175.2315" font-family="Times,serif" font-size="14.00" fill="#000000">&#45; | &#45;</text>
</g>
<!-- 5 -->
<g id="node6" class="node">
<title>5</title>
<ellipse fill="none" stroke="#000000" cx="110.7864" cy="-88.2491" rx="34.394" ry="18"/>
<text text-anchor="middle" x="110.7864" y="-84.5491" font-family="Times,serif" font-size="14.00" fill="#000000">O | O</text>
</g>
<!-- 2&#45;&#45;5 -->
<g id="edge5" class="edge">
<title>2&#45;&#45;5</title>
<path fill="none" stroke="#000000" stroke-dasharray="5,2" d="M152.2129,-137.2922C143.8775,-127.4243 133.325,-114.9316 124.9565,-105.0245"/>
<text text-anchor="middle" x="136.0847" y="-109.9584" font-family="Times,serif" font-size="14.00" fill="#000000">&#45;</text>
</g>
<!-- 7 -->
<g id="node8" class="node">
<title>7</title>
<ellipse fill="none" stroke="#000000" cx="249.2082" cy="-145.4651" rx="35.194" ry="18"/>
<text text-anchor="middle" x="249.2082" y="-141.7651" font-family="Times,serif" font-size="14.00" fill="#000000">H | H</text>
</g>
<!-- 2&#45;&#45;7 -->
<g id="edge6" class="edge">
<title>2&#45;&#45;7</title>
<path fill="none" stroke="#000000" d="M199.0039,-150.5329C204.1703,-150.0114 209.525,-149.4708 214.728,-148.9456"/>
<text text-anchor="middle" x="206.8659" y="-138.5393" font-family="Times,serif" font-size="14.00" fill="#000000">&#45; | &#45;</text>
</g>
<!-- 8 -->
<g id="node9" class="node">
<title>8</title>
<ellipse fill="none" stroke="#000000" cx="199.604" cy="-77.9909" rx="35.194" ry="18"/>
<text text-anchor="middle" x="199.604" y="-74.2909" font-family="Times,serif" font-size="14.00" fill="#000000">N | N</text>
</g>
<!-- 2&#45;&#45;8 -->
<g id="edge7" class="edge">
<title>2&#45;&#45;8</title>
<path fill="none" stroke="#000000" stroke-dasharray="1,5" d="M173.9435,-136.2517C179.3023,-124.0848 186.4069,-107.9543 191.7816,-95.7513"/>
<text text-anchor="middle" x="180.3625" y="-119.8015" font-family="Times,serif" font-size="14.00" fill="#000000">&#45;</text>
</g>
<!-- 6 -->
<g id="node7" class="node">
<title>6</title>
<ellipse fill="none" stroke="#000000" cx="35.0969" cy="-62.5677" rx="35.194" ry="18"/>
<text text-anchor="middle" x="35.0969" y="-58.8677" font-family="Times,serif" font-size="14.00" fill="#000000">H | H</text>
</g>
<!-- 5&#45;&#45;6 -->
<g id="edge8" class="edge">
<title>5&#45;&#45;6</title>
<path fill="none" stroke="#000000" d="M81.7393,-78.3935C76.0696,-76.4697 70.121,-74.4514 64.4417,-72.5244"/>
<text text-anchor="middle" x="61.5905" y="-79.2589" font-family="Times,serif" font-size="14.00" fill="#000000">&#45; | &#45;</text>
</g>
<!-- 9 -->
<g id="node10" class="node">
<title>9</title>
<ellipse fill="none" stroke="#000000" cx="151.5664" cy="-18" rx="35.194" ry="18"/>
<text text-anchor="middle" x="151.5664" y="-14.3" font-family="Times,serif" font-size="14.00" fill="#000000">H | H</text>
</g>
<!-- 5&#45;&#45;9 -->
<g id="edge9" class="edge">
<title>5&#45;&#45;9</title>
<path fill="none" stroke="#000000" stroke-dasharray="1,5" d="M120.8668,-70.8842C127.0936,-60.1577 135.0611,-46.4327 141.3186,-35.6531"/>
<text text-anchor="middle" x="128.5927" y="-57.0687" font-family="Times,serif" font-size="14.00" fill="#000000">&#45;</text>
</g>
<!-- 8&#45;&#45;9 -->
<g id="edge10" class="edge">
<title>8&#45;&#45;9</title>
<path fill="none" stroke="#000000" stroke-dasharray="5,2" d="M186.2228,-61.2801C179.6711,-53.0981 171.796,-43.2634 165.2096,-35.038"/>
<text text-anchor="middle" x="173.2162" y="-36.9591" font-family="Times,serif" font-size="14.00" fill="#000000">&#45;</text>
</g>
</g>
</svg>
