<?xml version="1.0" encoding="UTF-8" standalone="no"?>
<!DOCTYPE svg PUBLIC "-//W3C//DTD SVG 1.1//EN"
 "http://www.w3.org/Graphics/SVG/1.1/DTD/svg11.dtd">
<!-- Generated by graphviz version 2.40.1 (20161225.0304)
 -->
<!-- Title: G Pages: 1 -->
<svg width="170pt" height="134pt"
 viewBox="0.00 0.00 169.95 134.19" xmlns="http://www.w3.org/2000/svg" xmlns:xlink="http://www.w3.org/1999/xlink">
<g id="graph0" class="graph" transform="scale(1 1) rotate(0) translate(4 130.1935)">
<title>G</title>
<polygon fill="#ffffff" stroke="transparent" points="-4,4 -4,-130.1935 165.9522,-130.1935 165.9522,4 -4,4"/>
<!-- 0 -->
<g id="node1" class="node">
<title>0</title>
<ellipse fill="none" stroke="#000000" cx="35.0969" cy="-55.0385" rx="35.194" ry="18"/>
<text text-anchor="middle" x="35.0969" y="-51.3385" font-family="Times,serif" font-size="14.00" fill="#000000">H | H</text>
</g>
<!-- 1 -->
<g id="node2" class="node">
<title>1</title>
<ellipse fill="none" stroke="#000000" cx="128.8051" cy="-57.2627" rx="33.2948" ry="18"/>
<text text-anchor="middle" x="128.8051" y="-53.5627" font-family="Times,serif" font-size="14.00" fill="#000000">C | C</text>
</g>
<!-- 0&#45;&#45;1 -->
<g id="edge1" class="edge">
<title>0&#45;&#45;1</title>
<path fill="none" stroke="#000000" stroke-dasharray="5,2" d="M70.257,-55.873C78.5664,-56.0702 87.4,-56.2799 95.6188,-56.475"/>
<text text-anchor="middle" x="80.4379" y="-59.974" font-family="Times,serif" font-size="14.00" fill="#000000">&#45;</text>
</g>
<!-- 3 -->
<g id="node4" class="node">
<title>3</title>
<ellipse fill="none" stroke="#000000" cx="58.8353" cy="-108.1935" rx="33.2948" ry="18"/>
<text text-anchor="middle" x="58.8353" y="-104.4935" font-family="Times,serif" font-size="14.00" fill="#000000">C | C</text>
</g>
<!-- 0&#45;&#45;3 -->
<g id="edge2" class="edge">
<title>0&#45;&#45;3</title>
<path fill="none" stroke="#000000" stroke-dasharray="1,5" d="M43.0014,-72.7383C45.5371,-78.4161 48.3454,-84.7045 50.8844,-90.3897"/>
<text text-anchor="middle" x="44.4429" y="-85.364" font-family="Times,serif" font-size="14.00" fill="#000000">&#45;</text>
</g>
<!-- 2 -->
<g id="node3" class="node">
<title>2</title>
<ellipse fill="none" stroke="#000000" cx="85.5114" cy="-18" rx="35.194" ry="18"/>
<text text-anchor="middle" x="85.5114" y="-14.3" font-family="Times,serif" font-size="14.00" fill="#000000">N | N</text>
</g>
<!-- 1&#45;&#45;2 -->
<g id="edge3" class="edge">
<title>1&#45;&#45;2</title>
<path fill="none" stroke="#000000" d="M111.6943,-41.745C108.8581,-39.1729 105.913,-36.502 103.066,-33.9201"/>
<text text-anchor="middle" x="91.8802" y="-41.6326" font-family="Times,serif" font-size="14.00" fill="#000000">&#45; | =</text>
</g>
<!-- 2&#45;&#45;3 -->
<g id="edge4" class="edge">
<title>2&#45;&#45;3</title>
<path fill="none" stroke="#000000" d="M80.2411,-35.8193C75.5644,-51.6315 68.7681,-74.6102 64.0947,-90.4112"/>
<text text-anchor="middle" x="87.6679" y="-66.9153" font-family="Times,serif" font-size="14.00" fill="#000000">= | &#45;</text>
</g>
</g>
</svg>
