<?xml version="1.0" encoding="UTF-8" standalone="no"?>
<!DOCTYPE svg PUBLIC "-//W3C//DTD SVG 1.1//EN"
 "http://www.w3.org/Graphics/SVG/1.1/DTD/svg11.dtd">
<!-- Generated by graphviz version 2.40.1 (20161225.0304)
 -->
<!-- Title: G Pages: 1 -->
<svg width="283pt" height="223pt"
 viewBox="0.00 0.00 282.81 223.36" xmlns="http://www.w3.org/2000/svg" xmlns:xlink="http://www.w3.org/1999/xlink">
<g id="graph0" class="graph" transform="scale(1 1) rotate(0) translate(4 219.3611)">
<title>G</title>
<polygon fill="#ffffff" stroke="transparent" points="-4,4 -4,-219.3611 278.8116,-219.3611 278.8116,4 -4,4"/>
<!-- 0 -->
<g id="node1" class="node">
<title>0</title>
<ellipse fill="none" stroke="#000000" cx="239.7147" cy="-197.3611" rx="35.194" ry="18"/>
<text text-anchor="middle" x="239.7147" y="-193.6611" font-family="Times,serif" font-size="14.00" fill="#000000">N | N</text>
</g>
<!-- 1 -->
<g id="node2" class="node">
<title>1</title>
<ellipse fill="none" stroke="#000000" cx="172.4368" cy="-162.5715" rx="33.2948" ry="18"/>
<text text-anchor="middle" x="172.4368" y="-158.8715" font-family="Times,serif" font-size="14.00" fill="#000000">C | C</text>
</g>
<!-- 0&#45;&#45;1 -->
<g id="edge1" class="edge">
<title>0&#45;&#45;1</title>
<path fill="none" stroke="#000000" d="M214.6629,-184.4067C208.8348,-181.393 202.6382,-178.1887 196.8387,-175.1898"/>
<text text-anchor="middle" x="224.7508" y="-168.5982" font-family="Times,serif" font-size="14.00" fill="#000000"># | #</text>
</g>
<!-- 2 -->
<g id="node3" class="node">
<title>2</title>
<ellipse fill="none" stroke="#000000" cx="141.0113" cy="-90.0578" rx="33.2948" ry="18"/>
<text text-anchor="middle" x="141.0113" y="-86.3578" font-family="Times,serif" font-size="14.00" fill="#000000">C | C</text>
</g>
<!-- 1&#45;&#45;2 -->
<g id="edge2" class="edge">
<title>1&#45;&#45;2</title>
<path fill="none" stroke="#000000" stroke-dasharray="1,5" d="M164.8296,-145.018C159.925,-133.7008 153.5696,-119.0358 148.6574,-107.701"/>
<text text-anchor="middle" x="154.2435" y="-130.1595" font-family="Times,serif" font-size="14.00" fill="#000000">&#45;</text>
</g>
<!-- 5 -->
<g id="node6" class="node">
<title>5</title>
<ellipse fill="none" stroke="#000000" cx="96.5504" cy="-190.4376" rx="35.194" ry="18"/>
<text text-anchor="middle" x="96.5504" y="-186.7376" font-family="Times,serif" font-size="14.00" fill="#000000">H | H</text>
</g>
<!-- 1&#45;&#45;5 -->
<g id="edge3" class="edge">
<title>1&#45;&#45;5</title>
<path fill="none" stroke="#000000" stroke-dasharray="5,2" d="M144.6104,-172.7895C138.2653,-175.1195 131.513,-177.599 125.1367,-179.9404"/>
<text text-anchor="middle" x="137.3736" y="-180.165" font-family="Times,serif" font-size="14.00" fill="#000000">&#45;</text>
</g>
<!-- 3 -->
<g id="node4" class="node">
<title>3</title>
<ellipse fill="none" stroke="#000000" cx="110.5681" cy="-18" rx="35.194" ry="18"/>
<text text-anchor="middle" x="110.5681" y="-14.3" font-family="Times,serif" font-size="14.00" fill="#000000">N | N</text>
</g>
<!-- 2&#45;&#45;3 -->
<g id="edge4" class="edge">
<title>2&#45;&#45;3</title>
<path fill="none" stroke="#000000" d="M133.486,-72.2458C128.7671,-61.0765 122.7091,-46.7374 118.0068,-35.6072"/>
<text text-anchor="middle" x="106.7464" y="-57.7265" font-family="Times,serif" font-size="14.00" fill="#000000">= | #</text>
</g>
<!-- 4 -->
<g id="node5" class="node">
<title>4</title>
<ellipse fill="none" stroke="#000000" cx="62.5691" cy="-119.0253" rx="34.394" ry="18"/>
<text text-anchor="middle" x="62.5691" y="-115.3253" font-family="Times,serif" font-size="14.00" fill="#000000">O | O</text>
</g>
<!-- 2&#45;&#45;4 -->
<g id="edge5" class="edge">
<title>2&#45;&#45;4</title>
<path fill="none" stroke="#000000" stroke-dasharray="5,2" d="M113.576,-100.1892C106.242,-102.8975 98.3019,-105.8297 90.9197,-108.5558"/>
<text text-anchor="middle" x="98.9978" y="-93.1725" font-family="Times,serif" font-size="14.00" fill="#000000">=</text>
</g>
<!-- 6 -->
<g id="node7" class="node">
<title>6</title>
<ellipse fill="none" stroke="#000000" cx="35.0969" cy="-45.3312" rx="35.194" ry="18"/>
<text text-anchor="middle" x="35.0969" y="-41.6312" font-family="Times,serif" font-size="14.00" fill="#000000">H | H</text>
</g>
<!-- 3&#45;&#45;6 -->
<g id="edge6" class="edge">
<title>3&#45;&#45;6</title>
<path fill="none" stroke="#000000" stroke-dasharray="5,2" d="M81.6048,-28.4888C75.7851,-30.5963 69.6708,-32.8106 63.8581,-34.9156"/>
<text text-anchor="middle" x="72.7314" y="-20.5022" font-family="Times,serif" font-size="14.00" fill="#000000">&#45;</text>
</g>
<!-- 4&#45;&#45;5 -->
<g id="edge7" class="edge">
<title>4&#45;&#45;5</title>
<path fill="none" stroke="#000000" stroke-dasharray="1,5" d="M70.9689,-136.6777C76.1576,-147.5818 82.7968,-161.5341 88.0111,-172.4921"/>
<text text-anchor="middle" x="76.99" y="-158.3849" font-family="Times,serif" font-size="14.00" fill="#000000">&#45;</text>
</g>
<!-- 4&#45;&#45;6 -->
<g id="edge8" class="edge">
<title>4&#45;&#45;6</title>
<path fill="none" stroke="#000000" stroke-dasharray="1,5" d="M55.9188,-101.186C51.6313,-89.6846 46.0753,-74.7809 41.7811,-63.2616"/>
<text text-anchor="middle" x="46.35" y="-86.0238" font-family="Times,serif" font-size="14.00" fill="#000000">&#45;</text>
</g>
</g>
</svg>
