<?xml version="1.0" encoding="UTF-8" standalone="no"?>
<!DOCTYPE svg PUBLIC "-//W3C//DTD SVG 1.1//EN"
 "http://www.w3.org/Graphics/SVG/1.1/DTD/svg11.dtd">
<!-- Generated by graphviz version 2.40.1 (20161225.0304)
 -->
<!-- Title: G Pages: 1 -->
<svg width="167pt" height="134pt"
 viewBox="0.00 0.00 167.35 134.19" xmlns="http://www.w3.org/2000/svg" xmlns:xlink="http://www.w3.org/1999/xlink">
<g id="graph0" class="graph" transform="scale(1 1) rotate(0) translate(4 130.1935)">
<title>G</title>
<polygon fill="#ffffff" stroke="transparent" points="-4,4 -4,-130.1935 163.3524,-130.1935 163.3524,4 -4,4"/>
<!-- 0 -->
<g id="node1" class="node">
<title>0</title>
<ellipse fill="none" stroke="#000000" cx="32.4971" cy="-55.0385" rx="32.4942" ry="18"/>
<text text-anchor="middle" x="32.4971" y="-51.3385" font-family="Times,serif" font-size="14.00" fill="#000000">S | S</text>
</g>
<!-- 1 -->
<g id="node2" class="node">
<title>1</title>
<ellipse fill="none" stroke="#000000" cx="126.2054" cy="-57.2627" rx="33.2948" ry="18"/>
<text text-anchor="middle" x="126.2054" y="-53.5627" font-family="Times,serif" font-size="14.00" fill="#000000">C | C</text>
</g>
<!-- 0&#45;&#45;1 -->
<g id="edge1" class="edge">
<title>0&#45;&#45;1</title>
<path fill="none" stroke="#000000" d="M65.0087,-55.8102C73.9952,-56.0235 83.7607,-56.2552 92.7972,-56.4697"/>
<text text-anchor="middle" x="78.903" y="-44.9399" font-family="Times,serif" font-size="14.00" fill="#000000">&#45; | =</text>
</g>
<!-- 3 -->
<g id="node4" class="node">
<title>3</title>
<ellipse fill="none" stroke="#000000" cx="56.2356" cy="-108.1935" rx="35.194" ry="18"/>
<text text-anchor="middle" x="56.2356" y="-104.4935" font-family="Times,serif" font-size="14.00" fill="#000000">H | H</text>
</g>
<!-- 0&#45;&#45;3 -->
<g id="edge2" class="edge">
<title>0&#45;&#45;3</title>
<path fill="none" stroke="#000000" stroke-dasharray="5,2" d="M40.4017,-72.7383C42.9373,-78.4161 45.7457,-84.7045 48.2846,-90.3897"/>
<text text-anchor="middle" x="41.8431" y="-85.364" font-family="Times,serif" font-size="14.00" fill="#000000">&#45;</text>
</g>
<!-- 2 -->
<g id="node3" class="node">
<title>2</title>
<ellipse fill="none" stroke="#000000" cx="82.9117" cy="-18" rx="33.2948" ry="18"/>
<text text-anchor="middle" x="82.9117" y="-14.3" font-family="Times,serif" font-size="14.00" fill="#000000">C | C</text>
</g>
<!-- 1&#45;&#45;2 -->
<g id="edge3" class="edge">
<title>1&#45;&#45;2</title>
<path fill="none" stroke="#000000" d="M109.0946,-41.745C106.1638,-39.0871 103.1168,-36.3239 100.1819,-33.6622"/>
<text text-anchor="middle" x="120.1382" y="-26.5036" font-family="Times,serif" font-size="14.00" fill="#000000">= | &#45;</text>
</g>
<!-- 2&#45;&#45;3 -->
<g id="edge4" class="edge">
<title>2&#45;&#45;3</title>
<path fill="none" stroke="#000000" stroke-dasharray="1,5" d="M77.6413,-35.8193C72.995,-51.5288 66.2565,-74.3121 61.5863,-90.1025"/>
<text text-anchor="middle" x="67.1138" y="-66.7609" font-family="Times,serif" font-size="14.00" fill="#000000">&#45;</text>
</g>
</g>
</svg>
