<?xml version="1.0" encoding="UTF-8" standalone="no"?>
<!DOCTYPE svg PUBLIC "-//W3C//DTD SVG 1.1//EN"
 "http://www.w3.org/Graphics/SVG/1.1/DTD/svg11.dtd">
<!-- Generated by graphviz version 2.40.1 (20161225.0304)
 -->
<!-- Title: G Pages: 1 -->
<svg width="382pt" height="344pt"
 viewBox="0.00 0.00 381.79 344.11" xmlns="http://www.w3.org/2000/svg" xmlns:xlink="http://www.w3.org/1999/xlink">
<g id="graph0" class="graph" transform="scale(1 1) rotate(0) translate(4 340.1108)">
<title>G</title>
<polygon fill="#ffffff" stroke="transparent" points="-4,4 -4,-340.1108 377.7878,-340.1108 377.7878,4 -4,4"/>
<!-- 0 -->
<g id="node1" class="node">
<title>0</title>
<ellipse fill="none" stroke="#000000" cx="181.1316" cy="-157.7516" rx="33.2948" ry="18"/>
<text text-anchor="middle" x="181.1316" y="-154.0516" font-family="Times,serif" font-size="14.00" fill="#000000">C | C</text>
</g>
<!-- 1 -->
<g id="node2" class="node">
<title>1</title>
<ellipse fill="none" stroke="#000000" cx="267.3487" cy="-162.471" rx="35.194" ry="18"/>
<text text-anchor="middle" x="267.3487" y="-158.771" font-family="Times,serif" font-size="14.00" fill="#000000">N | N</text>
</g>
<!-- 0&#45;&#45;1 -->
<g id="edge1" class="edge">
<title>0&#45;&#45;1</title>
<path fill="none" stroke="#000000" stroke-dasharray="5,2" d="M214.2188,-159.5627C220.1073,-159.885 226.2598,-160.2218 232.2032,-160.5472"/>
<text text-anchor="middle" x="220.711" y="-163.8549" font-family="Times,serif" font-size="14.00" fill="#000000">&#45;</text>
</g>
<!-- 4 -->
<g id="node5" class="node">
<title>4</title>
<ellipse fill="none" stroke="#000000" cx="97.9138" cy="-158.1654" rx="35.194" ry="18"/>
<text text-anchor="middle" x="97.9138" y="-154.4654" font-family="Times,serif" font-size="14.00" fill="#000000">N | N</text>
</g>
<!-- 0&#45;&#45;4 -->
<g id="edge2" class="edge">
<title>0&#45;&#45;4</title>
<path fill="none" stroke="#000000" d="M147.7632,-157.9175C142.9701,-157.9413 138.0249,-157.9659 133.1962,-157.9899"/>
<text text-anchor="middle" x="140.4797" y="-146.7537" font-family="Times,serif" font-size="14.00" fill="#000000">= | =</text>
</g>
<!-- 8 -->
<g id="node9" class="node">
<title>8</title>
<ellipse fill="none" stroke="#000000" cx="165.7142" cy="-75.1438" rx="28.6953" ry="18"/>
<text text-anchor="middle" x="165.7142" y="-71.4438" font-family="Times,serif" font-size="14.00" fill="#000000">* | *</text>
</g>
<!-- 0&#45;&#45;8 -->
<g id="edge3" class="edge">
<title>0&#45;&#45;8</title>
<path fill="none" stroke="#000000" d="M177.7863,-139.8269C175.2002,-125.9708 171.6374,-106.8808 169.053,-93.0335"/>
<text text-anchor="middle" x="159.4196" y="-120.2302" font-family="Times,serif" font-size="14.00" fill="#000000">* | *</text>
</g>
<!-- 10 -->
<g id="node11" class="node">
<title>10</title>
<ellipse fill="none" stroke="#000000" cx="181.4812" cy="-243.2577" rx="34.394" ry="18"/>
<text text-anchor="middle" x="181.4812" y="-239.5577" font-family="Times,serif" font-size="14.00" fill="#000000">O | O</text>
</g>
<!-- 0&#45;&#45;10 -->
<g id="edge4" class="edge">
<title>0&#45;&#45;10</title>
<path fill="none" stroke="#000000" stroke-dasharray="1,5" d="M181.2058,-175.8852C181.2651,-190.3959 181.3479,-210.6464 181.4072,-225.1502"/>
<text text-anchor="middle" x="178.8065" y="-204.3177" font-family="Times,serif" font-size="14.00" fill="#000000">&#45;</text>
</g>
<!-- 2 -->
<g id="node3" class="node">
<title>2</title>
<ellipse fill="none" stroke="#000000" cx="319.7561" cy="-99.3259" rx="28.6953" ry="18"/>
<text text-anchor="middle" x="319.7561" y="-95.6259" font-family="Times,serif" font-size="14.00" fill="#000000">* | *</text>
</g>
<!-- 1&#45;&#45;2 -->
<g id="edge5" class="edge">
<title>1&#45;&#45;2</title>
<path fill="none" stroke="#000000" d="M281.1181,-145.8803C288.8818,-136.5259 298.5413,-124.8873 306.2599,-115.5873"/>
<text text-anchor="middle" x="282.189" y="-119.5338" font-family="Times,serif" font-size="14.00" fill="#000000">&#45; | &#45;</text>
</g>
<!-- 3 -->
<g id="node4" class="node">
<title>3</title>
<ellipse fill="none" stroke="#000000" cx="345.1903" cy="-185.2702" rx="28.6953" ry="18"/>
<text text-anchor="middle" x="345.1903" y="-181.5702" font-family="Times,serif" font-size="14.00" fill="#000000">* | *</text>
</g>
<!-- 1&#45;&#45;3 -->
<g id="edge6" class="edge">
<title>1&#45;&#45;3</title>
<path fill="none" stroke="#000000" d="M298.1138,-171.4818C305.0831,-173.5231 312.4178,-175.6714 319.1687,-177.6487"/>
<text text-anchor="middle" x="314.3912" y="-163.3652" font-family="Times,serif" font-size="14.00" fill="#000000">&#45; | &#45;</text>
</g>
<!-- 9 -->
<g id="node10" class="node">
<title>9</title>
<ellipse fill="none" stroke="#000000" cx="261.379" cy="-245.6258" rx="35.194" ry="18"/>
<text text-anchor="middle" x="261.379" y="-241.9258" font-family="Times,serif" font-size="14.00" fill="#000000">H | H</text>
</g>
<!-- 1&#45;&#45;9 -->
<g id="edge7" class="edge">
<title>1&#45;&#45;9</title>
<path fill="none" stroke="#000000" stroke-dasharray="1,5" d="M266.0534,-180.5143C265.0521,-194.4622 263.6725,-213.6787 262.6718,-227.6176"/>
<text text-anchor="middle" x="261.8626" y="-207.866" font-family="Times,serif" font-size="14.00" fill="#000000">&#45;</text>
</g>
<!-- 5 -->
<g id="node6" class="node">
<title>5</title>
<ellipse fill="none" stroke="#000000" cx="30.208" cy="-113.9317" rx="28.6953" ry="18"/>
<text text-anchor="middle" x="30.208" y="-110.2317" font-family="Times,serif" font-size="14.00" fill="#000000">* | *</text>
</g>
<!-- 4&#45;&#45;5 -->
<g id="edge8" class="edge">
<title>4&#45;&#45;5</title>
<path fill="none" stroke="#000000" d="M76.1185,-143.9261C67.7685,-138.4708 58.2928,-132.2801 50.1272,-126.9454"/>
<text text-anchor="middle" x="77.1229" y="-124.2357" font-family="Times,serif" font-size="14.00" fill="#000000">* | *</text>
</g>
<!-- 6 -->
<g id="node7" class="node">
<title>6</title>
<ellipse fill="none" stroke="#000000" cx="28.5975" cy="-33.2097" rx="28.6953" ry="18"/>
<text text-anchor="middle" x="28.5975" y="-29.5097" font-family="Times,serif" font-size="14.00" fill="#000000">* | *</text>
</g>
<!-- 5&#45;&#45;6 -->
<g id="edge9" class="edge">
<title>5&#45;&#45;6</title>
<path fill="none" stroke="#000000" d="M29.8425,-95.6146C29.5789,-82.404 29.2247,-64.6482 28.9615,-51.4542"/>
<text text-anchor="middle" x="15.402" y="-77.3344" font-family="Times,serif" font-size="14.00" fill="#000000">* | *</text>
</g>
<!-- 7 -->
<g id="node8" class="node">
<title>7</title>
<ellipse fill="none" stroke="#000000" cx="107.9733" cy="-18" rx="28.6953" ry="18"/>
<text text-anchor="middle" x="107.9733" y="-14.3" font-family="Times,serif" font-size="14.00" fill="#000000">* | *</text>
</g>
<!-- 6&#45;&#45;7 -->
<g id="edge10" class="edge">
<title>6&#45;&#45;7</title>
<path fill="none" stroke="#000000" d="M56.3593,-27.8901C64.1382,-26.3995 72.591,-24.7798 80.3612,-23.2909"/>
<text text-anchor="middle" x="68.3602" y="-14.3905" font-family="Times,serif" font-size="14.00" fill="#000000">* | *</text>
</g>
<!-- 7&#45;&#45;8 -->
<g id="edge11" class="edge">
<title>7&#45;&#45;8</title>
<path fill="none" stroke="#000000" d="M123.4468,-33.3135C131.7313,-41.5124 141.907,-51.5828 150.198,-59.7881"/>
<text text-anchor="middle" x="122.8224" y="-50.3508" font-family="Times,serif" font-size="14.00" fill="#000000">* | *</text>
</g>
<!-- 9&#45;&#45;10 -->
<g id="edge12" class="edge">
<title>9&#45;&#45;10</title>
<path fill="none" stroke="#000000" stroke-dasharray="5,2" d="M226.1021,-244.5802C222.7578,-244.4811 219.3692,-244.3807 216.0319,-244.2817"/>
<text text-anchor="middle" x="218.567" y="-248.231" font-family="Times,serif" font-size="14.00" fill="#000000">&#45;</text>
</g>
<!-- 11 -->
<g id="node12" class="node">
<title>11</title>
<ellipse fill="none" stroke="#000000" cx="153.6064" cy="-318.1108" rx="35.194" ry="18"/>
<text text-anchor="middle" x="153.6064" y="-314.4108" font-family="Times,serif" font-size="14.00" fill="#000000">H | H</text>
</g>
<!-- 10&#45;&#45;11 -->
<g id="edge13" class="edge">
<title>10&#45;&#45;11</title>
<path fill="none" stroke="#000000" d="M174.8753,-260.9968C170.464,-272.8425 164.6829,-288.3666 160.2615,-300.2396"/>
<text text-anchor="middle" x="156.0684" y="-284.4182" font-family="Times,serif" font-size="14.00" fill="#000000">&#45; | &#45;</text>
</g>
</g>
</svg>
