<?xml version="1.0" encoding="UTF-8" standalone="no"?>
<!DOCTYPE svg PUBLIC "-//W3C//DTD SVG 1.1//EN"
 "http://www.w3.org/Graphics/SVG/1.1/DTD/svg11.dtd">
<!-- Generated by graphviz version 2.40.1 (20161225.0304)
 -->
<!-- Title: G Pages: 1 -->
<svg width="330pt" height="307pt"
 viewBox="0.00 0.00 329.57 306.67" xmlns="http://www.w3.org/2000/svg" xmlns:xlink="http://www.w3.org/1999/xlink">
<g id="graph0" class="graph" transform="scale(1 1) rotate(0) translate(4 302.6727)">
<title>G</title>
<polygon fill="#ffffff" stroke="transparent" points="-4,4 -4,-302.6727 325.5705,-302.6727 325.5705,4 -4,4"/>
<!-- 0 -->
<g id="node1" class="node">
<title>0</title>
<ellipse fill="none" stroke="#000000" cx="217.5437" cy="-62.0196" rx="35.194" ry="18"/>
<text text-anchor="middle" x="217.5437" y="-58.3196" font-family="Times,serif" font-size="14.00" fill="#000000">N | N</text>
</g>
<!-- 1 -->
<g id="node2" class="node">
<title>1</title>
<ellipse fill="none" stroke="#000000" cx="179.4993" cy="-134.4693" rx="33.2948" ry="18"/>
<text text-anchor="middle" x="179.4993" y="-130.7693" font-family="Times,serif" font-size="14.00" fill="#000000">C | C</text>
</g>
<!-- 0&#45;&#45;1 -->
<g id="edge1" class="edge">
<title>0&#45;&#45;1</title>
<path fill="none" stroke="#000000" d="M208.3342,-79.5577C202.3527,-90.9486 194.5886,-105.7342 188.624,-117.0928"/>
<text text-anchor="middle" x="179.4791" y="-102.1252" font-family="Times,serif" font-size="14.00" fill="#000000"># | =</text>
</g>
<!-- 7 -->
<g id="node8" class="node">
<title>7</title>
<ellipse fill="none" stroke="#000000" cx="151.7275" cy="-18" rx="35.194" ry="18"/>
<text text-anchor="middle" x="151.7275" y="-14.3" font-family="Times,serif" font-size="14.00" fill="#000000">H | H</text>
</g>
<!-- 0&#45;&#45;7 -->
<g id="edge2" class="edge">
<title>0&#45;&#45;7</title>
<path fill="none" stroke="#000000" stroke-dasharray="1,5" d="M195.993,-47.606C188.645,-42.6914 180.4359,-37.201 173.1018,-32.2957"/>
<text text-anchor="middle" x="182.0474" y="-43.7508" font-family="Times,serif" font-size="14.00" fill="#000000">&#45;</text>
</g>
<!-- 2 -->
<g id="node3" class="node">
<title>2</title>
<ellipse fill="none" stroke="#000000" cx="210.3723" cy="-208.7465" rx="35.194" ry="18"/>
<text text-anchor="middle" x="210.3723" y="-205.0465" font-family="Times,serif" font-size="14.00" fill="#000000">N | N</text>
</g>
<!-- 1&#45;&#45;2 -->
<g id="edge3" class="edge">
<title>1&#45;&#45;2</title>
<path fill="none" stroke="#000000" d="M186.8158,-152.072C191.7015,-163.8265 198.1044,-179.2312 203.0014,-191.0128"/>
<text text-anchor="middle" x="183.4086" y="-175.3424" font-family="Times,serif" font-size="14.00" fill="#000000">&#45; | &#45;</text>
</g>
<!-- 6 -->
<g id="node7" class="node">
<title>6</title>
<ellipse fill="none" stroke="#000000" cx="112.407" cy="-89.15" rx="32.4942" ry="18"/>
<text text-anchor="middle" x="112.407" y="-85.45" font-family="Times,serif" font-size="14.00" fill="#000000">S | S</text>
</g>
<!-- 1&#45;&#45;6 -->
<g id="edge4" class="edge">
<title>1&#45;&#45;6</title>
<path fill="none" stroke="#000000" stroke-dasharray="1,5" d="M158.6387,-120.3784C150.4836,-114.8699 141.1557,-108.5691 133.0243,-103.0765"/>
<text text-anchor="middle" x="143.3315" y="-115.5275" font-family="Times,serif" font-size="14.00" fill="#000000">&#45;</text>
</g>
<!-- 3 -->
<g id="node4" class="node">
<title>3</title>
<ellipse fill="none" stroke="#000000" cx="177.1716" cy="-280.6727" rx="35.194" ry="18"/>
<text text-anchor="middle" x="177.1716" y="-276.9727" font-family="Times,serif" font-size="14.00" fill="#000000">H | H</text>
</g>
<!-- 2&#45;&#45;3 -->
<g id="edge5" class="edge">
<title>2&#45;&#45;3</title>
<path fill="none" stroke="#000000" d="M202.1654,-226.526C197.0191,-237.6749 190.4124,-251.9878 185.2841,-263.0977"/>
<text text-anchor="middle" x="182.2248" y="-248.6118" font-family="Times,serif" font-size="14.00" fill="#000000">&#45; | &#45;</text>
</g>
<!-- 4 -->
<g id="node5" class="node">
<title>4</title>
<ellipse fill="none" stroke="#000000" cx="286.4736" cy="-231.483" rx="35.194" ry="18"/>
<text text-anchor="middle" x="286.4736" y="-227.783" font-family="Times,serif" font-size="14.00" fill="#000000">H | H</text>
</g>
<!-- 2&#45;&#45;4 -->
<g id="edge6" class="edge">
<title>2&#45;&#45;4</title>
<path fill="none" stroke="#000000" d="M240.8871,-217.8633C245.8493,-219.3458 250.9896,-220.8815 255.9519,-222.3641"/>
<text text-anchor="middle" x="236.9195" y="-223.9137" font-family="Times,serif" font-size="14.00" fill="#000000">&#45; | &#45;</text>
</g>
<!-- 5 -->
<g id="node6" class="node">
<title>5</title>
<ellipse fill="none" stroke="#000000" cx="35.0969" cy="-87.369" rx="35.194" ry="18"/>
<text text-anchor="middle" x="35.0969" y="-83.669" font-family="Times,serif" font-size="14.00" fill="#000000">H | H</text>
</g>
<!-- 5&#45;&#45;6 -->
<g id="edge7" class="edge">
<title>5&#45;&#45;6</title>
<path fill="none" stroke="#000000" d="M70.5842,-88.1865C73.6009,-88.256 76.6436,-88.3261 79.638,-88.3951"/>
<text text-anchor="middle" x="75.1111" y="-77.0908" font-family="Times,serif" font-size="14.00" fill="#000000">&#45; | &#45;</text>
</g>
<!-- 6&#45;&#45;7 -->
<g id="edge8" class="edge">
<title>6&#45;&#45;7</title>
<path fill="none" stroke="#000000" stroke-dasharray="5,2" d="M121.9254,-71.9266C128.0166,-60.9045 135.8965,-46.646 142.0236,-35.5591"/>
<text text-anchor="middle" x="129.4745" y="-57.5428" font-family="Times,serif" font-size="14.00" fill="#000000">&#45;</text>
</g>
</g>
</svg>
