<?xml version="1.0" encoding="UTF-8" standalone="no"?>
<!DOCTYPE svg PUBLIC "-//W3C//DTD SVG 1.1//EN"
 "http://www.w3.org/Graphics/SVG/1.1/DTD/svg11.dtd">
<!-- Generated by graphviz version 2.40.1 (20161225.0304)
 -->
<!-- Title: G Pages: 1 -->
<svg width="293pt" height="346pt"
 viewBox="0.00 0.00 293.39 346.22" xmlns="http://www.w3.org/2000/svg" xmlns:xlink="http://www.w3.org/1999/xlink">
<g id="graph0" class="graph" transform="scale(1 1) rotate(0) translate(4 342.2212)">
<title>G</title>
<polygon fill="#ffffff" stroke="transparent" points="-4,4 -4,-342.2212 289.3854,-342.2212 289.3854,4 -4,4"/>
<!-- 0 -->
<g id="node1" class="node">
<title>0</title>
<ellipse fill="none" stroke="#000000" cx="43.123" cy="-186.1915" rx="35.194" ry="18"/>
<text text-anchor="middle" x="43.123" y="-182.4915" font-family="Times,serif" font-size="14.00" fill="#000000">N | N</text>
</g>
<!-- 1 -->
<g id="node2" class="node">
<title>1</title>
<ellipse fill="none" stroke="#000000" cx="125.2578" cy="-176.5431" rx="33.2948" ry="18"/>
<text text-anchor="middle" x="125.2578" y="-172.8431" font-family="Times,serif" font-size="14.00" fill="#000000">C | C</text>
</g>
<!-- 0&#45;&#45;1 -->
<g id="edge1" class="edge">
<title>0&#45;&#45;1</title>
<path fill="none" stroke="#000000" d="M77.4796,-182.1556C82.491,-181.567 87.6393,-180.9622 92.6153,-180.3776"/>
<text text-anchor="middle" x="85.0475" y="-170.0666" font-family="Times,serif" font-size="14.00" fill="#000000"># | =</text>
</g>
<!-- 8 -->
<g id="node9" class="node">
<title>8</title>
<ellipse fill="none" stroke="#000000" cx="35.0969" cy="-108.8833" rx="35.194" ry="18"/>
<text text-anchor="middle" x="35.0969" y="-105.1833" font-family="Times,serif" font-size="14.00" fill="#000000">H | H</text>
</g>
<!-- 0&#45;&#45;8 -->
<g id="edge2" class="edge">
<title>0&#45;&#45;8</title>
<path fill="none" stroke="#000000" stroke-dasharray="1,5" d="M41.2209,-167.8705C39.9415,-155.547 38.2619,-139.3687 36.9853,-127.0727"/>
<text text-anchor="middle" x="36.6031" y="-151.2716" font-family="Times,serif" font-size="14.00" fill="#000000">&#45;</text>
</g>
<!-- 2 -->
<g id="node3" class="node">
<title>2</title>
<ellipse fill="none" stroke="#000000" cx="172.2558" cy="-243.0588" rx="35.194" ry="18"/>
<text text-anchor="middle" x="172.2558" y="-239.3588" font-family="Times,serif" font-size="14.00" fill="#000000">N | N</text>
</g>
<!-- 1&#45;&#45;2 -->
<g id="edge3" class="edge">
<title>1&#45;&#45;2</title>
<path fill="none" stroke="#000000" d="M137.361,-193.6726C144.3236,-203.5266 153.0473,-215.8732 160.0303,-225.7562"/>
<text text-anchor="middle" x="137.1956" y="-213.5144" font-family="Times,serif" font-size="14.00" fill="#000000">&#45; | &#45;</text>
</g>
<!-- 7 -->
<g id="node8" class="node">
<title>7</title>
<ellipse fill="none" stroke="#000000" cx="117.145" cy="-93.8208" rx="35.194" ry="18"/>
<text text-anchor="middle" x="117.145" y="-90.1208" font-family="Times,serif" font-size="14.00" fill="#000000">N | N</text>
</g>
<!-- 1&#45;&#45;7 -->
<g id="edge4" class="edge">
<title>1&#45;&#45;7</title>
<path fill="none" stroke="#000000" stroke-dasharray="1,5" d="M123.4573,-158.1844C122.1035,-144.3807 120.2582,-125.5651 118.9125,-111.8436"/>
<text text-anchor="middle" x="118.6849" y="-138.814" font-family="Times,serif" font-size="14.00" fill="#000000">&#45;</text>
</g>
<!-- 3 -->
<g id="node4" class="node">
<title>3</title>
<ellipse fill="none" stroke="#000000" cx="151.2175" cy="-320.2212" rx="35.194" ry="18"/>
<text text-anchor="middle" x="151.2175" y="-316.5212" font-family="Times,serif" font-size="14.00" fill="#000000">H | H</text>
</g>
<!-- 2&#45;&#45;3 -->
<g id="edge5" class="edge">
<title>2&#45;&#45;3</title>
<path fill="none" stroke="#000000" d="M167.3763,-260.9553C164.0018,-273.3321 159.5279,-289.7409 156.1434,-302.1544"/>
<text text-anchor="middle" x="150.2598" y="-285.3549" font-family="Times,serif" font-size="14.00" fill="#000000">&#45; | &#45;</text>
</g>
<!-- 4 -->
<g id="node5" class="node">
<title>4</title>
<ellipse fill="none" stroke="#000000" cx="250.2885" cy="-257.6617" rx="35.194" ry="18"/>
<text text-anchor="middle" x="250.2885" y="-253.9617" font-family="Times,serif" font-size="14.00" fill="#000000">H | H</text>
</g>
<!-- 2&#45;&#45;4 -->
<g id="edge6" class="edge">
<title>2&#45;&#45;4</title>
<path fill="none" stroke="#000000" d="M205.3487,-249.2517C209.1702,-249.9669 213.0694,-250.6966 216.8949,-251.4125"/>
<text text-anchor="middle" x="211.1218" y="-239.1321" font-family="Times,serif" font-size="14.00" fill="#000000">&#45; | &#45;</text>
</g>
<!-- 5 -->
<g id="node6" class="node">
<title>5</title>
<ellipse fill="none" stroke="#000000" cx="90.9603" cy="-18" rx="35.194" ry="18"/>
<text text-anchor="middle" x="90.9603" y="-14.3" font-family="Times,serif" font-size="14.00" fill="#000000">H | H</text>
</g>
<!-- 5&#45;&#45;7 -->
<g id="edge7" class="edge">
<title>5&#45;&#45;7</title>
<path fill="none" stroke="#000000" d="M97.1657,-35.9685C101.3397,-48.0549 106.8194,-63.9219 110.9841,-75.9813"/>
<text text-anchor="middle" x="92.5749" y="-59.7749" font-family="Times,serif" font-size="14.00" fill="#000000">&#45; | &#45;</text>
</g>
<!-- 6 -->
<g id="node7" class="node">
<title>6</title>
<ellipse fill="none" stroke="#000000" cx="184.8802" cy="-49.5227" rx="35.194" ry="18"/>
<text text-anchor="middle" x="184.8802" y="-45.8227" font-family="Times,serif" font-size="14.00" fill="#000000">H | H</text>
</g>
<!-- 6&#45;&#45;7 -->
<g id="edge8" class="edge">
<title>6&#45;&#45;7</title>
<path fill="none" stroke="#000000" d="M163.0755,-63.7827C155.3407,-68.8412 146.6403,-74.5312 138.9088,-79.5875"/>
<text text-anchor="middle" x="139.4922" y="-60.4851" font-family="Times,serif" font-size="14.00" fill="#000000">&#45; | &#45;</text>
</g>
<!-- 7&#45;&#45;8 -->
<g id="edge9" class="edge">
<title>7&#45;&#45;8</title>
<path fill="none" stroke="#000000" stroke-dasharray="5,2" d="M83.7729,-99.9473C78.6264,-100.8921 73.3134,-101.8674 68.1734,-102.811"/>
<text text-anchor="middle" x="73.4731" y="-105.1792" font-family="Times,serif" font-size="14.00" fill="#000000">&#45;</text>
</g>
</g>
</svg>
