<?xml version="1.0" encoding="UTF-8" standalone="no"?>
<!DOCTYPE svg PUBLIC "-//W3C//DTD SVG 1.1//EN"
 "http://www.w3.org/Graphics/SVG/1.1/DTD/svg11.dtd">
<!-- Generated by graphviz version 2.40.1 (20161225.0304)
 -->
<!-- Title: G Pages: 1 -->
<svg width="283pt" height="283pt"
 viewBox="0.00 0.00 283.01 283.40" xmlns="http://www.w3.org/2000/svg" xmlns:xlink="http://www.w3.org/1999/xlink">
<g id="graph0" class="graph" transform="scale(1 1) rotate(0) translate(4 279.3961)">
<title>G</title>
<polygon fill="#ffffff" stroke="transparent" points="-4,4 -4,-279.3961 279.0085,-279.3961 279.0085,4 -4,4"/>
<!-- 0 -->
<g id="node1" class="node">
<title>0</title>
<ellipse fill="none" stroke="#000000" cx="28.5975" cy="-107.3961" rx="28.6953" ry="18"/>
<text text-anchor="middle" x="28.5975" y="-103.6961" font-family="Times,serif" font-size="14.00" fill="#000000">* | *</text>
</g>
<!-- 1 -->
<g id="node2" class="node">
<title>1</title>
<ellipse fill="none" stroke="#000000" cx="109.9609" cy="-106.2576" rx="33.2948" ry="18"/>
<text text-anchor="middle" x="109.9609" y="-102.5576" font-family="Times,serif" font-size="14.00" fill="#000000">C | C</text>
</g>
<!-- 0&#45;&#45;1 -->
<g id="edge1" class="edge">
<title>0&#45;&#45;1</title>
<path fill="none" stroke="#000000" d="M57.5122,-106.9915C63.7242,-106.9046 70.3367,-106.8121 76.6985,-106.7231"/>
<text text-anchor="middle" x="67.1054" y="-95.6573" font-family="Times,serif" font-size="14.00" fill="#000000">&#45; | &#45;</text>
</g>
<!-- 2 -->
<g id="node3" class="node">
<title>2</title>
<ellipse fill="none" stroke="#000000" cx="77.2126" cy="-32.3922" rx="34.394" ry="18"/>
<text text-anchor="middle" x="77.2126" y="-28.6922" font-family="Times,serif" font-size="14.00" fill="#000000">O | O</text>
</g>
<!-- 1&#45;&#45;2 -->
<g id="edge2" class="edge">
<title>1&#45;&#45;2</title>
<path fill="none" stroke="#000000" d="M102.2,-88.7526C97.0175,-77.0631 90.2257,-61.7439 85.0313,-50.0276"/>
<text text-anchor="middle" x="74.6156" y="-73.1901" font-family="Times,serif" font-size="14.00" fill="#000000">= | =</text>
</g>
<!-- 3 -->
<g id="node4" class="node">
<title>3</title>
<ellipse fill="none" stroke="#000000" cx="136.8418" cy="-187.3944" rx="35.194" ry="18"/>
<text text-anchor="middle" x="136.8418" y="-183.6944" font-family="Times,serif" font-size="14.00" fill="#000000">N | N</text>
</g>
<!-- 1&#45;&#45;3 -->
<g id="edge3" class="edge">
<title>1&#45;&#45;3</title>
<path fill="none" stroke="#000000" stroke-dasharray="5,2" d="M115.9266,-124.2645C120.3813,-137.7103 126.4421,-156.0042 130.8928,-169.4378"/>
<text text-anchor="middle" x="120.9097" y="-150.6512" font-family="Times,serif" font-size="14.00" fill="#000000">&#45;</text>
</g>
<!-- 7 -->
<g id="node8" class="node">
<title>7</title>
<ellipse fill="none" stroke="#000000" cx="188.1789" cy="-76.379" rx="34.394" ry="18"/>
<text text-anchor="middle" x="188.1789" y="-72.679" font-family="Times,serif" font-size="14.00" fill="#000000">O | O</text>
</g>
<!-- 1&#45;&#45;7 -->
<g id="edge4" class="edge">
<title>1&#45;&#45;7</title>
<path fill="none" stroke="#000000" stroke-dasharray="1,5" d="M137.3177,-95.8075C144.7189,-92.9804 152.739,-89.9167 160.1751,-87.0762"/>
<text text-anchor="middle" x="146.2464" y="-95.2419" font-family="Times,serif" font-size="14.00" fill="#000000">&#45;</text>
</g>
<!-- 4 -->
<g id="node5" class="node">
<title>4</title>
<ellipse fill="none" stroke="#000000" cx="178.0087" cy="-257.3961" rx="28.6953" ry="18"/>
<text text-anchor="middle" x="178.0087" y="-253.6961" font-family="Times,serif" font-size="14.00" fill="#000000">* | *</text>
</g>
<!-- 3&#45;&#45;4 -->
<g id="edge5" class="edge">
<title>3&#45;&#45;4</title>
<path fill="none" stroke="#000000" d="M147.0179,-204.6982C153.399,-215.5488 161.5909,-229.4787 167.9496,-240.2914"/>
<text text-anchor="middle" x="145.9838" y="-226.2948" font-family="Times,serif" font-size="14.00" fill="#000000">&#45; | &#45;</text>
</g>
<!-- 5 -->
<g id="node6" class="node">
<title>5</title>
<ellipse fill="none" stroke="#000000" cx="79.7365" cy="-244.8331" rx="28.6953" ry="18"/>
<text text-anchor="middle" x="79.7365" y="-241.1331" font-family="Times,serif" font-size="14.00" fill="#000000">* | *</text>
</g>
<!-- 3&#45;&#45;5 -->
<g id="edge6" class="edge">
<title>3&#45;&#45;5</title>
<path fill="none" stroke="#000000" d="M120.6305,-203.7004C112.5848,-211.7931 102.9201,-221.5142 95.0069,-229.4736"/>
<text text-anchor="middle" x="119.3187" y="-220.387" font-family="Times,serif" font-size="14.00" fill="#000000">&#45; | &#45;</text>
</g>
<!-- 6 -->
<g id="node7" class="node">
<title>6</title>
<ellipse fill="none" stroke="#000000" cx="211.7169" cy="-152.4328" rx="35.194" ry="18"/>
<text text-anchor="middle" x="211.7169" y="-148.7328" font-family="Times,serif" font-size="14.00" fill="#000000">H | H</text>
</g>
<!-- 3&#45;&#45;6 -->
<g id="edge7" class="edge">
<title>3&#45;&#45;6</title>
<path fill="none" stroke="#000000" stroke-dasharray="1,5" d="M163.0295,-175.1665C170.3674,-171.7402 178.3408,-168.0171 185.6705,-164.5947"/>
<text text-anchor="middle" x="171.85" y="-158.6806" font-family="Times,serif" font-size="14.00" fill="#000000">&#45;</text>
</g>
<!-- 6&#45;&#45;7 -->
<g id="edge8" class="edge">
<title>6&#45;&#45;7</title>
<path fill="none" stroke="#000000" stroke-dasharray="5,2" d="M206.1388,-134.4091C202.3866,-122.2855 197.4608,-106.3698 193.7171,-94.2733"/>
<text text-anchor="middle" x="197.4279" y="-118.1412" font-family="Times,serif" font-size="14.00" fill="#000000">&#45;</text>
</g>
<!-- 8 -->
<g id="node9" class="node">
<title>8</title>
<ellipse fill="none" stroke="#000000" cx="239.9116" cy="-18" rx="35.194" ry="18"/>
<text text-anchor="middle" x="239.9116" y="-14.3" font-family="Times,serif" font-size="14.00" fill="#000000">H | H</text>
</g>
<!-- 7&#45;&#45;8 -->
<g id="edge9" class="edge">
<title>7&#45;&#45;8</title>
<path fill="none" stroke="#000000" d="M202.8651,-59.8061C209.9148,-51.8506 218.3366,-42.3468 225.3678,-34.4123"/>
<text text-anchor="middle" x="225.6164" y="-50.9092" font-family="Times,serif" font-size="14.00" fill="#000000">&#45; | &#45;</text>
</g>
</g>
</svg>
