<?xml version="1.0" encoding="UTF-8" standalone="no"?>
<!DOCTYPE svg PUBLIC "-//W3C//DTD SVG 1.1//EN"
 "http://www.w3.org/Graphics/SVG/1.1/DTD/svg11.dtd">
<!-- Generated by graphviz version 2.40.1 (20161225.0304)
 -->
<!-- Title: G Pages: 1 -->
<svg width="271pt" height="311pt"
 viewBox="0.00 0.00 271.29 310.52" xmlns="http://www.w3.org/2000/svg" xmlns:xlink="http://www.w3.org/1999/xlink">
<g id="graph0" class="graph" transform="scale(1 1) rotate(0) translate(4 306.5196)">
<title>G</title>
<polygon fill="#ffffff" stroke="transparent" points="-4,4 -4,-306.5196 267.2916,-306.5196 267.2916,4 -4,4"/>
<!-- 0 -->
<g id="node1" class="node">
<title>0</title>
<ellipse fill="none" stroke="#000000" cx="130.495" cy="-177.0513" rx="33.2948" ry="18"/>
<text text-anchor="middle" x="130.495" y="-173.3513" font-family="Times,serif" font-size="14.00" fill="#000000">C | C</text>
</g>
<!-- 1 -->
<g id="node2" class="node">
<title>1</title>
<ellipse fill="none" stroke="#000000" cx="191.1308" cy="-233.348" rx="34.394" ry="18"/>
<text text-anchor="middle" x="191.1308" y="-229.648" font-family="Times,serif" font-size="14.00" fill="#000000">O | O</text>
</g>
<!-- 0&#45;&#45;1 -->
<g id="edge1" class="edge">
<title>0&#45;&#45;1</title>
<path fill="none" stroke="#000000" d="M147.3854,-192.7331C155.6554,-200.4113 165.5958,-209.6403 173.9096,-217.3592"/>
<text text-anchor="middle" x="179.6475" y="-193.8461" font-family="Times,serif" font-size="14.00" fill="#000000">= | =</text>
</g>
<!-- 2 -->
<g id="node3" class="node">
<title>2</title>
<ellipse fill="none" stroke="#000000" cx="37.2121" cy="-149.7461" rx="28.6953" ry="18"/>
<text text-anchor="middle" x="37.2121" y="-146.0461" font-family="Times,serif" font-size="14.00" fill="#000000">* | *</text>
</g>
<!-- 0&#45;&#45;2 -->
<g id="edge2" class="edge">
<title>0&#45;&#45;2</title>
<path fill="none" stroke="#000000" d="M101.2356,-168.4867C89.0533,-164.9207 75.0248,-160.8144 63.2101,-157.3561"/>
<text text-anchor="middle" x="82.2229" y="-151.7214" font-family="Times,serif" font-size="14.00" fill="#000000">&#45; | &#45;</text>
</g>
<!-- 3 -->
<g id="node4" class="node">
<title>3</title>
<ellipse fill="none" stroke="#000000" cx="72.417" cy="-217.5568" rx="34.394" ry="18"/>
<text text-anchor="middle" x="72.417" y="-213.8568" font-family="Times,serif" font-size="14.00" fill="#000000">O | O</text>
</g>
<!-- 0&#45;&#45;3 -->
<g id="edge3" class="edge">
<title>0&#45;&#45;3</title>
<path fill="none" stroke="#000000" stroke-dasharray="5,2" d="M109.8553,-191.4461C104.5083,-195.1753 98.7455,-199.1945 93.3819,-202.9352"/>
<text text-anchor="middle" x="99.1186" y="-185.9907" font-family="Times,serif" font-size="14.00" fill="#000000">&#45;</text>
</g>
<!-- 5 -->
<g id="node6" class="node">
<title>5</title>
<ellipse fill="none" stroke="#000000" cx="156.6771" cy="-98.41" rx="35.194" ry="18"/>
<text text-anchor="middle" x="156.6771" y="-94.71" font-family="Times,serif" font-size="14.00" fill="#000000">N | N</text>
</g>
<!-- 0&#45;&#45;5 -->
<g id="edge4" class="edge">
<title>0&#45;&#45;5</title>
<path fill="none" stroke="#000000" stroke-dasharray="1,5" d="M136.4361,-159.2064C140.721,-146.3363 146.48,-129.0382 150.7595,-116.1843"/>
<text text-anchor="middle" x="141.0978" y="-141.4954" font-family="Times,serif" font-size="14.00" fill="#000000">&#45;</text>
</g>
<!-- 4 -->
<g id="node5" class="node">
<title>4</title>
<ellipse fill="none" stroke="#000000" cx="33.1471" cy="-284.5196" rx="33.2948" ry="18"/>
<text text-anchor="middle" x="33.1471" y="-280.8196" font-family="Times,serif" font-size="14.00" fill="#000000">C | C</text>
</g>
<!-- 3&#45;&#45;4 -->
<g id="edge5" class="edge">
<title>3&#45;&#45;4</title>
<path fill="none" stroke="#000000" d="M62.304,-234.8014C56.4863,-244.7217 49.1971,-257.1512 43.3623,-267.1007"/>
<text text-anchor="middle" x="41.3331" y="-254.7511" font-family="Times,serif" font-size="14.00" fill="#000000">&#45; | &#45;</text>
</g>
<!-- 6 -->
<g id="node7" class="node">
<title>6</title>
<ellipse fill="none" stroke="#000000" cx="84.4199" cy="-126.1571" rx="35.194" ry="18"/>
<text text-anchor="middle" x="84.4199" y="-122.4571" font-family="Times,serif" font-size="14.00" fill="#000000">H | H</text>
</g>
<!-- 3&#45;&#45;6 -->
<g id="edge6" class="edge">
<title>3&#45;&#45;6</title>
<path fill="none" stroke="#000000" stroke-dasharray="1,5" d="M74.7884,-199.4992C76.8927,-183.4756 79.9507,-160.1895 82.0535,-144.1773"/>
<text text-anchor="middle" x="75.9209" y="-175.6382" font-family="Times,serif" font-size="14.00" fill="#000000">&#45;</text>
</g>
<!-- 5&#45;&#45;6 -->
<g id="edge7" class="edge">
<title>5&#45;&#45;6</title>
<path fill="none" stroke="#000000" stroke-dasharray="5,2" d="M128.5337,-109.2172C123.303,-111.2258 117.8373,-113.3247 112.6054,-115.3338"/>
<text text-anchor="middle" x="119.3195" y="-101.0755" font-family="Times,serif" font-size="14.00" fill="#000000">&#45;</text>
</g>
<!-- 7 -->
<g id="node8" class="node">
<title>7</title>
<ellipse fill="none" stroke="#000000" cx="234.6941" cy="-82.1801" rx="28.6953" ry="18"/>
<text text-anchor="middle" x="234.6941" y="-78.4801" font-family="Times,serif" font-size="14.00" fill="#000000">* | *</text>
</g>
<!-- 5&#45;&#45;7 -->
<g id="edge8" class="edge">
<title>5&#45;&#45;7</title>
<path fill="none" stroke="#000000" d="M189.3113,-91.6211C195.324,-90.3703 201.5445,-89.0763 207.3802,-87.8623"/>
<text text-anchor="middle" x="198.3457" y="-78.5417" font-family="Times,serif" font-size="14.00" fill="#000000">&#45; | &#45;</text>
</g>
<!-- 8 -->
<g id="node9" class="node">
<title>8</title>
<ellipse fill="none" stroke="#000000" cx="145.1183" cy="-18" rx="28.6953" ry="18"/>
<text text-anchor="middle" x="145.1183" y="-14.3" font-family="Times,serif" font-size="14.00" fill="#000000">* | *</text>
</g>
<!-- 5&#45;&#45;8 -->
<g id="edge9" class="edge">
<title>5&#45;&#45;8</title>
<path fill="none" stroke="#000000" d="M154.0542,-80.1637C152.1626,-67.0042 149.6201,-49.3171 147.7308,-36.1741"/>
<text text-anchor="middle" x="139.3925" y="-61.9689" font-family="Times,serif" font-size="14.00" fill="#000000">&#45; | &#45;</text>
</g>
</g>
</svg>
