<?xml version="1.0" encoding="UTF-8" standalone="no"?>
<!DOCTYPE svg PUBLIC "-//W3C//DTD SVG 1.1//EN"
 "http://www.w3.org/Graphics/SVG/1.1/DTD/svg11.dtd">
<!-- Generated by graphviz version 2.40.1 (20161225.0304)
 -->
<!-- Title: G Pages: 1 -->
<svg width="254pt" height="245pt"
 viewBox="0.00 0.00 253.90 245.38" xmlns="http://www.w3.org/2000/svg" xmlns:xlink="http://www.w3.org/1999/xlink">
<g id="graph0" class="graph" transform="scale(1 1) rotate(0) translate(4 241.3826)">
<title>G</title>
<polygon fill="#ffffff" stroke="transparent" points="-4,4 -4,-241.3826 249.9034,-241.3826 249.9034,4 -4,4"/>
<!-- 0 -->
<g id="node1" class="node">
<title>0</title>
<ellipse fill="none" stroke="#000000" cx="161.058" cy="-179.035" rx="33.2948" ry="18"/>
<text text-anchor="middle" x="161.058" y="-175.335" font-family="Times,serif" font-size="14.00" fill="#000000">C | C</text>
</g>
<!-- 1 -->
<g id="node2" class="node">
<title>1</title>
<ellipse fill="none" stroke="#000000" cx="211.4565" cy="-118.8743" rx="34.394" ry="18"/>
<text text-anchor="middle" x="211.4565" y="-115.1743" font-family="Times,serif" font-size="14.00" fill="#000000">O | O</text>
</g>
<!-- 0&#45;&#45;1 -->
<g id="edge1" class="edge">
<title>0&#45;&#45;1</title>
<path fill="none" stroke="#000000" d="M174.8296,-162.5958C181.8243,-154.2462 190.3094,-144.1176 197.3507,-135.7124"/>
<text text-anchor="middle" x="170.5902" y="-137.9541" font-family="Times,serif" font-size="14.00" fill="#000000">&#45; | =</text>
</g>
<!-- 3 -->
<g id="node4" class="node">
<title>3</title>
<ellipse fill="none" stroke="#000000" cx="100.842" cy="-219.3826" rx="35.194" ry="18"/>
<text text-anchor="middle" x="100.842" y="-215.6826" font-family="Times,serif" font-size="14.00" fill="#000000">H | H</text>
</g>
<!-- 0&#45;&#45;3 -->
<g id="edge2" class="edge">
<title>0&#45;&#45;3</title>
<path fill="none" stroke="#000000" stroke-dasharray="5,2" d="M139.9974,-193.1466C134.2996,-196.9644 128.1253,-201.1015 122.4007,-204.9372"/>
<text text-anchor="middle" x="128.699" y="-187.8419" font-family="Times,serif" font-size="14.00" fill="#000000">&#45;</text>
</g>
<!-- 4 -->
<g id="node5" class="node">
<title>4</title>
<ellipse fill="none" stroke="#000000" cx="88.9711" cy="-147.7908" rx="33.2948" ry="18"/>
<text text-anchor="middle" x="88.9711" y="-144.0908" font-family="Times,serif" font-size="14.00" fill="#000000">C | C</text>
</g>
<!-- 0&#45;&#45;4 -->
<g id="edge3" class="edge">
<title>0&#45;&#45;4</title>
<path fill="none" stroke="#000000" d="M135.033,-167.7551C128.5803,-164.9584 121.6624,-161.96 115.2,-159.159"/>
<text text-anchor="middle" x="113.6165" y="-167.2571" font-family="Times,serif" font-size="14.00" fill="#000000">&#45; | &#45;</text>
</g>
<!-- 2 -->
<g id="node3" class="node">
<title>2</title>
<ellipse fill="none" stroke="#000000" cx="172.0846" cy="-49.0678" rx="35.194" ry="18"/>
<text text-anchor="middle" x="172.0846" y="-45.3678" font-family="Times,serif" font-size="14.00" fill="#000000">H | H</text>
</g>
<!-- 1&#45;&#45;2 -->
<g id="edge4" class="edge">
<title>1&#45;&#45;2</title>
<path fill="none" stroke="#000000" stroke-dasharray="5,2" d="M201.5213,-101.2592C195.5073,-90.5962 187.8689,-77.0534 181.8802,-66.4354"/>
<text text-anchor="middle" x="189.2008" y="-87.6473" font-family="Times,serif" font-size="14.00" fill="#000000">&#45;</text>
</g>
<!-- 5 -->
<g id="node6" class="node">
<title>5</title>
<ellipse fill="none" stroke="#000000" cx="93.0784" cy="-68.0635" rx="34.394" ry="18"/>
<text text-anchor="middle" x="93.0784" y="-64.3635" font-family="Times,serif" font-size="14.00" fill="#000000">O | O</text>
</g>
<!-- 2&#45;&#45;5 -->
<g id="edge5" class="edge">
<title>2&#45;&#45;5</title>
<path fill="none" stroke="#000000" stroke-dasharray="1,5" d="M139.9497,-56.7941C134.8232,-58.0267 129.525,-59.3005 124.4172,-60.5286"/>
<text text-anchor="middle" x="129.6835" y="-62.4613" font-family="Times,serif" font-size="14.00" fill="#000000">&#45;</text>
</g>
<!-- 3&#45;&#45;4 -->
<g id="edge6" class="edge">
<title>3&#45;&#45;4</title>
<path fill="none" stroke="#000000" stroke-dasharray="1,5" d="M97.8464,-201.3169C96.0606,-190.547 93.7998,-176.9123 92.0069,-166.0996"/>
<text text-anchor="middle" x="92.4267" y="-187.5083" font-family="Times,serif" font-size="14.00" fill="#000000">&#45;</text>
</g>
<!-- 4&#45;&#45;5 -->
<g id="edge7" class="edge">
<title>4&#45;&#45;5</title>
<path fill="none" stroke="#000000" stroke-dasharray="5,2" d="M89.9031,-129.6994C90.5753,-116.6516 91.4787,-99.1147 92.15,-86.0833"/>
<text text-anchor="middle" x="88.5266" y="-111.6913" font-family="Times,serif" font-size="14.00" fill="#000000">&#45;</text>
</g>
<!-- 6 -->
<g id="node7" class="node">
<title>6</title>
<ellipse fill="none" stroke="#000000" cx="35.0969" cy="-18" rx="35.194" ry="18"/>
<text text-anchor="middle" x="35.0969" y="-14.3" font-family="Times,serif" font-size="14.00" fill="#000000">H | H</text>
</g>
<!-- 5&#45;&#45;6 -->
<g id="edge8" class="edge">
<title>5&#45;&#45;6</title>
<path fill="none" stroke="#000000" d="M75.0505,-52.4975C68.1359,-46.5272 60.2455,-39.7143 53.3133,-33.7288"/>
<text text-anchor="middle" x="52.6819" y="-46.9132" font-family="Times,serif" font-size="14.00" fill="#000000">&#45; | &#45;</text>
</g>
</g>
</svg>
