<?xml version="1.0" encoding="UTF-8" standalone="no"?>
<!DOCTYPE svg PUBLIC "-//W3C//DTD SVG 1.1//EN"
 "http://www.w3.org/Graphics/SVG/1.1/DTD/svg11.dtd">
<!-- Generated by graphviz version 2.40.1 (20161225.0304)
 -->
<!-- Title: G Pages: 1 -->
<svg width="251pt" height="373pt"
 viewBox="0.00 0.00 251.00 372.65" xmlns="http://www.w3.org/2000/svg" xmlns:xlink="http://www.w3.org/1999/xlink">
<g id="graph0" class="graph" transform="scale(1 1) rotate(0) translate(4 368.6492)">
<title>G</title>
<polygon fill="#ffffff" stroke="transparent" points="-4,4 -4,-368.6492 246.9983,-368.6492 246.9983,4 -4,4"/>
<!-- 0 -->
<g id="node1" class="node">
<title>0</title>
<ellipse fill="none" stroke="#000000" cx="41.8812" cy="-201.5093" rx="33.2948" ry="18"/>
<text text-anchor="middle" x="41.8812" y="-197.8093" font-family="Times,serif" font-size="14.00" fill="#000000">C | C</text>
</g>
<!-- 1 -->
<g id="node2" class="node">
<title>1</title>
<ellipse fill="none" stroke="#000000" cx="111.3641" cy="-160.841" rx="33.2948" ry="18"/>
<text text-anchor="middle" x="111.3641" y="-157.141" font-family="Times,serif" font-size="14.00" fill="#000000">C | C</text>
</g>
<!-- 0&#45;&#45;1 -->
<g id="edge1" class="edge">
<title>0&#45;&#45;1</title>
<path fill="none" stroke="#000000" d="M64.6325,-188.193C72.3899,-183.6526 81.0563,-178.5801 88.799,-174.0483"/>
<text text-anchor="middle" x="61.2158" y="-169.9207" font-family="Times,serif" font-size="14.00" fill="#000000">= | &#45;</text>
</g>
<!-- 2 -->
<g id="node3" class="node">
<title>2</title>
<ellipse fill="none" stroke="#000000" cx="64.9365" cy="-277.7434" rx="34.394" ry="18"/>
<text text-anchor="middle" x="64.9365" y="-274.0434" font-family="Times,serif" font-size="14.00" fill="#000000">O | O</text>
</g>
<!-- 0&#45;&#45;2 -->
<g id="edge2" class="edge">
<title>0&#45;&#45;2</title>
<path fill="none" stroke="#000000" stroke-dasharray="1,5" d="M47.345,-219.5757C51.0202,-231.7281 55.845,-247.6815 59.512,-259.8067"/>
<text text-anchor="middle" x="50.9285" y="-243.4912" font-family="Times,serif" font-size="14.00" fill="#000000">&#45;</text>
</g>
<!-- 4 -->
<g id="node5" class="node">
<title>4</title>
<ellipse fill="none" stroke="#000000" cx="133.9235" cy="-238.0397" rx="35.194" ry="18"/>
<text text-anchor="middle" x="133.9235" y="-234.3397" font-family="Times,serif" font-size="14.00" fill="#000000">H | H</text>
</g>
<!-- 1&#45;&#45;4 -->
<g id="edge3" class="edge">
<title>1&#45;&#45;4</title>
<path fill="none" stroke="#000000" stroke-dasharray="1,5" d="M116.5964,-178.746C120.2409,-191.2176 125.0813,-207.7815 128.7196,-220.2318"/>
<text text-anchor="middle" x="120.158" y="-203.2889" font-family="Times,serif" font-size="14.00" fill="#000000">&#45;</text>
</g>
<!-- 5 -->
<g id="node6" class="node">
<title>5</title>
<ellipse fill="none" stroke="#000000" cx="139.238" cy="-86.4612" rx="35.194" ry="18"/>
<text text-anchor="middle" x="139.238" y="-82.7612" font-family="Times,serif" font-size="14.00" fill="#000000">N | N</text>
</g>
<!-- 1&#45;&#45;5 -->
<g id="edge4" class="edge">
<title>1&#45;&#45;5</title>
<path fill="none" stroke="#000000" d="M118.1116,-142.8357C122.4941,-131.1414 128.1826,-115.9619 132.5526,-104.3007"/>
<text text-anchor="middle" x="113.8321" y="-127.3682" font-family="Times,serif" font-size="14.00" fill="#000000">&#45; | &#45;</text>
</g>
<!-- 3 -->
<g id="node4" class="node">
<title>3</title>
<ellipse fill="none" stroke="#000000" cx="35.0969" cy="-346.6492" rx="35.194" ry="18"/>
<text text-anchor="middle" x="35.0969" y="-342.9492" font-family="Times,serif" font-size="14.00" fill="#000000">H | H</text>
</g>
<!-- 2&#45;&#45;3 -->
<g id="edge5" class="edge">
<title>2&#45;&#45;3</title>
<path fill="none" stroke="#000000" d="M57.2521,-295.4884C52.8315,-305.6965 47.2926,-318.4867 42.859,-328.7249"/>
<text text-anchor="middle" x="38.5555" y="-315.9066" font-family="Times,serif" font-size="14.00" fill="#000000">&#45; | &#45;</text>
</g>
<!-- 2&#45;&#45;4 -->
<g id="edge6" class="edge">
<title>2&#45;&#45;4</title>
<path fill="none" stroke="#000000" stroke-dasharray="5,2" d="M88.2924,-264.3015C95.3284,-260.2521 103.0571,-255.8041 110.1217,-251.7382"/>
<text text-anchor="middle" x="101.707" y="-261.8199" font-family="Times,serif" font-size="14.00" fill="#000000">&#45;</text>
</g>
<!-- 6 -->
<g id="node7" class="node">
<title>6</title>
<ellipse fill="none" stroke="#000000" cx="99.1908" cy="-18" rx="28.6953" ry="18"/>
<text text-anchor="middle" x="99.1908" y="-14.3" font-family="Times,serif" font-size="14.00" fill="#000000">* | *</text>
</g>
<!-- 5&#45;&#45;6 -->
<g id="edge7" class="edge">
<title>5&#45;&#45;6</title>
<path fill="none" stroke="#000000" d="M129.1324,-69.1855C123.0152,-58.7281 115.2458,-45.4463 109.1544,-35.033"/>
<text text-anchor="middle" x="107.6434" y="-55.9092" font-family="Times,serif" font-size="14.00" fill="#000000">&#45; | &#45;</text>
</g>
<!-- 7 -->
<g id="node8" class="node">
<title>7</title>
<ellipse fill="none" stroke="#000000" cx="214.4009" cy="-61.445" rx="28.6953" ry="18"/>
<text text-anchor="middle" x="214.4009" y="-57.745" font-family="Times,serif" font-size="14.00" fill="#000000">* | *</text>
</g>
<!-- 5&#45;&#45;7 -->
<g id="edge8" class="edge">
<title>5&#45;&#45;7</title>
<path fill="none" stroke="#000000" d="M168.9444,-76.5741C175.5098,-74.389 182.4109,-72.0921 188.7968,-69.9667"/>
<text text-anchor="middle" x="173.1206" y="-62.0704" font-family="Times,serif" font-size="14.00" fill="#000000">&#45; | &#45;</text>
</g>
</g>
</svg>
