<?xml version="1.0" encoding="UTF-8" standalone="no"?>
<!DOCTYPE svg PUBLIC "-//W3C//DTD SVG 1.1//EN"
 "http://www.w3.org/Graphics/SVG/1.1/DTD/svg11.dtd">
<!-- Generated by graphviz version 2.40.1 (20161225.0304)
 -->
<!-- Title: G Pages: 1 -->
<svg width="244pt" height="248pt"
 viewBox="0.00 0.00 244.01 248.16" xmlns="http://www.w3.org/2000/svg" xmlns:xlink="http://www.w3.org/1999/xlink">
<g id="graph0" class="graph" transform="scale(1 1) rotate(0) translate(4 244.1646)">
<title>G</title>
<polygon fill="#ffffff" stroke="transparent" points="-4,4 -4,-244.1646 240.0143,-244.1646 240.0143,4 -4,4"/>
<!-- 0 -->
<g id="node1" class="node">
<title>0</title>
<ellipse fill="none" stroke="#000000" cx="106.897" cy="-222.1646" rx="33.2948" ry="18"/>
<text text-anchor="middle" x="106.897" y="-218.4646" font-family="Times,serif" font-size="14.00" fill="#000000">C | C</text>
</g>
<!-- 1 -->
<g id="node2" class="node">
<title>1</title>
<ellipse fill="none" stroke="#000000" cx="184.4609" cy="-210.4759" rx="34.394" ry="18"/>
<text text-anchor="middle" x="184.4609" y="-206.7759" font-family="Times,serif" font-size="14.00" fill="#000000">O | O</text>
</g>
<!-- 0&#45;&#45;1 -->
<g id="edge1" class="edge">
<title>0&#45;&#45;1</title>
<path fill="none" stroke="#000000" d="M138.893,-217.3429C142.9825,-216.7266 147.176,-216.0946 151.2838,-215.4756"/>
<text text-anchor="middle" x="137.3384" y="-205.2092" font-family="Times,serif" font-size="14.00" fill="#000000">= | &#45;</text>
</g>
<!-- 2 -->
<g id="node3" class="node">
<title>2</title>
<ellipse fill="none" stroke="#000000" cx="73.1986" cy="-151.1217" rx="33.2948" ry="18"/>
<text text-anchor="middle" x="73.1986" y="-147.4217" font-family="Times,serif" font-size="14.00" fill="#000000">C | C</text>
</g>
<!-- 0&#45;&#45;2 -->
<g id="edge2" class="edge">
<title>0&#45;&#45;2</title>
<path fill="none" stroke="#000000" d="M98.567,-204.6034C93.4216,-193.7558 86.8377,-179.8756 81.6668,-168.9743"/>
<text text-anchor="middle" x="78.6169" y="-175.5889" font-family="Times,serif" font-size="14.00" fill="#000000">&#45; | &#45;</text>
</g>
<!-- 3 -->
<g id="node4" class="node">
<title>3</title>
<ellipse fill="none" stroke="#000000" cx="35.0969" cy="-212.9737" rx="35.194" ry="18"/>
<text text-anchor="middle" x="35.0969" y="-209.2737" font-family="Times,serif" font-size="14.00" fill="#000000">H | H</text>
</g>
<!-- 0&#45;&#45;3 -->
<g id="edge3" class="edge">
<title>0&#45;&#45;3</title>
<path fill="none" stroke="#000000" stroke-dasharray="1,5" d="M74.3582,-217.9994C72.7256,-217.7904 71.0836,-217.5803 69.446,-217.3706"/>
<text text-anchor="middle" x="73.1521" y="-206.485" font-family="Times,serif" font-size="14.00" fill="#000000">&#45;</text>
</g>
<!-- 5 -->
<g id="node6" class="node">
<title>5</title>
<ellipse fill="none" stroke="#000000" cx="200.9174" cy="-132.1069" rx="35.194" ry="18"/>
<text text-anchor="middle" x="200.9174" y="-128.4069" font-family="Times,serif" font-size="14.00" fill="#000000">H | H</text>
</g>
<!-- 1&#45;&#45;5 -->
<g id="edge4" class="edge">
<title>1&#45;&#45;5</title>
<path fill="none" stroke="#000000" stroke-dasharray="1,5" d="M188.2777,-192.2995C190.9363,-179.6388 194.4672,-162.8238 197.1213,-150.1847"/>
<text text-anchor="middle" x="190.1995" y="-175.0421" font-family="Times,serif" font-size="14.00" fill="#000000">&#45;</text>
</g>
<!-- 2&#45;&#45;3 -->
<g id="edge5" class="edge">
<title>2&#45;&#45;3</title>
<path fill="none" stroke="#000000" stroke-dasharray="5,2" d="M62.5852,-168.3509C57.3886,-176.7868 51.1423,-186.9265 45.9182,-195.4071"/>
<text text-anchor="middle" x="51.7517" y="-185.679" font-family="Times,serif" font-size="14.00" fill="#000000">&#45;</text>
</g>
<!-- 4 -->
<g id="node5" class="node">
<title>4</title>
<ellipse fill="none" stroke="#000000" cx="129.0359" cy="-94.0953" rx="34.394" ry="18"/>
<text text-anchor="middle" x="129.0359" y="-90.3953" font-family="Times,serif" font-size="14.00" fill="#000000">O | O</text>
</g>
<!-- 2&#45;&#45;4 -->
<g id="edge6" class="edge">
<title>2&#45;&#45;4</title>
<path fill="none" stroke="#000000" stroke-dasharray="1,5" d="M89.05,-134.9327C96.6591,-127.1616 105.7491,-117.878 113.3381,-110.1273"/>
<text text-anchor="middle" x="98.6941" y="-126.33" font-family="Times,serif" font-size="14.00" fill="#000000">&#45;</text>
</g>
<!-- 4&#45;&#45;5 -->
<g id="edge7" class="edge">
<title>4&#45;&#45;5</title>
<path fill="none" stroke="#000000" stroke-dasharray="5,2" d="M153.3717,-106.9643C160.703,-110.8411 168.7559,-115.0996 176.117,-118.9922"/>
<text text-anchor="middle" x="162.2443" y="-116.7783" font-family="Times,serif" font-size="14.00" fill="#000000">&#45;</text>
</g>
<!-- 6 -->
<g id="node7" class="node">
<title>6</title>
<ellipse fill="none" stroke="#000000" cx="120.5148" cy="-18" rx="35.194" ry="18"/>
<text text-anchor="middle" x="120.5148" y="-14.3" font-family="Times,serif" font-size="14.00" fill="#000000">H | H</text>
</g>
<!-- 4&#45;&#45;6 -->
<g id="edge8" class="edge">
<title>4&#45;&#45;6</title>
<path fill="none" stroke="#000000" d="M127.0165,-76.0618C125.668,-64.0195 123.9008,-48.2378 122.5492,-36.1678"/>
<text text-anchor="middle" x="113.2829" y="-59.9148" font-family="Times,serif" font-size="14.00" fill="#000000">&#45; | &#45;</text>
</g>
</g>
</svg>
