<?xml version="1.0" encoding="UTF-8" standalone="no"?>
<!DOCTYPE svg PUBLIC "-//W3C//DTD SVG 1.1//EN"
 "http://www.w3.org/Graphics/SVG/1.1/DTD/svg11.dtd">
<!-- Generated by graphviz version 2.40.1 (20161225.0304)
 -->
<!-- Title: G Pages: 1 -->
<svg width="204pt" height="192pt"
 viewBox="0.00 0.00 203.70 191.60" xmlns="http://www.w3.org/2000/svg" xmlns:xlink="http://www.w3.org/1999/xlink">
<g id="graph0" class="graph" transform="scale(1 1) rotate(0) translate(4 187.5994)">
<title>G</title>
<polygon fill="#ffffff" stroke="transparent" points="-4,4 -4,-187.5994 199.698,-187.5994 199.698,4 -4,4"/>
<!-- 0 -->
<g id="node1" class="node">
<title>0</title>
<ellipse fill="none" stroke="#000000" cx="39.5138" cy="-18" rx="33.2948" ry="18"/>
<text text-anchor="middle" x="39.5138" y="-14.3" font-family="Times,serif" font-size="14.00" fill="#000000">C | C</text>
</g>
<!-- 1 -->
<g id="node2" class="node">
<title>1</title>
<ellipse fill="none" stroke="#000000" cx="117.5511" cy="-28.5343" rx="33.2948" ry="18"/>
<text text-anchor="middle" x="117.5511" y="-24.8343" font-family="Times,serif" font-size="14.00" fill="#000000">C | C</text>
</g>
<!-- 0&#45;&#45;1 -->
<g id="edge1" class="edge">
<title>0&#45;&#45;1</title>
<path fill="none" stroke="#000000" d="M71.7051,-22.3455C76.1555,-22.9463 80.7282,-23.5635 85.1818,-24.1647"/>
<text text-anchor="middle" x="78.4434" y="-12.0551" font-family="Times,serif" font-size="14.00" fill="#000000">= | &#45;</text>
</g>
<!-- 2 -->
<g id="node3" class="node">
<title>2</title>
<ellipse fill="none" stroke="#000000" cx="35.0969" cy="-96.6004" rx="35.194" ry="18"/>
<text text-anchor="middle" x="35.0969" y="-92.9004" font-family="Times,serif" font-size="14.00" fill="#000000">H | H</text>
</g>
<!-- 0&#45;&#45;2 -->
<g id="edge2" class="edge">
<title>0&#45;&#45;2</title>
<path fill="none" stroke="#000000" stroke-dasharray="1,5" d="M38.4893,-36.2301C37.7758,-48.9282 36.8281,-65.7928 36.1158,-78.4692"/>
<text text-anchor="middle" x="34.8025" y="-61.1496" font-family="Times,serif" font-size="14.00" fill="#000000">&#45;</text>
</g>
<!-- 3 -->
<g id="node4" class="node">
<title>3</title>
<ellipse fill="none" stroke="#000000" cx="113.294" cy="-107.3086" rx="34.394" ry="18"/>
<text text-anchor="middle" x="113.294" y="-103.6086" font-family="Times,serif" font-size="14.00" fill="#000000">O | O</text>
</g>
<!-- 1&#45;&#45;3 -->
<g id="edge3" class="edge">
<title>1&#45;&#45;3</title>
<path fill="none" stroke="#000000" stroke-dasharray="1,5" d="M116.5637,-46.8047C115.876,-59.5309 114.9626,-76.4328 114.276,-89.1373"/>
<text text-anchor="middle" x="112.9199" y="-71.771" font-family="Times,serif" font-size="14.00" fill="#000000">&#45;</text>
</g>
<!-- 2&#45;&#45;3 -->
<g id="edge4" class="edge">
<title>2&#45;&#45;3</title>
<path fill="none" stroke="#000000" stroke-dasharray="5,2" d="M69.1678,-101.266C72.625,-101.7394 76.1356,-102.2202 79.5889,-102.6931"/>
<text text-anchor="middle" x="75.6283" y="-90.7795" font-family="Times,serif" font-size="14.00" fill="#000000">&#45;</text>
</g>
<!-- 4 -->
<g id="node5" class="node">
<title>4</title>
<ellipse fill="none" stroke="#000000" cx="160.6012" cy="-165.5994" rx="35.194" ry="18"/>
<text text-anchor="middle" x="160.6012" y="-161.8994" font-family="Times,serif" font-size="14.00" fill="#000000">H | H</text>
</g>
<!-- 3&#45;&#45;4 -->
<g id="edge5" class="edge">
<title>3&#45;&#45;4</title>
<path fill="none" stroke="#000000" d="M126.9772,-124.1687C133.3081,-131.9695 140.8053,-141.2074 147.1121,-148.9784"/>
<text text-anchor="middle" x="148.5446" y="-125.3736" font-family="Times,serif" font-size="14.00" fill="#000000">&#45; | &#45;</text>
</g>
</g>
</svg>
