<?xml version="1.0" encoding="UTF-8" standalone="no"?>
<!DOCTYPE svg PUBLIC "-//W3C//DTD SVG 1.1//EN"
 "http://www.w3.org/Graphics/SVG/1.1/DTD/svg11.dtd">
<!-- Generated by graphviz version 2.40.1 (20161225.0304)
 -->
<!-- Title: G Pages: 1 -->
<svg width="272pt" height="407pt"
 viewBox="0.00 0.00 272.13 407.10" xmlns="http://www.w3.org/2000/svg" xmlns:xlink="http://www.w3.org/1999/xlink">
<g id="graph0" class="graph" transform="scale(1 1) rotate(0) translate(4 403.0952)">
<title>G</title>
<polygon fill="#ffffff" stroke="transparent" points="-4,4 -4,-403.0952 268.1313,-403.0952 268.1313,4 -4,4"/>
<!-- 0 -->
<g id="node1" class="node">
<title>0</title>
<ellipse fill="none" stroke="#000000" cx="91.8985" cy="-232.7248" rx="33.2948" ry="18"/>
<text text-anchor="middle" x="91.8985" y="-229.0248" font-family="Times,serif" font-size="14.00" fill="#000000">C | C</text>
</g>
<!-- 1 -->
<g id="node2" class="node">
<title>1</title>
<ellipse fill="none" stroke="#000000" cx="120.2435" cy="-161.4086" rx="33.2948" ry="18"/>
<text text-anchor="middle" x="120.2435" y="-157.7086" font-family="Times,serif" font-size="14.00" fill="#000000">C | C</text>
</g>
<!-- 0&#45;&#45;1 -->
<g id="edge1" class="edge">
<title>0&#45;&#45;1</title>
<path fill="none" stroke="#000000" d="M98.9051,-215.0961C103.2332,-204.2067 108.7711,-190.2732 113.1206,-179.3299"/>
<text text-anchor="middle" x="90.5129" y="-201.013" font-family="Times,serif" font-size="14.00" fill="#000000">= | &#45;</text>
</g>
<!-- 2 -->
<g id="node3" class="node">
<title>2</title>
<ellipse fill="none" stroke="#000000" cx="99.7859" cy="-311.6598" rx="35.194" ry="18"/>
<text text-anchor="middle" x="99.7859" y="-307.9598" font-family="Times,serif" font-size="14.00" fill="#000000">N | N</text>
</g>
<!-- 0&#45;&#45;2 -->
<g id="edge2" class="edge">
<title>0&#45;&#45;2</title>
<path fill="none" stroke="#000000" stroke-dasharray="1,5" d="M93.7279,-251.0325C95.0021,-263.7846 96.6944,-280.721 97.9664,-293.4514"/>
<text text-anchor="middle" x="93.3472" y="-276.0419" font-family="Times,serif" font-size="14.00" fill="#000000">&#45;</text>
</g>
<!-- 5 -->
<g id="node6" class="node">
<title>5</title>
<ellipse fill="none" stroke="#000000" cx="35.0969" cy="-278.5962" rx="35.194" ry="18"/>
<text text-anchor="middle" x="35.0969" y="-274.8962" font-family="Times,serif" font-size="14.00" fill="#000000">H | H</text>
</g>
<!-- 0&#45;&#45;5 -->
<g id="edge3" class="edge">
<title>0&#45;&#45;5</title>
<path fill="none" stroke="#000000" stroke-dasharray="1,5" d="M73.2995,-247.7448C67.0874,-252.7616 60.1621,-258.3543 53.9321,-263.3854"/>
<text text-anchor="middle" x="61.1158" y="-259.3651" font-family="Times,serif" font-size="14.00" fill="#000000">&#45;</text>
</g>
<!-- 6 -->
<g id="node7" class="node">
<title>6</title>
<ellipse fill="none" stroke="#000000" cx="48.1943" cy="-171.4211" rx="35.194" ry="18"/>
<text text-anchor="middle" x="48.1943" y="-167.7211" font-family="Times,serif" font-size="14.00" fill="#000000">H | H</text>
</g>
<!-- 0&#45;&#45;6 -->
<g id="edge4" class="edge">
<title>0&#45;&#45;6</title>
<path fill="none" stroke="#000000" stroke-dasharray="5,2" d="M79.7245,-215.6483C73.6627,-207.1455 66.3559,-196.8962 60.3031,-188.406"/>
<text text-anchor="middle" x="67.5138" y="-190.8272" font-family="Times,serif" font-size="14.00" fill="#000000">&#45;</text>
</g>
<!-- 1&#45;&#45;6 -->
<g id="edge5" class="edge">
<title>1&#45;&#45;6</title>
<path fill="none" stroke="#000000" stroke-dasharray="1,5" d="M88.0121,-165.8877C86.0638,-166.1585 84.1005,-166.4313 82.1454,-166.703"/>
<text text-anchor="middle" x="85.0787" y="-155.0954" font-family="Times,serif" font-size="14.00" fill="#000000">&#45;</text>
</g>
<!-- 7 -->
<g id="node8" class="node">
<title>7</title>
<ellipse fill="none" stroke="#000000" cx="158.3703" cy="-92.1815" rx="35.194" ry="18"/>
<text text-anchor="middle" x="158.3703" y="-88.4815" font-family="Times,serif" font-size="14.00" fill="#000000">N | N</text>
</g>
<!-- 1&#45;&#45;7 -->
<g id="edge6" class="edge">
<title>1&#45;&#45;7</title>
<path fill="none" stroke="#000000" d="M129.8645,-143.9397C135.6001,-133.5255 142.8614,-120.3411 148.6198,-109.8856"/>
<text text-anchor="middle" x="127.7421" y="-130.7127" font-family="Times,serif" font-size="14.00" fill="#000000">&#45; | &#45;</text>
</g>
<!-- 3 -->
<g id="node4" class="node">
<title>3</title>
<ellipse fill="none" stroke="#000000" cx="58.3163" cy="-381.0952" rx="28.6953" ry="18"/>
<text text-anchor="middle" x="58.3163" y="-377.3952" font-family="Times,serif" font-size="14.00" fill="#000000">* | *</text>
</g>
<!-- 2&#45;&#45;3 -->
<g id="edge7" class="edge">
<title>2&#45;&#45;3</title>
<path fill="none" stroke="#000000" d="M89.3213,-329.1813C82.9869,-339.7875 74.9416,-353.2584 68.6338,-363.8199"/>
<text text-anchor="middle" x="67.4776" y="-350.3006" font-family="Times,serif" font-size="14.00" fill="#000000">&#45; | &#45;</text>
</g>
<!-- 4 -->
<g id="node5" class="node">
<title>4</title>
<ellipse fill="none" stroke="#000000" cx="166.3405" cy="-354.8922" rx="28.6953" ry="18"/>
<text text-anchor="middle" x="166.3405" y="-351.1922" font-family="Times,serif" font-size="14.00" fill="#000000">* | *</text>
</g>
<!-- 2&#45;&#45;4 -->
<g id="edge8" class="edge">
<title>2&#45;&#45;4</title>
<path fill="none" stroke="#000000" d="M121.5783,-325.8157C129.4637,-330.9379 138.3297,-336.697 146.0782,-341.7303"/>
<text text-anchor="middle" x="122.3283" y="-337.573" font-family="Times,serif" font-size="14.00" fill="#000000">&#45; | &#45;</text>
</g>
<!-- 2&#45;&#45;5 -->
<g id="edge9" class="edge">
<title>2&#45;&#45;5</title>
<path fill="none" stroke="#000000" stroke-dasharray="5,2" d="M74.5902,-298.7819C69.9074,-296.3884 65.0141,-293.8874 60.3302,-291.4934"/>
<text text-anchor="middle" x="69.9602" y="-283.9376" font-family="Times,serif" font-size="14.00" fill="#000000">&#45;</text>
</g>
<!-- 8 -->
<g id="node9" class="node">
<title>8</title>
<ellipse fill="none" stroke="#000000" cx="128.6087" cy="-18" rx="28.6953" ry="18"/>
<text text-anchor="middle" x="128.6087" y="-14.3" font-family="Times,serif" font-size="14.00" fill="#000000">* | *</text>
</g>
<!-- 7&#45;&#45;8 -->
<g id="edge10" class="edge">
<title>7&#45;&#45;8</title>
<path fill="none" stroke="#000000" d="M151.1659,-74.2242C146.4522,-62.4753 140.3234,-47.1992 135.6441,-35.5359"/>
<text text-anchor="middle" x="131.905" y="-58.6801" font-family="Times,serif" font-size="14.00" fill="#000000">&#45; | &#45;</text>
</g>
<!-- 9 -->
<g id="node10" class="node">
<title>9</title>
<ellipse fill="none" stroke="#000000" cx="235.5338" cy="-74.3445" rx="28.6953" ry="18"/>
<text text-anchor="middle" x="235.5338" y="-70.6445" font-family="Times,serif" font-size="14.00" fill="#000000">* | *</text>
</g>
<!-- 7&#45;&#45;9 -->
<g id="edge11" class="edge">
<title>7&#45;&#45;9</title>
<path fill="none" stroke="#000000" d="M190.6475,-84.7203C196.5945,-83.3456 202.7468,-81.9235 208.5187,-80.5892"/>
<text text-anchor="middle" x="193.8331" y="-71.4548" font-family="Times,serif" font-size="14.00" fill="#000000">&#45; | &#45;</text>
</g>
</g>
</svg>
