<?xml version="1.0" encoding="UTF-8" standalone="no"?>
<!DOCTYPE svg PUBLIC "-//W3C//DTD SVG 1.1//EN"
 "http://www.w3.org/Graphics/SVG/1.1/DTD/svg11.dtd">
<!-- Generated by graphviz version 2.40.1 (20161225.0304)
 -->
<!-- Title: G Pages: 1 -->
<svg width="250pt" height="274pt"
 viewBox="0.00 0.00 250.03 273.78" xmlns="http://www.w3.org/2000/svg" xmlns:xlink="http://www.w3.org/1999/xlink">
<g id="graph0" class="graph" transform="scale(1 1) rotate(0) translate(4 269.7838)">
<title>G</title>
<polygon fill="#ffffff" stroke="transparent" points="-4,4 -4,-269.7838 246.0332,-269.7838 246.0332,4 -4,4"/>
<!-- 0 -->
<g id="node1" class="node">
<title>0</title>
<ellipse fill="none" stroke="#000000" cx="99.6489" cy="-228.4662" rx="33.2948" ry="18"/>
<text text-anchor="middle" x="99.6489" y="-224.7662" font-family="Times,serif" font-size="14.00" fill="#000000">C | C</text>
</g>
<!-- 1 -->
<g id="node2" class="node">
<title>1</title>
<ellipse fill="none" stroke="#000000" cx="157.5368" cy="-175.1796" rx="33.2948" ry="18"/>
<text text-anchor="middle" x="157.5368" y="-171.4796" font-family="Times,serif" font-size="14.00" fill="#000000">C | C</text>
</g>
<!-- 0&#45;&#45;1 -->
<g id="edge1" class="edge">
<title>0&#45;&#45;1</title>
<path fill="none" stroke="#000000" d="M116.7041,-212.7666C124.1746,-205.8899 132.9241,-197.8359 140.4035,-190.951"/>
<text text-anchor="middle" x="140.0538" y="-205.6588" font-family="Times,serif" font-size="14.00" fill="#000000">&#45; | &#45;</text>
</g>
<!-- 2 -->
<g id="node3" class="node">
<title>2</title>
<ellipse fill="none" stroke="#000000" cx="34.4469" cy="-186.5673" rx="34.394" ry="18"/>
<text text-anchor="middle" x="34.4469" y="-182.8673" font-family="Times,serif" font-size="14.00" fill="#000000">O | O</text>
</g>
<!-- 0&#45;&#45;2 -->
<g id="edge2" class="edge">
<title>0&#45;&#45;2</title>
<path fill="none" stroke="#000000" d="M77.9376,-214.5144C70.9731,-210.039 63.2594,-205.0822 56.2858,-200.6009"/>
<text text-anchor="middle" x="51.6117" y="-211.3577" font-family="Times,serif" font-size="14.00" fill="#000000">&#45; | =</text>
</g>
<!-- 4 -->
<g id="node5" class="node">
<title>4</title>
<ellipse fill="none" stroke="#000000" cx="168.7703" cy="-247.7838" rx="35.194" ry="18"/>
<text text-anchor="middle" x="168.7703" y="-244.0838" font-family="Times,serif" font-size="14.00" fill="#000000">H | H</text>
</g>
<!-- 0&#45;&#45;4 -->
<g id="edge3" class="edge">
<title>0&#45;&#45;4</title>
<path fill="none" stroke="#000000" stroke-dasharray="5,2" d="M129.3638,-236.7707C132.1446,-237.5479 134.9682,-238.337 137.7605,-239.1174"/>
<text text-anchor="middle" x="134.8122" y="-226.744" font-family="Times,serif" font-size="14.00" fill="#000000">&#45;</text>
</g>
<!-- 1&#45;&#45;4 -->
<g id="edge4" class="edge">
<title>1&#45;&#45;4</title>
<path fill="none" stroke="#000000" stroke-dasharray="1,5" d="M160.3136,-193.1267C162.0419,-204.2967 164.257,-218.613 165.9865,-229.7915"/>
<text text-anchor="middle" x="160.6501" y="-215.2591" font-family="Times,serif" font-size="14.00" fill="#000000">&#45;</text>
</g>
<!-- 5 -->
<g id="node6" class="node">
<title>5</title>
<ellipse fill="none" stroke="#000000" cx="138.469" cy="-96.0514" rx="35.194" ry="18"/>
<text text-anchor="middle" x="138.469" y="-92.3514" font-family="Times,serif" font-size="14.00" fill="#000000">N | N</text>
</g>
<!-- 1&#45;&#45;5 -->
<g id="edge5" class="edge">
<title>1&#45;&#45;5</title>
<path fill="none" stroke="#000000" stroke-dasharray="5,2" d="M153.21,-157.2242C150.0895,-144.2744 145.8953,-126.8692 142.7786,-113.9357"/>
<text text-anchor="middle" x="145.4943" y="-139.3799" font-family="Times,serif" font-size="14.00" fill="#000000">&#45;</text>
</g>
<!-- 3 -->
<g id="node4" class="node">
<title>3</title>
<ellipse fill="none" stroke="#000000" cx="56.3998" cy="-109.9647" rx="35.194" ry="18"/>
<text text-anchor="middle" x="56.3998" y="-106.2647" font-family="Times,serif" font-size="14.00" fill="#000000">H | H</text>
</g>
<!-- 2&#45;&#45;3 -->
<g id="edge6" class="edge">
<title>2&#45;&#45;3</title>
<path fill="none" stroke="#000000" stroke-dasharray="5,2" d="M39.6495,-168.4136C43.1489,-156.2025 47.743,-140.1719 51.2346,-127.9882"/>
<text text-anchor="middle" x="42.942" y="-152.0009" font-family="Times,serif" font-size="14.00" fill="#000000">&#45;</text>
</g>
<!-- 3&#45;&#45;5 -->
<g id="edge7" class="edge">
<title>3&#45;&#45;5</title>
<path fill="none" stroke="#000000" stroke-dasharray="1,5" d="M89.7805,-104.3056C94.8395,-103.448 100.0595,-102.563 105.1179,-101.7054"/>
<text text-anchor="middle" x="94.9492" y="-106.8055" font-family="Times,serif" font-size="14.00" fill="#000000">&#45;</text>
</g>
<!-- 6 -->
<g id="node7" class="node">
<title>6</title>
<ellipse fill="none" stroke="#000000" cx="120.8038" cy="-18" rx="28.6953" ry="18"/>
<text text-anchor="middle" x="120.8038" y="-14.3" font-family="Times,serif" font-size="14.00" fill="#000000">* | *</text>
</g>
<!-- 5&#45;&#45;6 -->
<g id="edge8" class="edge">
<title>5&#45;&#45;6</title>
<path fill="none" stroke="#000000" d="M134.3718,-77.9486C131.518,-65.3392 127.7277,-48.5924 124.8788,-36.0046"/>
<text text-anchor="middle" x="118.1253" y="-60.7766" font-family="Times,serif" font-size="14.00" fill="#000000">&#45; | &#45;</text>
</g>
<!-- 7 -->
<g id="node8" class="node">
<title>7</title>
<ellipse fill="none" stroke="#000000" cx="213.4357" cy="-65.1763" rx="28.6953" ry="18"/>
<text text-anchor="middle" x="213.4357" y="-61.4763" font-family="Times,serif" font-size="14.00" fill="#000000">* | *</text>
</g>
<!-- 5&#45;&#45;7 -->
<g id="edge9" class="edge">
<title>5&#45;&#45;7</title>
<path fill="none" stroke="#000000" d="M165.9581,-84.7299C173.6471,-81.5632 181.9414,-78.1472 189.4129,-75.0701"/>
<text text-anchor="middle" x="171.9355" y="-68.7" font-family="Times,serif" font-size="14.00" fill="#000000">&#45; | &#45;</text>
</g>
</g>
</svg>
