<?xml version="1.0" encoding="UTF-8" standalone="no"?>
<!DOCTYPE svg PUBLIC "-//W3C//DTD SVG 1.1//EN"
 "http://www.w3.org/Graphics/SVG/1.1/DTD/svg11.dtd">
<!-- Generated by graphviz version 2.40.1 (20161225.0304)
 -->
<!-- Title: G Pages: 1 -->
<svg width="225pt" height="264pt"
 viewBox="0.00 0.00 224.78 263.99" xmlns="http://www.w3.org/2000/svg" xmlns:xlink="http://www.w3.org/1999/xlink">
<g id="graph0" class="graph" transform="scale(1 1) rotate(0) translate(4 259.9886)">
<title>G</title>
<polygon fill="#ffffff" stroke="transparent" points="-4,4 -4,-259.9886 220.777,-259.9886 220.777,4 -4,4"/>
<!-- 0 -->
<g id="node1" class="node">
<title>0</title>
<ellipse fill="none" stroke="#000000" cx="28.5975" cy="-191.4771" rx="28.6953" ry="18"/>
<text text-anchor="middle" x="28.5975" y="-187.7771" font-family="Times,serif" font-size="14.00" fill="#000000">* | *</text>
</g>
<!-- 1 -->
<g id="node2" class="node">
<title>1</title>
<ellipse fill="none" stroke="#000000" cx="102.8713" cy="-161.0674" rx="33.2948" ry="18"/>
<text text-anchor="middle" x="102.8713" y="-157.3674" font-family="Times,serif" font-size="14.00" fill="#000000">C | C</text>
</g>
<!-- 0&#45;&#45;1 -->
<g id="edge1" class="edge">
<title>0&#45;&#45;1</title>
<path fill="none" stroke="#000000" d="M52.9175,-181.5198C60.3636,-178.4712 68.5932,-175.1017 76.1879,-171.9923"/>
<text text-anchor="middle" x="58.8027" y="-165.5561" font-family="Times,serif" font-size="14.00" fill="#000000">&#45; | &#45;</text>
</g>
<!-- 2 -->
<g id="node3" class="node">
<title>2</title>
<ellipse fill="none" stroke="#000000" cx="182.3301" cy="-139.4801" rx="34.394" ry="18"/>
<text text-anchor="middle" x="182.3301" y="-135.7801" font-family="Times,serif" font-size="14.00" fill="#000000">O | O</text>
</g>
<!-- 1&#45;&#45;2 -->
<g id="edge2" class="edge">
<title>1&#45;&#45;2</title>
<path fill="none" stroke="#000000" d="M132.9112,-152.9061C139.064,-151.2346 145.5469,-149.4733 151.7193,-147.7964"/>
<text text-anchor="middle" x="134.5653" y="-139.1513" font-family="Times,serif" font-size="14.00" fill="#000000">= | &#45;</text>
</g>
<!-- 3 -->
<g id="node4" class="node">
<title>3</title>
<ellipse fill="none" stroke="#000000" cx="125.4653" cy="-237.9886" rx="28.6953" ry="18"/>
<text text-anchor="middle" x="125.4653" y="-234.2886" font-family="Times,serif" font-size="14.00" fill="#000000">* | *</text>
</g>
<!-- 1&#45;&#45;3 -->
<g id="edge3" class="edge">
<title>1&#45;&#45;3</title>
<path fill="none" stroke="#000000" d="M108.1116,-178.908C111.7617,-191.3348 116.6095,-207.8391 120.2534,-220.2447"/>
<text text-anchor="middle" x="102.6825" y="-203.3763" font-family="Times,serif" font-size="14.00" fill="#000000">&#45; | &#45;</text>
</g>
<!-- 5 -->
<g id="node6" class="node">
<title>5</title>
<ellipse fill="none" stroke="#000000" cx="97.7711" cy="-78.9203" rx="33.2948" ry="18"/>
<text text-anchor="middle" x="97.7711" y="-75.2203" font-family="Times,serif" font-size="14.00" fill="#000000">C | C</text>
</g>
<!-- 1&#45;&#45;5 -->
<g id="edge4" class="edge">
<title>1&#45;&#45;5</title>
<path fill="none" stroke="#000000" stroke-dasharray="1,5" d="M101.7394,-142.8363C100.8942,-129.2231 99.7442,-110.7013 98.8998,-97.1005"/>
<text text-anchor="middle" x="97.8196" y="-123.7684" font-family="Times,serif" font-size="14.00" fill="#000000">&#45;</text>
</g>
<!-- 4 -->
<g id="node5" class="node">
<title>4</title>
<ellipse fill="none" stroke="#000000" cx="176.5593" cy="-61.4967" rx="35.194" ry="18"/>
<text text-anchor="middle" x="176.5593" y="-57.7967" font-family="Times,serif" font-size="14.00" fill="#000000">H | H</text>
</g>
<!-- 2&#45;&#45;4 -->
<g id="edge5" class="edge">
<title>2&#45;&#45;4</title>
<path fill="none" stroke="#000000" stroke-dasharray="1,5" d="M180.9916,-121.3931C180.0594,-108.7947 178.8211,-92.0625 177.8904,-79.4856"/>
<text text-anchor="middle" x="176.941" y="-104.2394" font-family="Times,serif" font-size="14.00" fill="#000000">&#45;</text>
</g>
<!-- 4&#45;&#45;5 -->
<g id="edge6" class="edge">
<title>4&#45;&#45;5</title>
<path fill="none" stroke="#000000" stroke-dasharray="5,2" d="M144.0582,-68.6842C138.9715,-69.8091 133.7266,-70.9689 128.677,-72.0856"/>
<text text-anchor="middle" x="133.8676" y="-74.1849" font-family="Times,serif" font-size="14.00" fill="#000000">&#45;</text>
</g>
<!-- 6 -->
<g id="node7" class="node">
<title>6</title>
<ellipse fill="none" stroke="#000000" cx="49.8405" cy="-18" rx="35.194" ry="18"/>
<text text-anchor="middle" x="49.8405" y="-14.3" font-family="Times,serif" font-size="14.00" fill="#000000">N | N</text>
</g>
<!-- 5&#45;&#45;6 -->
<g id="edge7" class="edge">
<title>5&#45;&#45;6</title>
<path fill="none" stroke="#000000" d="M84.6738,-62.2736C78.0216,-53.8186 69.9521,-43.562 63.2556,-35.0507"/>
<text text-anchor="middle" x="54.9647" y="-52.4621" font-family="Times,serif" font-size="14.00" fill="#000000"># | #</text>
</g>
</g>
</svg>
