<?xml version="1.0" encoding="UTF-8" standalone="no"?>
<!DOCTYPE svg PUBLIC "-//W3C//DTD SVG 1.1//EN"
 "http://www.w3.org/Graphics/SVG/1.1/DTD/svg11.dtd">
<!-- Generated by graphviz version 2.40.1 (20161225.0304)
 -->
<!-- Title: G Pages: 1 -->
<svg width="443pt" height="298pt"
 viewBox="0.00 0.00 443.08 298.31" xmlns="http://www.w3.org/2000/svg" xmlns:xlink="http://www.w3.org/1999/xlink">
<g id="graph0" class="graph" transform="scale(1 1) rotate(0) translate(4 294.3104)">
<title>G</title>
<polygon fill="#ffffff" stroke="transparent" points="-4,4 -4,-294.3104 439.0758,-294.3104 439.0758,4 -4,4"/>
<!-- 0 -->
<g id="node1" class="node">
<title>0</title>
<ellipse fill="none" stroke="#000000" cx="28.5975" cy="-124.801" rx="28.6953" ry="18"/>
<text text-anchor="middle" x="28.5975" y="-121.101" font-family="Times,serif" font-size="14.00" fill="#000000">* | *</text>
</g>
<!-- 1 -->
<g id="node2" class="node">
<title>1</title>
<ellipse fill="none" stroke="#000000" cx="107.6938" cy="-103.4462" rx="33.2948" ry="18"/>
<text text-anchor="middle" x="107.6938" y="-99.7462" font-family="Times,serif" font-size="14.00" fill="#000000">C | C</text>
</g>
<!-- 0&#45;&#45;1 -->
<g id="edge1" class="edge">
<title>0&#45;&#45;1</title>
<path fill="none" stroke="#000000" d="M54.9354,-117.6901C62.3055,-115.7003 70.3672,-113.5238 77.9212,-111.4843"/>
<text text-anchor="middle" x="60.6783" y="-103.3872" font-family="Times,serif" font-size="14.00" fill="#000000">&#45; | &#45;</text>
</g>
<!-- 2 -->
<g id="node3" class="node">
<title>2</title>
<ellipse fill="none" stroke="#000000" cx="69.9043" cy="-31.0985" rx="34.394" ry="18"/>
<text text-anchor="middle" x="69.9043" y="-27.3985" font-family="Times,serif" font-size="14.00" fill="#000000">O | O</text>
</g>
<!-- 1&#45;&#45;2 -->
<g id="edge2" class="edge">
<title>1&#45;&#45;2</title>
<path fill="none" stroke="#000000" d="M98.546,-85.9328C92.6483,-74.6416 85.0058,-60.0102 79.0988,-48.7014"/>
<text text-anchor="middle" x="69.8224" y="-71.1171" font-family="Times,serif" font-size="14.00" fill="#000000">= | =</text>
</g>
<!-- 3 -->
<g id="node4" class="node">
<title>3</title>
<ellipse fill="none" stroke="#000000" cx="182.9509" cy="-150.9853" rx="33.2948" ry="18"/>
<text text-anchor="middle" x="182.9509" y="-147.2853" font-family="Times,serif" font-size="14.00" fill="#000000">C | C</text>
</g>
<!-- 1&#45;&#45;3 -->
<g id="edge3" class="edge">
<title>1&#45;&#45;3</title>
<path fill="none" stroke="#000000" d="M129.4613,-117.1965C139.4457,-123.5036 151.2538,-130.9626 161.2323,-137.2659"/>
<text text-anchor="middle" x="133.8468" y="-131.0312" font-family="Times,serif" font-size="14.00" fill="#000000">&#45; | &#45;</text>
</g>
<!-- 4 -->
<g id="node5" class="node">
<title>4</title>
<ellipse fill="none" stroke="#000000" cx="177.5159" cy="-234.9704" rx="35.194" ry="18"/>
<text text-anchor="middle" x="177.5159" y="-231.2704" font-family="Times,serif" font-size="14.00" fill="#000000">H | H</text>
</g>
<!-- 3&#45;&#45;4 -->
<g id="edge4" class="edge">
<title>3&#45;&#45;4</title>
<path fill="none" stroke="#000000" d="M181.7716,-169.2088C180.8599,-183.2959 179.604,-202.7043 178.6929,-216.7824"/>
<text text-anchor="middle" x="168.7322" y="-196.7956" font-family="Times,serif" font-size="14.00" fill="#000000">&#45; | &#45;</text>
</g>
<!-- 5 -->
<g id="node6" class="node">
<title>5</title>
<ellipse fill="none" stroke="#000000" cx="124.9586" cy="-204.4292" rx="28.6953" ry="18"/>
<text text-anchor="middle" x="124.9586" y="-200.7292" font-family="Times,serif" font-size="14.00" fill="#000000">* | *</text>
</g>
<!-- 3&#45;&#45;5 -->
<g id="edge5" class="edge">
<title>3&#45;&#45;5</title>
<path fill="none" stroke="#000000" d="M165.8649,-166.7312C158.1136,-173.8745 148.988,-182.2845 141.325,-189.3465"/>
<text text-anchor="middle" x="165.0949" y="-181.8388" font-family="Times,serif" font-size="14.00" fill="#000000">&#45; | &#45;</text>
</g>
<!-- 6 -->
<g id="node7" class="node">
<title>6</title>
<ellipse fill="none" stroke="#000000" cx="270.0759" cy="-125.1362" rx="33.2948" ry="18"/>
<text text-anchor="middle" x="270.0759" y="-121.4362" font-family="Times,serif" font-size="14.00" fill="#000000">C | C</text>
</g>
<!-- 3&#45;&#45;6 -->
<g id="edge6" class="edge">
<title>3&#45;&#45;6</title>
<path fill="none" stroke="#000000" d="M212.4474,-142.234C221.6296,-139.5097 231.7458,-136.5084 240.9055,-133.7908"/>
<text text-anchor="middle" x="220.9265" y="-126.8124" font-family="Times,serif" font-size="14.00" fill="#000000">&#45; | &#45;</text>
</g>
<!-- 7 -->
<g id="node8" class="node">
<title>7</title>
<ellipse fill="none" stroke="#000000" cx="282.9328" cy="-42.5876" rx="28.6953" ry="18"/>
<text text-anchor="middle" x="282.9328" y="-38.8876" font-family="Times,serif" font-size="14.00" fill="#000000">* | *</text>
</g>
<!-- 6&#45;&#45;7 -->
<g id="edge7" class="edge">
<title>6&#45;&#45;7</title>
<path fill="none" stroke="#000000" d="M272.9293,-106.816C275.0747,-93.0413 277.999,-74.2653 280.1317,-60.5726"/>
<text text-anchor="middle" x="265.0305" y="-87.4943" font-family="Times,serif" font-size="14.00" fill="#000000">&#45; | &#45;</text>
</g>
<!-- 8 -->
<g id="node9" class="node">
<title>8</title>
<ellipse fill="none" stroke="#000000" cx="233.3918" cy="-56.9934" rx="35.194" ry="18"/>
<text text-anchor="middle" x="233.3918" y="-53.2934" font-family="Times,serif" font-size="14.00" fill="#000000">H | H</text>
</g>
<!-- 6&#45;&#45;8 -->
<g id="edge8" class="edge">
<title>6&#45;&#45;8</title>
<path fill="none" stroke="#000000" d="M260.6288,-107.5878C255.1942,-97.4926 248.385,-84.844 242.9344,-74.7192"/>
<text text-anchor="middle" x="240.2816" y="-94.9535" font-family="Times,serif" font-size="14.00" fill="#000000">&#45; | &#45;</text>
</g>
<!-- 9 -->
<g id="node10" class="node">
<title>9</title>
<ellipse fill="none" stroke="#000000" cx="347.8264" cy="-85.8219" rx="34.394" ry="18"/>
<text text-anchor="middle" x="347.8264" y="-82.1219" font-family="Times,serif" font-size="14.00" fill="#000000">O | O</text>
</g>
<!-- 6&#45;&#45;9 -->
<g id="edge9" class="edge">
<title>6&#45;&#45;9</title>
<path fill="none" stroke="#000000" stroke-dasharray="1,5" d="M294.6766,-112.6969C303.6634,-108.1528 313.8321,-103.011 322.8513,-98.4505"/>
<text text-anchor="middle" x="306.2639" y="-109.3737" font-family="Times,serif" font-size="14.00" fill="#000000">&#45;</text>
</g>
<!-- 11 -->
<g id="node12" class="node">
<title>11</title>
<ellipse fill="none" stroke="#000000" cx="330.5679" cy="-189.8668" rx="35.194" ry="18"/>
<text text-anchor="middle" x="330.5679" y="-186.1668" font-family="Times,serif" font-size="14.00" fill="#000000">N | N</text>
</g>
<!-- 6&#45;&#45;11 -->
<g id="edge10" class="edge">
<title>6&#45;&#45;11</title>
<path fill="none" stroke="#000000" stroke-dasharray="5,2" d="M285.3406,-141.4705C294.4407,-151.2082 305.9615,-163.5362 315.0977,-173.3126"/>
<text text-anchor="middle" x="302.7191" y="-146.1915" font-family="Times,serif" font-size="14.00" fill="#000000">&#45;</text>
</g>
<!-- 10 -->
<g id="node11" class="node">
<title>10</title>
<ellipse fill="none" stroke="#000000" cx="396.2905" cy="-18" rx="35.194" ry="18"/>
<text text-anchor="middle" x="396.2905" y="-14.3" font-family="Times,serif" font-size="14.00" fill="#000000">H | H</text>
</g>
<!-- 9&#45;&#45;10 -->
<g id="edge11" class="edge">
<title>9&#45;&#45;10</title>
<path fill="none" stroke="#000000" d="M360.0559,-68.7076C367.3466,-58.5048 376.5767,-45.5881 383.8963,-35.3448"/>
<text text-anchor="middle" x="360.4761" y="-55.8262" font-family="Times,serif" font-size="14.00" fill="#000000">&#45; | &#45;</text>
</g>
<!-- 14 -->
<g id="node15" class="node">
<title>14</title>
<ellipse fill="none" stroke="#000000" cx="399.9789" cy="-143.2903" rx="35.194" ry="18"/>
<text text-anchor="middle" x="399.9789" y="-139.5903" font-family="Times,serif" font-size="14.00" fill="#000000">H | H</text>
</g>
<!-- 9&#45;&#45;14 -->
<g id="edge12" class="edge">
<title>9&#45;&#45;14</title>
<path fill="none" stroke="#000000" stroke-dasharray="5,2" d="M362.6317,-102.1363C369.6183,-109.835 377.9415,-119.0066 384.9555,-126.7355"/>
<text text-anchor="middle" x="371.2936" y="-118.2359" font-family="Times,serif" font-size="14.00" fill="#000000">&#45;</text>
</g>
<!-- 12 -->
<g id="node13" class="node">
<title>12</title>
<ellipse fill="none" stroke="#000000" cx="398.8971" cy="-235.8811" rx="28.6953" ry="18"/>
<text text-anchor="middle" x="398.8971" y="-232.1811" font-family="Times,serif" font-size="14.00" fill="#000000">* | *</text>
</g>
<!-- 11&#45;&#45;12 -->
<g id="edge13" class="edge">
<title>11&#45;&#45;12</title>
<path fill="none" stroke="#000000" d="M352.1877,-204.426C360.7893,-210.2185 370.623,-216.8407 379.0417,-222.5101"/>
<text text-anchor="middle" x="354.1147" y="-217.268" font-family="Times,serif" font-size="14.00" fill="#000000">&#45; | &#45;</text>
</g>
<!-- 13 -->
<g id="node14" class="node">
<title>13</title>
<ellipse fill="none" stroke="#000000" cx="328.0686" cy="-272.3104" rx="28.6953" ry="18"/>
<text text-anchor="middle" x="328.0686" y="-268.6104" font-family="Times,serif" font-size="14.00" fill="#000000">* | *</text>
</g>
<!-- 11&#45;&#45;13 -->
<g id="edge14" class="edge">
<title>11&#45;&#45;13</title>
<path fill="none" stroke="#000000" d="M330.0132,-208.1637C329.5991,-221.826 329.0355,-240.4147 328.6217,-254.0647"/>
<text text-anchor="middle" x="317.8175" y="-234.9142" font-family="Times,serif" font-size="14.00" fill="#000000">&#45; | &#45;</text>
</g>
<!-- 11&#45;&#45;14 -->
<g id="edge15" class="edge">
<title>11&#45;&#45;14</title>
<path fill="none" stroke="#000000" stroke-dasharray="1,5" d="M352.1495,-175.385C360.5864,-169.7237 370.2367,-163.2481 378.6491,-157.6032"/>
<text text-anchor="middle" x="367.8993" y="-170.2941" font-family="Times,serif" font-size="14.00" fill="#000000">&#45;</text>
</g>
</g>
</svg>
