<?xml version="1.0" encoding="UTF-8" standalone="no"?>
<!DOCTYPE svg PUBLIC "-//W3C//DTD SVG 1.1//EN"
 "http://www.w3.org/Graphics/SVG/1.1/DTD/svg11.dtd">
<!-- Generated by graphviz version 2.40.1 (20161225.0304)
 -->
<!-- Title: G Pages: 1 -->
<svg width="311pt" height="210pt"
 viewBox="0.00 0.00 311.36 209.62" xmlns="http://www.w3.org/2000/svg" xmlns:xlink="http://www.w3.org/1999/xlink">
<g id="graph0" class="graph" transform="scale(1 1) rotate(0) translate(4 205.6172)">
<title>G</title>
<polygon fill="#ffffff" stroke="transparent" points="-4,4 -4,-205.6172 307.3571,-205.6172 307.3571,4 -4,4"/>
<!-- 0 -->
<g id="node1" class="node">
<title>0</title>
<ellipse fill="none" stroke="#000000" cx="85.603" cy="-167.3499" rx="33.2948" ry="18"/>
<text text-anchor="middle" x="85.603" y="-163.6499" font-family="Times,serif" font-size="14.00" fill="#000000">C | C</text>
</g>
<!-- 1 -->
<g id="node2" class="node">
<title>1</title>
<ellipse fill="none" stroke="#000000" cx="165.5333" cy="-157.9091" rx="34.394" ry="18"/>
<text text-anchor="middle" x="165.5333" y="-154.2091" font-family="Times,serif" font-size="14.00" fill="#000000">O | O</text>
</g>
<!-- 0&#45;&#45;1 -->
<g id="edge1" class="edge">
<title>0&#45;&#45;1</title>
<path fill="none" stroke="#000000" d="M118.1137,-163.51C122.6087,-162.979 127.2341,-162.4327 131.7515,-161.8992"/>
<text text-anchor="middle" x="119.1826" y="-151.5046" font-family="Times,serif" font-size="14.00" fill="#000000">&#45; | &#45;</text>
</g>
<!-- 5 -->
<g id="node6" class="node">
<title>5</title>
<ellipse fill="none" stroke="#000000" cx="33.1471" cy="-104.9878" rx="33.2948" ry="18"/>
<text text-anchor="middle" x="33.1471" y="-101.2878" font-family="Times,serif" font-size="14.00" fill="#000000">C | C</text>
</g>
<!-- 0&#45;&#45;5 -->
<g id="edge2" class="edge">
<title>0&#45;&#45;5</title>
<path fill="none" stroke="#000000" d="M71.8208,-150.965C64.1713,-141.8709 54.6832,-130.5909 47.0193,-121.4798"/>
<text text-anchor="middle" x="70.9201" y="-125.0224" font-family="Times,serif" font-size="14.00" fill="#000000">&#45; | &#45;</text>
</g>
<!-- 2 -->
<g id="node3" class="node">
<title>2</title>
<ellipse fill="none" stroke="#000000" cx="240.2226" cy="-183.6172" rx="35.194" ry="18"/>
<text text-anchor="middle" x="240.2226" y="-179.9172" font-family="Times,serif" font-size="14.00" fill="#000000">H | H</text>
</g>
<!-- 1&#45;&#45;2 -->
<g id="edge3" class="edge">
<title>1&#45;&#45;2</title>
<path fill="none" stroke="#000000" stroke-dasharray="5,2" d="M194.624,-167.9222C199.8669,-169.7268 205.3382,-171.61 210.5961,-173.4198"/>
<text text-anchor="middle" x="202.61" y="-159.471" font-family="Times,serif" font-size="14.00" fill="#000000">&#45;</text>
</g>
<!-- 3 -->
<g id="node4" class="node">
<title>3</title>
<ellipse fill="none" stroke="#000000" cx="195.56" cy="-78.8307" rx="33.2948" ry="18"/>
<text text-anchor="middle" x="195.56" y="-75.1307" font-family="Times,serif" font-size="14.00" fill="#000000">C | C</text>
</g>
<!-- 1&#45;&#45;3 -->
<g id="edge4" class="edge">
<title>1&#45;&#45;3</title>
<path fill="none" stroke="#000000" stroke-dasharray="1,5" d="M172.3468,-139.965C177.2609,-127.0233 183.8656,-109.6291 188.7734,-96.7038"/>
<text text-anchor="middle" x="178.0601" y="-122.1344" font-family="Times,serif" font-size="14.00" fill="#000000">&#45;</text>
</g>
<!-- 4 -->
<g id="node5" class="node">
<title>4</title>
<ellipse fill="none" stroke="#000000" cx="268.9102" cy="-107.8749" rx="34.394" ry="18"/>
<text text-anchor="middle" x="268.9102" y="-104.1749" font-family="Times,serif" font-size="14.00" fill="#000000">O | O</text>
</g>
<!-- 2&#45;&#45;4 -->
<g id="edge5" class="edge">
<title>2&#45;&#45;4</title>
<path fill="none" stroke="#000000" stroke-dasharray="1,5" d="M247.0211,-165.6673C251.5942,-153.5934 257.5976,-137.7428 262.1604,-125.6959"/>
<text text-anchor="middle" x="252.0908" y="-149.4816" font-family="Times,serif" font-size="14.00" fill="#000000">&#45;</text>
</g>
<!-- 3&#45;&#45;4 -->
<g id="edge6" class="edge">
<title>3&#45;&#45;4</title>
<path fill="none" stroke="#000000" d="M222.4564,-89.4807C228.5077,-91.8768 234.9421,-94.4247 241.0325,-96.8363"/>
<text text-anchor="middle" x="216.2445" y="-96.9585" font-family="Times,serif" font-size="14.00" fill="#000000">= | &#45;</text>
</g>
<!-- 7 -->
<g id="node8" class="node">
<title>7</title>
<ellipse fill="none" stroke="#000000" cx="142.9473" cy="-18" rx="33.2948" ry="18"/>
<text text-anchor="middle" x="142.9473" y="-14.3" font-family="Times,serif" font-size="14.00" fill="#000000">C | C</text>
</g>
<!-- 3&#45;&#45;7 -->
<g id="edge7" class="edge">
<title>3&#45;&#45;7</title>
<path fill="none" stroke="#000000" d="M181.4608,-62.5292C173.912,-53.8013 164.6401,-43.0812 157.0855,-34.3465"/>
<text text-anchor="middle" x="157.7731" y="-52.2378" font-family="Times,serif" font-size="14.00" fill="#000000">&#45; | &#45;</text>
</g>
<!-- 6 -->
<g id="node7" class="node">
<title>6</title>
<ellipse fill="none" stroke="#000000" cx="62.2907" cy="-29.0248" rx="33.2948" ry="18"/>
<text text-anchor="middle" x="62.2907" y="-25.3248" font-family="Times,serif" font-size="14.00" fill="#000000">C | C</text>
</g>
<!-- 5&#45;&#45;6 -->
<g id="edge8" class="edge">
<title>5&#45;&#45;6</title>
<path fill="none" stroke="#000000" d="M40.0537,-86.9856C44.6994,-74.8765 50.7983,-58.9798 55.4336,-46.8978"/>
<text text-anchor="middle" x="36.2437" y="-70.7417" font-family="Times,serif" font-size="14.00" fill="#000000">&#45; | &#45;</text>
</g>
<!-- 6&#45;&#45;7 -->
<g id="edge9" class="edge">
<title>6&#45;&#45;7</title>
<path fill="none" stroke="#000000" d="M94.6321,-24.6041C99.8913,-23.8852 105.3393,-23.1406 110.5987,-22.4217"/>
<text text-anchor="middle" x="96.8654" y="-12.3129" font-family="Times,serif" font-size="14.00" fill="#000000">&#45; | &#45;</text>
</g>
</g>
</svg>
