<?xml version="1.0" encoding="UTF-8" standalone="no"?>
<!DOCTYPE svg PUBLIC "-//W3C//DTD SVG 1.1//EN"
 "http://www.w3.org/Graphics/SVG/1.1/DTD/svg11.dtd">
<!-- Generated by graphviz version 2.40.1 (20161225.0304)
 -->
<!-- Title: G Pages: 1 -->
<svg width="275pt" height="203pt"
 viewBox="0.00 0.00 275.47 202.53" xmlns="http://www.w3.org/2000/svg" xmlns:xlink="http://www.w3.org/1999/xlink">
<g id="graph0" class="graph" transform="scale(1 1) rotate(0) translate(4 198.5309)">
<title>G</title>
<polygon fill="#ffffff" stroke="transparent" points="-4,4 -4,-198.5309 271.4723,-198.5309 271.4723,4 -4,4"/>
<!-- 0 -->
<g id="node1" class="node">
<title>0</title>
<ellipse fill="none" stroke="#000000" cx="49.6739" cy="-59.9582" rx="33.2948" ry="18"/>
<text text-anchor="middle" x="49.6739" y="-56.2582" font-family="Times,serif" font-size="14.00" fill="#000000">C | C</text>
</g>
<!-- 1 -->
<g id="node2" class="node">
<title>1</title>
<ellipse fill="none" stroke="#000000" cx="127.7138" cy="-49.08" rx="34.394" ry="18"/>
<text text-anchor="middle" x="127.7138" y="-45.38" font-family="Times,serif" font-size="14.00" fill="#000000">O | O</text>
</g>
<!-- 0&#45;&#45;1 -->
<g id="edge1" class="edge">
<title>0&#45;&#45;1</title>
<path fill="none" stroke="#000000" d="M81.8663,-55.4708C85.9809,-54.8972 90.2001,-54.3091 94.3331,-53.733"/>
<text text-anchor="middle" x="82.3497" y="-43.4019" font-family="Times,serif" font-size="14.00" fill="#000000">&#45; | &#45;</text>
</g>
<!-- 5 -->
<g id="node6" class="node">
<title>5</title>
<ellipse fill="none" stroke="#000000" cx="33.1471" cy="-137.9363" rx="33.2948" ry="18"/>
<text text-anchor="middle" x="33.1471" y="-134.2363" font-family="Times,serif" font-size="14.00" fill="#000000">C | C</text>
</g>
<!-- 0&#45;&#45;5 -->
<g id="edge2" class="edge">
<title>0&#45;&#45;5</title>
<path fill="none" stroke="#000000" d="M45.8408,-78.0439C43.1708,-90.6415 39.6248,-107.3726 36.9594,-119.9487"/>
<text text-anchor="middle" x="29.9001" y="-102.7963" font-family="Times,serif" font-size="14.00" fill="#000000">&#45; | &#45;</text>
</g>
<!-- 2 -->
<g id="node3" class="node">
<title>2</title>
<ellipse fill="none" stroke="#000000" cx="199.6661" cy="-18" rx="35.194" ry="18"/>
<text text-anchor="middle" x="199.6661" y="-14.3" font-family="Times,serif" font-size="14.00" fill="#000000">H | H</text>
</g>
<!-- 1&#45;&#45;2 -->
<g id="edge3" class="edge">
<title>1&#45;&#45;2</title>
<path fill="none" stroke="#000000" stroke-dasharray="1,5" d="M154.5062,-37.5069C160.4195,-34.9526 166.6877,-32.2451 172.6114,-29.6863"/>
<text text-anchor="middle" x="162.3088" y="-22.3966" font-family="Times,serif" font-size="14.00" fill="#000000">&#45;</text>
</g>
<!-- 3 -->
<g id="node4" class="node">
<title>3</title>
<ellipse fill="none" stroke="#000000" cx="162.3605" cy="-124.8978" rx="33.2948" ry="18"/>
<text text-anchor="middle" x="162.3605" y="-121.1978" font-family="Times,serif" font-size="14.00" fill="#000000">C | C</text>
</g>
<!-- 1&#45;&#45;3 -->
<g id="edge4" class="edge">
<title>1&#45;&#45;3</title>
<path fill="none" stroke="#000000" stroke-dasharray="5,2" d="M135.7495,-66.6647C141.3468,-78.9132 148.7807,-95.1808 154.3684,-107.4084"/>
<text text-anchor="middle" x="142.559" y="-90.8366" font-family="Times,serif" font-size="14.00" fill="#000000">&#45;</text>
</g>
<!-- 4 -->
<g id="node5" class="node">
<title>4</title>
<ellipse fill="none" stroke="#000000" cx="233.0253" cy="-90.9604" rx="34.394" ry="18"/>
<text text-anchor="middle" x="233.0253" y="-87.2604" font-family="Times,serif" font-size="14.00" fill="#000000">O | O</text>
</g>
<!-- 2&#45;&#45;4 -->
<g id="edge5" class="edge">
<title>2&#45;&#45;4</title>
<path fill="none" stroke="#000000" stroke-dasharray="5,2" d="M207.7414,-35.6617C212.9478,-47.0485 219.6943,-61.8039 224.9087,-73.2085"/>
<text text-anchor="middle" x="213.8251" y="-58.2351" font-family="Times,serif" font-size="14.00" fill="#000000">&#45;</text>
</g>
<!-- 3&#45;&#45;4 -->
<g id="edge6" class="edge">
<title>3&#45;&#45;4</title>
<path fill="none" stroke="#000000" d="M187.4733,-112.8372C193.9792,-109.7126 200.9909,-106.3452 207.5168,-103.211"/>
<text text-anchor="middle" x="212.995" y="-111.8241" font-family="Times,serif" font-size="14.00" fill="#000000">&#45; | =</text>
</g>
<!-- 6 -->
<g id="node7" class="node">
<title>6</title>
<ellipse fill="none" stroke="#000000" cx="102.8829" cy="-176.5309" rx="33.2948" ry="18"/>
<text text-anchor="middle" x="102.8829" y="-172.8309" font-family="Times,serif" font-size="14.00" fill="#000000">C | C</text>
</g>
<!-- 3&#45;&#45;6 -->
<g id="edge7" class="edge">
<title>3&#45;&#45;6</title>
<path fill="none" stroke="#000000" d="M144.5153,-140.3894C136.9874,-146.9245 128.2421,-154.5163 120.7156,-161.0502"/>
<text text-anchor="middle" x="121.1154" y="-139.5198" font-family="Times,serif" font-size="14.00" fill="#000000">&#45; | &#45;</text>
</g>
<!-- 5&#45;&#45;6 -->
<g id="edge8" class="edge">
<title>5&#45;&#45;6</title>
<path fill="none" stroke="#000000" d="M56.3681,-150.7878C63.8169,-154.9103 72.067,-159.4762 79.5255,-163.604"/>
<text text-anchor="middle" x="56.4468" y="-160.9959" font-family="Times,serif" font-size="14.00" fill="#000000">&#45; | &#45;</text>
</g>
</g>
</svg>
