<?xml version="1.0" encoding="UTF-8" standalone="no"?>
<!DOCTYPE svg PUBLIC "-//W3C//DTD SVG 1.1//EN"
 "http://www.w3.org/Graphics/SVG/1.1/DTD/svg11.dtd">
<!-- Generated by graphviz version 2.40.1 (20161225.0304)
 -->
<!-- Title: G Pages: 1 -->
<svg width="302pt" height="290pt"
 viewBox="0.00 0.00 301.81 289.86" xmlns="http://www.w3.org/2000/svg" xmlns:xlink="http://www.w3.org/1999/xlink">
<g id="graph0" class="graph" transform="scale(1 1) rotate(0) translate(4 285.8624)">
<title>G</title>
<polygon fill="#ffffff" stroke="transparent" points="-4,4 -4,-285.8624 297.8145,-285.8624 297.8145,4 -4,4"/>
<!-- 0 -->
<g id="node1" class="node">
<title>0</title>
<ellipse fill="none" stroke="#000000" cx="67.2641" cy="-180.0104" rx="33.2948" ry="18"/>
<text text-anchor="middle" x="67.2641" y="-176.3104" font-family="Times,serif" font-size="14.00" fill="#000000">C | C</text>
</g>
<!-- 1 -->
<g id="node2" class="node">
<title>1</title>
<ellipse fill="none" stroke="#000000" cx="144.7702" cy="-202.7158" rx="34.394" ry="18"/>
<text text-anchor="middle" x="144.7702" y="-199.0158" font-family="Times,serif" font-size="14.00" fill="#000000">O | O</text>
</g>
<!-- 0&#45;&#45;1 -->
<g id="edge1" class="edge">
<title>0&#45;&#45;1</title>
<path fill="none" stroke="#000000" d="M96.5658,-188.5944C102.4816,-190.3274 108.7103,-192.1521 114.6535,-193.8931"/>
<text text-anchor="middle" x="94.1097" y="-195.0438" font-family="Times,serif" font-size="14.00" fill="#000000">&#45; | &#45;</text>
</g>
<!-- 5 -->
<g id="node6" class="node">
<title>5</title>
<ellipse fill="none" stroke="#000000" cx="33.1471" cy="-106.3868" rx="33.2948" ry="18"/>
<text text-anchor="middle" x="33.1471" y="-102.6868" font-family="Times,serif" font-size="14.00" fill="#000000">C | C</text>
</g>
<!-- 0&#45;&#45;5 -->
<g id="edge2" class="edge">
<title>0&#45;&#45;5</title>
<path fill="none" stroke="#000000" d="M59.0053,-162.1882C53.6413,-150.6127 46.6786,-135.5875 41.3298,-124.0449"/>
<text text-anchor="middle" x="38.6676" y="-146.9165" font-family="Times,serif" font-size="14.00" fill="#000000">&#45; | &#45;</text>
</g>
<!-- 2 -->
<g id="node3" class="node">
<title>2</title>
<ellipse fill="none" stroke="#000000" cx="195.345" cy="-263.8624" rx="35.194" ry="18"/>
<text text-anchor="middle" x="195.345" y="-260.1624" font-family="Times,serif" font-size="14.00" fill="#000000">H | H</text>
</g>
<!-- 1&#45;&#45;2 -->
<g id="edge3" class="edge">
<title>1&#45;&#45;2</title>
<path fill="none" stroke="#000000" stroke-dasharray="1,5" d="M158.59,-219.4244C165.7261,-228.0522 174.4082,-238.5491 181.5419,-247.174"/>
<text text-anchor="middle" x="167.5659" y="-222.0992" font-family="Times,serif" font-size="14.00" fill="#000000">&#45;</text>
</g>
<!-- 3 -->
<g id="node4" class="node">
<title>3</title>
<ellipse fill="none" stroke="#000000" cx="211.5524" cy="-150.7325" rx="33.2948" ry="18"/>
<text text-anchor="middle" x="211.5524" y="-147.0325" font-family="Times,serif" font-size="14.00" fill="#000000">C | C</text>
</g>
<!-- 1&#45;&#45;3 -->
<g id="edge4" class="edge">
<title>1&#45;&#45;3</title>
<path fill="none" stroke="#000000" stroke-dasharray="5,2" d="M164.0864,-187.6801C173.0235,-180.7234 183.6072,-172.4851 192.5102,-165.5549"/>
<text text-anchor="middle" x="175.7983" y="-165.4175" font-family="Times,serif" font-size="14.00" fill="#000000">&#45;</text>
</g>
<!-- 4 -->
<g id="node5" class="node">
<title>4</title>
<ellipse fill="none" stroke="#000000" cx="259.3675" cy="-213.9467" rx="34.394" ry="18"/>
<text text-anchor="middle" x="259.3675" y="-210.2467" font-family="Times,serif" font-size="14.00" fill="#000000">O | O</text>
</g>
<!-- 2&#45;&#45;4 -->
<g id="edge5" class="edge">
<title>2&#45;&#45;4</title>
<path fill="none" stroke="#000000" stroke-dasharray="5,2" d="M214.9018,-248.6148C222.8448,-242.422 231.9998,-235.2841 239.9306,-229.1009"/>
<text text-anchor="middle" x="224.9162" y="-227.6578" font-family="Times,serif" font-size="14.00" fill="#000000">&#45;</text>
</g>
<!-- 3&#45;&#45;4 -->
<g id="edge6" class="edge">
<title>3&#45;&#45;4</title>
<path fill="none" stroke="#000000" d="M224.366,-167.6728C231.2264,-176.7426 239.6528,-187.8828 246.5186,-196.9597"/>
<text text-anchor="middle" x="250.9423" y="-171.1162" font-family="Times,serif" font-size="14.00" fill="#000000">&#45; | =</text>
</g>
<!-- 8 -->
<g id="node9" class="node">
<title>8</title>
<ellipse fill="none" stroke="#000000" cx="209.9521" cy="-70.0326" rx="33.2948" ry="18"/>
<text text-anchor="middle" x="209.9521" y="-66.3326" font-family="Times,serif" font-size="14.00" fill="#000000">C | C</text>
</g>
<!-- 3&#45;&#45;8 -->
<g id="edge7" class="edge">
<title>3&#45;&#45;8</title>
<path fill="none" stroke="#000000" d="M211.1892,-132.4205C210.9274,-119.2134 210.5754,-101.4625 210.3138,-88.2722"/>
<text text-anchor="middle" x="199.2515" y="-114.1463" font-family="Times,serif" font-size="14.00" fill="#000000">&#45; | &#45;</text>
</g>
<!-- 6 -->
<g id="node7" class="node">
<title>6</title>
<ellipse fill="none" stroke="#000000" cx="67.9948" cy="-32.9774" rx="33.2948" ry="18"/>
<text text-anchor="middle" x="67.9948" y="-29.2774" font-family="Times,serif" font-size="14.00" fill="#000000">C | C</text>
</g>
<!-- 5&#45;&#45;6 -->
<g id="edge8" class="edge">
<title>5&#45;&#45;6</title>
<path fill="none" stroke="#000000" d="M41.5827,-88.6164C47.0617,-77.0746 54.1734,-62.0932 59.6368,-50.5841"/>
<text text-anchor="middle" x="39.1098" y="-73.4003" font-family="Times,serif" font-size="14.00" fill="#000000">&#45; | &#45;</text>
</g>
<!-- 7 -->
<g id="node8" class="node">
<title>7</title>
<ellipse fill="none" stroke="#000000" cx="147.8258" cy="-18" rx="33.2948" ry="18"/>
<text text-anchor="middle" x="147.8258" y="-14.3" font-family="Times,serif" font-size="14.00" fill="#000000">C | C</text>
</g>
<!-- 6&#45;&#45;7 -->
<g id="edge9" class="edge">
<title>6&#45;&#45;7</title>
<path fill="none" stroke="#000000" d="M99.5461,-27.0579C105.0375,-26.0277 110.75,-24.9559 116.2422,-23.9255"/>
<text text-anchor="middle" x="102.1442" y="-14.2917" font-family="Times,serif" font-size="14.00" fill="#000000">&#45; | &#45;</text>
</g>
<!-- 7&#45;&#45;8 -->
<g id="edge10" class="edge">
<title>7&#45;&#45;8</title>
<path fill="none" stroke="#000000" d="M166.1297,-33.3301C174.1472,-40.0449 183.5373,-47.9094 191.5643,-54.6323"/>
<text text-anchor="middle" x="167.347" y="-47.7812" font-family="Times,serif" font-size="14.00" fill="#000000">&#45; | &#45;</text>
</g>
</g>
</svg>
