<?xml version="1.0" encoding="UTF-8" standalone="no"?>
<!DOCTYPE svg PUBLIC "-//W3C//DTD SVG 1.1//EN"
 "http://www.w3.org/Graphics/SVG/1.1/DTD/svg11.dtd">
<!-- Generated by graphviz version 2.40.1 (20161225.0304)
 -->
<!-- Title: G Pages: 1 -->
<svg width="238pt" height="264pt"
 viewBox="0.00 0.00 237.65 263.63" xmlns="http://www.w3.org/2000/svg" xmlns:xlink="http://www.w3.org/1999/xlink">
<g id="graph0" class="graph" transform="scale(1 1) rotate(0) translate(4 259.6312)">
<title>G</title>
<polygon fill="#ffffff" stroke="transparent" points="-4,4 -4,-259.6312 233.6486,-259.6312 233.6486,4 -4,4"/>
<!-- 0 -->
<g id="node1" class="node">
<title>0</title>
<ellipse fill="none" stroke="#000000" cx="28.5975" cy="-61.5507" rx="28.6953" ry="18"/>
<text text-anchor="middle" x="28.5975" y="-57.8507" font-family="Times,serif" font-size="14.00" fill="#000000">* | *</text>
</g>
<!-- 1 -->
<g id="node2" class="node">
<title>1</title>
<ellipse fill="none" stroke="#000000" cx="105.6547" cy="-90.6751" rx="33.2948" ry="18"/>
<text text-anchor="middle" x="105.6547" y="-86.9751" font-family="Times,serif" font-size="14.00" fill="#000000">C | C</text>
</g>
<!-- 0&#45;&#45;1 -->
<g id="edge1" class="edge">
<title>0&#45;&#45;1</title>
<path fill="none" stroke="#000000" d="M53.403,-70.9261C61.3224,-73.9193 70.1316,-77.2488 78.2261,-80.3082"/>
<text text-anchor="middle" x="71.5646" y="-64.4172" font-family="Times,serif" font-size="14.00" fill="#000000">&#45; | &#45;</text>
</g>
<!-- 2 -->
<g id="node3" class="node">
<title>2</title>
<ellipse fill="none" stroke="#000000" cx="137.7006" cy="-18" rx="28.6953" ry="18"/>
<text text-anchor="middle" x="137.7006" y="-14.3" font-family="Times,serif" font-size="14.00" fill="#000000">* | *</text>
</g>
<!-- 1&#45;&#45;2 -->
<g id="edge2" class="edge">
<title>1&#45;&#45;2</title>
<path fill="none" stroke="#000000" d="M113.4122,-73.0825C118.4506,-61.6562 124.9905,-46.8246 130.0146,-35.4306"/>
<text text-anchor="middle" x="110.2134" y="-58.0565" font-family="Times,serif" font-size="14.00" fill="#000000">&#45; | &#45;</text>
</g>
<!-- 3 -->
<g id="node4" class="node">
<title>3</title>
<ellipse fill="none" stroke="#000000" cx="144.7876" cy="-177.6296" rx="35.194" ry="18"/>
<text text-anchor="middle" x="144.7876" y="-173.9296" font-family="Times,serif" font-size="14.00" fill="#000000">N | N</text>
</g>
<!-- 1&#45;&#45;3 -->
<g id="edge3" class="edge">
<title>1&#45;&#45;3</title>
<path fill="none" stroke="#000000" stroke-dasharray="5,2" d="M113.5739,-108.2716C120.3632,-123.3578 130.0943,-144.9806 136.8802,-160.0592"/>
<text text-anchor="middle" x="131.727" y="-122.9654" font-family="Times,serif" font-size="14.00" fill="#000000">=</text>
</g>
<!-- 6 -->
<g id="node7" class="node">
<title>6</title>
<ellipse fill="none" stroke="#000000" cx="97.2956" cy="-151.9387" rx="34.394" ry="18"/>
<text text-anchor="middle" x="97.2956" y="-148.2387" font-family="Times,serif" font-size="14.00" fill="#000000">O | O</text>
</g>
<!-- 1&#45;&#45;6 -->
<g id="edge4" class="edge">
<title>1&#45;&#45;6</title>
<path fill="none" stroke="#000000" stroke-dasharray="1,5" d="M103.1919,-108.7248C102.1132,-116.631 100.8498,-125.8907 99.7697,-133.8063"/>
<text text-anchor="middle" x="94.9808" y="-110.0655" font-family="Times,serif" font-size="14.00" fill="#000000">=</text>
</g>
<!-- 4 -->
<g id="node5" class="node">
<title>4</title>
<ellipse fill="none" stroke="#000000" cx="201.0511" cy="-237.6312" rx="28.6953" ry="18"/>
<text text-anchor="middle" x="201.0511" y="-233.9312" font-family="Times,serif" font-size="14.00" fill="#000000">* | *</text>
</g>
<!-- 3&#45;&#45;4 -->
<g id="edge5" class="edge">
<title>3&#45;&#45;4</title>
<path fill="none" stroke="#000000" d="M160.1618,-194.0253C168.361,-202.7692 178.3945,-213.4693 186.4704,-222.0818"/>
<text text-anchor="middle" x="161.8161" y="-211.8535" font-family="Times,serif" font-size="14.00" fill="#000000">&#45; | &#45;</text>
</g>
<!-- 5 -->
<g id="node6" class="node">
<title>5</title>
<ellipse fill="none" stroke="#000000" cx="82.0603" cy="-224.9729" rx="35.194" ry="18"/>
<text text-anchor="middle" x="82.0603" y="-221.2729" font-family="Times,serif" font-size="14.00" fill="#000000">H | H</text>
</g>
<!-- 3&#45;&#45;5 -->
<g id="edge6" class="edge">
<title>3&#45;&#45;5</title>
<path fill="none" stroke="#000000" stroke-dasharray="1,5" d="M124.9403,-192.6093C117.6181,-198.1357 109.3235,-204.396 101.9938,-209.9281"/>
<text text-anchor="middle" x="110.967" y="-190.0687" font-family="Times,serif" font-size="14.00" fill="#000000">&#45;</text>
</g>
<!-- 7 -->
<g id="node8" class="node">
<title>7</title>
<ellipse fill="none" stroke="#000000" cx="193.3204" cy="-139.624" rx="35.194" ry="18"/>
<text text-anchor="middle" x="193.3204" y="-135.924" font-family="Times,serif" font-size="14.00" fill="#000000">H | H</text>
</g>
<!-- 3&#45;&#45;7 -->
<g id="edge7" class="edge">
<title>3&#45;&#45;7</title>
<path fill="none" stroke="#000000" stroke-dasharray="1,5" d="M164.2481,-162.3902C167.4127,-159.9121 170.6908,-157.345 173.8555,-154.8667"/>
<text text-anchor="middle" x="166.5518" y="-162.4285" font-family="Times,serif" font-size="14.00" fill="#000000">&#45;</text>
</g>
<!-- 5&#45;&#45;6 -->
<g id="edge8" class="edge">
<title>5&#45;&#45;6</title>
<path fill="none" stroke="#000000" stroke-dasharray="5,2" d="M85.8264,-206.9195C88.1703,-195.6833 91.1744,-181.2822 93.5201,-170.0375"/>
<text text-anchor="middle" x="87.1732" y="-192.2785" font-family="Times,serif" font-size="14.00" fill="#000000">&#45;</text>
</g>
<!-- 6&#45;&#45;7 -->
<g id="edge9" class="edge">
<title>6&#45;&#45;7</title>
<path fill="none" stroke="#000000" stroke-dasharray="5,2" d="M130.8804,-147.6316C140.0746,-146.4525 150.047,-145.1736 159.2671,-143.9911"/>
<text text-anchor="middle" x="142.5738" y="-134.6114" font-family="Times,serif" font-size="14.00" fill="#000000">&#45;</text>
</g>
</g>
</svg>
