<?xml version="1.0" encoding="UTF-8" standalone="no"?>
<!DOCTYPE svg PUBLIC "-//W3C//DTD SVG 1.1//EN"
 "http://www.w3.org/Graphics/SVG/1.1/DTD/svg11.dtd">
<!-- Generated by graphviz version 2.40.1 (20161225.0304)
 -->
<!-- Title: G Pages: 1 -->
<svg width="182pt" height="232pt"
 viewBox="0.00 0.00 181.78 232.28" xmlns="http://www.w3.org/2000/svg" xmlns:xlink="http://www.w3.org/1999/xlink">
<g id="graph0" class="graph" transform="scale(1 1) rotate(0) translate(4 228.284)">
<title>G</title>
<polygon fill="#ffffff" stroke="transparent" points="-4,4 -4,-228.284 177.7805,-228.284 177.7805,4 -4,4"/>
<!-- 0 -->
<g id="node1" class="node">
<title>0</title>
<ellipse fill="none" stroke="#000000" cx="106.6878" cy="-18" rx="28.6953" ry="18"/>
<text text-anchor="middle" x="106.6878" y="-14.3" font-family="Times,serif" font-size="14.00" fill="#000000">* | *</text>
</g>
<!-- 1 -->
<g id="node2" class="node">
<title>1</title>
<ellipse fill="none" stroke="#000000" cx="95.8557" cy="-92.2911" rx="35.194" ry="18"/>
<text text-anchor="middle" x="95.8557" y="-88.5911" font-family="Times,serif" font-size="14.00" fill="#000000">N | N</text>
</g>
<!-- 0&#45;&#45;1 -->
<g id="edge1" class="edge">
<title>0&#45;&#45;1</title>
<path fill="none" stroke="#000000" d="M104.0656,-35.9838C102.3751,-47.5783 100.1844,-62.6028 98.4913,-74.2154"/>
<text text-anchor="middle" x="89.7784" y="-58.8996" font-family="Times,serif" font-size="14.00" fill="#000000">&#45; | &#45;</text>
</g>
<!-- 2 -->
<g id="node3" class="node">
<title>2</title>
<ellipse fill="none" stroke="#000000" cx="33.1471" cy="-140.3121" rx="33.2948" ry="18"/>
<text text-anchor="middle" x="33.1471" y="-136.6121" font-family="Times,serif" font-size="14.00" fill="#000000">C | C</text>
</g>
<!-- 1&#45;&#45;2 -->
<g id="edge2" class="edge">
<title>1&#45;&#45;2</title>
<path fill="none" stroke="#000000" d="M76.0143,-107.4852C68.5508,-113.2006 60.0766,-119.69 52.6447,-125.3812"/>
<text text-anchor="middle" x="79.8295" y="-120.2332" font-family="Times,serif" font-size="14.00" fill="#000000">= | &#45;</text>
</g>
<!-- 4 -->
<g id="node5" class="node">
<title>4</title>
<ellipse fill="none" stroke="#000000" cx="138.6836" cy="-158.4907" rx="35.194" ry="18"/>
<text text-anchor="middle" x="138.6836" y="-154.7907" font-family="Times,serif" font-size="14.00" fill="#000000">H | H</text>
</g>
<!-- 1&#45;&#45;4 -->
<g id="edge3" class="edge">
<title>1&#45;&#45;4</title>
<path fill="none" stroke="#000000" stroke-dasharray="1,5" d="M107.1083,-109.6842C113.3537,-119.3379 121.1004,-131.312 127.3575,-140.9838"/>
<text text-anchor="middle" x="114.7329" y="-129.134" font-family="Times,serif" font-size="14.00" fill="#000000">&#45;</text>
</g>
<!-- 3 -->
<g id="node4" class="node">
<title>3</title>
<ellipse fill="none" stroke="#000000" cx="76.0553" cy="-206.284" rx="33.2948" ry="18"/>
<text text-anchor="middle" x="76.0553" y="-202.584" font-family="Times,serif" font-size="14.00" fill="#000000">C | C</text>
</g>
<!-- 2&#45;&#45;3 -->
<g id="edge4" class="edge">
<title>2&#45;&#45;3</title>
<path fill="none" stroke="#000000" d="M44.197,-157.3015C50.5537,-167.075 58.5183,-179.3206 64.8936,-189.1228"/>
<text text-anchor="middle" x="39.0453" y="-177.0122" font-family="Times,serif" font-size="14.00" fill="#000000">&#45; | =</text>
</g>
<!-- 3&#45;&#45;4 -->
<g id="edge5" class="edge">
<title>3&#45;&#45;4</title>
<path fill="none" stroke="#000000" stroke-dasharray="5,2" d="M95.528,-191.4239C102.9967,-185.7242 111.5195,-179.2203 119.0073,-173.5062"/>
<text text-anchor="middle" x="109.7676" y="-186.265" font-family="Times,serif" font-size="14.00" fill="#000000">&#45;</text>
</g>
</g>
</svg>
