<?xml version="1.0" encoding="UTF-8" standalone="no"?>
<!DOCTYPE svg PUBLIC "-//W3C//DTD SVG 1.1//EN"
 "http://www.w3.org/Graphics/SVG/1.1/DTD/svg11.dtd">
<!-- Generated by graphviz version 2.40.1 (20161225.0304)
 -->
<!-- Title: G Pages: 1 -->
<svg width="229pt" height="233pt"
 viewBox="0.00 0.00 228.54 233.24" xmlns="http://www.w3.org/2000/svg" xmlns:xlink="http://www.w3.org/1999/xlink">
<g id="graph0" class="graph" transform="scale(1 1) rotate(0) translate(4 229.2426)">
<title>G</title>
<polygon fill="#ffffff" stroke="transparent" points="-4,4 -4,-229.2426 224.5381,-229.2426 224.5381,4 -4,4"/>
<!-- 0 -->
<g id="node1" class="node">
<title>0</title>
<ellipse fill="none" stroke="#000000" cx="28.5975" cy="-18" rx="28.6953" ry="18"/>
<text text-anchor="middle" x="28.5975" y="-14.3" font-family="Times,serif" font-size="14.00" fill="#000000">* | *</text>
</g>
<!-- 1 -->
<g id="node2" class="node">
<title>1</title>
<ellipse fill="none" stroke="#000000" cx="72.8982" cy="-76.4494" rx="33.2948" ry="18"/>
<text text-anchor="middle" x="72.8982" y="-72.7494" font-family="Times,serif" font-size="14.00" fill="#000000">C | C</text>
</g>
<!-- 0&#45;&#45;1 -->
<g id="edge1" class="edge">
<title>0&#45;&#45;1</title>
<path fill="none" stroke="#000000" d="M40.9377,-34.2814C46.8773,-42.1181 53.9964,-51.5108 60.0065,-59.4404"/>
<text text-anchor="middle" x="38.9721" y="-50.6609" font-family="Times,serif" font-size="14.00" fill="#000000">&#45; | &#45;</text>
</g>
<!-- 2 -->
<g id="node3" class="node">
<title>2</title>
<ellipse fill="none" stroke="#000000" cx="135.7288" cy="-117.1178" rx="35.194" ry="18"/>
<text text-anchor="middle" x="135.7288" y="-113.4178" font-family="Times,serif" font-size="14.00" fill="#000000">N | N</text>
</g>
<!-- 1&#45;&#45;2 -->
<g id="edge2" class="edge">
<title>1&#45;&#45;2</title>
<path fill="none" stroke="#000000" d="M94.5209,-90.4452C100.7684,-94.489 107.5901,-98.9045 113.8529,-102.9582"/>
<text text-anchor="middle" x="119.6869" y="-85.5017" font-family="Times,serif" font-size="14.00" fill="#000000"># | &#45;</text>
</g>
<!-- 3 -->
<g id="node4" class="node">
<title>3</title>
<ellipse fill="none" stroke="#000000" cx="91.7815" cy="-148.8386" rx="34.394" ry="18"/>
<text text-anchor="middle" x="91.7815" y="-145.1386" font-family="Times,serif" font-size="14.00" fill="#000000">O | O</text>
</g>
<!-- 1&#45;&#45;3 -->
<g id="edge3" class="edge">
<title>1&#45;&#45;3</title>
<path fill="none" stroke="#000000" stroke-dasharray="1,5" d="M77.566,-94.3434C80.4711,-105.4803 84.1946,-119.7542 87.102,-130.8996"/>
<text text-anchor="middle" x="75.834" y="-116.4215" font-family="Times,serif" font-size="14.00" fill="#000000">=</text>
</g>
<!-- 4 -->
<g id="node5" class="node">
<title>4</title>
<ellipse fill="none" stroke="#000000" cx="185.4413" cy="-152.435" rx="35.194" ry="18"/>
<text text-anchor="middle" x="185.4413" y="-148.735" font-family="Times,serif" font-size="14.00" fill="#000000">H | H</text>
</g>
<!-- 2&#45;&#45;4 -->
<g id="edge4" class="edge">
<title>2&#45;&#45;4</title>
<path fill="none" stroke="#000000" stroke-dasharray="1,5" d="M156.5233,-131.8909C159.2904,-133.8567 162.1265,-135.8715 164.8894,-137.8344"/>
<text text-anchor="middle" x="158.2063" y="-123.6626" font-family="Times,serif" font-size="14.00" fill="#000000">&#45;</text>
</g>
<!-- 5 -->
<g id="node6" class="node">
<title>5</title>
<ellipse fill="none" stroke="#000000" cx="108.4148" cy="-207.2426" rx="35.194" ry="18"/>
<text text-anchor="middle" x="108.4148" y="-203.5426" font-family="Times,serif" font-size="14.00" fill="#000000">H | H</text>
</g>
<!-- 2&#45;&#45;5 -->
<g id="edge5" class="edge">
<title>2&#45;&#45;5</title>
<path fill="none" stroke="#000000" stroke-dasharray="1,5" d="M130.3324,-134.9236C125.575,-150.6211 118.6754,-173.387 113.8935,-189.1654"/>
<text text-anchor="middle" x="124.6129" y="-165.8445" font-family="Times,serif" font-size="14.00" fill="#000000">&#45;</text>
</g>
<!-- 3&#45;&#45;4 -->
<g id="edge6" class="edge">
<title>3&#45;&#45;4</title>
<path fill="none" stroke="#000000" stroke-dasharray="5,2" d="M126.3908,-150.1676C134.2073,-150.4677 142.5121,-150.7866 150.3483,-151.0875"/>
<text text-anchor="middle" x="135.8696" y="-154.4275" font-family="Times,serif" font-size="14.00" fill="#000000">&#45;</text>
</g>
<!-- 3&#45;&#45;5 -->
<g id="edge7" class="edge">
<title>3&#45;&#45;5</title>
<path fill="none" stroke="#000000" stroke-dasharray="5,2" d="M96.8624,-166.6791C98.8878,-173.7908 101.2166,-181.9677 103.2502,-189.1083"/>
<text text-anchor="middle" x="97.5563" y="-181.6937" font-family="Times,serif" font-size="14.00" fill="#000000">&#45;</text>
</g>
</g>
</svg>
