<?xml version="1.0" encoding="UTF-8" standalone="no"?>
<!DOCTYPE svg PUBLIC "-//W3C//DTD SVG 1.1//EN"
 "http://www.w3.org/Graphics/SVG/1.1/DTD/svg11.dtd">
<!-- Generated by graphviz version 2.40.1 (20161225.0304)
 -->
<!-- Title: G Pages: 1 -->
<svg width="505pt" height="314pt"
 viewBox="0.00 0.00 504.86 314.37" xmlns="http://www.w3.org/2000/svg" xmlns:xlink="http://www.w3.org/1999/xlink">
<g id="graph0" class="graph" transform="scale(1 1) rotate(0) translate(4 310.3668)">
<title>G</title>
<polygon fill="#ffffff" stroke="transparent" points="-4,4 -4,-310.3668 500.8606,-310.3668 500.8606,4 -4,4"/>
<!-- 0 -->
<g id="node1" class="node">
<title>0</title>
<ellipse fill="none" stroke="#000000" cx="208.7173" cy="-92.887" rx="28.6953" ry="18"/>
<text text-anchor="middle" x="208.7173" y="-89.187" font-family="Times,serif" font-size="14.00" fill="#000000">* | *</text>
</g>
<!-- 1 -->
<g id="node2" class="node">
<title>1</title>
<ellipse fill="none" stroke="#000000" cx="260.5273" cy="-155.1059" rx="33.2948" ry="18"/>
<text text-anchor="middle" x="260.5273" y="-151.4059" font-family="Times,serif" font-size="14.00" fill="#000000">C | C</text>
</g>
<!-- 0&#45;&#45;1 -->
<g id="edge1" class="edge">
<title>0&#45;&#45;1</title>
<path fill="none" stroke="#000000" d="M222.0597,-108.9099C229.6152,-117.9834 239.052,-129.3161 246.6879,-138.486"/>
<text text-anchor="middle" x="245.8738" y="-112.498" font-family="Times,serif" font-size="14.00" fill="#000000">&#45; | &#45;</text>
</g>
<!-- 2 -->
<g id="node3" class="node">
<title>2</title>
<ellipse fill="none" stroke="#000000" cx="325.1528" cy="-177.7621" rx="34.394" ry="18"/>
<text text-anchor="middle" x="325.1528" y="-174.0621" font-family="Times,serif" font-size="14.00" fill="#000000">O | O</text>
</g>
<!-- 1&#45;&#45;2 -->
<g id="edge2" class="edge">
<title>1&#45;&#45;2</title>
<path fill="none" stroke="#000000" stroke-dasharray="5,2" d="M288.685,-164.9774C291.2701,-165.8836 293.8912,-166.8025 296.4808,-167.7104"/>
<text text-anchor="middle" x="286.0829" y="-170.1439" font-family="Times,serif" font-size="14.00" fill="#000000">=</text>
</g>
<!-- 3 -->
<g id="node4" class="node">
<title>3</title>
<ellipse fill="none" stroke="#000000" cx="190.8599" cy="-206.1869" rx="33.2948" ry="18"/>
<text text-anchor="middle" x="190.8599" y="-202.4869" font-family="Times,serif" font-size="14.00" fill="#000000">C | C</text>
</g>
<!-- 1&#45;&#45;3 -->
<g id="edge3" class="edge">
<title>1&#45;&#45;3</title>
<path fill="none" stroke="#000000" d="M240.7498,-169.6071C231.4169,-176.45 220.2984,-184.6022 210.9288,-191.4721"/>
<text text-anchor="middle" x="214.3393" y="-169.3396" font-family="Times,serif" font-size="14.00" fill="#000000">&#45; | &#45;</text>
</g>
<!-- 8 -->
<g id="node9" class="node">
<title>8</title>
<ellipse fill="none" stroke="#000000" cx="330.0724" cy="-97.3942" rx="35.194" ry="18"/>
<text text-anchor="middle" x="330.0724" y="-93.6942" font-family="Times,serif" font-size="14.00" fill="#000000">N | N</text>
</g>
<!-- 1&#45;&#45;8 -->
<g id="edge4" class="edge">
<title>1&#45;&#45;8</title>
<path fill="none" stroke="#000000" stroke-dasharray="1,5" d="M278.7994,-139.9429C288.78,-131.6605 301.1215,-121.419 311.1951,-113.0594"/>
<text text-anchor="middle" x="292.4973" y="-115.3011" font-family="Times,serif" font-size="14.00" fill="#000000">&#45;</text>
</g>
<!-- 11 -->
<g id="node12" class="node">
<title>11</title>
<ellipse fill="none" stroke="#000000" cx="324.8918" cy="-219.6618" rx="35.194" ry="18"/>
<text text-anchor="middle" x="324.8918" y="-215.9618" font-family="Times,serif" font-size="14.00" fill="#000000">H | H</text>
</g>
<!-- 1&#45;&#45;11 -->
<g id="edge5" class="edge">
<title>1&#45;&#45;11</title>
<path fill="none" stroke="#000000" stroke-dasharray="1,5" d="M276.4376,-171.0636C286.2655,-180.9207 298.8409,-193.5334 308.7174,-203.4394"/>
<text text-anchor="middle" x="290.0775" y="-191.0515" font-family="Times,serif" font-size="14.00" fill="#000000">&#45;</text>
</g>
<!-- 10 -->
<g id="node11" class="node">
<title>10</title>
<ellipse fill="none" stroke="#000000" cx="392.0442" cy="-162.5699" rx="33.2948" ry="18"/>
<text text-anchor="middle" x="392.0442" y="-158.8699" font-family="Times,serif" font-size="14.00" fill="#000000">C | C</text>
</g>
<!-- 2&#45;&#45;10 -->
<g id="edge6" class="edge">
<title>2&#45;&#45;10</title>
<path fill="none" stroke="#000000" stroke-dasharray="1,5" d="M357.0312,-170.522C358.3772,-170.2163 359.7266,-169.9098 361.0706,-169.6045"/>
<text text-anchor="middle" x="365.5509" y="-173.8632" font-family="Times,serif" font-size="14.00" fill="#000000">=</text>
</g>
<!-- 4 -->
<g id="node5" class="node">
<title>4</title>
<ellipse fill="none" stroke="#000000" cx="179.5771" cy="-288.3668" rx="34.394" ry="18"/>
<text text-anchor="middle" x="179.5771" y="-284.6668" font-family="Times,serif" font-size="14.00" fill="#000000">O | O</text>
</g>
<!-- 3&#45;&#45;4 -->
<g id="edge7" class="edge">
<title>3&#45;&#45;4</title>
<path fill="none" stroke="#000000" d="M188.3559,-224.4253C186.4861,-238.0439 183.9422,-256.573 182.0741,-270.1794"/>
<text text-anchor="middle" x="166.215" y="-251.1023" font-family="Times,serif" font-size="14.00" fill="#000000">= | =</text>
</g>
<!-- 5 -->
<g id="node6" class="node">
<title>5</title>
<ellipse fill="none" stroke="#000000" cx="110.5172" cy="-196.1993" rx="34.394" ry="18"/>
<text text-anchor="middle" x="110.5172" y="-192.4993" font-family="Times,serif" font-size="14.00" fill="#000000">O | O</text>
</g>
<!-- 3&#45;&#45;5 -->
<g id="edge8" class="edge">
<title>3&#45;&#45;5</title>
<path fill="none" stroke="#000000" d="M158.1815,-202.1245C153.5764,-201.5521 148.8352,-200.9627 144.2115,-200.3879"/>
<text text-anchor="middle" x="156.9465" y="-190.0562" font-family="Times,serif" font-size="14.00" fill="#000000">&#45; | &#45;</text>
</g>
<!-- 6 -->
<g id="node7" class="node">
<title>6</title>
<ellipse fill="none" stroke="#000000" cx="35.0969" cy="-197.5874" rx="35.194" ry="18"/>
<text text-anchor="middle" x="35.0969" y="-193.8874" font-family="Times,serif" font-size="14.00" fill="#000000">H | H</text>
</g>
<!-- 5&#45;&#45;6 -->
<g id="edge9" class="edge">
<title>5&#45;&#45;6</title>
<path fill="none" stroke="#000000" d="M75.8974,-196.8364C74.0386,-196.8706 72.1698,-196.905 70.3091,-196.9393"/>
<text text-anchor="middle" x="73.1032" y="-185.6879" font-family="Times,serif" font-size="14.00" fill="#000000">&#45; | &#45;</text>
</g>
<!-- 7 -->
<g id="node8" class="node">
<title>7</title>
<ellipse fill="none" stroke="#000000" cx="379.6712" cy="-33.1618" rx="35.194" ry="18"/>
<text text-anchor="middle" x="379.6712" y="-29.4618" font-family="Times,serif" font-size="14.00" fill="#000000">H | H</text>
</g>
<!-- 7&#45;&#45;8 -->
<g id="edge10" class="edge">
<title>7&#45;&#45;8</title>
<path fill="none" stroke="#000000" d="M366.6397,-50.0381C359.4068,-59.4049 350.4354,-71.0232 343.189,-80.4076"/>
<text text-anchor="middle" x="343.4143" y="-54.0229" font-family="Times,serif" font-size="14.00" fill="#000000">&#45; | &#45;</text>
</g>
<!-- 9 -->
<g id="node10" class="node">
<title>9</title>
<ellipse fill="none" stroke="#000000" cx="305.2988" cy="-18" rx="35.194" ry="18"/>
<text text-anchor="middle" x="305.2988" y="-14.3" font-family="Times,serif" font-size="14.00" fill="#000000">H | H</text>
</g>
<!-- 8&#45;&#45;9 -->
<g id="edge11" class="edge">
<title>8&#45;&#45;9</title>
<path fill="none" stroke="#000000" d="M324.4508,-79.3784C320.3965,-66.3851 314.9473,-48.9214 310.898,-35.9445"/>
<text text-anchor="middle" x="306.1744" y="-61.4615" font-family="Times,serif" font-size="14.00" fill="#000000">&#45; | &#45;</text>
</g>
<!-- 8&#45;&#45;10 -->
<g id="edge12" class="edge">
<title>8&#45;&#45;10</title>
<path fill="none" stroke="#000000" stroke-dasharray="5,2" d="M345.7105,-113.8408C355.1766,-123.7964 367.1995,-136.4408 376.6258,-146.3544"/>
<text text-anchor="middle" x="358.6681" y="-118.8976" font-family="Times,serif" font-size="14.00" fill="#000000">&#45;</text>
</g>
<!-- 10&#45;&#45;11 -->
<g id="edge13" class="edge">
<title>10&#45;&#45;11</title>
<path fill="none" stroke="#000000" stroke-dasharray="5,2" d="M374.0486,-177.8695C364.5691,-185.9288 352.9606,-195.7981 343.4053,-203.9219"/>
<text text-anchor="middle" x="361.2269" y="-194.6957" font-family="Times,serif" font-size="14.00" fill="#000000">&#45;</text>
</g>
<!-- 12 -->
<g id="node13" class="node">
<title>12</title>
<ellipse fill="none" stroke="#000000" cx="468.2632" cy="-137.2384" rx="28.6953" ry="18"/>
<text text-anchor="middle" x="468.2632" y="-133.5384" font-family="Times,serif" font-size="14.00" fill="#000000">* | *</text>
</g>
<!-- 10&#45;&#45;12 -->
<g id="edge14" class="edge">
<title>10&#45;&#45;12</title>
<path fill="none" stroke="#000000" d="M420.4253,-153.1374C427.7051,-150.7179 435.4925,-148.1298 442.6249,-145.7593"/>
<text text-anchor="middle" x="425.7751" y="-138.2484" font-family="Times,serif" font-size="14.00" fill="#000000">&#45; | &#45;</text>
</g>
<!-- 13 -->
<g id="node14" class="node">
<title>13</title>
<ellipse fill="none" stroke="#000000" cx="447.4817" cy="-224.5222" rx="28.6953" ry="18"/>
<text text-anchor="middle" x="447.4817" y="-220.8222" font-family="Times,serif" font-size="14.00" fill="#000000">* | *</text>
</g>
<!-- 10&#45;&#45;13 -->
<g id="edge15" class="edge">
<title>10&#45;&#45;13</title>
<path fill="none" stroke="#000000" d="M406.6097,-178.8471C414.8223,-188.0249 425.0403,-199.4436 433.2051,-208.568"/>
<text text-anchor="middle" x="408.4074" y="-197.5076" font-family="Times,serif" font-size="14.00" fill="#000000">&#45; | &#45;</text>
</g>
</g>
</svg>
