<?xml version="1.0" encoding="UTF-8" standalone="no"?>
<!DOCTYPE svg PUBLIC "-//W3C//DTD SVG 1.1//EN"
 "http://www.w3.org/Graphics/SVG/1.1/DTD/svg11.dtd">
<!-- Generated by graphviz version 2.40.1 (20161225.0304)
 -->
<!-- Title: G Pages: 1 -->
<svg width="246pt" height="227pt"
 viewBox="0.00 0.00 245.55 226.66" xmlns="http://www.w3.org/2000/svg" xmlns:xlink="http://www.w3.org/1999/xlink">
<g id="graph0" class="graph" transform="scale(1 1) rotate(0) translate(4 222.6591)">
<title>G</title>
<polygon fill="#ffffff" stroke="transparent" points="-4,4 -4,-222.6591 241.5541,-222.6591 241.5541,4 -4,4"/>
<!-- 0 -->
<g id="node1" class="node">
<title>0</title>
<ellipse fill="none" stroke="#000000" cx="50.8397" cy="-18" rx="28.6953" ry="18"/>
<text text-anchor="middle" x="50.8397" y="-14.3" font-family="Times,serif" font-size="14.00" fill="#000000">* | *</text>
</g>
<!-- 1 -->
<g id="node2" class="node">
<title>1</title>
<ellipse fill="none" stroke="#000000" cx="100.6567" cy="-80.8368" rx="33.2948" ry="18"/>
<text text-anchor="middle" x="100.6567" y="-77.1368" font-family="Times,serif" font-size="14.00" fill="#000000">C | C</text>
</g>
<!-- 0&#45;&#45;1 -->
<g id="edge1" class="edge">
<title>0&#45;&#45;1</title>
<path fill="none" stroke="#000000" d="M63.6688,-34.182C70.9337,-43.3456 80.0075,-54.7909 87.3496,-64.0519"/>
<text text-anchor="middle" x="87.0092" y="-37.917" font-family="Times,serif" font-size="14.00" fill="#000000">&#45; | &#45;</text>
</g>
<!-- 2 -->
<g id="node3" class="node">
<title>2</title>
<ellipse fill="none" stroke="#000000" cx="158.01" cy="-24.6864" rx="34.394" ry="18"/>
<text text-anchor="middle" x="158.01" y="-20.9864" font-family="Times,serif" font-size="14.00" fill="#000000">O | O</text>
</g>
<!-- 1&#45;&#45;2 -->
<g id="edge2" class="edge">
<title>1&#45;&#45;2</title>
<path fill="none" stroke="#000000" d="M116.9385,-64.8966C124.6217,-57.3745 133.7749,-48.4132 141.4884,-40.8615"/>
<text text-anchor="middle" x="148.2134" y="-56.679" font-family="Times,serif" font-size="14.00" fill="#000000">= | =</text>
</g>
<!-- 3 -->
<g id="node4" class="node">
<title>3</title>
<ellipse fill="none" stroke="#000000" cx="136.3498" cy="-154.9498" rx="33.2948" ry="18"/>
<text text-anchor="middle" x="136.3498" y="-151.2498" font-family="Times,serif" font-size="14.00" fill="#000000">C | C</text>
</g>
<!-- 1&#45;&#45;3 -->
<g id="edge3" class="edge">
<title>1&#45;&#45;3</title>
<path fill="none" stroke="#000000" stroke-dasharray="5,2" d="M109.1155,-98.4006C114.8053,-110.2148 122.2747,-125.7243 127.9518,-137.5121"/>
<text text-anchor="middle" x="116.0337" y="-121.7563" font-family="Times,serif" font-size="14.00" fill="#000000">&#45;</text>
</g>
<!-- 6 -->
<g id="node7" class="node">
<title>6</title>
<ellipse fill="none" stroke="#000000" cx="35.0969" cy="-130.6065" rx="35.194" ry="18"/>
<text text-anchor="middle" x="35.0969" y="-126.9065" font-family="Times,serif" font-size="14.00" fill="#000000">H | H</text>
</g>
<!-- 1&#45;&#45;6 -->
<g id="edge4" class="edge">
<title>1&#45;&#45;6</title>
<path fill="none" stroke="#000000" stroke-dasharray="1,5" d="M81.3412,-95.5002C73.0317,-101.8083 63.325,-109.1772 54.956,-115.5304"/>
<text text-anchor="middle" x="65.6486" y="-94.3153" font-family="Times,serif" font-size="14.00" fill="#000000">&#45;</text>
</g>
<!-- 4 -->
<g id="node5" class="node">
<title>4</title>
<ellipse fill="none" stroke="#000000" cx="203.1072" cy="-194.2488" rx="34.394" ry="18"/>
<text text-anchor="middle" x="203.1072" y="-190.5488" font-family="Times,serif" font-size="14.00" fill="#000000">O | O</text>
</g>
<!-- 3&#45;&#45;4 -->
<g id="edge5" class="edge">
<title>3&#45;&#45;4</title>
<path fill="none" stroke="#000000" d="M158.9508,-168.2546C165.7595,-172.2628 173.2383,-176.6655 180.0747,-180.6899"/>
<text text-anchor="middle" x="188.5127" y="-163.2723" font-family="Times,serif" font-size="14.00" fill="#000000">= | =</text>
</g>
<!-- 5 -->
<g id="node6" class="node">
<title>5</title>
<ellipse fill="none" stroke="#000000" cx="69.7723" cy="-200.6591" rx="34.394" ry="18"/>
<text text-anchor="middle" x="69.7723" y="-196.9591" font-family="Times,serif" font-size="14.00" fill="#000000">O | O</text>
</g>
<!-- 3&#45;&#45;5 -->
<g id="edge6" class="edge">
<title>3&#45;&#45;5</title>
<path fill="none" stroke="#000000" d="M115.6492,-169.162C107.7095,-174.6131 98.6493,-180.8334 90.6894,-186.2983"/>
<text text-anchor="middle" x="87.6693" y="-166.5301" font-family="Times,serif" font-size="14.00" fill="#000000">&#45; | =</text>
</g>
<!-- 5&#45;&#45;6 -->
<g id="edge7" class="edge">
<title>5&#45;&#45;6</title>
<path fill="none" stroke="#000000" stroke-dasharray="5,2" d="M61.0222,-182.9819C55.8058,-172.4435 49.2019,-159.1019 43.9648,-148.5217"/>
<text text-anchor="middle" x="49.9935" y="-169.5518" font-family="Times,serif" font-size="14.00" fill="#000000">&#45;</text>
</g>
</g>
</svg>
