<?xml version="1.0" encoding="UTF-8" standalone="no"?>
<!DOCTYPE svg PUBLIC "-//W3C//DTD SVG 1.1//EN"
 "http://www.w3.org/Graphics/SVG/1.1/DTD/svg11.dtd">
<!-- Generated by graphviz version 2.40.1 (20161225.0304)
 -->
<!-- Title: G Pages: 1 -->
<svg width="353pt" height="272pt"
 viewBox="0.00 0.00 353.46 272.25" xmlns="http://www.w3.org/2000/svg" xmlns:xlink="http://www.w3.org/1999/xlink">
<g id="graph0" class="graph" transform="scale(1 1) rotate(0) translate(4 268.249)">
<title>G</title>
<polygon fill="#ffffff" stroke="transparent" points="-4,4 -4,-268.249 349.4626,-268.249 349.4626,4 -4,4"/>
<!-- 0 -->
<g id="node1" class="node">
<title>0</title>
<ellipse fill="none" stroke="#000000" cx="28.5975" cy="-174.9505" rx="28.6953" ry="18"/>
<text text-anchor="middle" x="28.5975" y="-171.2505" font-family="Times,serif" font-size="14.00" fill="#000000">* | *</text>
</g>
<!-- 1 -->
<g id="node2" class="node">
<title>1</title>
<ellipse fill="none" stroke="#000000" cx="101.4941" cy="-138.6873" rx="33.2948" ry="18"/>
<text text-anchor="middle" x="101.4941" y="-134.9873" font-family="Times,serif" font-size="14.00" fill="#000000">C | C</text>
</g>
<!-- 0&#45;&#45;1 -->
<g id="edge1" class="edge">
<title>0&#45;&#45;1</title>
<path fill="none" stroke="#000000" d="M51.2628,-163.6754C59.371,-159.6419 68.5464,-155.0775 76.8162,-150.9636"/>
<text text-anchor="middle" x="75.5395" y="-161.1195" font-family="Times,serif" font-size="14.00" fill="#000000">&#45; | &#45;</text>
</g>
<!-- 2 -->
<g id="node3" class="node">
<title>2</title>
<ellipse fill="none" stroke="#000000" cx="56.7047" cy="-72.1561" rx="34.394" ry="18"/>
<text text-anchor="middle" x="56.7047" y="-68.4561" font-family="Times,serif" font-size="14.00" fill="#000000">O | O</text>
</g>
<!-- 1&#45;&#45;2 -->
<g id="edge2" class="edge">
<title>1&#45;&#45;2</title>
<path fill="none" stroke="#000000" d="M89.9597,-121.5539C83.3243,-111.6975 75.0106,-99.3481 68.3557,-89.4627"/>
<text text-anchor="middle" x="60.1577" y="-109.3083" font-family="Times,serif" font-size="14.00" fill="#000000">= | =</text>
</g>
<!-- 3 -->
<g id="node4" class="node">
<title>3</title>
<ellipse fill="none" stroke="#000000" cx="182.935" cy="-166.8219" rx="33.2948" ry="18"/>
<text text-anchor="middle" x="182.935" y="-163.1219" font-family="Times,serif" font-size="14.00" fill="#000000">C | C</text>
</g>
<!-- 1&#45;&#45;3 -->
<g id="edge3" class="edge">
<title>1&#45;&#45;3</title>
<path fill="none" stroke="#000000" d="M129.5214,-148.3696C137.7115,-151.199 146.6628,-154.2913 154.856,-157.1217"/>
<text text-anchor="middle" x="147.9387" y="-141.5457" font-family="Times,serif" font-size="14.00" fill="#000000">&#45; | &#45;</text>
</g>
<!-- 4 -->
<g id="node5" class="node">
<title>4</title>
<ellipse fill="none" stroke="#000000" cx="214.6022" cy="-246.249" rx="28.6953" ry="18"/>
<text text-anchor="middle" x="214.6022" y="-242.549" font-family="Times,serif" font-size="14.00" fill="#000000">* | *</text>
</g>
<!-- 3&#45;&#45;4 -->
<g id="edge4" class="edge">
<title>3&#45;&#45;4</title>
<path fill="none" stroke="#000000" d="M189.963,-184.4494C195.2108,-197.6118 202.3508,-215.5203 207.5939,-228.6709"/>
<text text-anchor="middle" x="187.2785" y="-195.3601" font-family="Times,serif" font-size="14.00" fill="#000000">&#45; | &#45;</text>
</g>
<!-- 5 -->
<g id="node6" class="node">
<title>5</title>
<ellipse fill="none" stroke="#000000" cx="145.0371" cy="-238.0711" rx="35.194" ry="18"/>
<text text-anchor="middle" x="145.0371" y="-234.3711" font-family="Times,serif" font-size="14.00" fill="#000000">H | H</text>
</g>
<!-- 3&#45;&#45;5 -->
<g id="edge5" class="edge">
<title>3&#45;&#45;5</title>
<path fill="none" stroke="#000000" d="M173.567,-184.4341C167.6926,-195.4781 160.1512,-209.6562 154.2973,-220.6615"/>
<text text-anchor="middle" x="152.4322" y="-206.3478" font-family="Times,serif" font-size="14.00" fill="#000000">&#45; | &#45;</text>
</g>
<!-- 6 -->
<g id="node7" class="node">
<title>6</title>
<ellipse fill="none" stroke="#000000" cx="231.8044" cy="-96.0562" rx="33.2948" ry="18"/>
<text text-anchor="middle" x="231.8044" y="-92.3562" font-family="Times,serif" font-size="14.00" fill="#000000">C | C</text>
</g>
<!-- 3&#45;&#45;6 -->
<g id="edge6" class="edge">
<title>3&#45;&#45;6</title>
<path fill="none" stroke="#000000" stroke-dasharray="5,2" d="M194.765,-149.6915C202.4484,-138.5654 212.4217,-124.1235 220.0834,-113.0289"/>
<text text-anchor="middle" x="204.9242" y="-135.1602" font-family="Times,serif" font-size="14.00" fill="#000000">&#45;</text>
</g>
<!-- 9 -->
<g id="node10" class="node">
<title>9</title>
<ellipse fill="none" stroke="#000000" cx="264.1278" cy="-176.5641" rx="35.194" ry="18"/>
<text text-anchor="middle" x="264.1278" y="-172.8641" font-family="Times,serif" font-size="14.00" fill="#000000">H | H</text>
</g>
<!-- 3&#45;&#45;9 -->
<g id="edge7" class="edge">
<title>3&#45;&#45;9</title>
<path fill="none" stroke="#000000" stroke-dasharray="1,5" d="M215.4914,-170.7283C220.1679,-171.2895 224.9927,-171.8684 229.704,-172.4337"/>
<text text-anchor="middle" x="220.0977" y="-175.381" font-family="Times,serif" font-size="14.00" fill="#000000">&#45;</text>
</g>
<!-- 7 -->
<g id="node8" class="node">
<title>7</title>
<ellipse fill="none" stroke="#000000" cx="247.1027" cy="-18" rx="34.394" ry="18"/>
<text text-anchor="middle" x="247.1027" y="-14.3" font-family="Times,serif" font-size="14.00" fill="#000000">O | O</text>
</g>
<!-- 6&#45;&#45;7 -->
<g id="edge8" class="edge">
<title>6&#45;&#45;7</title>
<path fill="none" stroke="#000000" d="M235.3526,-77.9524C237.8241,-65.3422 241.1065,-48.5943 243.5738,-36.0057"/>
<text text-anchor="middle" x="220.4632" y="-60.779" font-family="Times,serif" font-size="14.00" fill="#000000">= | =</text>
</g>
<!-- 8 -->
<g id="node9" class="node">
<title>8</title>
<ellipse fill="none" stroke="#000000" cx="311.0157" cy="-116.9168" rx="34.394" ry="18"/>
<text text-anchor="middle" x="311.0157" y="-113.2168" font-family="Times,serif" font-size="14.00" fill="#000000">O | O</text>
</g>
<!-- 6&#45;&#45;8 -->
<g id="edge9" class="edge">
<title>6&#45;&#45;8</title>
<path fill="none" stroke="#000000" d="M261.7508,-103.9427C267.7967,-105.5349 274.1625,-107.2114 280.2364,-108.811"/>
<text text-anchor="middle" x="255.4936" y="-110.1768" font-family="Times,serif" font-size="14.00" fill="#000000">&#45; | =</text>
</g>
<!-- 8&#45;&#45;9 -->
<g id="edge10" class="edge">
<title>8&#45;&#45;9</title>
<path fill="none" stroke="#000000" stroke-dasharray="5,2" d="M297.7049,-133.8498C291.3154,-141.9781 283.6823,-151.6884 277.3096,-159.7952"/>
<text text-anchor="middle" x="285.0073" y="-150.6225" font-family="Times,serif" font-size="14.00" fill="#000000">&#45;</text>
</g>
</g>
</svg>
