<?xml version="1.0" encoding="UTF-8" standalone="no"?>
<!DOCTYPE svg PUBLIC "-//W3C//DTD SVG 1.1//EN"
 "http://www.w3.org/Graphics/SVG/1.1/DTD/svg11.dtd">
<!-- Generated by graphviz version 2.40.1 (20161225.0304)
 -->
<!-- Title: G Pages: 1 -->
<svg width="205pt" height="248pt"
 viewBox="0.00 0.00 205.21 247.63" xmlns="http://www.w3.org/2000/svg" xmlns:xlink="http://www.w3.org/1999/xlink">
<g id="graph0" class="graph" transform="scale(1 1) rotate(0) translate(4 243.6334)">
<title>G</title>
<polygon fill="#ffffff" stroke="transparent" points="-4,4 -4,-243.6334 201.2053,-243.6334 201.2053,4 -4,4"/>
<!-- 0 -->
<g id="node1" class="node">
<title>0</title>
<ellipse fill="none" stroke="#000000" cx="111.1586" cy="-215.4558" rx="35.194" ry="18"/>
<text text-anchor="middle" x="111.1586" y="-211.7558" font-family="Times,serif" font-size="14.00" fill="#000000">N | N</text>
</g>
<!-- 1 -->
<g id="node2" class="node">
<title>1</title>
<ellipse fill="none" stroke="#000000" cx="140.0123" cy="-125.918" rx="33.2948" ry="18"/>
<text text-anchor="middle" x="140.0123" y="-122.218" font-family="Times,serif" font-size="14.00" fill="#000000">C | C</text>
</g>
<!-- 0&#45;&#45;1 -->
<g id="edge1" class="edge">
<title>0&#45;&#45;1</title>
<path fill="none" stroke="#000000" d="M116.9976,-197.3365C122.0365,-181.6999 129.2731,-159.2437 134.2805,-143.7048"/>
<text text-anchor="middle" x="141.139" y="-159.3206" font-family="Times,serif" font-size="14.00" fill="#000000"># | &#45;</text>
</g>
<!-- 3 -->
<g id="node4" class="node">
<title>3</title>
<ellipse fill="none" stroke="#000000" cx="36.9853" cy="-221.6334" rx="35.194" ry="18"/>
<text text-anchor="middle" x="36.9853" y="-217.9334" font-family="Times,serif" font-size="14.00" fill="#000000">H | H</text>
</g>
<!-- 0&#45;&#45;3 -->
<g id="edge2" class="edge">
<title>0&#45;&#45;3</title>
<path fill="none" stroke="#000000" stroke-dasharray="1,5" d="M76.2439,-218.3637C74.7409,-218.4889 73.2332,-218.6145 71.7305,-218.7396"/>
<text text-anchor="middle" x="75.2372" y="-207.3517" font-family="Times,serif" font-size="14.00" fill="#000000">&#45;</text>
</g>
<!-- 4 -->
<g id="node5" class="node">
<title>4</title>
<ellipse fill="none" stroke="#000000" cx="162.1085" cy="-201.6533" rx="35.194" ry="18"/>
<text text-anchor="middle" x="162.1085" y="-197.9533" font-family="Times,serif" font-size="14.00" fill="#000000">H | H</text>
</g>
<!-- 0&#45;&#45;4 -->
<g id="edge3" class="edge">
<title>0&#45;&#45;4</title>
<path fill="none" stroke="#000000" stroke-dasharray="1,5" d="M142.264,-207.0292C142.4298,-206.9843 142.5952,-206.9395 142.7602,-206.8948"/>
<text text-anchor="middle" x="145.0121" y="-210.762" font-family="Times,serif" font-size="14.00" fill="#000000">&#45;</text>
</g>
<!-- 2 -->
<g id="node3" class="node">
<title>2</title>
<ellipse fill="none" stroke="#000000" cx="76.5598" cy="-154.0543" rx="35.194" ry="18"/>
<text text-anchor="middle" x="76.5598" y="-150.3543" font-family="Times,serif" font-size="14.00" fill="#000000">N | N</text>
</g>
<!-- 1&#45;&#45;2 -->
<g id="edge4" class="edge">
<title>1&#45;&#45;2</title>
<path fill="none" stroke="#000000" stroke-dasharray="1,5" d="M114.2038,-137.3621C110.6354,-138.9444 106.9636,-140.5726 103.3774,-142.1627"/>
<text text-anchor="middle" x="102.2906" y="-128.5624" font-family="Times,serif" font-size="14.00" fill="#000000">=</text>
</g>
<!-- 7 -->
<g id="node8" class="node">
<title>7</title>
<ellipse fill="none" stroke="#000000" cx="140.998" cy="-45.2351" rx="28.6953" ry="18"/>
<text text-anchor="middle" x="140.998" y="-41.5351" font-family="Times,serif" font-size="14.00" fill="#000000">* | *</text>
</g>
<!-- 1&#45;&#45;7 -->
<g id="edge5" class="edge">
<title>1&#45;&#45;7</title>
<path fill="none" stroke="#000000" d="M140.236,-107.6098C140.3973,-94.4056 140.6141,-76.6584 140.7752,-63.4709"/>
<text text-anchor="middle" x="126.5056" y="-89.3403" font-family="Times,serif" font-size="14.00" fill="#000000">* | *</text>
</g>
<!-- 2&#45;&#45;3 -->
<g id="edge6" class="edge">
<title>2&#45;&#45;3</title>
<path fill="none" stroke="#000000" stroke-dasharray="5,2" d="M66.3684,-171.4576C60.5056,-181.4692 53.1598,-194.0131 47.2798,-204.0542"/>
<text text-anchor="middle" x="54.3241" y="-191.5559" font-family="Times,serif" font-size="14.00" fill="#000000">&#45;</text>
</g>
<!-- 2&#45;&#45;4 -->
<g id="edge7" class="edge">
<title>2&#45;&#45;4</title>
<path fill="none" stroke="#000000" stroke-dasharray="5,2" d="M100.3899,-167.3133C112.1565,-173.8602 126.32,-181.7407 138.1095,-188.3003"/>
<text text-anchor="middle" x="116.7497" y="-181.6068" font-family="Times,serif" font-size="14.00" fill="#000000">&#45;</text>
</g>
<!-- 5 -->
<g id="node6" class="node">
<title>5</title>
<ellipse fill="none" stroke="#000000" cx="28.5975" cy="-86.7008" rx="28.6953" ry="18"/>
<text text-anchor="middle" x="28.5975" y="-83.0008" font-family="Times,serif" font-size="14.00" fill="#000000">* | *</text>
</g>
<!-- 2&#45;&#45;5 -->
<g id="edge8" class="edge">
<title>2&#45;&#45;5</title>
<path fill="none" stroke="#000000" d="M64.4569,-137.0582C57.1307,-126.77 47.8257,-113.703 40.5304,-103.4582"/>
<text text-anchor="middle" x="38.4936" y="-124.0582" font-family="Times,serif" font-size="14.00" fill="#000000">* | *</text>
</g>
<!-- 6 -->
<g id="node7" class="node">
<title>6</title>
<ellipse fill="none" stroke="#000000" cx="67.2223" cy="-18" rx="28.6953" ry="18"/>
<text text-anchor="middle" x="67.2223" y="-14.3" font-family="Times,serif" font-size="14.00" fill="#000000">* | *</text>
</g>
<!-- 5&#45;&#45;6 -->
<g id="edge9" class="edge">
<title>5&#45;&#45;6</title>
<path fill="none" stroke="#000000" d="M38.1452,-69.7186C44.0429,-59.2286 51.5893,-45.806 57.5161,-35.2641"/>
<text text-anchor="middle" x="33.8307" y="-56.2913" font-family="Times,serif" font-size="14.00" fill="#000000">* | *</text>
</g>
<!-- 6&#45;&#45;7 -->
<g id="edge10" class="edge">
<title>6&#45;&#45;7</title>
<path fill="none" stroke="#000000" d="M92.1994,-27.2206C99.9747,-30.0909 108.5408,-33.2532 116.2971,-36.1165"/>
<text text-anchor="middle" x="111.2483" y="-20.4686" font-family="Times,serif" font-size="14.00" fill="#000000">* | *</text>
</g>
</g>
</svg>
