<?xml version="1.0" encoding="UTF-8" standalone="no"?>
<!DOCTYPE svg PUBLIC "-//W3C//DTD SVG 1.1//EN"
 "http://www.w3.org/Graphics/SVG/1.1/DTD/svg11.dtd">
<!-- Generated by graphviz version 2.40.1 (20161225.0304)
 -->
<!-- Title: G Pages: 1 -->
<svg width="269pt" height="354pt"
 viewBox="0.00 0.00 269.13 354.22" xmlns="http://www.w3.org/2000/svg" xmlns:xlink="http://www.w3.org/1999/xlink">
<g id="graph0" class="graph" transform="scale(1 1) rotate(0) translate(4 350.2238)">
<title>G</title>
<polygon fill="#ffffff" stroke="transparent" points="-4,4 -4,-350.2238 265.1323,-350.2238 265.1323,4 -4,4"/>
<!-- 0 -->
<g id="node1" class="node">
<title>0</title>
<ellipse fill="none" stroke="#000000" cx="102.3446" cy="-201.3304" rx="33.2948" ry="18"/>
<text text-anchor="middle" x="102.3446" y="-197.6304" font-family="Times,serif" font-size="14.00" fill="#000000">C | C</text>
</g>
<!-- 1 -->
<g id="node2" class="node">
<title>1</title>
<ellipse fill="none" stroke="#000000" cx="166.6454" cy="-254.7935" rx="32.4942" ry="18"/>
<text text-anchor="middle" x="166.6454" y="-251.0935" font-family="Times,serif" font-size="14.00" fill="#000000">S | S</text>
</g>
<!-- 0&#45;&#45;1 -->
<g id="edge1" class="edge">
<title>0&#45;&#45;1</title>
<path fill="none" stroke="#000000" stroke-dasharray="5,2" d="M120.5986,-216.5078C129.3611,-223.7934 139.8289,-232.4969 148.5683,-239.7633"/>
<text text-anchor="middle" x="132.0835" y="-231.9355" font-family="Times,serif" font-size="14.00" fill="#000000">&#45;</text>
</g>
<!-- 3 -->
<g id="node4" class="node">
<title>3</title>
<ellipse fill="none" stroke="#000000" cx="167.1676" cy="-145.1458" rx="34.394" ry="18"/>
<text text-anchor="middle" x="167.1676" y="-141.4458" font-family="Times,serif" font-size="14.00" fill="#000000">O | O</text>
</g>
<!-- 0&#45;&#45;3 -->
<g id="edge2" class="edge">
<title>0&#45;&#45;3</title>
<path fill="none" stroke="#000000" stroke-dasharray="1,5" d="M120.0578,-185.9777C129.0545,-178.18 139.9681,-168.7208 149.0246,-160.8711"/>
<text text-anchor="middle" x="137.0412" y="-177.2244" font-family="Times,serif" font-size="14.00" fill="#000000">&#45;</text>
</g>
<!-- 5 -->
<g id="node6" class="node">
<title>5</title>
<ellipse fill="none" stroke="#000000" cx="41.8448" cy="-256.6874" rx="34.394" ry="18"/>
<text text-anchor="middle" x="41.8448" y="-252.9874" font-family="Times,serif" font-size="14.00" fill="#000000">O | O</text>
</g>
<!-- 0&#45;&#45;5 -->
<g id="edge3" class="edge">
<title>0&#45;&#45;5</title>
<path fill="none" stroke="#000000" d="M85.1696,-217.0454C77.0649,-224.4612 67.4095,-233.2958 59.2728,-240.7408"/>
<text text-anchor="middle" x="53.2212" y="-217.6931" font-family="Times,serif" font-size="14.00" fill="#000000">= | =</text>
</g>
<!-- 6 -->
<g id="node7" class="node">
<title>6</title>
<ellipse fill="none" stroke="#000000" cx="40.4844" cy="-145.5701" rx="33.2948" ry="18"/>
<text text-anchor="middle" x="40.4844" y="-141.8701" font-family="Times,serif" font-size="14.00" fill="#000000">C | C</text>
</g>
<!-- 0&#45;&#45;6 -->
<g id="edge4" class="edge">
<title>0&#45;&#45;6</title>
<path fill="none" stroke="#000000" d="M85.1131,-185.7981C76.5331,-178.0642 66.1908,-168.7416 57.6235,-161.0192"/>
<text text-anchor="middle" x="59.8683" y="-177.2086" font-family="Times,serif" font-size="14.00" fill="#000000">&#45; | &#45;</text>
</g>
<!-- 2 -->
<g id="node3" class="node">
<title>2</title>
<ellipse fill="none" stroke="#000000" cx="192.4843" cy="-328.2238" rx="28.6953" ry="18"/>
<text text-anchor="middle" x="192.4843" y="-324.5238" font-family="Times,serif" font-size="14.00" fill="#000000">* | *</text>
</g>
<!-- 1&#45;&#45;2 -->
<g id="edge5" class="edge">
<title>1&#45;&#45;2</title>
<path fill="none" stroke="#000000" d="M172.9003,-272.569C176.9628,-284.114 182.236,-299.0998 186.287,-310.6121"/>
<text text-anchor="middle" x="168.0936" y="-295.3905" font-family="Times,serif" font-size="14.00" fill="#000000">&#45; | &#45;</text>
</g>
<!-- 4 -->
<g id="node5" class="node">
<title>4</title>
<ellipse fill="none" stroke="#000000" cx="226.0354" cy="-198.4356" rx="35.194" ry="18"/>
<text text-anchor="middle" x="226.0354" y="-194.7356" font-family="Times,serif" font-size="14.00" fill="#000000">H | H</text>
</g>
<!-- 1&#45;&#45;4 -->
<g id="edge6" class="edge">
<title>1&#45;&#45;4</title>
<path fill="none" stroke="#000000" stroke-dasharray="1,5" d="M183.1888,-239.0947C191.2889,-231.4082 201.025,-222.1691 209.168,-214.4418"/>
<text text-anchor="middle" x="198.6784" y="-230.5683" font-family="Times,serif" font-size="14.00" fill="#000000">&#45;</text>
</g>
<!-- 3&#45;&#45;4 -->
<g id="edge7" class="edge">
<title>3&#45;&#45;4</title>
<path fill="none" stroke="#000000" stroke-dasharray="5,2" d="M184.5115,-160.8463C192.1085,-167.7234 201.0061,-175.7779 208.6121,-182.6632"/>
<text text-anchor="middle" x="194.0618" y="-175.5548" font-family="Times,serif" font-size="14.00" fill="#000000">&#45;</text>
</g>
<!-- 9 -->
<g id="node10" class="node">
<title>9</title>
<ellipse fill="none" stroke="#000000" cx="166.5184" cy="-63.7454" rx="33.2948" ry="18"/>
<text text-anchor="middle" x="166.5184" y="-60.0454" font-family="Times,serif" font-size="14.00" fill="#000000">C | C</text>
</g>
<!-- 3&#45;&#45;9 -->
<g id="edge8" class="edge">
<title>3&#45;&#45;9</title>
<path fill="none" stroke="#000000" d="M167.0235,-127.0804C166.9159,-113.591 166.7696,-95.2376 166.662,-81.7603"/>
<text text-anchor="middle" x="155.3428" y="-108.2204" font-family="Times,serif" font-size="14.00" fill="#000000">&#45; | &#45;</text>
</g>
<!-- 7 -->
<g id="node8" class="node">
<title>7</title>
<ellipse fill="none" stroke="#000000" cx="33.1471" cy="-64.9407" rx="33.2948" ry="18"/>
<text text-anchor="middle" x="33.1471" y="-61.2407" font-family="Times,serif" font-size="14.00" fill="#000000">C | C</text>
</g>
<!-- 6&#45;&#45;7 -->
<g id="edge9" class="edge">
<title>6&#45;&#45;7</title>
<path fill="none" stroke="#000000" d="M38.8194,-127.2741C37.6186,-114.0786 36.0047,-96.3432 34.8054,-83.1643"/>
<text text-anchor="middle" x="25.3124" y="-109.0192" font-family="Times,serif" font-size="14.00" fill="#000000">&#45; | &#45;</text>
</g>
<!-- 8 -->
<g id="node9" class="node">
<title>8</title>
<ellipse fill="none" stroke="#000000" cx="99.6123" cy="-18" rx="33.2948" ry="18"/>
<text text-anchor="middle" x="99.6123" y="-14.3" font-family="Times,serif" font-size="14.00" fill="#000000">C | C</text>
</g>
<!-- 7&#45;&#45;8 -->
<g id="edge10" class="edge">
<title>7&#45;&#45;8</title>
<path fill="none" stroke="#000000" d="M53.45,-50.6019C61.5433,-44.886 70.8488,-38.314 78.975,-32.575"/>
<text text-anchor="middle" x="54.7125" y="-30.3884" font-family="Times,serif" font-size="14.00" fill="#000000">&#45; | &#45;</text>
</g>
<!-- 8&#45;&#45;9 -->
<g id="edge11" class="edge">
<title>8&#45;&#45;9</title>
<path fill="none" stroke="#000000" d="M120.415,-32.2234C128.394,-37.6788 137.4989,-43.904 145.498,-49.3732"/>
<text text-anchor="middle" x="121.4565" y="-44.5983" font-family="Times,serif" font-size="14.00" fill="#000000">&#45; | &#45;</text>
</g>
</g>
</svg>
