<?xml version="1.0" encoding="UTF-8" standalone="no"?>
<!DOCTYPE svg PUBLIC "-//W3C//DTD SVG 1.1//EN"
 "http://www.w3.org/Graphics/SVG/1.1/DTD/svg11.dtd">
<!-- Generated by graphviz version 2.40.1 (20161225.0304)
 -->
<!-- Title: G Pages: 1 -->
<svg width="267pt" height="277pt"
 viewBox="0.00 0.00 267.48 277.43" xmlns="http://www.w3.org/2000/svg" xmlns:xlink="http://www.w3.org/1999/xlink">
<g id="graph0" class="graph" transform="scale(1 1) rotate(0) translate(4 273.4269)">
<title>G</title>
<polygon fill="#ffffff" stroke="transparent" points="-4,4 -4,-273.4269 263.4831,-273.4269 263.4831,4 -4,4"/>
<!-- 0 -->
<g id="node1" class="node">
<title>0</title>
<ellipse fill="none" stroke="#000000" cx="105.9499" cy="-160.221" rx="33.2948" ry="18"/>
<text text-anchor="middle" x="105.9499" y="-156.521" font-family="Times,serif" font-size="14.00" fill="#000000">C | C</text>
</g>
<!-- 1 -->
<g id="node2" class="node">
<title>1</title>
<ellipse fill="none" stroke="#000000" cx="183.7687" cy="-189.9402" rx="32.4942" ry="18"/>
<text text-anchor="middle" x="183.7687" y="-186.2402" font-family="Times,serif" font-size="14.00" fill="#000000">S | S</text>
</g>
<!-- 0&#45;&#45;1 -->
<g id="edge1" class="edge">
<title>0&#45;&#45;1</title>
<path fill="none" stroke="#000000" stroke-dasharray="1,5" d="M133.1671,-170.6153C140.8811,-173.5613 149.271,-176.7654 156.9607,-179.7021"/>
<text text-anchor="middle" x="142.5639" y="-178.9587" font-family="Times,serif" font-size="14.00" fill="#000000">&#45;</text>
</g>
<!-- 3 -->
<g id="node4" class="node">
<title>3</title>
<ellipse fill="none" stroke="#000000" cx="148.0165" cy="-87.1093" rx="32.4942" ry="18"/>
<text text-anchor="middle" x="148.0165" y="-83.4093" font-family="Times,serif" font-size="14.00" fill="#000000">S | S</text>
</g>
<!-- 0&#45;&#45;3 -->
<g id="edge2" class="edge">
<title>0&#45;&#45;3</title>
<path fill="none" stroke="#000000" stroke-dasharray="5,2" d="M115.9191,-142.8945C122.6248,-131.24 131.4281,-115.9399 138.1189,-104.3114"/>
<text text-anchor="middle" x="124.519" y="-127.403" font-family="Times,serif" font-size="14.00" fill="#000000">&#45;</text>
</g>
<!-- 5 -->
<g id="node6" class="node">
<title>5</title>
<ellipse fill="none" stroke="#000000" cx="59.7127" cy="-227.1729" rx="34.394" ry="18"/>
<text text-anchor="middle" x="59.7127" y="-223.4729" font-family="Times,serif" font-size="14.00" fill="#000000">O | O</text>
</g>
<!-- 0&#45;&#45;5 -->
<g id="edge3" class="edge">
<title>0&#45;&#45;5</title>
<path fill="none" stroke="#000000" d="M94.2823,-177.1158C87.3266,-187.1877 78.5207,-199.9387 71.5374,-210.0506"/>
<text text-anchor="middle" x="63.9098" y="-197.3832" font-family="Times,serif" font-size="14.00" fill="#000000">= | =</text>
</g>
<!-- 6 -->
<g id="node7" class="node">
<title>6</title>
<ellipse fill="none" stroke="#000000" cx="35.9078" cy="-117.1949" rx="33.2948" ry="18"/>
<text text-anchor="middle" x="35.9078" y="-113.4949" font-family="Times,serif" font-size="14.00" fill="#000000">C | C</text>
</g>
<!-- 0&#45;&#45;6 -->
<g id="edge4" class="edge">
<title>0&#45;&#45;6</title>
<path fill="none" stroke="#000000" d="M83.7881,-146.6073C75.6121,-141.5849 66.3503,-135.8954 58.1658,-130.8678"/>
<text text-anchor="middle" x="59.477" y="-142.5375" font-family="Times,serif" font-size="14.00" fill="#000000">&#45; | &#45;</text>
</g>
<!-- 2 -->
<g id="node3" class="node">
<title>2</title>
<ellipse fill="none" stroke="#000000" cx="230.8857" cy="-251.4269" rx="28.6953" ry="18"/>
<text text-anchor="middle" x="230.8857" y="-247.7269" font-family="Times,serif" font-size="14.00" fill="#000000">* | *</text>
</g>
<!-- 1&#45;&#45;2 -->
<g id="edge5" class="edge">
<title>1&#45;&#45;2</title>
<path fill="none" stroke="#000000" d="M196.6436,-206.7417C203.4009,-215.5598 211.6459,-226.3193 218.352,-235.0707"/>
<text text-anchor="middle" x="195.9978" y="-224.7062" font-family="Times,serif" font-size="14.00" fill="#000000">&#45; | &#45;</text>
</g>
<!-- 4 -->
<g id="node5" class="node">
<title>4</title>
<ellipse fill="none" stroke="#000000" cx="220.6698" cy="-117.267" rx="35.194" ry="18"/>
<text text-anchor="middle" x="220.6698" y="-113.567" font-family="Times,serif" font-size="14.00" fill="#000000">H | H</text>
</g>
<!-- 1&#45;&#45;4 -->
<g id="edge6" class="edge">
<title>1&#45;&#45;4</title>
<path fill="none" stroke="#000000" stroke-dasharray="5,2" d="M192.7015,-172.348C198.5032,-160.922 206.034,-146.0908 211.8193,-134.6971"/>
<text text-anchor="middle" x="199.7604" y="-157.3226" font-family="Times,serif" font-size="14.00" fill="#000000">&#45;</text>
</g>
<!-- 3&#45;&#45;4 -->
<g id="edge7" class="edge">
<title>3&#45;&#45;4</title>
<path fill="none" stroke="#000000" stroke-dasharray="1,5" d="M174.246,-97.9969C180.4242,-100.5614 187.0256,-103.3016 193.2545,-105.8872"/>
<text text-anchor="middle" x="182.5002" y="-90.742" font-family="Times,serif" font-size="14.00" fill="#000000">&#45;</text>
</g>
<!-- 8 -->
<g id="node9" class="node">
<title>8</title>
<ellipse fill="none" stroke="#000000" cx="108.7458" cy="-18" rx="33.2948" ry="18"/>
<text text-anchor="middle" x="108.7458" y="-14.3" font-family="Times,serif" font-size="14.00" fill="#000000">C | C</text>
</g>
<!-- 3&#45;&#45;8 -->
<g id="edge8" class="edge">
<title>3&#45;&#45;8</title>
<path fill="none" stroke="#000000" d="M138.1068,-69.6701C132.1991,-59.2736 124.72,-46.1117 118.7889,-35.674"/>
<text text-anchor="middle" x="116.9479" y="-56.4721" font-family="Times,serif" font-size="14.00" fill="#000000">&#45; | &#45;</text>
</g>
<!-- 7 -->
<g id="node8" class="node">
<title>7</title>
<ellipse fill="none" stroke="#000000" cx="33.1471" cy="-38.0203" rx="33.2948" ry="18"/>
<text text-anchor="middle" x="33.1471" y="-34.3203" font-family="Times,serif" font-size="14.00" fill="#000000">C | C</text>
</g>
<!-- 6&#45;&#45;7 -->
<g id="edge9" class="edge">
<title>6&#45;&#45;7</title>
<path fill="none" stroke="#000000" d="M35.2675,-98.8317C34.8215,-86.0408 34.2291,-69.053 33.7839,-56.284"/>
<text text-anchor="middle" x="23.0257" y="-81.3578" font-family="Times,serif" font-size="14.00" fill="#000000">&#45; | &#45;</text>
</g>
<!-- 7&#45;&#45;8 -->
<g id="edge10" class="edge">
<title>7&#45;&#45;8</title>
<path fill="none" stroke="#000000" d="M63.0257,-30.1078C68.1434,-28.7525 73.4639,-27.3435 78.5888,-25.9863"/>
<text text-anchor="middle" x="65.0572" y="-16.847" font-family="Times,serif" font-size="14.00" fill="#000000">&#45; | &#45;</text>
</g>
</g>
</svg>
