<?xml version="1.0" encoding="UTF-8" standalone="no"?>
<!DOCTYPE svg PUBLIC "-//W3C//DTD SVG 1.1//EN"
 "http://www.w3.org/Graphics/SVG/1.1/DTD/svg11.dtd">
<!-- Generated by graphviz version 2.40.1 (20161225.0304)
 -->
<!-- Title: G Pages: 1 -->
<svg width="275pt" height="249pt"
 viewBox="0.00 0.00 275.05 249.27" xmlns="http://www.w3.org/2000/svg" xmlns:xlink="http://www.w3.org/1999/xlink">
<g id="graph0" class="graph" transform="scale(1 1) rotate(0) translate(4 245.2674)">
<title>G</title>
<polygon fill="#ffffff" stroke="transparent" points="-4,4 -4,-245.2674 271.0482,-245.2674 271.0482,4 -4,4"/>
<!-- 0 -->
<g id="node1" class="node">
<title>0</title>
<ellipse fill="none" stroke="#000000" cx="28.5975" cy="-111.3611" rx="28.6953" ry="18"/>
<text text-anchor="middle" x="28.5975" y="-107.6611" font-family="Times,serif" font-size="14.00" fill="#000000">* | *</text>
</g>
<!-- 1 -->
<g id="node2" class="node">
<title>1</title>
<ellipse fill="none" stroke="#000000" cx="108.7452" cy="-110.5931" rx="35.194" ry="18"/>
<text text-anchor="middle" x="108.7452" y="-106.8931" font-family="Times,serif" font-size="14.00" fill="#000000">N | N</text>
</g>
<!-- 0&#45;&#45;1 -->
<g id="edge1" class="edge">
<title>0&#45;&#45;1</title>
<path fill="none" stroke="#000000" d="M57.5326,-111.0838C62.7339,-111.034 68.2071,-110.9815 73.5621,-110.9302"/>
<text text-anchor="middle" x="65.5474" y="-99.807" font-family="Times,serif" font-size="14.00" fill="#000000">&#45; | &#45;</text>
</g>
<!-- 2 -->
<g id="node3" class="node">
<title>2</title>
<ellipse fill="none" stroke="#000000" cx="115.2992" cy="-28.2186" rx="35.194" ry="18"/>
<text text-anchor="middle" x="115.2992" y="-24.5186" font-family="Times,serif" font-size="14.00" fill="#000000">H | H</text>
</g>
<!-- 1&#45;&#45;2 -->
<g id="edge2" class="edge">
<title>1&#45;&#45;2</title>
<path fill="none" stroke="#000000" stroke-dasharray="5,2" d="M110.1997,-92.3115C111.2858,-78.6607 112.7636,-60.0876 113.8487,-46.4491"/>
<text text-anchor="middle" x="109.5242" y="-73.1803" font-family="Times,serif" font-size="14.00" fill="#000000">&#45;</text>
</g>
<!-- 3 -->
<g id="node4" class="node">
<title>3</title>
<ellipse fill="none" stroke="#000000" cx="118.6886" cy="-192.4065" rx="33.2948" ry="18"/>
<text text-anchor="middle" x="118.6886" y="-188.7065" font-family="Times,serif" font-size="14.00" fill="#000000">C | C</text>
</g>
<!-- 1&#45;&#45;3 -->
<g id="edge3" class="edge">
<title>1&#45;&#45;3</title>
<path fill="none" stroke="#000000" d="M110.952,-128.7502C112.5997,-142.308 114.8417,-160.7545 116.488,-174.3002"/>
<text text-anchor="middle" x="102.22" y="-155.3252" font-family="Times,serif" font-size="14.00" fill="#000000">&#45; | &#45;</text>
</g>
<!-- 6 -->
<g id="node7" class="node">
<title>6</title>
<ellipse fill="none" stroke="#000000" cx="190.8816" cy="-96.4156" rx="33.2948" ry="18"/>
<text text-anchor="middle" x="190.8816" y="-92.7156" font-family="Times,serif" font-size="14.00" fill="#000000">C | C</text>
</g>
<!-- 1&#45;&#45;6 -->
<g id="edge4" class="edge">
<title>1&#45;&#45;6</title>
<path fill="none" stroke="#000000" stroke-dasharray="1,5" d="M142.1532,-104.8266C147.7494,-103.8606 153.5423,-102.8607 159.0961,-101.902"/>
<text text-anchor="middle" x="148.1247" y="-107.1643" font-family="Times,serif" font-size="14.00" fill="#000000">&#45;</text>
</g>
<!-- 7 -->
<g id="node8" class="node">
<title>7</title>
<ellipse fill="none" stroke="#000000" cx="193.7814" cy="-18" rx="35.194" ry="18"/>
<text text-anchor="middle" x="193.7814" y="-14.3" font-family="Times,serif" font-size="14.00" fill="#000000">N | N</text>
</g>
<!-- 2&#45;&#45;7 -->
<g id="edge5" class="edge">
<title>2&#45;&#45;7</title>
<path fill="none" stroke="#000000" stroke-dasharray="1,5" d="M149.4943,-23.7663C152.7989,-23.336 156.1521,-22.8994 159.4579,-22.469"/>
<text text-anchor="middle" x="155.7261" y="-11.9177" font-family="Times,serif" font-size="14.00" fill="#000000">&#45;</text>
</g>
<!-- 4 -->
<g id="node5" class="node">
<title>4</title>
<ellipse fill="none" stroke="#000000" cx="191.5947" cy="-223.2674" rx="28.6953" ry="18"/>
<text text-anchor="middle" x="191.5947" y="-219.5674" font-family="Times,serif" font-size="14.00" fill="#000000">* | *</text>
</g>
<!-- 3&#45;&#45;4 -->
<g id="edge6" class="edge">
<title>3&#45;&#45;4</title>
<path fill="none" stroke="#000000" d="M145.0093,-203.548C152.351,-206.6557 160.2884,-210.0155 167.4951,-213.0661"/>
<text text-anchor="middle" x="142.2522" y="-212.107" font-family="Times,serif" font-size="14.00" fill="#000000">* | *</text>
</g>
<!-- 5 -->
<g id="node6" class="node">
<title>5</title>
<ellipse fill="none" stroke="#000000" cx="238.4507" cy="-160.1675" rx="28.6953" ry="18"/>
<text text-anchor="middle" x="238.4507" y="-156.4675" font-family="Times,serif" font-size="14.00" fill="#000000">* | *</text>
</g>
<!-- 4&#45;&#45;5 -->
<g id="edge7" class="edge">
<title>4&#45;&#45;5</title>
<path fill="none" stroke="#000000" d="M203.9055,-206.6886C210.7384,-197.487 219.2137,-186.0735 226.0594,-176.8546"/>
<text text-anchor="middle" x="228.9825" y="-195.5716" font-family="Times,serif" font-size="14.00" fill="#000000">* | *</text>
</g>
<!-- 5&#45;&#45;6 -->
<g id="edge8" class="edge">
<title>5&#45;&#45;6</title>
<path fill="none" stroke="#000000" d="M226.2005,-143.7498C219.2634,-134.4527 210.5991,-122.8408 203.5882,-113.4449"/>
<text text-anchor="middle" x="203.3944" y="-132.3974" font-family="Times,serif" font-size="14.00" fill="#000000">&#45; | &#45;</text>
</g>
<!-- 6&#45;&#45;7 -->
<g id="edge9" class="edge">
<title>6&#45;&#45;7</title>
<path fill="none" stroke="#000000" d="M191.5542,-78.2284C192.0226,-65.5601 192.6448,-48.7351 193.1125,-36.0886"/>
<text text-anchor="middle" x="173.3333" y="-60.9585" font-family="Times,serif" font-size="14.00" fill="#000000"># | =</text>
</g>
</g>
</svg>
