<?xml version="1.0" encoding="UTF-8" standalone="no"?>
<!DOCTYPE svg PUBLIC "-//W3C//DTD SVG 1.1//EN"
 "http://www.w3.org/Graphics/SVG/1.1/DTD/svg11.dtd">
<!-- Generated by graphviz version 2.40.1 (20161225.0304)
 -->
<!-- Title: G Pages: 1 -->
<svg width="254pt" height="304pt"
 viewBox="0.00 0.00 253.52 303.96" xmlns="http://www.w3.org/2000/svg" xmlns:xlink="http://www.w3.org/1999/xlink">
<g id="graph0" class="graph" transform="scale(1 1) rotate(0) translate(4 299.9648)">
<title>G</title>
<polygon fill="#ffffff" stroke="transparent" points="-4,4 -4,-299.9648 249.5223,-299.9648 249.5223,4 -4,4"/>
<!-- 0 -->
<g id="node1" class="node">
<title>0</title>
<ellipse fill="none" stroke="#000000" cx="28.5975" cy="-72.2223" rx="28.6953" ry="18"/>
<text text-anchor="middle" x="28.5975" y="-68.5223" font-family="Times,serif" font-size="14.00" fill="#000000">* | *</text>
</g>
<!-- 1 -->
<g id="node2" class="node">
<title>1</title>
<ellipse fill="none" stroke="#000000" cx="105.3312" cy="-93.6799" rx="35.194" ry="18"/>
<text text-anchor="middle" x="105.3312" y="-89.9799" font-family="Times,serif" font-size="14.00" fill="#000000">N | N</text>
</g>
<!-- 0&#45;&#45;1 -->
<g id="edge1" class="edge">
<title>0&#45;&#45;1</title>
<path fill="none" stroke="#000000" d="M55.0049,-79.6068C61.2476,-81.3525 67.9597,-83.2295 74.3833,-85.0257"/>
<text text-anchor="middle" x="70.4441" y="-71.1163" font-family="Times,serif" font-size="14.00" fill="#000000">&#45; | &#45;</text>
</g>
<!-- 2 -->
<g id="node3" class="node">
<title>2</title>
<ellipse fill="none" stroke="#000000" cx="142.8612" cy="-18" rx="35.194" ry="18"/>
<text text-anchor="middle" x="142.8612" y="-14.3" font-family="Times,serif" font-size="14.00" fill="#000000">H | H</text>
</g>
<!-- 1&#45;&#45;2 -->
<g id="edge2" class="edge">
<title>1&#45;&#45;2</title>
<path fill="none" stroke="#000000" stroke-dasharray="5,2" d="M114.0357,-76.1272C120.0987,-63.9009 128.1513,-47.6629 134.204,-35.4575"/>
<text text-anchor="middle" x="121.6198" y="-59.5924" font-family="Times,serif" font-size="14.00" fill="#000000">&#45;</text>
</g>
<!-- 3 -->
<g id="node4" class="node">
<title>3</title>
<ellipse fill="none" stroke="#000000" cx="159.1381" cy="-171.9272" rx="33.2948" ry="18"/>
<text text-anchor="middle" x="159.1381" y="-168.2272" font-family="Times,serif" font-size="14.00" fill="#000000">C | C</text>
</g>
<!-- 1&#45;&#45;3 -->
<g id="edge3" class="edge">
<title>1&#45;&#45;3</title>
<path fill="none" stroke="#000000" d="M117.0065,-110.6584C126.0317,-123.7831 138.4661,-141.8655 147.4856,-154.9819"/>
<text text-anchor="middle" x="120.746" y="-136.6201" font-family="Times,serif" font-size="14.00" fill="#000000">&#45; | &#45;</text>
</g>
<!-- 7 -->
<g id="node8" class="node">
<title>7</title>
<ellipse fill="none" stroke="#000000" cx="164.161" cy="-118.274" rx="33.2948" ry="18"/>
<text text-anchor="middle" x="164.161" y="-114.574" font-family="Times,serif" font-size="14.00" fill="#000000">C | C</text>
</g>
<!-- 1&#45;&#45;7 -->
<g id="edge4" class="edge">
<title>1&#45;&#45;7</title>
<path fill="none" stroke="#000000" stroke-dasharray="1,5" d="M132.6794,-105.113C134.3597,-105.8154 136.0491,-106.5217 137.7254,-107.2225"/>
<text text-anchor="middle" x="132.7024" y="-94.9677" font-family="Times,serif" font-size="14.00" fill="#000000">&#45;</text>
</g>
<!-- 8 -->
<g id="node9" class="node">
<title>8</title>
<ellipse fill="none" stroke="#000000" cx="210.4254" cy="-50.1405" rx="35.194" ry="18"/>
<text text-anchor="middle" x="210.4254" y="-46.4405" font-family="Times,serif" font-size="14.00" fill="#000000">N | N</text>
</g>
<!-- 2&#45;&#45;8 -->
<g id="edge5" class="edge">
<title>2&#45;&#45;8</title>
<path fill="none" stroke="#000000" stroke-dasharray="1,5" d="M168.7901,-30.3345C174,-32.8128 179.4737,-35.4167 184.6775,-37.8922"/>
<text text-anchor="middle" x="179.2338" y="-22.9133" font-family="Times,serif" font-size="14.00" fill="#000000">&#45;</text>
</g>
<!-- 4 -->
<g id="node5" class="node">
<title>4</title>
<ellipse fill="none" stroke="#000000" cx="192.2865" cy="-247.9189" rx="28.6953" ry="18"/>
<text text-anchor="middle" x="192.2865" y="-244.2189" font-family="Times,serif" font-size="14.00" fill="#000000">* | *</text>
</g>
<!-- 3&#45;&#45;4 -->
<g id="edge6" class="edge">
<title>3&#45;&#45;4</title>
<path fill="none" stroke="#000000" d="M166.8263,-189.5523C172.1815,-201.8289 179.2939,-218.1338 184.64,-230.3895"/>
<text text-anchor="middle" x="161.7331" y="-213.7709" font-family="Times,serif" font-size="14.00" fill="#000000">* | *</text>
</g>
<!-- 5 -->
<g id="node6" class="node">
<title>5</title>
<ellipse fill="none" stroke="#000000" cx="125.9995" cy="-277.9648" rx="28.6953" ry="18"/>
<text text-anchor="middle" x="125.9995" y="-274.2648" font-family="Times,serif" font-size="14.00" fill="#000000">* | *</text>
</g>
<!-- 4&#45;&#45;5 -->
<g id="edge7" class="edge">
<title>4&#45;&#45;5</title>
<path fill="none" stroke="#000000" d="M168.7295,-258.5966C162.4778,-261.4303 155.7282,-264.4896 149.4806,-267.3215"/>
<text text-anchor="middle" x="145.105" y="-251.759" font-family="Times,serif" font-size="14.00" fill="#000000">* | *</text>
</g>
<!-- 6 -->
<g id="node7" class="node">
<title>6</title>
<ellipse fill="none" stroke="#000000" cx="108.5189" cy="-199.5781" rx="28.6953" ry="18"/>
<text text-anchor="middle" x="108.5189" y="-195.8781" font-family="Times,serif" font-size="14.00" fill="#000000">* | *</text>
</g>
<!-- 5&#45;&#45;6 -->
<g id="edge8" class="edge">
<title>5&#45;&#45;6</title>
<path fill="none" stroke="#000000" d="M121.9451,-259.7843C119.1211,-247.1207 115.3704,-230.3019 112.5512,-217.66"/>
<text text-anchor="middle" x="103.2482" y="-242.5221" font-family="Times,serif" font-size="14.00" fill="#000000">* | *</text>
</g>
<!-- 6&#45;&#45;7 -->
<g id="edge9" class="edge">
<title>6&#45;&#45;7</title>
<path fill="none" stroke="#000000" d="M120.048,-182.7318C129.5339,-168.871 142.9214,-149.3093 152.4553,-135.3784"/>
<text text-anchor="middle" x="124.7516" y="-147.8551" font-family="Times,serif" font-size="14.00" fill="#000000">&#45; | &#45;</text>
</g>
<!-- 7&#45;&#45;8 -->
<g id="edge10" class="edge">
<title>7&#45;&#45;8</title>
<path fill="none" stroke="#000000" d="M175.8355,-101.081C182.7953,-90.8314 191.6063,-77.8553 198.5937,-67.565"/>
<text text-anchor="middle" x="168.2146" y="-88.123" font-family="Times,serif" font-size="14.00" fill="#000000"># | =</text>
</g>
</g>
</svg>
