<?xml version="1.0" encoding="UTF-8" standalone="no"?>
<!DOCTYPE svg PUBLIC "-//W3C//DTD SVG 1.1//EN"
 "http://www.w3.org/Graphics/SVG/1.1/DTD/svg11.dtd">
<!-- Generated by graphviz version 2.40.1 (20161225.0304)
 -->
<!-- Title: G Pages: 1 -->
<svg width="386pt" height="247pt"
 viewBox="0.00 0.00 386.04 246.67" xmlns="http://www.w3.org/2000/svg" xmlns:xlink="http://www.w3.org/1999/xlink">
<g id="graph0" class="graph" transform="scale(1 1) rotate(0) translate(4 242.6654)">
<title>G</title>
<polygon fill="#ffffff" stroke="transparent" points="-4,4 -4,-242.6654 382.037,-242.6654 382.037,4 -4,4"/>
<!-- 0 -->
<g id="node1" class="node">
<title>0</title>
<ellipse fill="none" stroke="#000000" cx="342.9401" cy="-120.3188" rx="35.194" ry="18"/>
<text text-anchor="middle" x="342.9401" y="-116.6188" font-family="Times,serif" font-size="14.00" fill="#000000">H | H</text>
</g>
<!-- 2 -->
<g id="node3" class="node">
<title>2</title>
<ellipse fill="none" stroke="#000000" cx="268.0103" cy="-149.4143" rx="35.194" ry="18"/>
<text text-anchor="middle" x="268.0103" y="-145.7143" font-family="Times,serif" font-size="14.00" fill="#000000">N | N</text>
</g>
<!-- 0&#45;&#45;2 -->
<g id="edge1" class="edge">
<title>0&#45;&#45;2</title>
<path fill="none" stroke="#000000" d="M314.6123,-131.3186C308.6446,-133.6359 302.3473,-136.0811 296.3781,-138.399"/>
<text text-anchor="middle" x="293.9952" y="-123.6588" font-family="Times,serif" font-size="14.00" fill="#000000">&#45; | &#45;</text>
</g>
<!-- 1 -->
<g id="node2" class="node">
<title>1</title>
<ellipse fill="none" stroke="#000000" cx="306.5447" cy="-220.6654" rx="35.194" ry="18"/>
<text text-anchor="middle" x="306.5447" y="-216.9654" font-family="Times,serif" font-size="14.00" fill="#000000">H | H</text>
</g>
<!-- 1&#45;&#45;2 -->
<g id="edge2" class="edge">
<title>1&#45;&#45;2</title>
<path fill="none" stroke="#000000" d="M297.0193,-203.0528C291.0463,-192.0085 283.3782,-177.83 277.4261,-166.8244"/>
<text text-anchor="middle" x="275.7227" y="-188.7386" font-family="Times,serif" font-size="14.00" fill="#000000">&#45; | &#45;</text>
</g>
<!-- 3 -->
<g id="node4" class="node">
<title>3</title>
<ellipse fill="none" stroke="#000000" cx="186.8679" cy="-160.9553" rx="33.2948" ry="18"/>
<text text-anchor="middle" x="186.8679" y="-157.2553" font-family="Times,serif" font-size="14.00" fill="#000000">C | C</text>
</g>
<!-- 2&#45;&#45;3 -->
<g id="edge3" class="edge">
<title>2&#45;&#45;3</title>
<path fill="none" stroke="#000000" stroke-dasharray="5,2" d="M234.0688,-154.2419C229.118,-154.946 224.0318,-155.6694 219.116,-156.3686"/>
<text text-anchor="middle" x="224.0924" y="-159.1053" font-family="Times,serif" font-size="14.00" fill="#000000">&#45;</text>
</g>
<!-- 9 -->
<g id="node10" class="node">
<title>9</title>
<ellipse fill="none" stroke="#000000" cx="236.3059" cy="-72.2662" rx="35.194" ry="18"/>
<text text-anchor="middle" x="236.3059" y="-68.5662" font-family="Times,serif" font-size="14.00" fill="#000000">H | H</text>
</g>
<!-- 2&#45;&#45;9 -->
<g id="edge4" class="edge">
<title>2&#45;&#45;9</title>
<path fill="none" stroke="#000000" stroke-dasharray="1,5" d="M260.657,-131.5211C255.535,-119.0576 248.7325,-102.5046 243.6193,-90.0624"/>
<text text-anchor="middle" x="249.6381" y="-114.5918" font-family="Times,serif" font-size="14.00" fill="#000000">&#45;</text>
</g>
<!-- 4 -->
<g id="node5" class="node">
<title>4</title>
<ellipse fill="none" stroke="#000000" cx="118.5201" cy="-202.4187" rx="28.6953" ry="18"/>
<text text-anchor="middle" x="118.5201" y="-198.7187" font-family="Times,serif" font-size="14.00" fill="#000000">* | *</text>
</g>
<!-- 3&#45;&#45;4 -->
<g id="edge5" class="edge">
<title>3&#45;&#45;4</title>
<path fill="none" stroke="#000000" d="M164.4883,-174.532C156.3905,-179.4445 147.2856,-184.968 139.3283,-189.7953"/>
<text text-anchor="middle" x="137.9083" y="-170.9636" font-family="Times,serif" font-size="14.00" fill="#000000">* | *</text>
</g>
<!-- 8 -->
<g id="node9" class="node">
<title>8</title>
<ellipse fill="none" stroke="#000000" cx="158.1962" cy="-81.9905" rx="35.194" ry="18"/>
<text text-anchor="middle" x="158.1962" y="-78.2905" font-family="Times,serif" font-size="14.00" fill="#000000">N | N</text>
</g>
<!-- 3&#45;&#45;8 -->
<g id="edge6" class="edge">
<title>3&#45;&#45;8</title>
<path fill="none" stroke="#000000" stroke-dasharray="1,5" d="M180.3619,-143.037C175.6696,-130.1139 169.3629,-112.7447 164.6765,-99.8379"/>
<text text-anchor="middle" x="170.0192" y="-125.2375" font-family="Times,serif" font-size="14.00" fill="#000000">&#45;</text>
</g>
<!-- 5 -->
<g id="node6" class="node">
<title>5</title>
<ellipse fill="none" stroke="#000000" cx="54.0559" cy="-154.5669" rx="28.6953" ry="18"/>
<text text-anchor="middle" x="54.0559" y="-150.8669" font-family="Times,serif" font-size="14.00" fill="#000000">* | *</text>
</g>
<!-- 4&#45;&#45;5 -->
<g id="edge7" class="edge">
<title>4&#45;&#45;5</title>
<path fill="none" stroke="#000000" d="M99.8744,-188.578C91.3962,-182.2846 81.383,-174.8518 72.8831,-168.5423"/>
<text text-anchor="middle" x="72.3787" y="-182.3601" font-family="Times,serif" font-size="14.00" fill="#000000">* | *</text>
</g>
<!-- 6 -->
<g id="node7" class="node">
<title>6</title>
<ellipse fill="none" stroke="#000000" cx="78.1173" cy="-77.0625" rx="33.2948" ry="18"/>
<text text-anchor="middle" x="78.1173" y="-73.3625" font-family="Times,serif" font-size="14.00" fill="#000000">C | C</text>
</g>
<!-- 5&#45;&#45;6 -->
<g id="edge8" class="edge">
<title>5&#45;&#45;6</title>
<path fill="none" stroke="#000000" d="M59.6366,-136.591C63.5237,-124.07 68.6864,-107.4405 72.5669,-94.9409"/>
<text text-anchor="middle" x="54.6018" y="-119.566" font-family="Times,serif" font-size="14.00" fill="#000000">&#45; | &#45;</text>
</g>
<!-- 7 -->
<g id="node8" class="node">
<title>7</title>
<ellipse fill="none" stroke="#000000" cx="28.5975" cy="-18" rx="28.6953" ry="18"/>
<text text-anchor="middle" x="28.5975" y="-14.3" font-family="Times,serif" font-size="14.00" fill="#000000">* | *</text>
</g>
<!-- 6&#45;&#45;7 -->
<g id="edge9" class="edge">
<title>6&#45;&#45;7</title>
<path fill="none" stroke="#000000" d="M64.3233,-60.6103C57.3404,-52.2818 48.8994,-42.2141 41.9758,-33.9564"/>
<text text-anchor="middle" x="67.1495" y="-36.0833" font-family="Times,serif" font-size="14.00" fill="#000000">* | *</text>
</g>
<!-- 6&#45;&#45;8 -->
<g id="edge10" class="edge">
<title>6&#45;&#45;8</title>
<path fill="none" stroke="#000000" d="M111.1508,-79.0953C115.1145,-79.3393 119.1727,-79.589 123.1635,-79.8346"/>
<text text-anchor="middle" x="117.1571" y="-68.265" font-family="Times,serif" font-size="14.00" fill="#000000">= | =</text>
</g>
<!-- 8&#45;&#45;9 -->
<g id="edge11" class="edge">
<title>8&#45;&#45;9</title>
<path fill="none" stroke="#000000" stroke-dasharray="5,2" d="M192.6836,-77.697C195.7896,-77.3103 198.9347,-76.9188 202.0387,-76.5323"/>
<text text-anchor="middle" x="198.6112" y="-65.9147" font-family="Times,serif" font-size="14.00" fill="#000000">&#45;</text>
</g>
</g>
</svg>
