<?xml version="1.0" encoding="UTF-8" standalone="no"?>
<!DOCTYPE svg PUBLIC "-//W3C//DTD SVG 1.1//EN"
 "http://www.w3.org/Graphics/SVG/1.1/DTD/svg11.dtd">
<!-- Generated by graphviz version 2.40.1 (20161225.0304)
 -->
<!-- Title: G Pages: 1 -->
<svg width="284pt" height="352pt"
 viewBox="0.00 0.00 283.68 351.72" xmlns="http://www.w3.org/2000/svg" xmlns:xlink="http://www.w3.org/1999/xlink">
<g id="graph0" class="graph" transform="scale(1 1) rotate(0) translate(4 347.7169)">
<title>G</title>
<polygon fill="#ffffff" stroke="transparent" points="-4,4 -4,-347.7169 279.6811,-347.7169 279.6811,4 -4,4"/>
<!-- 0 -->
<g id="node1" class="node">
<title>0</title>
<ellipse fill="none" stroke="#000000" cx="147.0747" cy="-18" rx="35.194" ry="18"/>
<text text-anchor="middle" x="147.0747" y="-14.3" font-family="Times,serif" font-size="14.00" fill="#000000">N | N</text>
</g>
<!-- 1 -->
<g id="node2" class="node">
<title>1</title>
<ellipse fill="none" stroke="#000000" cx="98.2004" cy="-81.8044" rx="33.2948" ry="18"/>
<text text-anchor="middle" x="98.2004" y="-78.1044" font-family="Times,serif" font-size="14.00" fill="#000000">C | C</text>
</g>
<!-- 0&#45;&#45;1 -->
<g id="edge1" class="edge">
<title>0&#45;&#45;1</title>
<path fill="none" stroke="#000000" d="M134.2336,-34.7639C127.1064,-44.0683 118.266,-55.6091 111.1255,-64.931"/>
<text text-anchor="middle" x="138.1795" y="-53.6474" font-family="Times,serif" font-size="14.00" fill="#000000"># | &#45;</text>
</g>
<!-- 9 -->
<g id="node10" class="node">
<title>9</title>
<ellipse fill="none" stroke="#000000" cx="201.2631" cy="-42.362" rx="35.194" ry="18"/>
<text text-anchor="middle" x="201.2631" y="-38.662" font-family="Times,serif" font-size="14.00" fill="#000000">H | H</text>
</g>
<!-- 0&#45;&#45;9 -->
<g id="edge2" class="edge">
<title>0&#45;&#45;9</title>
<path fill="none" stroke="#000000" stroke-dasharray="1,5" d="M173.5339,-29.8955C173.9638,-30.0888 174.3939,-30.2821 174.8237,-30.4754"/>
<text text-anchor="middle" x="171.6788" y="-18.9855" font-family="Times,serif" font-size="14.00" fill="#000000">&#45;</text>
</g>
<!-- 10 -->
<g id="node11" class="node">
<title>10</title>
<ellipse fill="none" stroke="#000000" cx="229.0124" cy="-72.4781" rx="35.194" ry="18"/>
<text text-anchor="middle" x="229.0124" y="-68.7781" font-family="Times,serif" font-size="14.00" fill="#000000">H | H</text>
</g>
<!-- 0&#45;&#45;10 -->
<g id="edge3" class="edge">
<title>0&#45;&#45;10</title>
<path fill="none" stroke="#000000" stroke-dasharray="1,5" d="M168.6029,-32.3135C180.5516,-40.2579 195.3724,-50.1118 207.3435,-58.0711"/>
<text text-anchor="middle" x="185.4732" y="-48.9923" font-family="Times,serif" font-size="14.00" fill="#000000">&#45;</text>
</g>
<!-- 2 -->
<g id="node3" class="node">
<title>2</title>
<ellipse fill="none" stroke="#000000" cx="28.8281" cy="-123.161" rx="28.6953" ry="18"/>
<text text-anchor="middle" x="28.8281" y="-119.461" font-family="Times,serif" font-size="14.00" fill="#000000">* | *</text>
</g>
<!-- 1&#45;&#45;2 -->
<g id="edge4" class="edge">
<title>1&#45;&#45;2</title>
<path fill="none" stroke="#000000" d="M75.8687,-95.1175C67.4716,-100.1235 57.9634,-105.7919 49.7038,-110.7159"/>
<text text-anchor="middle" x="51.2863" y="-91.7167" font-family="Times,serif" font-size="14.00" fill="#000000">&#45; | &#45;</text>
</g>
<!-- 8 -->
<g id="node9" class="node">
<title>8</title>
<ellipse fill="none" stroke="#000000" cx="173.9624" cy="-122.4162" rx="35.194" ry="18"/>
<text text-anchor="middle" x="173.9624" y="-118.7162" font-family="Times,serif" font-size="14.00" fill="#000000">N | N</text>
</g>
<!-- 1&#45;&#45;8 -->
<g id="edge5" class="edge">
<title>1&#45;&#45;8</title>
<path fill="none" stroke="#000000" stroke-dasharray="1,5" d="M122.1719,-94.6542C130.9289,-99.3484 140.8375,-104.6598 149.626,-109.3708"/>
<text text-anchor="middle" x="129.399" y="-105.8125" font-family="Times,serif" font-size="14.00" fill="#000000">=</text>
</g>
<!-- 3 -->
<g id="node4" class="node">
<title>3</title>
<ellipse fill="none" stroke="#000000" cx="28.5975" cy="-205.1248" rx="28.6953" ry="18"/>
<text text-anchor="middle" x="28.5975" y="-201.4248" font-family="Times,serif" font-size="14.00" fill="#000000">* | *</text>
</g>
<!-- 2&#45;&#45;3 -->
<g id="edge6" class="edge">
<title>2&#45;&#45;3</title>
<path fill="none" stroke="#000000" d="M28.777,-141.3514C28.7387,-154.9342 28.6867,-173.4147 28.6485,-186.9852"/>
<text text-anchor="middle" x="14.7127" y="-167.9683" font-family="Times,serif" font-size="14.00" fill="#000000">* | *</text>
</g>
<!-- 4 -->
<g id="node5" class="node">
<title>4</title>
<ellipse fill="none" stroke="#000000" cx="99.9979" cy="-248.9647" rx="35.194" ry="18"/>
<text text-anchor="middle" x="99.9979" y="-245.2647" font-family="Times,serif" font-size="14.00" fill="#000000">N | N</text>
</g>
<!-- 3&#45;&#45;4 -->
<g id="edge7" class="edge">
<title>3&#45;&#45;4</title>
<path fill="none" stroke="#000000" d="M49.2494,-217.8051C58.0633,-223.2168 68.3749,-229.5481 77.3926,-235.085"/>
<text text-anchor="middle" x="51.821" y="-230.245" font-family="Times,serif" font-size="14.00" fill="#000000">&#45; | &#45;</text>
</g>
<!-- 5 -->
<g id="node6" class="node">
<title>5</title>
<ellipse fill="none" stroke="#000000" cx="82.6253" cy="-325.7169" rx="28.6953" ry="18"/>
<text text-anchor="middle" x="82.6253" y="-322.0169" font-family="Times,serif" font-size="14.00" fill="#000000">* | *</text>
</g>
<!-- 4&#45;&#45;5 -->
<g id="edge8" class="edge">
<title>4&#45;&#45;5</title>
<path fill="none" stroke="#000000" d="M95.8809,-267.1539C93.1115,-279.3888 89.476,-295.4507 86.7129,-307.6582"/>
<text text-anchor="middle" x="79.7969" y="-291.2061" font-family="Times,serif" font-size="14.00" fill="#000000">&#45; | &#45;</text>
</g>
<!-- 6 -->
<g id="node7" class="node">
<title>6</title>
<ellipse fill="none" stroke="#000000" cx="174.2087" cy="-206.579" rx="33.2948" ry="18"/>
<text text-anchor="middle" x="174.2087" y="-202.879" font-family="Times,serif" font-size="14.00" fill="#000000">C | C</text>
</g>
<!-- 4&#45;&#45;6 -->
<g id="edge9" class="edge">
<title>4&#45;&#45;6</title>
<path fill="none" stroke="#000000" d="M123.4787,-235.5536C132.3112,-230.5089 142.3397,-224.7811 151.1348,-219.7578"/>
<text text-anchor="middle" x="125.8067" y="-216.4557" font-family="Times,serif" font-size="14.00" fill="#000000">&#45; | &#45;</text>
</g>
<!-- 7 -->
<g id="node8" class="node">
<title>7</title>
<ellipse fill="none" stroke="#000000" cx="241.2341" cy="-251.7028" rx="34.394" ry="18"/>
<text text-anchor="middle" x="241.2341" y="-248.0028" font-family="Times,serif" font-size="14.00" fill="#000000">O | O</text>
</g>
<!-- 6&#45;&#45;7 -->
<g id="edge10" class="edge">
<title>6&#45;&#45;7</title>
<path fill="none" stroke="#000000" d="M195.0486,-220.6091C202.888,-225.8869 211.8125,-231.8952 219.7128,-237.2139"/>
<text text-anchor="middle" x="226.3807" y="-217.7115" font-family="Times,serif" font-size="14.00" fill="#000000">= | =</text>
</g>
<!-- 6&#45;&#45;8 -->
<g id="edge11" class="edge">
<title>6&#45;&#45;8</title>
<path fill="none" stroke="#000000" d="M174.1553,-188.3169C174.1139,-174.2 174.057,-154.7506 174.0157,-140.6426"/>
<text text-anchor="middle" x="162.5855" y="-168.2798" font-family="Times,serif" font-size="14.00" fill="#000000">&#45; | &#45;</text>
</g>
<!-- 8&#45;&#45;9 -->
<g id="edge12" class="edge">
<title>8&#45;&#45;9</title>
<path fill="none" stroke="#000000" stroke-dasharray="5,2" d="M180.0213,-104.6496C184.5141,-91.4753 190.6156,-73.5838 195.1267,-60.3558"/>
<text text-anchor="middle" x="185.074" y="-86.3027" font-family="Times,serif" font-size="14.00" fill="#000000">&#45;</text>
</g>
<!-- 8&#45;&#45;10 -->
<g id="edge13" class="edge">
<title>8&#45;&#45;10</title>
<path fill="none" stroke="#000000" stroke-dasharray="5,2" d="M191.3806,-106.6155C197.8065,-100.7862 205.086,-94.1828 211.5186,-88.3475"/>
<text text-anchor="middle" x="198.9496" y="-101.2815" font-family="Times,serif" font-size="14.00" fill="#000000">&#45;</text>
</g>
</g>
</svg>
