<?xml version="1.0" encoding="UTF-8" standalone="no"?>
<!DOCTYPE svg PUBLIC "-//W3C//DTD SVG 1.1//EN"
 "http://www.w3.org/Graphics/SVG/1.1/DTD/svg11.dtd">
<!-- Generated by graphviz version 2.40.1 (20161225.0304)
 -->
<!-- Title: G Pages: 1 -->
<svg width="282pt" height="239pt"
 viewBox="0.00 0.00 282.18 239.42" xmlns="http://www.w3.org/2000/svg" xmlns:xlink="http://www.w3.org/1999/xlink">
<g id="graph0" class="graph" transform="scale(1 1) rotate(0) translate(4 235.4218)">
<title>G</title>
<polygon fill="#ffffff" stroke="transparent" points="-4,4 -4,-235.4218 278.1758,-235.4218 278.1758,4 -4,4"/>
<!-- 0 -->
<g id="node1" class="node">
<title>0</title>
<ellipse fill="none" stroke="#000000" cx="218.3639" cy="-18" rx="35.194" ry="18"/>
<text text-anchor="middle" x="218.3639" y="-14.3" font-family="Times,serif" font-size="14.00" fill="#000000">H | H</text>
</g>
<!-- 2 -->
<g id="node3" class="node">
<title>2</title>
<ellipse fill="none" stroke="#000000" cx="178.7654" cy="-99.9185" rx="35.194" ry="18"/>
<text text-anchor="middle" x="178.7654" y="-96.2185" font-family="Times,serif" font-size="14.00" fill="#000000">N | N</text>
</g>
<!-- 0&#45;&#45;2 -->
<g id="edge1" class="edge">
<title>0&#45;&#45;2</title>
<path fill="none" stroke="#000000" stroke-dasharray="5,2" d="M209.7716,-35.7751C203.1296,-49.5156 193.9787,-68.4464 187.3409,-82.1781"/>
<text text-anchor="middle" x="196.0563" y="-62.7766" font-family="Times,serif" font-size="14.00" fill="#000000">&#45;</text>
</g>
<!-- 8 -->
<g id="node9" class="node">
<title>8</title>
<ellipse fill="none" stroke="#000000" cx="157.7357" cy="-19.2923" rx="34.394" ry="18"/>
<text text-anchor="middle" x="157.7357" y="-15.5923" font-family="Times,serif" font-size="14.00" fill="#000000">O | O</text>
</g>
<!-- 0&#45;&#45;8 -->
<g id="edge2" class="edge">
<title>0&#45;&#45;8</title>
<path fill="none" stroke="#000000" stroke-dasharray="1,5" d="M183.0963,-18.7517C182.9921,-18.754 182.8879,-18.7562 182.7839,-18.7584"/>
<text text-anchor="middle" x="180.4401" y="-22.5551" font-family="Times,serif" font-size="14.00" fill="#000000">&#45;</text>
</g>
<!-- 1 -->
<g id="node2" class="node">
<title>1</title>
<ellipse fill="none" stroke="#000000" cx="239.0789" cy="-68.8224" rx="35.194" ry="18"/>
<text text-anchor="middle" x="239.0789" y="-65.1224" font-family="Times,serif" font-size="14.00" fill="#000000">H | H</text>
</g>
<!-- 1&#45;&#45;2 -->
<g id="edge3" class="edge">
<title>1&#45;&#45;2</title>
<path fill="none" stroke="#000000" stroke-dasharray="5,2" d="M214.1989,-81.6499C210.6943,-83.4568 207.0917,-85.3142 203.5882,-87.1205"/>
<text text-anchor="middle" x="206.3936" y="-73.1852" font-family="Times,serif" font-size="14.00" fill="#000000">&#45;</text>
</g>
<!-- 1&#45;&#45;8 -->
<g id="edge4" class="edge">
<title>1&#45;&#45;8</title>
<path fill="none" stroke="#000000" stroke-dasharray="1,5" d="M216.4203,-55.0255C205.138,-48.1557 191.5383,-39.8748 180.2728,-33.0152"/>
<text text-anchor="middle" x="200.8465" y="-47.8204" font-family="Times,serif" font-size="14.00" fill="#000000">&#45;</text>
</g>
<!-- 3 -->
<g id="node4" class="node">
<title>3</title>
<ellipse fill="none" stroke="#000000" cx="182.2096" cy="-181.8034" rx="33.2948" ry="18"/>
<text text-anchor="middle" x="182.2096" y="-178.1034" font-family="Times,serif" font-size="14.00" fill="#000000">C | C</text>
</g>
<!-- 2&#45;&#45;3 -->
<g id="edge5" class="edge">
<title>2&#45;&#45;3</title>
<path fill="none" stroke="#000000" d="M179.5298,-118.0914C180.1006,-131.6611 180.8771,-150.1238 181.4474,-163.6813"/>
<text text-anchor="middle" x="168.9886" y="-144.6864" font-family="Times,serif" font-size="14.00" fill="#000000">&#45; | &#45;</text>
</g>
<!-- 6 -->
<g id="node7" class="node">
<title>6</title>
<ellipse fill="none" stroke="#000000" cx="99.4423" cy="-75.4938" rx="33.2948" ry="18"/>
<text text-anchor="middle" x="99.4423" y="-71.7938" font-family="Times,serif" font-size="14.00" fill="#000000">C | C</text>
</g>
<!-- 2&#45;&#45;6 -->
<g id="edge6" class="edge">
<title>2&#45;&#45;6</title>
<path fill="none" stroke="#000000" stroke-dasharray="1,5" d="M148.3239,-90.5451C141.7703,-88.5272 134.8612,-86.3997 128.3673,-84.4002"/>
<text text-anchor="middle" x="138.3456" y="-76.2726" font-family="Times,serif" font-size="14.00" fill="#000000">=</text>
</g>
<!-- 4 -->
<g id="node5" class="node">
<title>4</title>
<ellipse fill="none" stroke="#000000" cx="109.855" cy="-213.4218" rx="28.6953" ry="18"/>
<text text-anchor="middle" x="109.855" y="-209.7218" font-family="Times,serif" font-size="14.00" fill="#000000">* | *</text>
</g>
<!-- 3&#45;&#45;4 -->
<g id="edge7" class="edge">
<title>3&#45;&#45;4</title>
<path fill="none" stroke="#000000" d="M156.0879,-193.2184C148.8018,-196.4024 140.9245,-199.8447 133.7722,-202.9702"/>
<text text-anchor="middle" x="158.9301" y="-201.8943" font-family="Times,serif" font-size="14.00" fill="#000000">* | *</text>
</g>
<!-- 5 -->
<g id="node6" class="node">
<title>5</title>
<ellipse fill="none" stroke="#000000" cx="63.1563" cy="-149.7358" rx="28.6953" ry="18"/>
<text text-anchor="middle" x="63.1563" y="-146.0358" font-family="Times,serif" font-size="14.00" fill="#000000">* | *</text>
</g>
<!-- 4&#45;&#45;5 -->
<g id="edge8" class="edge">
<title>4&#45;&#45;5</title>
<path fill="none" stroke="#000000" d="M97.829,-197.0211C90.9107,-187.5862 82.2426,-175.7649 75.304,-166.3023"/>
<text text-anchor="middle" x="72.5665" y="-185.4617" font-family="Times,serif" font-size="14.00" fill="#000000">* | *</text>
</g>
<!-- 5&#45;&#45;6 -->
<g id="edge9" class="edge">
<title>5&#45;&#45;6</title>
<path fill="none" stroke="#000000" d="M71.5723,-132.5166C77.3506,-120.6939 84.9979,-105.0474 90.82,-93.1351"/>
<text text-anchor="middle" x="69.6961" y="-116.6259" font-family="Times,serif" font-size="14.00" fill="#000000">&#45; | &#45;</text>
</g>
<!-- 7 -->
<g id="node8" class="node">
<title>7</title>
<ellipse fill="none" stroke="#000000" cx="33.1471" cy="-29.9518" rx="33.2948" ry="18"/>
<text text-anchor="middle" x="33.1471" y="-26.2518" font-family="Times,serif" font-size="14.00" fill="#000000">C | C</text>
</g>
<!-- 6&#45;&#45;7 -->
<g id="edge10" class="edge">
<title>6&#45;&#45;7</title>
<path fill="none" stroke="#000000" d="M78.8295,-61.3336C70.9234,-55.9025 61.9016,-49.7049 53.9755,-44.26"/>
<text text-anchor="middle" x="54.9025" y="-56.5968" font-family="Times,serif" font-size="14.00" fill="#000000">&#45; | &#45;</text>
</g>
<!-- 6&#45;&#45;8 -->
<g id="edge11" class="edge">
<title>6&#45;&#45;8</title>
<path fill="none" stroke="#000000" stroke-dasharray="5,2" d="M115.9909,-59.539C123.8001,-52.0101 133.1034,-43.0407 140.9433,-35.4821"/>
<text text-anchor="middle" x="134.9671" y="-51.3106" font-family="Times,serif" font-size="14.00" fill="#000000">=</text>
</g>
</g>
</svg>
