<?xml version="1.0" encoding="UTF-8" standalone="no"?>
<!DOCTYPE svg PUBLIC "-//W3C//DTD SVG 1.1//EN"
 "http://www.w3.org/Graphics/SVG/1.1/DTD/svg11.dtd">
<!-- Generated by graphviz version 2.40.1 (20161225.0304)
 -->
<!-- Title: G Pages: 1 -->
<svg width="287pt" height="234pt"
 viewBox="0.00 0.00 286.84 234.12" xmlns="http://www.w3.org/2000/svg" xmlns:xlink="http://www.w3.org/1999/xlink">
<g id="graph0" class="graph" transform="scale(1 1) rotate(0) translate(4 230.1203)">
<title>G</title>
<polygon fill="#ffffff" stroke="transparent" points="-4,4 -4,-230.1203 282.8401,-230.1203 282.8401,4 -4,4"/>
<!-- 0 -->
<g id="node1" class="node">
<title>0</title>
<ellipse fill="none" stroke="#000000" cx="201.446" cy="-78.7134" rx="33.2948" ry="18"/>
<text text-anchor="middle" x="201.446" y="-75.0134" font-family="Times,serif" font-size="14.00" fill="#000000">C | C</text>
</g>
<!-- 1 -->
<g id="node2" class="node">
<title>1</title>
<ellipse fill="none" stroke="#000000" cx="244.3932" cy="-18" rx="34.394" ry="18"/>
<text text-anchor="middle" x="244.3932" y="-14.3" font-family="Times,serif" font-size="14.00" fill="#000000">O | O</text>
</g>
<!-- 0&#45;&#45;1 -->
<g id="edge1" class="edge">
<title>0&#45;&#45;1</title>
<path fill="none" stroke="#000000" d="M213.4092,-61.8013C219.2667,-53.5208 226.3072,-43.5677 232.1957,-35.2432"/>
<text text-anchor="middle" x="241.8025" y="-52.3223" font-family="Times,serif" font-size="14.00" fill="#000000">= | =</text>
</g>
<!-- 2 -->
<g id="node3" class="node">
<title>2</title>
<ellipse fill="none" stroke="#000000" cx="160.8339" cy="-147.2554" rx="33.2948" ry="18"/>
<text text-anchor="middle" x="160.8339" y="-143.5554" font-family="Times,serif" font-size="14.00" fill="#000000">C | C</text>
</g>
<!-- 0&#45;&#45;2 -->
<g id="edge2" class="edge">
<title>0&#45;&#45;2</title>
<path fill="none" stroke="#000000" d="M191.1979,-96.0094C185.0884,-106.3206 177.3538,-119.3744 171.22,-129.7265"/>
<text text-anchor="middle" x="169.7089" y="-116.668" font-family="Times,serif" font-size="14.00" fill="#000000">&#45; | &#45;</text>
</g>
<!-- 3 -->
<g id="node4" class="node">
<title>3</title>
<ellipse fill="none" stroke="#000000" cx="107.8706" cy="-208.1203" rx="35.194" ry="18"/>
<text text-anchor="middle" x="107.8706" y="-204.4203" font-family="Times,serif" font-size="14.00" fill="#000000">H | H</text>
</g>
<!-- 2&#45;&#45;3 -->
<g id="edge3" class="edge">
<title>2&#45;&#45;3</title>
<path fill="none" stroke="#000000" stroke-dasharray="5,2" d="M146.6407,-163.5661C139.1642,-172.158 130.0086,-182.6795 122.4723,-191.3402"/>
<text text-anchor="middle" x="132.0565" y="-181.2532" font-family="Times,serif" font-size="14.00" fill="#000000">&#45;</text>
</g>
<!-- 4 -->
<g id="node5" class="node">
<title>4</title>
<ellipse fill="none" stroke="#000000" cx="222.3777" cy="-200.6591" rx="35.194" ry="18"/>
<text text-anchor="middle" x="222.3777" y="-196.9591" font-family="Times,serif" font-size="14.00" fill="#000000">H | H</text>
</g>
<!-- 2&#45;&#45;4 -->
<g id="edge4" class="edge">
<title>2&#45;&#45;4</title>
<path fill="none" stroke="#000000" d="M178.6349,-162.702C186.729,-169.7255 196.2886,-178.0207 204.4034,-185.0622"/>
<text text-anchor="middle" x="203.0192" y="-162.6821" font-family="Times,serif" font-size="14.00" fill="#000000">&#45; | &#45;</text>
</g>
<!-- 5 -->
<g id="node6" class="node">
<title>5</title>
<ellipse fill="none" stroke="#000000" cx="82.5686" cy="-121.1765" rx="33.2948" ry="18"/>
<text text-anchor="middle" x="82.5686" y="-117.4765" font-family="Times,serif" font-size="14.00" fill="#000000">C | C</text>
</g>
<!-- 2&#45;&#45;5 -->
<g id="edge5" class="edge">
<title>2&#45;&#45;5</title>
<path fill="none" stroke="#000000" stroke-dasharray="1,5" d="M132.5783,-137.8403C125.5726,-135.506 118.0617,-133.0032 111.0455,-130.6654"/>
<text text-anchor="middle" x="119.3119" y="-138.0528" font-family="Times,serif" font-size="14.00" fill="#000000">&#45;</text>
</g>
<!-- 6 -->
<g id="node7" class="node">
<title>6</title>
<ellipse fill="none" stroke="#000000" cx="34.4469" cy="-182.1037" rx="34.394" ry="18"/>
<text text-anchor="middle" x="34.4469" y="-178.4037" font-family="Times,serif" font-size="14.00" fill="#000000">O | O</text>
</g>
<!-- 3&#45;&#45;6 -->
<g id="edge6" class="edge">
<title>3&#45;&#45;6</title>
<path fill="none" stroke="#000000" stroke-dasharray="1,5" d="M78.8516,-197.8379C73.7208,-196.0198 68.3802,-194.1274 63.2552,-192.3115"/>
<text text-anchor="middle" x="71.0534" y="-183.8747" font-family="Times,serif" font-size="14.00" fill="#000000">&#45;</text>
</g>
<!-- 5&#45;&#45;6 -->
<g id="edge7" class="edge">
<title>5&#45;&#45;6</title>
<path fill="none" stroke="#000000" d="M69.4191,-137.8251C62.7404,-146.2811 54.6387,-156.5388 47.9155,-165.051"/>
<text text-anchor="middle" x="74.1673" y="-155.2381" font-family="Times,serif" font-size="14.00" fill="#000000">= | &#45;</text>
</g>
</g>
</svg>
