<?xml version="1.0" encoding="UTF-8" standalone="no"?>
<!DOCTYPE svg PUBLIC "-//W3C//DTD SVG 1.1//EN"
 "http://www.w3.org/Graphics/SVG/1.1/DTD/svg11.dtd">
<!-- Generated by graphviz version 2.40.1 (20161225.0304)
 -->
<!-- Title: G Pages: 1 -->
<svg width="282pt" height="269pt"
 viewBox="0.00 0.00 281.92 268.67" xmlns="http://www.w3.org/2000/svg" xmlns:xlink="http://www.w3.org/1999/xlink">
<g id="graph0" class="graph" transform="scale(1 1) rotate(0) translate(4 264.6744)">
<title>G</title>
<polygon fill="#ffffff" stroke="transparent" points="-4,4 -4,-264.6744 277.9181,-264.6744 277.9181,4 -4,4"/>
<!-- 0 -->
<g id="node1" class="node">
<title>0</title>
<ellipse fill="none" stroke="#000000" cx="140.9187" cy="-230.3672" rx="28.6953" ry="18"/>
<text text-anchor="middle" x="140.9187" y="-226.6672" font-family="Times,serif" font-size="14.00" fill="#000000">* | *</text>
</g>
<!-- 1 -->
<g id="node2" class="node">
<title>1</title>
<ellipse fill="none" stroke="#000000" cx="163.563" cy="-160.6836" rx="33.2948" ry="18"/>
<text text-anchor="middle" x="163.563" y="-156.9836" font-family="Times,serif" font-size="14.00" fill="#000000">C | C</text>
</g>
<!-- 0&#45;&#45;1 -->
<g id="edge1" class="edge">
<title>0&#45;&#45;1</title>
<path fill="none" stroke="#000000" stroke-dasharray="5,2" d="M146.7501,-212.422C150.1048,-202.0986 154.308,-189.164 157.6726,-178.8103"/>
<text text-anchor="middle" x="149.7114" y="-199.4161" font-family="Times,serif" font-size="14.00" fill="#000000">&#45;</text>
</g>
<!-- 2 -->
<g id="node3" class="node">
<title>2</title>
<ellipse fill="none" stroke="#000000" cx="84.7551" cy="-185.6545" rx="33.2948" ry="18"/>
<text text-anchor="middle" x="84.7551" y="-181.9545" font-family="Times,serif" font-size="14.00" fill="#000000">C | C</text>
</g>
<!-- 0&#45;&#45;2 -->
<g id="edge2" class="edge">
<title>0&#45;&#45;2</title>
<path fill="none" stroke="#000000" stroke-dasharray="1,5" d="M123.1482,-216.2199C116.9778,-211.3076 110.0362,-205.7812 103.7695,-200.7922"/>
<text text-anchor="middle" x="110.9588" y="-212.306" font-family="Times,serif" font-size="14.00" fill="#000000">&#45;</text>
</g>
<!-- 1&#45;&#45;2 -->
<g id="edge3" class="edge">
<title>1&#45;&#45;2</title>
<path fill="none" stroke="#000000" d="M134.6653,-169.8401C127.7245,-172.0393 120.3145,-174.3872 113.3859,-176.5826"/>
<text text-anchor="middle" x="118.2756" y="-162.0113" font-family="Times,serif" font-size="14.00" fill="#000000">&#45; | &#45;</text>
</g>
<!-- 4 -->
<g id="node5" class="node">
<title>4</title>
<ellipse fill="none" stroke="#000000" cx="239.4712" cy="-189.8707" rx="34.394" ry="18"/>
<text text-anchor="middle" x="239.4712" y="-186.1707" font-family="Times,serif" font-size="14.00" fill="#000000">O | O</text>
</g>
<!-- 1&#45;&#45;4 -->
<g id="edge4" class="edge">
<title>1&#45;&#45;4</title>
<path fill="none" stroke="#000000" d="M190.9676,-171.2208C197.6773,-173.8008 204.8649,-176.5644 211.5964,-179.1527"/>
<text text-anchor="middle" x="182.282" y="-178.9868" font-family="Times,serif" font-size="14.00" fill="#000000">= | =</text>
</g>
<!-- 7 -->
<g id="node8" class="node">
<title>7</title>
<ellipse fill="none" stroke="#000000" cx="161.1145" cy="-77.7785" rx="34.394" ry="18"/>
<text text-anchor="middle" x="161.1145" y="-74.0785" font-family="Times,serif" font-size="14.00" fill="#000000">O | O</text>
</g>
<!-- 1&#45;&#45;7 -->
<g id="edge5" class="edge">
<title>1&#45;&#45;7</title>
<path fill="none" stroke="#000000" stroke-dasharray="1,5" d="M163.0196,-142.2843C162.611,-128.4501 162.0541,-109.593 161.648,-95.8412"/>
<text text-anchor="middle" x="159.8338" y="-122.8627" font-family="Times,serif" font-size="14.00" fill="#000000">&#45;</text>
</g>
<!-- 3 -->
<g id="node4" class="node">
<title>3</title>
<ellipse fill="none" stroke="#000000" cx="28.5975" cy="-242.6744" rx="28.6953" ry="18"/>
<text text-anchor="middle" x="28.5975" y="-238.9744" font-family="Times,serif" font-size="14.00" fill="#000000">* | *</text>
</g>
<!-- 2&#45;&#45;3 -->
<g id="edge6" class="edge">
<title>2&#45;&#45;3</title>
<path fill="none" stroke="#000000" d="M69.1121,-201.5377C61.1932,-209.5782 51.6207,-219.2977 43.7691,-227.2699"/>
<text text-anchor="middle" x="67.9406" y="-218.2038" font-family="Times,serif" font-size="14.00" fill="#000000">&#45; | &#45;</text>
</g>
<!-- 5 -->
<g id="node6" class="node">
<title>5</title>
<ellipse fill="none" stroke="#000000" cx="41.3254" cy="-117.1981" rx="34.394" ry="18"/>
<text text-anchor="middle" x="41.3254" y="-113.4981" font-family="Times,serif" font-size="14.00" fill="#000000">O | O</text>
</g>
<!-- 2&#45;&#45;5 -->
<g id="edge7" class="edge">
<title>2&#45;&#45;5</title>
<path fill="none" stroke="#000000" d="M73.7959,-168.3801C67.2626,-158.0818 58.9914,-145.0442 52.4321,-134.7051"/>
<text text-anchor="middle" x="47.614" y="-155.3426" font-family="Times,serif" font-size="14.00" fill="#000000">= | &#45;</text>
</g>
<!-- 8 -->
<g id="node9" class="node">
<title>8</title>
<ellipse fill="none" stroke="#000000" cx="84.0376" cy="-51.1876" rx="35.194" ry="18"/>
<text text-anchor="middle" x="84.0376" y="-47.4876" font-family="Times,serif" font-size="14.00" fill="#000000">H | H</text>
</g>
<!-- 5&#45;&#45;8 -->
<g id="edge8" class="edge">
<title>5&#45;&#45;8</title>
<path fill="none" stroke="#000000" stroke-dasharray="1,5" d="M52.5475,-99.8546C58.7761,-90.2285 66.5019,-78.2886 72.7422,-68.6444"/>
<text text-anchor="middle" x="60.1448" y="-88.0495" font-family="Times,serif" font-size="14.00" fill="#000000">&#45;</text>
</g>
<!-- 6 -->
<g id="node7" class="node">
<title>6</title>
<ellipse fill="none" stroke="#000000" cx="211.1271" cy="-18" rx="35.194" ry="18"/>
<text text-anchor="middle" x="211.1271" y="-14.3" font-family="Times,serif" font-size="14.00" fill="#000000">H | H</text>
</g>
<!-- 6&#45;&#45;7 -->
<g id="edge9" class="edge">
<title>6&#45;&#45;7</title>
<path fill="none" stroke="#000000" d="M197.1958,-34.6516C190.2591,-42.9429 181.8975,-52.9372 174.9711,-61.2162"/>
<text text-anchor="middle" x="197.5834" y="-51.7339" font-family="Times,serif" font-size="14.00" fill="#000000">&#45; | &#45;</text>
</g>
<!-- 7&#45;&#45;8 -->
<g id="edge10" class="edge">
<title>7&#45;&#45;8</title>
<path fill="none" stroke="#000000" stroke-dasharray="5,2" d="M131.975,-67.7256C125.8363,-65.6078 119.3586,-63.373 113.2183,-61.2547"/>
<text text-anchor="middle" x="123.8467" y="-53.2902" font-family="Times,serif" font-size="14.00" fill="#000000">&#45;</text>
</g>
</g>
</svg>
