<?xml version="1.0" encoding="UTF-8" standalone="no"?>
<!DOCTYPE svg PUBLIC "-//W3C//DTD SVG 1.1//EN"
 "http://www.w3.org/Graphics/SVG/1.1/DTD/svg11.dtd">
<!-- Generated by graphviz version 2.40.1 (20161225.0304)
 -->
<!-- Title: G Pages: 1 -->
<svg width="238pt" height="233pt"
 viewBox="0.00 0.00 238.31 232.98" xmlns="http://www.w3.org/2000/svg" xmlns:xlink="http://www.w3.org/1999/xlink">
<g id="graph0" class="graph" transform="scale(1 1) rotate(0) translate(4 228.9781)">
<title>G</title>
<polygon fill="#ffffff" stroke="transparent" points="-4,4 -4,-228.9781 234.3072,-228.9781 234.3072,4 -4,4"/>
<!-- 0 -->
<g id="node1" class="node">
<title>0</title>
<ellipse fill="none" stroke="#000000" cx="88.4418" cy="-107.3048" rx="33.2948" ry="18"/>
<text text-anchor="middle" x="88.4418" y="-103.6048" font-family="Times,serif" font-size="14.00" fill="#000000">C | C</text>
</g>
<!-- 1 -->
<g id="node2" class="node">
<title>1</title>
<ellipse fill="none" stroke="#000000" cx="113.1565" cy="-18" rx="34.394" ry="18"/>
<text text-anchor="middle" x="113.1565" y="-14.3" font-family="Times,serif" font-size="14.00" fill="#000000">O | O</text>
</g>
<!-- 0&#45;&#45;1 -->
<g id="edge1" class="edge">
<title>0&#45;&#45;1</title>
<path fill="none" stroke="#000000" stroke-dasharray="5,2" d="M93.4432,-89.2327C97.7311,-73.7387 103.8768,-51.5315 108.1626,-36.0453"/>
<text text-anchor="middle" x="94.3029" y="-51.439" font-family="Times,serif" font-size="14.00" fill="#000000">=</text>
</g>
<!-- 2 -->
<g id="node3" class="node">
<title>2</title>
<ellipse fill="none" stroke="#000000" cx="128.5863" cy="-77.6074" rx="33.2948" ry="18"/>
<text text-anchor="middle" x="128.5863" y="-73.9074" font-family="Times,serif" font-size="14.00" fill="#000000">C | C</text>
</g>
<!-- 0&#45;&#45;2 -->
<g id="edge2" class="edge">
<title>0&#45;&#45;2</title>
<path fill="none" stroke="#000000" d="M108.514,-92.4561C108.6708,-92.3401 108.8276,-92.2241 108.9844,-92.1081"/>
<text text-anchor="middle" x="120.2492" y="-96.0821" font-family="Times,serif" font-size="14.00" fill="#000000">&#45; | &#45;</text>
</g>
<!-- 3 -->
<g id="node4" class="node">
<title>3</title>
<ellipse fill="none" stroke="#000000" cx="150.0155" cy="-149.3032" rx="34.394" ry="18"/>
<text text-anchor="middle" x="150.0155" y="-145.6032" font-family="Times,serif" font-size="14.00" fill="#000000">O | O</text>
</g>
<!-- 0&#45;&#45;3 -->
<g id="edge3" class="edge">
<title>0&#45;&#45;3</title>
<path fill="none" stroke="#000000" stroke-dasharray="1,5" d="M109.2878,-121.5236C115.5678,-125.807 122.4659,-130.5121 128.7714,-134.813"/>
<text text-anchor="middle" x="121.5296" y="-116.9683" font-family="Times,serif" font-size="14.00" fill="#000000">&#45;</text>
</g>
<!-- 5 -->
<g id="node6" class="node">
<title>5</title>
<ellipse fill="none" stroke="#000000" cx="35.0969" cy="-77.7418" rx="35.194" ry="18"/>
<text text-anchor="middle" x="35.0969" y="-74.0418" font-family="Times,serif" font-size="14.00" fill="#000000">H | H</text>
</g>
<!-- 0&#45;&#45;5 -->
<g id="edge4" class="edge">
<title>0&#45;&#45;5</title>
<path fill="none" stroke="#000000" stroke-dasharray="1,5" d="M65.1991,-94.4241C63.1776,-93.3038 61.1293,-92.1687 59.1018,-91.045"/>
<text text-anchor="middle" x="59.6505" y="-96.5346" font-family="Times,serif" font-size="14.00" fill="#000000">&#45;</text>
</g>
<!-- 1&#45;&#45;2 -->
<g id="edge5" class="edge">
<title>1&#45;&#45;2</title>
<path fill="none" stroke="#000000" stroke-dasharray="1,5" d="M117.786,-35.8842C119.7389,-43.4285 122.0076,-52.1929 123.9601,-59.7359"/>
<text text-anchor="middle" x="114.373" y="-51.61" font-family="Times,serif" font-size="14.00" fill="#000000">=</text>
</g>
<!-- 2&#45;&#45;3 -->
<g id="edge6" class="edge">
<title>2&#45;&#45;3</title>
<path fill="none" stroke="#000000" stroke-dasharray="5,2" d="M133.9937,-95.6993C137.2671,-106.6508 141.4244,-120.5602 144.6839,-131.4655"/>
<text text-anchor="middle" x="136.8388" y="-117.3824" font-family="Times,serif" font-size="14.00" fill="#000000">&#45;</text>
</g>
<!-- 2&#45;&#45;5 -->
<g id="edge7" class="edge">
<title>2&#45;&#45;5</title>
<path fill="none" stroke="#000000" stroke-dasharray="5,2" d="M95.3622,-77.6552C87.2797,-77.6668 78.6072,-77.6793 70.4308,-77.691"/>
<text text-anchor="middle" x="80.3965" y="-66.4731" font-family="Times,serif" font-size="14.00" fill="#000000">&#45;</text>
</g>
<!-- 4 -->
<g id="node5" class="node">
<title>4</title>
<ellipse fill="none" stroke="#000000" cx="195.2103" cy="-206.9781" rx="35.194" ry="18"/>
<text text-anchor="middle" x="195.2103" y="-203.2781" font-family="Times,serif" font-size="14.00" fill="#000000">H | H</text>
</g>
<!-- 3&#45;&#45;4 -->
<g id="edge8" class="edge">
<title>3&#45;&#45;4</title>
<path fill="none" stroke="#000000" d="M163.0877,-165.9852C169.0316,-173.5704 176.0518,-182.5291 182.0109,-190.1338"/>
<text text-anchor="middle" x="184.0493" y="-166.8595" font-family="Times,serif" font-size="14.00" fill="#000000">&#45; | &#45;</text>
</g>
</g>
</svg>
