<?xml version="1.0" encoding="UTF-8" standalone="no"?>
<!DOCTYPE svg PUBLIC "-//W3C//DTD SVG 1.1//EN"
 "http://www.w3.org/Graphics/SVG/1.1/DTD/svg11.dtd">
<!-- Generated by graphviz version 2.40.1 (20161225.0304)
 -->
<!-- Title: G Pages: 1 -->
<svg width="319pt" height="298pt"
 viewBox="0.00 0.00 319.18 298.36" xmlns="http://www.w3.org/2000/svg" xmlns:xlink="http://www.w3.org/1999/xlink">
<g id="graph0" class="graph" transform="scale(1 1) rotate(0) translate(4 294.3558)">
<title>G</title>
<polygon fill="#ffffff" stroke="transparent" points="-4,4 -4,-294.3558 315.1821,-294.3558 315.1821,4 -4,4"/>
<!-- 0 -->
<g id="node1" class="node">
<title>0</title>
<ellipse fill="none" stroke="#000000" cx="107.0757" cy="-190.7786" rx="35.194" ry="18"/>
<text text-anchor="middle" x="107.0757" y="-187.0786" font-family="Times,serif" font-size="14.00" fill="#000000">N | N</text>
</g>
<!-- 1 -->
<g id="node2" class="node">
<title>1</title>
<ellipse fill="none" stroke="#000000" cx="105.2178" cy="-272.3558" rx="28.6953" ry="18"/>
<text text-anchor="middle" x="105.2178" y="-268.6558" font-family="Times,serif" font-size="14.00" fill="#000000">* | *</text>
</g>
<!-- 0&#45;&#45;1 -->
<g id="edge1" class="edge">
<title>0&#45;&#45;1</title>
<path fill="none" stroke="#000000" d="M106.6634,-208.8832C106.3555,-222.402 105.9366,-240.7952 105.629,-254.3018"/>
<text text-anchor="middle" x="94.6462" y="-235.3925" font-family="Times,serif" font-size="14.00" fill="#000000">&#45; | &#45;</text>
</g>
<!-- 2 -->
<g id="node3" class="node">
<title>2</title>
<ellipse fill="none" stroke="#000000" cx="28.5975" cy="-207.714" rx="28.6953" ry="18"/>
<text text-anchor="middle" x="28.5975" y="-204.014" font-family="Times,serif" font-size="14.00" fill="#000000">* | *</text>
</g>
<!-- 0&#45;&#45;2 -->
<g id="edge2" class="edge">
<title>0&#45;&#45;2</title>
<path fill="none" stroke="#000000" d="M74.7025,-197.7647C68.4537,-199.1131 61.965,-200.5134 55.8973,-201.8227"/>
<text text-anchor="middle" x="59.5499" y="-188.5937" font-family="Times,serif" font-size="14.00" fill="#000000">&#45; | &#45;</text>
</g>
<!-- 3 -->
<g id="node4" class="node">
<title>3</title>
<ellipse fill="none" stroke="#000000" cx="83.2857" cy="-110.2451" rx="35.194" ry="18"/>
<text text-anchor="middle" x="83.2857" y="-106.5451" font-family="Times,serif" font-size="14.00" fill="#000000">H | H</text>
</g>
<!-- 0&#45;&#45;3 -->
<g id="edge3" class="edge">
<title>0&#45;&#45;3</title>
<path fill="none" stroke="#000000" stroke-dasharray="5,2" d="M101.796,-172.9056C97.8536,-159.5598 92.4896,-141.4019 88.5507,-128.0681"/>
<text text-anchor="middle" x="92.6734" y="-154.2869" font-family="Times,serif" font-size="14.00" fill="#000000">&#45;</text>
</g>
<!-- 4 -->
<g id="node5" class="node">
<title>4</title>
<ellipse fill="none" stroke="#000000" cx="183.685" cy="-157.2777" rx="33.2948" ry="18"/>
<text text-anchor="middle" x="183.685" y="-153.5777" font-family="Times,serif" font-size="14.00" fill="#000000">C | C</text>
</g>
<!-- 0&#45;&#45;4 -->
<g id="edge4" class="edge">
<title>0&#45;&#45;4</title>
<path fill="none" stroke="#000000" stroke-dasharray="1,5" d="M133.8699,-179.0616C141.6366,-175.6653 150.0993,-171.9646 157.8087,-168.5933"/>
<text text-anchor="middle" x="148.3393" y="-177.6275" font-family="Times,serif" font-size="14.00" fill="#000000">&#45;</text>
</g>
<!-- 6 -->
<g id="node7" class="node">
<title>6</title>
<ellipse fill="none" stroke="#000000" cx="154.5645" cy="-77.4963" rx="34.394" ry="18"/>
<text text-anchor="middle" x="154.5645" y="-73.7963" font-family="Times,serif" font-size="14.00" fill="#000000">O | O</text>
</g>
<!-- 3&#45;&#45;6 -->
<g id="edge5" class="edge">
<title>3&#45;&#45;6</title>
<path fill="none" stroke="#000000" stroke-dasharray="1,5" d="M109.8273,-98.0506C115.8436,-95.2864 122.2307,-92.3519 128.2381,-89.5918"/>
<text text-anchor="middle" x="117.7827" y="-82.6212" font-family="Times,serif" font-size="14.00" fill="#000000">&#45;</text>
</g>
<!-- 5 -->
<g id="node6" class="node">
<title>5</title>
<ellipse fill="none" stroke="#000000" cx="259.6679" cy="-134.3525" rx="33.2948" ry="18"/>
<text text-anchor="middle" x="259.6679" y="-130.6525" font-family="Times,serif" font-size="14.00" fill="#000000">C | C</text>
</g>
<!-- 4&#45;&#45;5 -->
<g id="edge6" class="edge">
<title>4&#45;&#45;5</title>
<path fill="none" stroke="#000000" d="M212.8446,-148.4798C218.6201,-146.7372 224.6837,-144.9077 230.4607,-143.1647"/>
<text text-anchor="middle" x="215.9027" y="-134.6223" font-family="Times,serif" font-size="14.00" fill="#000000">&#45; | &#45;</text>
</g>
<!-- 4&#45;&#45;6 -->
<g id="edge7" class="edge">
<title>4&#45;&#45;6</title>
<path fill="none" stroke="#000000" stroke-dasharray="5,2" d="M177.2222,-139.5716C172.4299,-126.4423 165.9217,-108.6117 161.1099,-95.4287"/>
<text text-anchor="middle" x="162.666" y="-121.3002" font-family="Times,serif" font-size="14.00" fill="#000000">=</text>
</g>
<!-- 9 -->
<g id="node10" class="node">
<title>9</title>
<ellipse fill="none" stroke="#000000" cx="249.629" cy="-200.791" rx="35.194" ry="18"/>
<text text-anchor="middle" x="249.629" y="-197.091" font-family="Times,serif" font-size="14.00" fill="#000000">H | H</text>
</g>
<!-- 4&#45;&#45;9 -->
<g id="edge8" class="edge">
<title>4&#45;&#45;9</title>
<path fill="none" stroke="#000000" stroke-dasharray="1,5" d="M204.913,-171.2851C212.2927,-176.1546 220.5753,-181.6198 227.9879,-186.5111"/>
<text text-anchor="middle" x="218.9505" y="-167.6981" font-family="Times,serif" font-size="14.00" fill="#000000">&#45;</text>
</g>
<!-- 7 -->
<g id="node8" class="node">
<title>7</title>
<ellipse fill="none" stroke="#000000" cx="276.7351" cy="-57.4809" rx="34.394" ry="18"/>
<text text-anchor="middle" x="276.7351" y="-53.7809" font-family="Times,serif" font-size="14.00" fill="#000000">O | O</text>
</g>
<!-- 5&#45;&#45;7 -->
<g id="edge9" class="edge">
<title>5&#45;&#45;7</title>
<path fill="none" stroke="#000000" d="M263.7126,-116.135C266.4333,-103.881 270.0049,-87.7942 272.7195,-75.5676"/>
<text text-anchor="middle" x="252.716" y="-99.6513" font-family="Times,serif" font-size="14.00" fill="#000000">&#45; | =</text>
</g>
<!-- 5&#45;&#45;9 -->
<g id="edge10" class="edge">
<title>5&#45;&#45;9</title>
<path fill="none" stroke="#000000" stroke-dasharray="5,2" d="M256.9247,-152.5071C255.5082,-161.8816 253.7849,-173.2869 252.3689,-182.6583"/>
<text text-anchor="middle" x="252.1468" y="-171.3827" font-family="Times,serif" font-size="14.00" fill="#000000">&#45;</text>
</g>
<!-- 8 -->
<g id="node9" class="node">
<title>8</title>
<ellipse fill="none" stroke="#000000" cx="207.3034" cy="-18" rx="35.194" ry="18"/>
<text text-anchor="middle" x="207.3034" y="-14.3" font-family="Times,serif" font-size="14.00" fill="#000000">H | H</text>
</g>
<!-- 6&#45;&#45;8 -->
<g id="edge11" class="edge">
<title>6&#45;&#45;8</title>
<path fill="none" stroke="#000000" stroke-dasharray="1,5" d="M169.2552,-60.9232C176.5701,-52.6711 185.3874,-42.724 192.6914,-34.4841"/>
<text text-anchor="middle" x="178.4733" y="-51.5037" font-family="Times,serif" font-size="14.00" fill="#000000">&#45;</text>
</g>
<!-- 7&#45;&#45;8 -->
<g id="edge12" class="edge">
<title>7&#45;&#45;8</title>
<path fill="none" stroke="#000000" stroke-dasharray="5,2" d="M253.2287,-44.1145C246.1473,-40.0878 238.3688,-35.6647 231.2586,-31.6216"/>
<text text-anchor="middle" x="239.7437" y="-41.668" font-family="Times,serif" font-size="14.00" fill="#000000">&#45;</text>
</g>
</g>
</svg>
