<?xml version="1.0" encoding="UTF-8" standalone="no"?>
<!DOCTYPE svg PUBLIC "-//W3C//DTD SVG 1.1//EN"
 "http://www.w3.org/Graphics/SVG/1.1/DTD/svg11.dtd">
<!-- Generated by graphviz version 2.40.1 (20161225.0304)
 -->
<!-- Title: G Pages: 1 -->
<svg width="224pt" height="242pt"
 viewBox="0.00 0.00 223.70 242.09" xmlns="http://www.w3.org/2000/svg" xmlns:xlink="http://www.w3.org/1999/xlink">
<g id="graph0" class="graph" transform="scale(1 1) rotate(0) translate(4 238.0947)">
<title>G</title>
<polygon fill="#ffffff" stroke="transparent" points="-4,4 -4,-238.0947 219.697,-238.0947 219.697,4 -4,4"/>
<!-- 0 -->
<g id="node1" class="node">
<title>0</title>
<ellipse fill="none" stroke="#000000" cx="33.1471" cy="-139.8006" rx="33.2948" ry="18"/>
<text text-anchor="middle" x="33.1471" y="-136.1006" font-family="Times,serif" font-size="14.00" fill="#000000">C | C</text>
</g>
<!-- 1 -->
<g id="node2" class="node">
<title>1</title>
<ellipse fill="none" stroke="#000000" cx="47.4711" cy="-216.0947" rx="34.394" ry="18"/>
<text text-anchor="middle" x="47.4711" y="-212.3947" font-family="Times,serif" font-size="14.00" fill="#000000">O | O</text>
</g>
<!-- 0&#45;&#45;1 -->
<g id="edge1" class="edge">
<title>0&#45;&#45;1</title>
<path fill="none" stroke="#000000" d="M36.5417,-157.8812C38.825,-170.0431 41.8226,-186.0091 44.1009,-198.1438"/>
<text text-anchor="middle" x="24.8213" y="-181.8125" font-family="Times,serif" font-size="14.00" fill="#000000">= | &#45;</text>
</g>
<!-- 2 -->
<g id="node3" class="node">
<title>2</title>
<ellipse fill="none" stroke="#000000" cx="99.6758" cy="-91.1808" rx="33.2948" ry="18"/>
<text text-anchor="middle" x="99.6758" y="-87.4808" font-family="Times,serif" font-size="14.00" fill="#000000">C | C</text>
</g>
<!-- 0&#45;&#45;2 -->
<g id="edge2" class="edge">
<title>0&#45;&#45;2</title>
<path fill="none" stroke="#000000" stroke-dasharray="1,5" d="M53.1079,-125.2131C61.5282,-119.0594 71.3102,-111.9106 79.729,-105.7581"/>
<text text-anchor="middle" x="63.9185" y="-104.2856" font-family="Times,serif" font-size="14.00" fill="#000000">&#45;</text>
</g>
<!-- 3 -->
<g id="node4" class="node">
<title>3</title>
<ellipse fill="none" stroke="#000000" cx="111.443" cy="-172.6216" rx="35.194" ry="18"/>
<text text-anchor="middle" x="111.443" y="-168.9216" font-family="Times,serif" font-size="14.00" fill="#000000">H | H</text>
</g>
<!-- 1&#45;&#45;3 -->
<g id="edge3" class="edge">
<title>1&#45;&#45;3</title>
<path fill="none" stroke="#000000" stroke-dasharray="1,5" d="M68.7728,-201.6188C75.606,-196.9752 83.1741,-191.8321 90.0162,-187.1825"/>
<text text-anchor="middle" x="81.8945" y="-198.2006" font-family="Times,serif" font-size="14.00" fill="#000000">&#45;</text>
</g>
<!-- 2&#45;&#45;3 -->
<g id="edge4" class="edge">
<title>2&#45;&#45;3</title>
<path fill="none" stroke="#000000" stroke-dasharray="5,2" d="M102.2873,-109.2552C104.2373,-122.7513 106.8905,-141.1138 108.8388,-154.5978"/>
<text text-anchor="middle" x="103.063" y="-135.7265" font-family="Times,serif" font-size="14.00" fill="#000000">&#45;</text>
</g>
<!-- 4 -->
<g id="node5" class="node">
<title>4</title>
<ellipse fill="none" stroke="#000000" cx="132.1024" cy="-18" rx="28.6953" ry="18"/>
<text text-anchor="middle" x="132.1024" y="-14.3" font-family="Times,serif" font-size="14.00" fill="#000000">* | *</text>
</g>
<!-- 2&#45;&#45;4 -->
<g id="edge5" class="edge">
<title>2&#45;&#45;4</title>
<path fill="none" stroke="#000000" d="M107.5254,-73.4658C112.6236,-61.9599 119.2413,-47.0251 124.3251,-35.5519"/>
<text text-anchor="middle" x="104.4252" y="-58.3088" font-family="Times,serif" font-size="14.00" fill="#000000">&#45; | &#45;</text>
</g>
<!-- 5 -->
<g id="node6" class="node">
<title>5</title>
<ellipse fill="none" stroke="#000000" cx="182.5499" cy="-96.143" rx="33.2948" ry="18"/>
<text text-anchor="middle" x="182.5499" y="-92.443" font-family="Times,serif" font-size="14.00" fill="#000000">C | C</text>
</g>
<!-- 2&#45;&#45;5 -->
<g id="edge6" class="edge">
<title>2&#45;&#45;5</title>
<path fill="none" stroke="#000000" d="M132.9063,-93.1705C138.4002,-93.4995 144.0946,-93.8405 149.5819,-94.169"/>
<text text-anchor="middle" x="141.2441" y="-82.4698" font-family="Times,serif" font-size="14.00" fill="#000000">&#45; | &#45;</text>
</g>
<!-- 6 -->
<g id="node7" class="node">
<title>6</title>
<ellipse fill="none" stroke="#000000" cx="39.6341" cy="-34.1643" rx="33.2948" ry="18"/>
<text text-anchor="middle" x="39.6341" y="-30.4643" font-family="Times,serif" font-size="14.00" fill="#000000">C | C</text>
</g>
<!-- 2&#45;&#45;6 -->
<g id="edge7" class="edge">
<title>2&#45;&#45;6</title>
<path fill="none" stroke="#000000" d="M82.9508,-75.2985C74.6231,-67.3904 64.5848,-57.8578 56.2694,-49.9614"/>
<text text-anchor="middle" x="58.1101" y="-66.43" font-family="Times,serif" font-size="14.00" fill="#000000">&#45; | &#45;</text>
</g>
</g>
</svg>
