<?xml version="1.0" encoding="UTF-8" standalone="no"?>
<!DOCTYPE svg PUBLIC "-//W3C//DTD SVG 1.1//EN"
 "http://www.w3.org/Graphics/SVG/1.1/DTD/svg11.dtd">
<!-- Generated by graphviz version 2.40.1 (20161225.0304)
 -->
<!-- Title: G Pages: 1 -->
<svg width="265pt" height="192pt"
 viewBox="0.00 0.00 264.99 192.18" xmlns="http://www.w3.org/2000/svg" xmlns:xlink="http://www.w3.org/1999/xlink">
<g id="graph0" class="graph" transform="scale(1 1) rotate(0) translate(4 188.1842)">
<title>G</title>
<polygon fill="#ffffff" stroke="transparent" points="-4,4 -4,-188.1842 260.9897,-188.1842 260.9897,4 -4,4"/>
<!-- 0 -->
<g id="node1" class="node">
<title>0</title>
<ellipse fill="none" stroke="#000000" cx="188.0049" cy="-80.5755" rx="33.2948" ry="18"/>
<text text-anchor="middle" x="188.0049" y="-76.8755" font-family="Times,serif" font-size="14.00" fill="#000000">C | C</text>
</g>
<!-- 1 -->
<g id="node2" class="node">
<title>1</title>
<ellipse fill="none" stroke="#000000" cx="222.5428" cy="-150.3625" rx="34.394" ry="18"/>
<text text-anchor="middle" x="222.5428" y="-146.6625" font-family="Times,serif" font-size="14.00" fill="#000000">O | O</text>
</g>
<!-- 0&#45;&#45;1 -->
<g id="edge1" class="edge">
<title>0&#45;&#45;1</title>
<path fill="none" stroke="#000000" d="M196.7202,-98.1857C201.9159,-108.6841 208.4937,-121.9751 213.71,-132.5152"/>
<text text-anchor="middle" x="189.7151" y="-119.1504" font-family="Times,serif" font-size="14.00" fill="#000000">&#45; | =</text>
</g>
<!-- 2 -->
<g id="node3" class="node">
<title>2</title>
<ellipse fill="none" stroke="#000000" cx="108.0642" cy="-94.4835" rx="33.2948" ry="18"/>
<text text-anchor="middle" x="108.0642" y="-90.7835" font-family="Times,serif" font-size="14.00" fill="#000000">C | C</text>
</g>
<!-- 0&#45;&#45;2 -->
<g id="edge2" class="edge">
<title>0&#45;&#45;2</title>
<path fill="none" stroke="#000000" stroke-dasharray="5,2" d="M156.4102,-86.0723C150.9113,-87.029 145.1909,-88.0242 139.6912,-88.9811"/>
<text text-anchor="middle" x="145.5507" y="-91.3267" font-family="Times,serif" font-size="14.00" fill="#000000">&#45;</text>
</g>
<!-- 3 -->
<g id="node4" class="node">
<title>3</title>
<ellipse fill="none" stroke="#000000" cx="146.1512" cy="-166.1842" rx="35.194" ry="18"/>
<text text-anchor="middle" x="146.1512" y="-162.4842" font-family="Times,serif" font-size="14.00" fill="#000000">H | H</text>
</g>
<!-- 1&#45;&#45;3 -->
<g id="edge3" class="edge">
<title>1&#45;&#45;3</title>
<path fill="none" stroke="#000000" stroke-dasharray="5,2" d="M190.1459,-157.0723C186.4047,-157.8472 182.5875,-158.6378 178.8424,-159.4134"/>
<text text-anchor="middle" x="185.7442" y="-147.0429" font-family="Times,serif" font-size="14.00" fill="#000000">&#45;</text>
</g>
<!-- 2&#45;&#45;3 -->
<g id="edge4" class="edge">
<title>2&#45;&#45;3</title>
<path fill="none" stroke="#000000" stroke-dasharray="1,5" d="M117.284,-111.8402C123.2282,-123.0305 130.9309,-137.5311 136.8843,-148.7388"/>
<text text-anchor="middle" x="124.5842" y="-134.0895" font-family="Times,serif" font-size="14.00" fill="#000000">&#45;</text>
</g>
<!-- 4 -->
<g id="node5" class="node">
<title>4</title>
<ellipse fill="none" stroke="#000000" cx="85.2107" cy="-18" rx="28.6953" ry="18"/>
<text text-anchor="middle" x="85.2107" y="-14.3" font-family="Times,serif" font-size="14.00" fill="#000000">* | *</text>
</g>
<!-- 2&#45;&#45;4 -->
<g id="edge5" class="edge">
<title>2&#45;&#45;4</title>
<path fill="none" stroke="#000000" d="M102.6483,-76.3579C98.9788,-64.0775 94.1533,-47.9281 90.509,-35.7316"/>
<text text-anchor="middle" x="85.0786" y="-59.8448" font-family="Times,serif" font-size="14.00" fill="#000000">&#45; | &#45;</text>
</g>
<!-- 5 -->
<g id="node6" class="node">
<title>5</title>
<ellipse fill="none" stroke="#000000" cx="33.1471" cy="-121.634" rx="33.2948" ry="18"/>
<text text-anchor="middle" x="33.1471" y="-117.934" font-family="Times,serif" font-size="14.00" fill="#000000">C | C</text>
</g>
<!-- 2&#45;&#45;5 -->
<g id="edge6" class="edge">
<title>2&#45;&#45;5</title>
<path fill="none" stroke="#000000" d="M80.1678,-104.5933C73.8444,-106.885 67.1313,-109.3178 60.8173,-111.6061"/>
<text text-anchor="middle" x="81.9926" y="-111.8997" font-family="Times,serif" font-size="14.00" fill="#000000">&#45; | &#45;</text>
</g>
</g>
</svg>
