<?xml version="1.0" encoding="UTF-8" standalone="no"?>
<!DOCTYPE svg PUBLIC "-//W3C//DTD SVG 1.1//EN"
 "http://www.w3.org/Graphics/SVG/1.1/DTD/svg11.dtd">
<!-- Generated by graphviz version 2.40.1 (20161225.0304)
 -->
<!-- Title: G Pages: 1 -->
<svg width="229pt" height="264pt"
 viewBox="0.00 0.00 229.33 263.99" xmlns="http://www.w3.org/2000/svg" xmlns:xlink="http://www.w3.org/1999/xlink">
<g id="graph0" class="graph" transform="scale(1 1) rotate(0) translate(4 259.9886)">
<title>G</title>
<polygon fill="#ffffff" stroke="transparent" points="-4,4 -4,-259.9886 225.3266,-259.9886 225.3266,4 -4,4"/>
<!-- 0 -->
<g id="node1" class="node">
<title>0</title>
<ellipse fill="none" stroke="#000000" cx="33.1471" cy="-191.4771" rx="33.2948" ry="18"/>
<text text-anchor="middle" x="33.1471" y="-187.7771" font-family="Times,serif" font-size="14.00" fill="#000000">C | C</text>
</g>
<!-- 1 -->
<g id="node2" class="node">
<title>1</title>
<ellipse fill="none" stroke="#000000" cx="107.4209" cy="-161.0674" rx="33.2948" ry="18"/>
<text text-anchor="middle" x="107.4209" y="-157.3674" font-family="Times,serif" font-size="14.00" fill="#000000">C | C</text>
</g>
<!-- 0&#45;&#45;1 -->
<g id="edge1" class="edge">
<title>0&#45;&#45;1</title>
<path fill="none" stroke="#000000" d="M59.9616,-180.4985C66.7762,-177.7084 74.0945,-174.7121 80.8947,-171.9279"/>
<text text-anchor="middle" x="58.9281" y="-165.0132" font-family="Times,serif" font-size="14.00" fill="#000000">&#45; | &#45;</text>
</g>
<!-- 2 -->
<g id="node3" class="node">
<title>2</title>
<ellipse fill="none" stroke="#000000" cx="186.8797" cy="-139.4801" rx="34.394" ry="18"/>
<text text-anchor="middle" x="186.8797" y="-135.7801" font-family="Times,serif" font-size="14.00" fill="#000000">O | O</text>
</g>
<!-- 1&#45;&#45;2 -->
<g id="edge2" class="edge">
<title>1&#45;&#45;2</title>
<path fill="none" stroke="#000000" d="M137.4608,-152.9061C143.6135,-151.2346 150.0964,-149.4733 156.2689,-147.7964"/>
<text text-anchor="middle" x="139.1149" y="-139.1513" font-family="Times,serif" font-size="14.00" fill="#000000">= | &#45;</text>
</g>
<!-- 3 -->
<g id="node4" class="node">
<title>3</title>
<ellipse fill="none" stroke="#000000" cx="130.0149" cy="-237.9886" rx="33.2948" ry="18"/>
<text text-anchor="middle" x="130.0149" y="-234.2886" font-family="Times,serif" font-size="14.00" fill="#000000">C | C</text>
</g>
<!-- 1&#45;&#45;3 -->
<g id="edge3" class="edge">
<title>1&#45;&#45;3</title>
<path fill="none" stroke="#000000" d="M112.6612,-178.908C116.2852,-191.246 121.0899,-207.6036 124.7247,-219.9782"/>
<text text-anchor="middle" x="107.1929" y="-203.2431" font-family="Times,serif" font-size="14.00" fill="#000000">&#45; | &#45;</text>
</g>
<!-- 5 -->
<g id="node6" class="node">
<title>5</title>
<ellipse fill="none" stroke="#000000" cx="102.3206" cy="-78.9203" rx="33.2948" ry="18"/>
<text text-anchor="middle" x="102.3206" y="-75.2203" font-family="Times,serif" font-size="14.00" fill="#000000">C | C</text>
</g>
<!-- 1&#45;&#45;5 -->
<g id="edge4" class="edge">
<title>1&#45;&#45;5</title>
<path fill="none" stroke="#000000" stroke-dasharray="1,5" d="M106.289,-142.8363C105.4438,-129.2231 104.2938,-110.7013 103.4494,-97.1005"/>
<text text-anchor="middle" x="102.3692" y="-123.7684" font-family="Times,serif" font-size="14.00" fill="#000000">&#45;</text>
</g>
<!-- 4 -->
<g id="node5" class="node">
<title>4</title>
<ellipse fill="none" stroke="#000000" cx="181.1089" cy="-61.4967" rx="35.194" ry="18"/>
<text text-anchor="middle" x="181.1089" y="-57.7967" font-family="Times,serif" font-size="14.00" fill="#000000">H | H</text>
</g>
<!-- 2&#45;&#45;4 -->
<g id="edge5" class="edge">
<title>2&#45;&#45;4</title>
<path fill="none" stroke="#000000" stroke-dasharray="1,5" d="M185.5412,-121.3931C184.6089,-108.7947 183.3707,-92.0625 182.44,-79.4856"/>
<text text-anchor="middle" x="181.4906" y="-104.2394" font-family="Times,serif" font-size="14.00" fill="#000000">&#45;</text>
</g>
<!-- 4&#45;&#45;5 -->
<g id="edge6" class="edge">
<title>4&#45;&#45;5</title>
<path fill="none" stroke="#000000" stroke-dasharray="5,2" d="M148.6078,-68.6842C143.5211,-69.8091 138.2762,-70.9689 133.2266,-72.0856"/>
<text text-anchor="middle" x="138.4172" y="-74.1849" font-family="Times,serif" font-size="14.00" fill="#000000">&#45;</text>
</g>
<!-- 6 -->
<g id="node7" class="node">
<title>6</title>
<ellipse fill="none" stroke="#000000" cx="54.3901" cy="-18" rx="35.194" ry="18"/>
<text text-anchor="middle" x="54.3901" y="-14.3" font-family="Times,serif" font-size="14.00" fill="#000000">N | N</text>
</g>
<!-- 5&#45;&#45;6 -->
<g id="edge7" class="edge">
<title>5&#45;&#45;6</title>
<path fill="none" stroke="#000000" d="M89.2234,-62.2736C82.5712,-53.8186 74.5017,-43.562 67.8052,-35.0507"/>
<text text-anchor="middle" x="59.5143" y="-52.4621" font-family="Times,serif" font-size="14.00" fill="#000000"># | #</text>
</g>
</g>
</svg>
