<?xml version="1.0" encoding="UTF-8" standalone="no"?>
<!DOCTYPE svg PUBLIC "-//W3C//DTD SVG 1.1//EN"
 "http://www.w3.org/Graphics/SVG/1.1/DTD/svg11.dtd">
<!-- Generated by graphviz version 2.40.1 (20161225.0304)
 -->
<!-- Title: G Pages: 1 -->
<svg width="206pt" height="234pt"
 viewBox="0.00 0.00 205.82 233.69" xmlns="http://www.w3.org/2000/svg" xmlns:xlink="http://www.w3.org/1999/xlink">
<g id="graph0" class="graph" transform="scale(1 1) rotate(0) translate(4 229.6898)">
<title>G</title>
<polygon fill="#ffffff" stroke="transparent" points="-4,4 -4,-229.6898 201.8238,-229.6898 201.8238,4 -4,4"/>
<!-- 0 -->
<g id="node1" class="node">
<title>0</title>
<ellipse fill="none" stroke="#000000" cx="68.7923" cy="-18" rx="33.2948" ry="18"/>
<text text-anchor="middle" x="68.7923" y="-14.3" font-family="Times,serif" font-size="14.00" fill="#000000">C | C</text>
</g>
<!-- 1 -->
<g id="node2" class="node">
<title>1</title>
<ellipse fill="none" stroke="#000000" cx="128.1963" cy="-68.5838" rx="33.2948" ry="18"/>
<text text-anchor="middle" x="128.1963" y="-64.8838" font-family="Times,serif" font-size="14.00" fill="#000000">C | C</text>
</g>
<!-- 0&#45;&#45;1 -->
<g id="edge1" class="edge">
<title>0&#45;&#45;1</title>
<path fill="none" stroke="#000000" d="M86.6154,-33.1768C93.9973,-39.4627 102.5512,-46.7465 109.9745,-53.0676"/>
<text text-anchor="middle" x="79.2949" y="-46.9222" font-family="Times,serif" font-size="14.00" fill="#000000">= | #</text>
</g>
<!-- 2 -->
<g id="node3" class="node">
<title>2</title>
<ellipse fill="none" stroke="#000000" cx="35.0969" cy="-88.1812" rx="35.194" ry="18"/>
<text text-anchor="middle" x="35.0969" y="-84.4812" font-family="Times,serif" font-size="14.00" fill="#000000">H | H</text>
</g>
<!-- 0&#45;&#45;2 -->
<g id="edge2" class="edge">
<title>0&#45;&#45;2</title>
<path fill="none" stroke="#000000" stroke-dasharray="5,2" d="M60.2895,-35.7097C55.2205,-46.2674 48.8032,-59.6334 43.7141,-70.2331"/>
<text text-anchor="middle" x="49.5018" y="-56.7714" font-family="Times,serif" font-size="14.00" fill="#000000">&#45;</text>
</g>
<!-- 3 -->
<g id="node4" class="node">
<title>3</title>
<ellipse fill="none" stroke="#000000" cx="95.1523" cy="-142.7287" rx="35.194" ry="18"/>
<text text-anchor="middle" x="95.1523" y="-139.0287" font-family="Times,serif" font-size="14.00" fill="#000000">N | N</text>
</g>
<!-- 1&#45;&#45;3 -->
<g id="edge3" class="edge">
<title>1&#45;&#45;3</title>
<path fill="none" stroke="#000000" stroke-dasharray="5,2" d="M120.3653,-86.1551C115.136,-97.8888 108.2829,-113.266 103.0416,-125.0266"/>
<text text-anchor="middle" x="109.2035" y="-109.3909" font-family="Times,serif" font-size="14.00" fill="#000000">&#45;</text>
</g>
<!-- 2&#45;&#45;3 -->
<g id="edge4" class="edge">
<title>2&#45;&#45;3</title>
<path fill="none" stroke="#000000" stroke-dasharray="1,5" d="M52.4674,-103.9586C60.3658,-111.1326 69.6942,-119.6055 77.6128,-126.7978"/>
<text text-anchor="middle" x="62.5401" y="-119.1782" font-family="Times,serif" font-size="14.00" fill="#000000">&#45;</text>
</g>
<!-- 4 -->
<g id="node5" class="node">
<title>4</title>
<ellipse fill="none" stroke="#000000" cx="162.7269" cy="-185.0044" rx="35.194" ry="18"/>
<text text-anchor="middle" x="162.7269" y="-181.3044" font-family="Times,serif" font-size="14.00" fill="#000000">H | H</text>
</g>
<!-- 3&#45;&#45;4 -->
<g id="edge5" class="edge">
<title>3&#45;&#45;4</title>
<path fill="none" stroke="#000000" d="M117.6537,-156.8059C124.8717,-161.3216 132.866,-166.323 140.0934,-170.8446"/>
<text text-anchor="middle" x="117.3736" y="-167.6252" font-family="Times,serif" font-size="14.00" fill="#000000">&#45; | &#45;</text>
</g>
<!-- 5 -->
<g id="node6" class="node">
<title>5</title>
<ellipse fill="none" stroke="#000000" cx="48.7124" cy="-207.6898" rx="35.194" ry="18"/>
<text text-anchor="middle" x="48.7124" y="-203.9898" font-family="Times,serif" font-size="14.00" fill="#000000">H | H</text>
</g>
<!-- 3&#45;&#45;5 -->
<g id="edge6" class="edge">
<title>3&#45;&#45;5</title>
<path fill="none" stroke="#000000" d="M82.9508,-159.7965C76.1786,-169.2696 67.7786,-181.0197 60.9937,-190.5105"/>
<text text-anchor="middle" x="60.4722" y="-163.9535" font-family="Times,serif" font-size="14.00" fill="#000000">&#45; | &#45;</text>
</g>
</g>
</svg>
