<?xml version="1.0" encoding="UTF-8" standalone="no"?>
<!DOCTYPE svg PUBLIC "-//W3C//DTD SVG 1.1//EN"
 "http://www.w3.org/Graphics/SVG/1.1/DTD/svg11.dtd">
<!-- Generated by graphviz version 2.40.1 (20161225.0304)
 -->
<!-- Title: G Pages: 1 -->
<svg width="265pt" height="322pt"
 viewBox="0.00 0.00 264.53 322.11" xmlns="http://www.w3.org/2000/svg" xmlns:xlink="http://www.w3.org/1999/xlink">
<g id="graph0" class="graph" transform="scale(1 1) rotate(0) translate(4 318.1074)">
<title>G</title>
<polygon fill="#ffffff" stroke="transparent" points="-4,4 -4,-318.1074 260.531,-318.1074 260.531,4 -4,4"/>
<!-- 0 -->
<g id="node1" class="node">
<title>0</title>
<ellipse fill="none" stroke="#000000" cx="123.5479" cy="-79.8604" rx="35.194" ry="18"/>
<text text-anchor="middle" x="123.5479" y="-76.1604" font-family="Times,serif" font-size="14.00" fill="#000000">N | N</text>
</g>
<!-- 1 -->
<g id="node2" class="node">
<title>1</title>
<ellipse fill="none" stroke="#000000" cx="122.4256" cy="-155.8117" rx="33.2948" ry="18"/>
<text text-anchor="middle" x="122.4256" y="-152.1117" font-family="Times,serif" font-size="14.00" fill="#000000">C | C</text>
</g>
<!-- 0&#45;&#45;1 -->
<g id="edge1" class="edge">
<title>0&#45;&#45;1</title>
<path fill="none" stroke="#000000" d="M123.2762,-98.2461C123.0998,-110.1875 122.8707,-125.6877 122.6948,-137.5953"/>
<text text-anchor="middle" x="138.4855" y="-121.7207" font-family="Times,serif" font-size="14.00" fill="#000000">&#45; | #</text>
</g>
<!-- 6 -->
<g id="node7" class="node">
<title>6</title>
<ellipse fill="none" stroke="#000000" cx="35.0969" cy="-48.8344" rx="35.194" ry="18"/>
<text text-anchor="middle" x="35.0969" y="-45.1344" font-family="Times,serif" font-size="14.00" fill="#000000">H | H</text>
</g>
<!-- 0&#45;&#45;6 -->
<g id="edge2" class="edge">
<title>0&#45;&#45;6</title>
<path fill="none" stroke="#000000" stroke-dasharray="5,2" d="M94.095,-69.5292C84.4461,-66.1446 73.7372,-62.3883 64.1203,-59.0149"/>
<text text-anchor="middle" x="76.6076" y="-68.0721" font-family="Times,serif" font-size="14.00" fill="#000000">&#45;</text>
</g>
<!-- 7 -->
<g id="node8" class="node">
<title>7</title>
<ellipse fill="none" stroke="#000000" cx="122.9847" cy="-18" rx="35.194" ry="18"/>
<text text-anchor="middle" x="122.9847" y="-14.3" font-family="Times,serif" font-size="14.00" fill="#000000">H | H</text>
</g>
<!-- 0&#45;&#45;7 -->
<g id="edge3" class="edge">
<title>0&#45;&#45;7</title>
<path fill="none" stroke="#000000" stroke-dasharray="5,2" d="M123.3819,-61.6348C123.3093,-53.6516 123.2241,-44.3018 123.1514,-36.3091"/>
<text text-anchor="middle" x="120.7667" y="-52.7719" font-family="Times,serif" font-size="14.00" fill="#000000">&#45;</text>
</g>
<!-- 2 -->
<g id="node3" class="node">
<title>2</title>
<ellipse fill="none" stroke="#000000" cx="146.804" cy="-229.8222" rx="35.194" ry="18"/>
<text text-anchor="middle" x="146.804" y="-226.1222" font-family="Times,serif" font-size="14.00" fill="#000000">N | N</text>
</g>
<!-- 1&#45;&#45;2 -->
<g id="edge4" class="edge">
<title>1&#45;&#45;2</title>
<path fill="none" stroke="#000000" d="M128.327,-173.7276C132.1598,-185.3639 137.135,-200.468 140.957,-212.0713"/>
<text text-anchor="middle" x="123.142" y="-196.6994" font-family="Times,serif" font-size="14.00" fill="#000000">&#45; | &#45;</text>
</g>
<!-- 5 -->
<g id="node6" class="node">
<title>5</title>
<ellipse fill="none" stroke="#000000" cx="73.2825" cy="-97.6131" rx="34.394" ry="18"/>
<text text-anchor="middle" x="73.2825" y="-93.9131" font-family="Times,serif" font-size="14.00" fill="#000000">O | O</text>
</g>
<!-- 1&#45;&#45;5 -->
<g id="edge5" class="edge">
<title>1&#45;&#45;5</title>
<path fill="none" stroke="#000000" stroke-dasharray="5,2" d="M108.4746,-139.29C101.8912,-131.4935 94.0483,-122.2054 87.439,-114.3782"/>
<text text-anchor="middle" x="91.4568" y="-130.6341" font-family="Times,serif" font-size="14.00" fill="#000000">=</text>
</g>
<!-- 3 -->
<g id="node4" class="node">
<title>3</title>
<ellipse fill="none" stroke="#000000" cx="103.317" cy="-296.1074" rx="35.194" ry="18"/>
<text text-anchor="middle" x="103.317" y="-292.4074" font-family="Times,serif" font-size="14.00" fill="#000000">H | H</text>
</g>
<!-- 2&#45;&#45;3 -->
<g id="edge6" class="edge">
<title>2&#45;&#45;3</title>
<path fill="none" stroke="#000000" d="M135.605,-246.8922C129.1626,-256.7122 121.0906,-269.016 114.6292,-278.8648"/>
<text text-anchor="middle" x="113.6171" y="-266.6785" font-family="Times,serif" font-size="14.00" fill="#000000">&#45; | &#45;</text>
</g>
<!-- 4 -->
<g id="node5" class="node">
<title>4</title>
<ellipse fill="none" stroke="#000000" cx="221.4342" cy="-256.4788" rx="35.194" ry="18"/>
<text text-anchor="middle" x="221.4342" y="-252.7788" font-family="Times,serif" font-size="14.00" fill="#000000">H | H</text>
</g>
<!-- 2&#45;&#45;4 -->
<g id="edge7" class="edge">
<title>2&#45;&#45;4</title>
<path fill="none" stroke="#000000" d="M175.8716,-240.2047C181.2741,-242.1343 186.9193,-244.1507 192.323,-246.0808"/>
<text text-anchor="middle" x="172.5973" y="-246.9427" font-family="Times,serif" font-size="14.00" fill="#000000">&#45; | &#45;</text>
</g>
<!-- 5&#45;&#45;6 -->
<g id="edge8" class="edge">
<title>5&#45;&#45;6</title>
<path fill="none" stroke="#000000" stroke-dasharray="1,5" d="M60.1412,-80.8262C56.3442,-75.9759 52.1983,-70.6799 48.3921,-65.8178"/>
<text text-anchor="middle" x="51.7666" y="-62.122" font-family="Times,serif" font-size="14.00" fill="#000000">&#45;</text>
</g>
<!-- 5&#45;&#45;7 -->
<g id="edge9" class="edge">
<title>5&#45;&#45;7</title>
<path fill="none" stroke="#000000" stroke-dasharray="1,5" d="M84.0671,-80.3382C92.4038,-66.9845 103.8897,-48.5864 112.2211,-35.2411"/>
<text text-anchor="middle" x="95.6441" y="-46.5897" font-family="Times,serif" font-size="14.00" fill="#000000">&#45;</text>
</g>
</g>
</svg>
