<?xml version="1.0" encoding="UTF-8" standalone="no"?>
<!DOCTYPE svg PUBLIC "-//W3C//DTD SVG 1.1//EN"
 "http://www.w3.org/Graphics/SVG/1.1/DTD/svg11.dtd">
<!-- Generated by graphviz version 2.40.1 (20161225.0304)
 -->
<!-- Title: G Pages: 1 -->
<svg width="376pt" height="307pt"
 viewBox="0.00 0.00 375.91 307.18" xmlns="http://www.w3.org/2000/svg" xmlns:xlink="http://www.w3.org/1999/xlink">
<g id="graph0" class="graph" transform="scale(1 1) rotate(0) translate(4 303.1832)">
<title>G</title>
<polygon fill="#ffffff" stroke="transparent" points="-4,4 -4,-303.1832 371.9117,-303.1832 371.9117,4 -4,4"/>
<!-- 0 -->
<g id="node1" class="node">
<title>0</title>
<ellipse fill="none" stroke="#000000" cx="173.8165" cy="-179.2172" rx="33.2948" ry="18"/>
<text text-anchor="middle" x="173.8165" y="-175.5172" font-family="Times,serif" font-size="14.00" fill="#000000">C | C</text>
</g>
<!-- 1 -->
<g id="node2" class="node">
<title>1</title>
<ellipse fill="none" stroke="#000000" cx="258.5385" cy="-193.2613" rx="35.194" ry="18"/>
<text text-anchor="middle" x="258.5385" y="-189.5613" font-family="Times,serif" font-size="14.00" fill="#000000">N | N</text>
</g>
<!-- 0&#45;&#45;1 -->
<g id="edge1" class="edge">
<title>0&#45;&#45;1</title>
<path fill="none" stroke="#000000" stroke-dasharray="5,2" d="M205.8463,-184.5266C212.1254,-185.5675 218.727,-186.6618 225.0523,-187.7104"/>
<text text-anchor="middle" x="212.9493" y="-189.9185" font-family="Times,serif" font-size="14.00" fill="#000000">&#45;</text>
</g>
<!-- 4 -->
<g id="node5" class="node">
<title>4</title>
<ellipse fill="none" stroke="#000000" cx="138.8599" cy="-254.2555" rx="35.194" ry="18"/>
<text text-anchor="middle" x="138.8599" y="-250.5555" font-family="Times,serif" font-size="14.00" fill="#000000">N | N</text>
</g>
<!-- 0&#45;&#45;4 -->
<g id="edge2" class="edge">
<title>0&#45;&#45;4</title>
<path fill="none" stroke="#000000" d="M165.5323,-197.0002C159.9599,-208.9619 152.6446,-224.6651 147.0847,-236.6001"/>
<text text-anchor="middle" x="137.3085" y="-220.6001" font-family="Times,serif" font-size="14.00" fill="#000000">= | =</text>
</g>
<!-- 7 -->
<g id="node8" class="node">
<title>7</title>
<ellipse fill="none" stroke="#000000" cx="92.6497" cy="-167.4015" rx="28.6953" ry="18"/>
<text text-anchor="middle" x="92.6497" y="-163.7015" font-family="Times,serif" font-size="14.00" fill="#000000">* | *</text>
</g>
<!-- 0&#45;&#45;7 -->
<g id="edge3" class="edge">
<title>0&#45;&#45;7</title>
<path fill="none" stroke="#000000" d="M141.7372,-174.5473C134.736,-173.5281 127.3812,-172.4574 120.5578,-171.4641"/>
<text text-anchor="middle" x="131.1475" y="-161.8057" font-family="Times,serif" font-size="14.00" fill="#000000">* | *</text>
</g>
<!-- 9 -->
<g id="node10" class="node">
<title>9</title>
<ellipse fill="none" stroke="#000000" cx="188.9756" cy="-95.5895" rx="34.394" ry="18"/>
<text text-anchor="middle" x="188.9756" y="-91.8895" font-family="Times,serif" font-size="14.00" fill="#000000">O | O</text>
</g>
<!-- 0&#45;&#45;9 -->
<g id="edge4" class="edge">
<title>0&#45;&#45;9</title>
<path fill="none" stroke="#000000" stroke-dasharray="1,5" d="M177.1058,-161.0712C179.6485,-147.044 183.1517,-127.7183 185.6928,-113.7001"/>
<text text-anchor="middle" x="178.8993" y="-141.1856" font-family="Times,serif" font-size="14.00" fill="#000000">&#45;</text>
</g>
<!-- 2 -->
<g id="node3" class="node">
<title>2</title>
<ellipse fill="none" stroke="#000000" cx="339.3142" cy="-187.924" rx="28.6953" ry="18"/>
<text text-anchor="middle" x="339.3142" y="-184.224" font-family="Times,serif" font-size="14.00" fill="#000000">* | *</text>
</g>
<!-- 1&#45;&#45;2 -->
<g id="edge5" class="edge">
<title>1&#45;&#45;2</title>
<path fill="none" stroke="#000000" d="M293.7329,-190.9358C299.3448,-190.565 305.0928,-190.1852 310.5336,-189.8257"/>
<text text-anchor="middle" x="302.1333" y="-179.1807" font-family="Times,serif" font-size="14.00" fill="#000000">&#45; | &#45;</text>
</g>
<!-- 3 -->
<g id="node4" class="node">
<title>3</title>
<ellipse fill="none" stroke="#000000" cx="293.0637" cy="-267.5188" rx="28.6953" ry="18"/>
<text text-anchor="middle" x="293.0637" y="-263.8188" font-family="Times,serif" font-size="14.00" fill="#000000">* | *</text>
</g>
<!-- 1&#45;&#45;3 -->
<g id="edge6" class="edge">
<title>1&#45;&#45;3</title>
<path fill="none" stroke="#000000" d="M266.7205,-210.8593C272.2241,-222.6965 279.4492,-238.2363 284.9404,-250.0471"/>
<text text-anchor="middle" x="264.3305" y="-234.2532" font-family="Times,serif" font-size="14.00" fill="#000000">&#45; | &#45;</text>
</g>
<!-- 8 -->
<g id="node9" class="node">
<title>8</title>
<ellipse fill="none" stroke="#000000" cx="267.749" cy="-110.3278" rx="35.194" ry="18"/>
<text text-anchor="middle" x="267.749" y="-106.6278" font-family="Times,serif" font-size="14.00" fill="#000000">H | H</text>
</g>
<!-- 1&#45;&#45;8 -->
<g id="edge7" class="edge">
<title>1&#45;&#45;8</title>
<path fill="none" stroke="#000000" stroke-dasharray="1,5" d="M260.5371,-175.2659C262.0714,-161.4505 264.1813,-142.4522 265.7225,-128.5744"/>
<text text-anchor="middle" x="260.6298" y="-155.7202" font-family="Times,serif" font-size="14.00" fill="#000000">&#45;</text>
</g>
<!-- 5 -->
<g id="node6" class="node">
<title>5</title>
<ellipse fill="none" stroke="#000000" cx="64.1001" cy="-281.1832" rx="28.6953" ry="18"/>
<text text-anchor="middle" x="64.1001" y="-277.4832" font-family="Times,serif" font-size="14.00" fill="#000000">* | *</text>
</g>
<!-- 4&#45;&#45;5 -->
<g id="edge8" class="edge">
<title>4&#45;&#45;5</title>
<path fill="none" stroke="#000000" d="M109.7417,-264.7435C103.018,-267.1654 95.9188,-269.7224 89.3745,-272.0796"/>
<text text-anchor="middle" x="113.5581" y="-272.2116" font-family="Times,serif" font-size="14.00" fill="#000000">* | *</text>
</g>
<!-- 6 -->
<g id="node7" class="node">
<title>6</title>
<ellipse fill="none" stroke="#000000" cx="28.5975" cy="-214.034" rx="28.6953" ry="18"/>
<text text-anchor="middle" x="28.5975" y="-210.334" font-family="Times,serif" font-size="14.00" fill="#000000">* | *</text>
</g>
<!-- 5&#45;&#45;6 -->
<g id="edge9" class="edge">
<title>5&#45;&#45;6</title>
<path fill="none" stroke="#000000" d="M54.9573,-263.8906C49.6977,-253.9427 43.1078,-241.4785 37.8327,-231.5014"/>
<text text-anchor="middle" x="32.395" y="-251.496" font-family="Times,serif" font-size="14.00" fill="#000000">* | *</text>
</g>
<!-- 6&#45;&#45;7 -->
<g id="edge10" class="edge">
<title>6&#45;&#45;7</title>
<path fill="none" stroke="#000000" d="M47.4688,-200.2949C55.7348,-194.2769 65.416,-187.2286 73.6919,-181.2035"/>
<text text-anchor="middle" x="46.5803" y="-179.5492" font-family="Times,serif" font-size="14.00" fill="#000000">* | *</text>
</g>
<!-- 8&#45;&#45;9 -->
<g id="edge11" class="edge">
<title>8&#45;&#45;9</title>
<path fill="none" stroke="#000000" stroke-dasharray="5,2" d="M234.342,-104.0774C230.0648,-103.2772 225.6913,-102.4589 221.4297,-101.6616"/>
<text text-anchor="middle" x="230.3858" y="-106.6695" font-family="Times,serif" font-size="14.00" fill="#000000">&#45;</text>
</g>
<!-- 10 -->
<g id="node11" class="node">
<title>10</title>
<ellipse fill="none" stroke="#000000" cx="172.7107" cy="-18" rx="35.194" ry="18"/>
<text text-anchor="middle" x="172.7107" y="-14.3" font-family="Times,serif" font-size="14.00" fill="#000000">H | H</text>
</g>
<!-- 9&#45;&#45;10 -->
<g id="edge12" class="edge">
<title>9&#45;&#45;10</title>
<path fill="none" stroke="#000000" d="M185.2033,-77.5939C182.5756,-65.0591 179.0858,-48.4114 176.4626,-35.898"/>
<text text-anchor="middle" x="169.3329" y="-60.546" font-family="Times,serif" font-size="14.00" fill="#000000">&#45; | &#45;</text>
</g>
</g>
</svg>
