<?xml version="1.0" encoding="UTF-8" standalone="no"?>
<!DOCTYPE svg PUBLIC "-//W3C//DTD SVG 1.1//EN"
 "http://www.w3.org/Graphics/SVG/1.1/DTD/svg11.dtd">
<!-- Generated by graphviz version 2.40.1 (20161225.0304)
 -->
<!-- Title: G Pages: 1 -->
<svg width="328pt" height="307pt"
 viewBox="0.00 0.00 327.62 306.67" xmlns="http://www.w3.org/2000/svg" xmlns:xlink="http://www.w3.org/1999/xlink">
<g id="graph0" class="graph" transform="scale(1 1) rotate(0) translate(4 302.6727)">
<title>G</title>
<polygon fill="#ffffff" stroke="transparent" points="-4,4 -4,-302.6727 323.6207,-302.6727 323.6207,4 -4,4"/>
<!-- 0 -->
<g id="node1" class="node">
<title>0</title>
<ellipse fill="none" stroke="#000000" cx="215.5939" cy="-62.0196" rx="35.194" ry="18"/>
<text text-anchor="middle" x="215.5939" y="-58.3196" font-family="Times,serif" font-size="14.00" fill="#000000">N | N</text>
</g>
<!-- 1 -->
<g id="node2" class="node">
<title>1</title>
<ellipse fill="none" stroke="#000000" cx="177.5495" cy="-134.4693" rx="33.2948" ry="18"/>
<text text-anchor="middle" x="177.5495" y="-130.7693" font-family="Times,serif" font-size="14.00" fill="#000000">C | C</text>
</g>
<!-- 0&#45;&#45;1 -->
<g id="edge1" class="edge">
<title>0&#45;&#45;1</title>
<path fill="none" stroke="#000000" d="M206.3844,-79.5577C200.4029,-90.9486 192.6387,-105.7342 186.6742,-117.0928"/>
<text text-anchor="middle" x="177.5293" y="-102.1252" font-family="Times,serif" font-size="14.00" fill="#000000"># | =</text>
</g>
<!-- 7 -->
<g id="node8" class="node">
<title>7</title>
<ellipse fill="none" stroke="#000000" cx="149.7777" cy="-18" rx="35.194" ry="18"/>
<text text-anchor="middle" x="149.7777" y="-14.3" font-family="Times,serif" font-size="14.00" fill="#000000">H | H</text>
</g>
<!-- 0&#45;&#45;7 -->
<g id="edge2" class="edge">
<title>0&#45;&#45;7</title>
<path fill="none" stroke="#000000" stroke-dasharray="1,5" d="M194.0432,-47.606C186.6952,-42.6914 178.4861,-37.201 171.152,-32.2957"/>
<text text-anchor="middle" x="180.0976" y="-43.7508" font-family="Times,serif" font-size="14.00" fill="#000000">&#45;</text>
</g>
<!-- 2 -->
<g id="node3" class="node">
<title>2</title>
<ellipse fill="none" stroke="#000000" cx="208.4225" cy="-208.7465" rx="35.194" ry="18"/>
<text text-anchor="middle" x="208.4225" y="-205.0465" font-family="Times,serif" font-size="14.00" fill="#000000">N | N</text>
</g>
<!-- 1&#45;&#45;2 -->
<g id="edge3" class="edge">
<title>1&#45;&#45;2</title>
<path fill="none" stroke="#000000" d="M184.866,-152.072C189.7517,-163.8265 196.1546,-179.2312 201.0515,-191.0128"/>
<text text-anchor="middle" x="181.4588" y="-175.3424" font-family="Times,serif" font-size="14.00" fill="#000000">&#45; | &#45;</text>
</g>
<!-- 6 -->
<g id="node7" class="node">
<title>6</title>
<ellipse fill="none" stroke="#000000" cx="110.4571" cy="-89.15" rx="32.4942" ry="18"/>
<text text-anchor="middle" x="110.4571" y="-85.45" font-family="Times,serif" font-size="14.00" fill="#000000">S | S</text>
</g>
<!-- 1&#45;&#45;6 -->
<g id="edge4" class="edge">
<title>1&#45;&#45;6</title>
<path fill="none" stroke="#000000" stroke-dasharray="1,5" d="M156.6888,-120.3784C148.5338,-114.8699 139.2059,-108.5691 131.0745,-103.0765"/>
<text text-anchor="middle" x="141.3816" y="-115.5275" font-family="Times,serif" font-size="14.00" fill="#000000">&#45;</text>
</g>
<!-- 3 -->
<g id="node4" class="node">
<title>3</title>
<ellipse fill="none" stroke="#000000" cx="175.2218" cy="-280.6727" rx="35.194" ry="18"/>
<text text-anchor="middle" x="175.2218" y="-276.9727" font-family="Times,serif" font-size="14.00" fill="#000000">H | H</text>
</g>
<!-- 2&#45;&#45;3 -->
<g id="edge5" class="edge">
<title>2&#45;&#45;3</title>
<path fill="none" stroke="#000000" d="M200.2156,-226.526C195.0693,-237.6749 188.4626,-251.9878 183.3343,-263.0977"/>
<text text-anchor="middle" x="180.2749" y="-248.6118" font-family="Times,serif" font-size="14.00" fill="#000000">&#45; | &#45;</text>
</g>
<!-- 4 -->
<g id="node5" class="node">
<title>4</title>
<ellipse fill="none" stroke="#000000" cx="284.5238" cy="-231.483" rx="35.194" ry="18"/>
<text text-anchor="middle" x="284.5238" y="-227.783" font-family="Times,serif" font-size="14.00" fill="#000000">H | H</text>
</g>
<!-- 2&#45;&#45;4 -->
<g id="edge6" class="edge">
<title>2&#45;&#45;4</title>
<path fill="none" stroke="#000000" d="M238.9373,-217.8633C243.8995,-219.3458 249.0398,-220.8815 254.0021,-222.3641"/>
<text text-anchor="middle" x="234.9697" y="-223.9137" font-family="Times,serif" font-size="14.00" fill="#000000">&#45; | &#45;</text>
</g>
<!-- 5 -->
<g id="node6" class="node">
<title>5</title>
<ellipse fill="none" stroke="#000000" cx="33.1471" cy="-87.369" rx="33.2948" ry="18"/>
<text text-anchor="middle" x="33.1471" y="-83.669" font-family="Times,serif" font-size="14.00" fill="#000000">C | C</text>
</g>
<!-- 5&#45;&#45;6 -->
<g id="edge7" class="edge">
<title>5&#45;&#45;6</title>
<path fill="none" stroke="#000000" d="M66.3822,-88.1347C70.1473,-88.2214 73.9824,-88.3097 77.7407,-88.3963"/>
<text text-anchor="middle" x="77.8115" y="-77.0655" font-family="Times,serif" font-size="14.00" fill="#000000">&#45; | &#45;</text>
</g>
<!-- 6&#45;&#45;7 -->
<g id="edge8" class="edge">
<title>6&#45;&#45;7</title>
<path fill="none" stroke="#000000" stroke-dasharray="5,2" d="M119.9756,-71.9266C126.0668,-60.9045 133.9467,-46.646 140.0738,-35.5591"/>
<text text-anchor="middle" x="127.5247" y="-57.5428" font-family="Times,serif" font-size="14.00" fill="#000000">&#45;</text>
</g>
</g>
</svg>
