<?xml version="1.0" encoding="UTF-8" standalone="no"?>
<!DOCTYPE svg PUBLIC "-//W3C//DTD SVG 1.1//EN"
 "http://www.w3.org/Graphics/SVG/1.1/DTD/svg11.dtd">
<!-- Generated by graphviz version 2.40.1 (20161225.0304)
 -->
<!-- Title: G Pages: 1 -->
<svg width="231pt" height="271pt"
 viewBox="0.00 0.00 231.31 270.66" xmlns="http://www.w3.org/2000/svg" xmlns:xlink="http://www.w3.org/1999/xlink">
<g id="graph0" class="graph" transform="scale(1 1) rotate(0) translate(4 266.6563)">
<title>G</title>
<polygon fill="#ffffff" stroke="transparent" points="-4,4 -4,-266.6563 227.3057,-266.6563 227.3057,4 -4,4"/>
<!-- 0 -->
<g id="node1" class="node">
<title>0</title>
<ellipse fill="none" stroke="#000000" cx="66.9591" cy="-18" rx="28.6953" ry="18"/>
<text text-anchor="middle" x="66.9591" y="-14.3" font-family="Times,serif" font-size="14.00" fill="#000000">* | *</text>
</g>
<!-- 1 -->
<g id="node2" class="node">
<title>1</title>
<ellipse fill="none" stroke="#000000" cx="108.0562" cy="-83.6949" rx="33.2948" ry="18"/>
<text text-anchor="middle" x="108.0562" y="-79.9949" font-family="Times,serif" font-size="14.00" fill="#000000">C | C</text>
</g>
<!-- 0&#45;&#45;1 -->
<g id="edge1" class="edge">
<title>0&#45;&#45;1</title>
<path fill="none" stroke="#000000" d="M77.5426,-34.9181C83.631,-44.6505 91.2594,-56.8447 97.3657,-66.6058"/>
<text text-anchor="middle" x="75.9542" y="-54.562" font-family="Times,serif" font-size="14.00" fill="#000000">&#45; | &#45;</text>
</g>
<!-- 2 -->
<g id="node3" class="node">
<title>2</title>
<ellipse fill="none" stroke="#000000" cx="188.2088" cy="-73.9444" rx="35.194" ry="18"/>
<text text-anchor="middle" x="188.2088" y="-70.2444" font-family="Times,serif" font-size="14.00" fill="#000000">N | N</text>
</g>
<!-- 1&#45;&#45;2 -->
<g id="edge2" class="edge">
<title>1&#45;&#45;2</title>
<path fill="none" stroke="#000000" d="M140.6573,-79.729C144.9914,-79.2017 149.4465,-78.6598 153.8099,-78.129"/>
<text text-anchor="middle" x="137.7336" y="-67.729" font-family="Times,serif" font-size="14.00" fill="#000000"># | =</text>
</g>
<!-- 4 -->
<g id="node5" class="node">
<title>4</title>
<ellipse fill="none" stroke="#000000" cx="105.4115" cy="-165.9162" rx="35.194" ry="18"/>
<text text-anchor="middle" x="105.4115" y="-162.2162" font-family="Times,serif" font-size="14.00" fill="#000000">N | N</text>
</g>
<!-- 1&#45;&#45;4 -->
<g id="edge3" class="edge">
<title>1&#45;&#45;4</title>
<path fill="none" stroke="#000000" stroke-dasharray="1,5" d="M107.4692,-101.9425C107.0309,-115.5679 106.4346,-134.1064 105.9968,-147.7196"/>
<text text-anchor="middle" x="104.233" y="-128.631" font-family="Times,serif" font-size="14.00" fill="#000000">&#45;</text>
</g>
<!-- 5 -->
<g id="node6" class="node">
<title>5</title>
<ellipse fill="none" stroke="#000000" cx="186.5907" cy="-152.1022" rx="35.194" ry="18"/>
<text text-anchor="middle" x="186.5907" y="-148.4022" font-family="Times,serif" font-size="14.00" fill="#000000">H | H</text>
</g>
<!-- 2&#45;&#45;5 -->
<g id="edge4" class="edge">
<title>2&#45;&#45;5</title>
<path fill="none" stroke="#000000" stroke-dasharray="1,5" d="M187.8335,-92.0718C187.5721,-104.6984 187.2249,-121.4681 186.9639,-134.0731"/>
<text text-anchor="middle" x="184.8987" y="-116.8725" font-family="Times,serif" font-size="14.00" fill="#000000">&#45;</text>
</g>
<!-- 3 -->
<g id="node4" class="node">
<title>3</title>
<ellipse fill="none" stroke="#000000" cx="120.5326" cy="-244.6563" rx="28.6953" ry="18"/>
<text text-anchor="middle" x="120.5326" y="-240.9563" font-family="Times,serif" font-size="14.00" fill="#000000">* | *</text>
</g>
<!-- 3&#45;&#45;4 -->
<g id="edge5" class="edge">
<title>3&#45;&#45;4</title>
<path fill="none" stroke="#000000" d="M117.0255,-226.3938C114.5827,-213.6732 111.3382,-196.7785 108.8995,-184.0796"/>
<text text-anchor="middle" x="101.4625" y="-209.0367" font-family="Times,serif" font-size="14.00" fill="#000000">&#45; | &#45;</text>
</g>
<!-- 4&#45;&#45;5 -->
<g id="edge6" class="edge">
<title>4&#45;&#45;5</title>
<path fill="none" stroke="#000000" stroke-dasharray="5,2" d="M138.8988,-160.2178C143.6158,-159.4151 148.4648,-158.59 153.1802,-157.7876"/>
<text text-anchor="middle" x="143.5395" y="-162.8027" font-family="Times,serif" font-size="14.00" fill="#000000">&#45;</text>
</g>
<!-- 6 -->
<g id="node7" class="node">
<title>6</title>
<ellipse fill="none" stroke="#000000" cx="28.5975" cy="-189.1634" rx="28.6953" ry="18"/>
<text text-anchor="middle" x="28.5975" y="-185.4634" font-family="Times,serif" font-size="14.00" fill="#000000">* | *</text>
</g>
<!-- 4&#45;&#45;6 -->
<g id="edge7" class="edge">
<title>4&#45;&#45;6</title>
<path fill="none" stroke="#000000" d="M75.0525,-175.1041C68.3429,-177.1347 61.2902,-179.2692 54.764,-181.2443"/>
<text text-anchor="middle" x="59.1583" y="-166.9742" font-family="Times,serif" font-size="14.00" fill="#000000">&#45; | &#45;</text>
</g>
</g>
</svg>
